<?xml version="1.0" encoding="utf-8"?>
<!-- Generator: Adobe Illustrator 25.2.3, SVG Export Plug-In . SVG Version: 6.00 Build 0)  -->
<svg version="1.1" id="Layer_2_1_" xmlns="http://www.w3.org/2000/svg" xmlns:xlink="http://www.w3.org/1999/xlink" x="0px" y="0px"
	 viewBox="0 0 520 313.4" style="enable-background:new 0 0 520 313.4;" xml:space="preserve">
<style type="text/css">
	.st0{fill:#FFFFFF;}
	.st1{fill:none;stroke:#FFFFFF;stroke-width:0.5;stroke-linecap:round;stroke-linejoin:round;}
</style>
<path class="st0" d="M20.7,272.7l12.2-62.3l20.1,45l20.3-45l10.9,62.3h-9l-5.9-34.9l-16.9,37.6l-16.7-37.7l-6.1,35L20.7,272.7z"/>
<path class="st0" d="M114,214.8v57.9h-8.9v-57.9H114z"/>
<path class="st0" d="M136.5,272.7v-61.8l42,44v-40.1h8.9v61.5l-42-44v40.5L136.5,272.7z"/>
<path class="st0" d="M218.9,214.8v57.9H210v-57.9H218.9z"/>
<path class="st0" d="M313.2,228.4c-6.4-5.8-12.4-6.4-15.7-6.4c-12.6,0-21.1,9.3-21.1,22.1c0,12.2,8.9,21.7,21.2,21.7
	c7,0,12.3-3.6,15.6-6.7v10.5c-4.8,2.8-10.3,4.3-15.9,4.4c-7.6,0.1-15-2.7-20.5-8c-6.8-6.3-9.3-13.7-9.3-21.9
	c0-10.7,4.4-18.1,9.3-22.7c6-5.6,12.9-7.6,20.9-7.6c5.4-0.2,10.8,1.3,15.5,4.2L313.2,228.4z"/>
<path class="st0" d="M388.5,243.8c0,17-12.8,30-30.1,30s-30.1-13-30.1-30.1s12.8-30.1,30.1-30.1S388.5,226.8,388.5,243.8z
	 M379.6,243.8c0-12.9-8.9-21.9-21.3-21.9s-21.3,9-21.3,21.9c0,12.9,8.9,21.9,21.3,21.9S379.6,256.7,379.6,243.8z"/>
<path class="st0" d="M409.5,214.8l16.2,40.4l16.1-40.4h9.5l-25.7,61.7l-25.7-61.7H409.5z"/>
<path class="st0" d="M499.3,223.1h-23.1v14.7h22.4v8.3h-22.4v18.2h23.1v8.3h-32v-57.9h32L499.3,223.1z"/>
<path class="st0" d="M246.1,175.9h-6.3v4.6h6.1v2.6h-6.1v8.3h-2.8v-18.1h9L246.1,175.9z"/>
<path class="st0" d="M267.4,182.3c0,5.2-4.2,9.4-9.4,9.4c-5.2,0-9.4-4.2-9.4-9.4s4.2-9.4,9.4-9.4c0,0,0,0,0,0
	c5.1-0.1,9.3,3.9,9.4,8.9C267.4,182,267.4,182.2,267.4,182.3z M264.7,182.3c-0.1-3.7-3.2-6.5-6.8-6.4c-3.7,0.1-6.5,3.2-6.4,6.8
	c0.1,3.6,3,6.4,6.6,6.4c3.6,0.1,6.5-2.7,6.6-6.3C264.7,182.7,264.7,182.5,264.7,182.3z"/>
<path class="st0" d="M274.4,173.3c2.2,0,3.6,0.3,4.8,1.1c1.4,1,2.2,2.6,2.1,4.2c0,2.4-1.6,4.5-4,5l5.6,7.7h-3.3l-5.2-7.3h-0.5v7.4
	h-2.8v-18.1H274.4z M273.9,181.6h0.9c0.8,0,3.8-0.1,3.8-2.9c0-2.5-2.4-2.8-3.8-2.8h-1L273.9,181.6z"/>
<line class="st1" x1="314.5" y1="182.4" x2="491" y2="182.4"/>
<line class="st1" x1="29" y1="182.3" x2="205.5" y2="182.3"/>
<path class="st0" d="M207.8,44.3V21.5l15.5,16.2V23h3.3v22.7l-15.5-16.2v14.9H207.8z"/>
<path class="st0" d="M262.7,26.1h-8.5v5.4h8.3v3.1h-8.3v6.7h8.5v3.1h-11.8V23h11.8V26.1z"/>
<path class="st0" d="M287.2,23l5.6,14.3l5.8-15.3l5.6,15.3L310,23h3.5L304,45.7l-5.6-15.1l-5.6,15.1L283.7,23H287.2z"/>
<text transform="matrix(1 0 0 1 702.41 232.51)" class="st0" style="font-family:'FuturaPT-Demi'; font-size:18px; letter-spacing:10;">NEW</text>
<g>
	<path class="st0" d="M26.8,101.3c5.5,0,9,0.7,11.8,3.3c2.3,2.2,3.4,4.9,3.4,8.4c0,1.7-0.3,3.4-1.3,5.1c-1,1.7-2.2,2.5-3.2,2.9
		c0.8,0.2,3.4,0.9,5.5,3.1c2.3,2.4,2.8,5.4,2.8,8c0,3.1-0.8,5.5-2.8,7.7c-3.4,3.6-8.7,4.2-12,4.2H20.4v-42.7H26.8z M26.9,119.7h2
		c1.6,0,3.8-0.2,5.3-1.7c1.5-1.4,1.7-3.4,1.7-4.9c0-1.3-0.2-2.8-1.5-4.1c-1.5-1.4-3.3-1.6-5.2-1.6h-2.2V119.7z M26.9,137.9h4
		c1.9,0,4.8-0.3,6.5-1.7c1.3-1,2.1-2.8,2.1-4.7c0-1.7-0.6-3.4-1.7-4.5c-1.8-1.7-4.4-1.9-6.7-1.9h-4.1V137.9z"/>
	<path class="st0" d="M67.5,101.3v36.5h12.5v6.1H61v-42.7H67.5z"/>
	<path class="st0" d="M118.9,133.7h-18.2L96,144h-7l21.2-45.2l20.2,45.2h-7L118.9,133.7z M116.3,127.6l-6.3-14.5l-6.6,14.5H116.3z"
		/>
	<path class="st0" d="M151.8,101.3c6,0,11.1,0.6,15.9,4.2c5.2,3.9,8.2,10.1,8.2,17.2s-2.9,13.2-8.6,17.2c-5,3.5-9.7,4.1-15.6,4.1
		h-8.8v-42.7H151.8z M149.3,137.9h2.8c3.2,0,7.6-0.3,11.3-3c2.9-2.2,5.8-6.3,5.8-12.2c0-5.6-2.7-10-5.8-12.3
		c-3.7-2.7-8.3-2.9-11.4-2.9h-2.8V137.9z"/>
	<path class="st0" d="M214.5,107.5h-17v10.8H214v6.1h-16.5v13.4h17v6.1H191v-42.7h23.6V107.5z"/>
	<path class="st0" d="M258.4,101.3v36.5h12.5v6.1h-19.1v-42.7H258.4z"/>
	<path class="st0" d="M324.5,122.7c0,12.5-9.4,22.1-22.2,22.1c-12.8,0-22.2-9.6-22.2-22.1s9.4-22.1,22.2-22.1
		C315.1,100.6,324.5,110.2,324.5,122.7z M318,122.7c0-9.5-6.5-16.1-15.7-16.1s-15.7,6.7-15.7,16.1s6.5,16.1,15.7,16.1
		S318,132.2,318,122.7z"/>
	<path class="st0" d="M346.2,101.3v25.7c0,2.3,0.1,5.1,1.3,7.4c1.3,2.2,4.2,4.4,7.9,4.4s6.7-2.2,7.9-4.4c1.3-2.2,1.3-5.1,1.3-7.4
		v-25.7h6.5v27.5c0,3.4-0.7,7.5-4,11.1c-2.2,2.4-6,5-11.8,5s-9.6-2.6-11.8-5c-3.3-3.6-4-7.7-4-11.1v-27.5H346.2z"/>
	<path class="st0" d="M390.7,101.3l11.9,29.8l11.9-29.8h7l-18.9,45.4l-18.9-45.4H390.7z"/>
	<path class="st0" d="M457.4,107.5h-17v10.8h16.5v6.1h-16.5v13.4h17v6.1h-23.6v-42.7h23.6V107.5z"/>
	<path class="st0" d="M480.5,101.3c5.2,0,8.5,0.6,11.3,2.5c4.7,3.1,5.1,8.2,5.1,10c0,6.1-3.8,10.6-9.5,11.9l13.3,18.2h-7.9
		l-12.2-17.5h-1.2V144h-6.5v-42.7H480.5z M479.4,120.9h2c1.8,0,9.1-0.2,9.1-7c0-6-5.7-6.6-8.9-6.6h-2.2V120.9z"/>
</g>
</svg>
