<svg id="Layer_2" data-name="Layer 2" xmlns="http://www.w3.org/2000/svg" viewBox="0 0 520 313.41"><defs><style>.cls-1,.cls-3{fill:#fff;}.cls-2{fill:none;stroke:#fff;stroke-linecap:round;stroke-linejoin:round;stroke-width:0.5px;}.cls-3{font-size:18px;font-family:FuturaPT-Medium, Futura PT;font-weight:500;letter-spacing:0.6em;}</style></defs><path class="cls-1" d="M27.92,99.83c5.56,0,9.06.71,11.91,3.37a11.07,11.07,0,0,1,3.43,8.54A9.48,9.48,0,0,1,42,116.86a7.28,7.28,0,0,1-3.24,3,11.8,11.8,0,0,1,5.57,3.1,11.25,11.25,0,0,1,2.85,8.1,10.54,10.54,0,0,1-2.85,7.77c-3.44,3.62-8.81,4.21-12.11,4.21H21.38V99.83ZM28,118.41h2c1.62,0,3.82-.19,5.37-1.68a6.56,6.56,0,0,0,1.69-4.92,5.35,5.35,0,0,0-1.56-4.15C34,106.24,32.12,106,30.25,106H28Zm0,18.39h4c1.88,0,4.86-.32,6.54-1.68a6.19,6.19,0,0,0,2.14-4.8,6.49,6.49,0,0,0-1.75-4.53c-1.81-1.74-4.46-1.94-6.8-1.94H28Z"/><path class="cls-1" d="M68.5,99.83v37H81.19V143H61.9V99.83Z"/><path class="cls-1" d="M119.9,132.59H101.45L96.72,143H89.6L111.09,97.3,131.55,143h-7.12Zm-2.66-6.21-6.41-14.64-6.67,14.64Z"/><path class="cls-1" d="M152.51,99.83c6,0,11.27.65,16.06,4.21a21.37,21.37,0,0,1,8.29,17.42c0,7.18-3,13.4-8.68,17.41-5.05,3.56-9.77,4.15-15.79,4.15h-8.94V99.83Zm-2.46,37h2.85c3.24,0,7.71-.26,11.47-3a16,16,0,0,0,.06-24.74c-3.76-2.72-8.35-3-11.53-3h-2.85Z"/><path class="cls-1" d="M215.44,106H198.21V117h16.71v6.21H198.21v13.6h17.23V143H191.61V99.83h23.83Z"/><path class="cls-1" d="M258.6,99.83v37h12.7V143H252V99.83Z"/><path class="cls-1" d="M324.9,121.46c0,12.69-9.52,22.4-22.47,22.4S280,134.15,280,121.46s9.52-22.41,22.47-22.41S324.9,108.76,324.9,121.46Zm-6.6,0c0-9.59-6.61-16.32-15.87-16.32s-15.86,6.73-15.86,16.32,6.6,16.31,15.86,16.31S318.3,131,318.3,121.46Z"/><path class="cls-1" d="M346.25,99.83v26c0,2.33.06,5.18,1.36,7.44a9.45,9.45,0,0,0,16.06,0C365,131,365,128.19,365,125.86v-26h6.6v27.78a16,16,0,0,1-4,11.2,16.73,16.73,0,0,1-24,0,16,16,0,0,1-4-11.2V99.83Z"/><path class="cls-1" d="M390.65,99.83l12,30.11,12.05-30.11h7.12l-19.17,46-19.16-46Z"/><path class="cls-1" d="M441.46,99.83c5.25,0,8.62.65,11.4,2.52A12.06,12.06,0,0,1,458,112.52a11.83,11.83,0,0,1-9.59,12L461.86,143h-8l-12.37-17.68h-1.17V143h-6.6V99.83Zm-1.1,19.81h2.08c1.81,0,9.19-.19,9.19-7.06,0-6.08-5.76-6.66-9-6.66h-2.27Z"/><path class="cls-1" d="M498.62,106H481.4V117h16.71v6.21H481.4v13.6h17.22V143H474.8V99.83h23.82Z"/><path class="cls-1" d="M20.73,272.73l12.16-62.27,20.14,45,20.33-45L84.3,272.73h-9l-5.91-34.92L52.51,275.42,35.84,237.73l-6.08,35Z"/><path class="cls-1" d="M114,214.8v57.93h-8.86V214.8Z"/><path class="cls-1" d="M136.54,272.73V210.9l42,44V214.8h8.85v61.49l-42-44v40.47Z"/><path class="cls-1" d="M218.85,214.8v57.93H210V214.8Z"/><path class="cls-1" d="M313.22,228.35c-6.42-5.82-12.41-6.43-15.71-6.43-12.6,0-21.11,9.3-21.11,22.06,0,12.25,8.86,21.71,21.19,21.71,7,0,12.34-3.56,15.63-6.68v10.5a31.52,31.52,0,0,1-15.89,4.35,29,29,0,0,1-20.49-8c-6.78-6.34-9.29-13.72-9.29-21.89,0-10.68,4.43-18.06,9.29-22.67,6-5.64,12.94-7.55,20.93-7.55a27.53,27.53,0,0,1,15.45,4.17Z"/><path class="cls-1" d="M388.5,243.81c0,17-12.76,30.05-30.13,30.05s-30.14-13-30.14-30.05,12.77-30.05,30.14-30.05S388.5,226.79,388.5,243.81Zm-8.86,0c0-12.85-8.86-21.89-21.27-21.89s-21.28,9-21.28,21.89,8.86,21.88,21.28,21.88S379.64,256.66,379.64,243.81Z"/><path class="cls-1" d="M409.49,214.8l16.16,40.39L441.8,214.8h9.55l-25.7,61.66L399.94,214.8Z"/><path class="cls-1" d="M499.27,223.14h-23.1v14.67h22.41v8.34H476.17v18.24h23.1v8.34h-32V214.8h32Z"/><path class="cls-1" d="M246.12,175.89h-6.27v4.57h6.06v2.6h-6.06v8.28h-2.76V173.29h9Z"/><path class="cls-1" d="M267.44,182.33a9.39,9.39,0,1,1-9.39-9.36A9.16,9.16,0,0,1,267.44,182.33Zm-2.76,0a6.63,6.63,0,1,0-6.63,6.82A6.46,6.46,0,0,0,264.68,182.33Z"/><path class="cls-1" d="M274.39,173.29c2.19,0,3.6.27,4.76,1.06a5,5,0,0,1,2.14,4.25,5,5,0,0,1-4,5l5.62,7.71h-3.32L274.42,184h-.49v7.39h-2.76V173.29Zm-.46,8.28h.87c.75,0,3.84-.08,3.84-2.95,0-2.54-2.41-2.78-3.76-2.78h-.95Z"/><line class="cls-2" x1="314.51" y1="182.35" x2="491" y2="182.35"/><line class="cls-2" x1="29" y1="182.31" x2="205.49" y2="182.31"/><path class="cls-1" d="M207.8,44.35V21.54l15.51,16.25V23h3.27V45.67L211.07,29.42V44.35Z"/><path class="cls-1" d="M262.7,26.06h-8.52v5.41h8.27v3.08h-8.27v6.73h8.52v3.07H250.91V23H262.7Z"/><path class="cls-1" d="M287.24,23l5.63,14.29L298.64,22l5.58,15.31L310.05,23h3.52L304,45.73l-5.57-15.15-5.64,15.15L283.71,23Z"/><text class="cls-3" transform="translate(702.41 232.51)">NEW</text></svg>