<svg xmlns="http://www.w3.org/2000/svg" viewBox="0 0 592.66 280.13"><defs><style>.cls-1{fill:#fff;}.cls-2{fill:#ee2330;}.cls-3{fill:none;stroke:#fff;stroke-linecap:round;stroke-linejoin:round;}</style></defs><g id="Layer_2" data-name="Layer 2"><path class="cls-1" d="M64.81,106.55v29.23a6,6,0,0,0,.22,2.1,1.42,1.42,0,0,0,.68.46q1.65.61,6.75.62v.57H50.12V139c1.63,0,3-.05,4.23-.17a9.82,9.82,0,0,0,2.44-.43,1.54,1.54,0,0,0,.85-.62,5.71,5.71,0,0,0,.19-2V106.55a5.21,5.21,0,0,0-.22-2c-.08-.16-.32-.31-.74-.46-1.1-.41-3.34-.62-6.75-.62V103h22.4v.51c-1.63,0-3,0-4.23.17a10.44,10.44,0,0,0-2.52.45l-.57.23Q64.81,104.68,64.81,106.55Z"/><path class="cls-1" d="M111.69,128.3V112.51c0-3.45-.59-5.81-1.76-7.1s-3.29-1.93-6.35-1.93V103h16.1v.51q-4,0-5.61,1.93c-1.06,1.28-1.59,3.65-1.59,7.09v27.26h-1.36L88.61,109.83l-.62-.74c-.11,0-.17.34-.17,1v18.52c0,4.16.56,6.93,1.69,8.29s3.24,2,6.32,2v.57H79.32V139c3,0,5-.6,6.06-1.82S87,133.54,87,130V110.64a7,7,0,0,0-1.7-5,7.89,7.89,0,0,0-6-2.16V103H91.05l19.57,25.51q.72,1,.9,1C111.63,129.44,111.69,129.06,111.69,128.3Z"/><path class="cls-1" d="M153.86,124.34q0,8.22-3.14,12t-9.1,3.74a16.67,16.67,0,0,1-11.4-4.08q-5.55-4.87-5.55-14,0-8.91,5.62-14.57,4.83-4.87,10.34-4.88a10.49,10.49,0,0,1,4.66,1,13,13,0,0,1,4.65,4.08l2.79-5.33H153v16.44l-.45-.29q0-7.27-4-11.69c-2.23-2.44-4.58-3.67-7.05-3.67a7.34,7.34,0,0,0-7.1,4.56q-2.16,4.56-2.16,13.72,0,9,2.33,13.62t7.1,4.61q5.4,0,8.3-3.18,3.47-3.73,3.47-12Z"/><path class="cls-1" d="M164.55,133.12a3.46,3.46,0,1,1,0,6.92,3.41,3.41,0,0,1-2.49-1,3.54,3.54,0,0,1,0-4.93A3.38,3.38,0,0,1,164.55,133.12Z"/><path class="cls-2" d="M221.77,102.34a15.93,15.93,0,0,1-3.6,5.36,7,7,0,0,1-4.79,1.67,24.13,24.13,0,0,1-7.76-1.81L204,120.4a12,12,0,0,1,4-3.58,12.1,12.1,0,0,1,5-.87,8.28,8.28,0,0,1,6.7,3.6,13.78,13.78,0,0,1,2.8,8.7q0,4.08-3.63,7.71A13.72,13.72,0,0,1,208.85,140a9.24,9.24,0,0,1-6.07-2.1A7.2,7.2,0,0,1,200,132.1a4.55,4.55,0,0,1,1-3.23,3.36,3.36,0,0,1,2.52-1.08,2.71,2.71,0,0,1,2.8,1.71,4.9,4.9,0,0,1,.34,1.87,2.21,2.21,0,0,1-.45,1.58,3.3,3.3,0,0,1-2.49,1.31,1.61,1.61,0,0,1-.63-.12,2.09,2.09,0,0,1-.51-.28,3.5,3.5,0,0,0-.11.62,4.42,4.42,0,0,0,1.7,3.29,7.13,7.13,0,0,0,4.9,1.76q3.47,0,5.15-3.75c1-2.24,1.51-5.36,1.51-9.38,0-3.86-.36-6.46-1.09-7.78a3.33,3.33,0,0,0-3-2,7.74,7.74,0,0,0-6.18,3.08,10.14,10.14,0,0,0-2.3,4.8l-.74-.12,2.83-21.88c2.07.83,3.77,1.44,5.08,1.82a20.05,20.05,0,0,0,5.32.85,7.89,7.89,0,0,0,3.25-.6,4.55,4.55,0,0,0,2.12-2.07Z"/><path class="cls-2" d="M242.63,140q-4.69,0-8.22-5c-2.53-3.62-3.8-8.2-3.8-13.71s1.25-10.08,3.75-13.67q3.51-5.1,8.27-5.1t8.28,5q3.79,5.43,3.8,13.72t-3.66,13.52Q247.39,140,242.63,140Zm0-.51c1.51,0,2.65-1.53,3.4-4.59s1.14-7.62,1.14-13.69q0-8.77-.17-10.93c-.38-4.86-1.83-7.3-4.37-7.3-1.47,0-2.59,1.52-3.34,4.56s-1.14,7.59-1.14,13.67q0,8.82.18,11C238.7,137.1,240.14,139.53,242.63,139.53Z"/><path class="cls-2" d="M274,140q-4.71,0-8.22-5c-2.53-3.62-3.8-8.2-3.8-13.71s1.25-10.08,3.74-13.67c2.35-3.4,5.1-5.1,8.28-5.1s5.93,1.68,8.28,5q3.8,5.43,3.79,13.72t-3.65,13.52Q278.8,140,274,140Zm0-.51q2.26,0,3.4-4.59t1.13-13.69c0-5.85-.05-9.49-.17-10.93-.37-4.86-1.83-7.3-4.36-7.3-1.48,0-2.59,1.52-3.35,4.56a61.39,61.39,0,0,0-1.13,13.67q0,8.82.17,11C270.11,137.1,271.54,139.53,274,139.53Z"/><path class="cls-2" d="M305.44,140q-4.69,0-8.22-5c-2.53-3.62-3.8-8.2-3.8-13.71s1.25-10.08,3.75-13.67q3.51-5.1,8.27-5.1c3.18,0,5.93,1.68,8.28,5q3.79,5.43,3.8,13.72t-3.66,13.52Q310.2,140,305.44,140Zm0-.51c1.51,0,2.65-1.53,3.4-4.59s1.14-7.62,1.14-13.69q0-8.77-.17-10.93c-.38-4.86-1.84-7.3-4.37-7.3-1.47,0-2.59,1.52-3.34,4.56S301,115.17,301,121.25q0,8.82.18,11C301.51,137.1,303,139.53,305.44,139.53Z"/><path class="cls-1" d="M105.55,165.21h2.24v1h-2.24v3.05h-1v-3.05H95.88l9.67-13.49Zm-1,0V155.8l-6.75,9.41Z"/><path class="cls-1" d="M128.59,155.92a3.4,3.4,0,0,0-3.14-2,2.84,2.84,0,0,0-3,3c0,1.73,1.2,2.31,2.81,3.1a22.18,22.18,0,0,1,3.19,1.68,3.52,3.52,0,0,1,1.71,3.1,4.8,4.8,0,0,1-5,4.68,4.6,4.6,0,0,1-3.72-1.68,5.42,5.42,0,0,1-1-1.76l.91-.43a5.6,5.6,0,0,0,.87,1.54,3.85,3.85,0,0,0,3,1.37,3.72,3.72,0,0,0,3.86-3.7,2.81,2.81,0,0,0-1.56-2.52c-.45-.26-1.39-.74-2.71-1.39-1.58-.77-2.38-1.2-2.93-2.12a3.43,3.43,0,0,1-.5-1.82,3.88,3.88,0,0,1,4.1-4,4.27,4.27,0,0,1,3.89,2.28Z"/><path class="cls-1" d="M136.63,160.34v8.88h-1v-8.88h-1.08v-.91h1.08v-3.51h1v3.51h1.71v.91Z"/><path class="cls-1" d="M142.66,159.43h1v1.27a2.32,2.32,0,0,1,3.19-1.25l-.48.87a1.14,1.14,0,0,0-.72-.19c-2,0-2,2.61-2,3.84v5.25h-1Z"/><path class="cls-1" d="M159,159.43h1v9.79h-1v-1.75a4.47,4.47,0,0,1-3.82,2,4.8,4.8,0,0,1-4.77-5.16c0-3,1.92-5.12,4.77-5.12a4.48,4.48,0,0,1,3.82,1.92Zm-7.58,4.82c0,2.21,1.36,4.32,3.84,4.32s3.79-2.06,3.79-4.32a3.83,3.83,0,1,0-7.63,0Z"/><path class="cls-1" d="M165.43,156.16a.87.87,0,1,1,.87.89A.85.85,0,0,1,165.43,156.16Zm1.35,3.27v9.79h-1v-9.79Z"/><path class="cls-1" d="M181.66,159.43v9.5c0,3.7-1.85,5.81-4.92,5.81-2.55,0-4.68-1.49-4.8-4.2h1a3.53,3.53,0,0,0,3.8,3.29c3.86,0,4-3.89,4-4.9v-1.39a4.72,4.72,0,0,1-3.87,2,5.15,5.15,0,0,1,.12-10.28,4.43,4.43,0,0,1,3.75,1.92v-1.7ZM173,164.37c0,2.36,1.48,4.2,3.79,4.2s3.93-1.89,3.93-4.29a3.87,3.87,0,0,0-3.88-4.15C174.43,160.13,173,162.12,173,164.37Z"/><path class="cls-1" d="M187.51,151.72h1V161a3.28,3.28,0,0,1,3-1.76,3,3,0,0,1,2.71,1.37,4.65,4.65,0,0,1,.48,2.47v6.17h-1v-6.17a3.6,3.6,0,0,0-.38-2,2.08,2.08,0,0,0-1.92-1,2.57,2.57,0,0,0-2.4,1.36,5.35,5.35,0,0,0-.53,2.64v5.09h-1Z"/><path class="cls-1" d="M201.07,160.34v8.88h-1v-8.88H199v-.91h1.08v-3.51h1v3.51h1.71v.91Z"/><path class="cls-1" d="M219,162.38l-5.26-9.17h1.2l4.61,8.09,4.71-8.09h1.2l-5.4,9.17v6.84H219Z"/><path class="cls-1" d="M228.33,164.45a3.93,3.93,0,0,0,3.89,4.12,3.72,3.72,0,0,0,3.41-2.23l.82.48a4.74,4.74,0,0,1-4.3,2.67c-3.05,0-4.82-2.26-4.82-5.12,0-3.4,2.35-5.16,4.75-5.16,2.64,0,4.63,2.12,4.63,5.24Zm7.37-.92a3.67,3.67,0,0,0-3.62-3.4,3.74,3.74,0,0,0-3.67,3.4Z"/><path class="cls-1" d="M249.91,159.43h1v9.79h-1v-1.75a4.47,4.47,0,0,1-3.82,2,4.8,4.8,0,0,1-4.77-5.16c0-3,1.92-5.12,4.77-5.12a4.48,4.48,0,0,1,3.82,1.92Zm-7.58,4.82c0,2.21,1.36,4.32,3.84,4.32s3.79-2.06,3.79-4.32a3.83,3.83,0,1,0-7.63,0Z"/><path class="cls-1" d="M256.73,159.43h1v1.27a2.32,2.32,0,0,1,3.19-1.25l-.48.87a1.14,1.14,0,0,0-.72-.19c-2,0-2,2.61-2,3.84v5.25h-1Z"/><path class="cls-1" d="M269,161.23a1.79,1.79,0,0,0-1.71-1.1,1.57,1.57,0,0,0-1.65,1.56c0,1,.77,1.27,1.73,1.65a5.48,5.48,0,0,1,2.52,1.44,2.41,2.41,0,0,1,.5,1.59,3,3,0,0,1-3.19,3.12,3.36,3.36,0,0,1-3.39-2.6l.94-.28a2.5,2.5,0,0,0,2.45,2,2.09,2.09,0,0,0,2.18-2.16c0-1.1-.69-1.51-2.18-2.11A4.9,4.9,0,0,1,265.1,163a2.11,2.11,0,0,1-.43-1.28,2.49,2.49,0,0,1,2.62-2.52,2.62,2.62,0,0,1,2.56,1.59Z"/><line class="cls-3" x1="50.81" y1="163.23" x2="87.18" y2="163.23"/><line class="cls-3" x1="281.28" y1="163.23" x2="317.64" y2="163.23"/><line class="cls-3" x1="369.41" y1="49.95" x2="369.41" y2="227.02"/><path class="cls-1" d="M424.16,70.08v-16h3.22l8.69,10.32V54.08h3.69v16h-3.21l-8.69-10.36V70.08Z"/><path class="cls-1" d="M459.85,56a8.36,8.36,0,0,1,2.5,6.05,8.27,8.27,0,0,1-2.5,6,8.54,8.54,0,0,1-6.19,2.35,8.82,8.82,0,0,1-6.24-2.35,8.16,8.16,0,0,1-2.5-6,8.94,8.94,0,0,1,2.47-6.07,9.45,9.45,0,0,1,12.46,0Zm-9.72,2.45a4.89,4.89,0,0,0-1.42,3.63,4.77,4.77,0,0,0,1.47,3.6A4.71,4.71,0,0,0,453.61,67a4.74,4.74,0,0,0,4.95-5,5.06,5.06,0,0,0-1.4-3.6,5.12,5.12,0,0,0-3.53-1.37A4.92,4.92,0,0,0,450.13,58.49Z"/><path class="cls-1" d="M469.09,66.1a2.19,2.19,0,1,1-2.18,2.18A2.16,2.16,0,0,1,469.09,66.1Z"/><path class="cls-2" d="M495.63,70.08H483.39l4.8-5.23a37,37,0,0,0,2.62-3.26,5.42,5.42,0,0,0,1-2.71,2.28,2.28,0,0,0-.62-1.59,2.21,2.21,0,0,0-1.47-.45,1.9,1.9,0,0,0-1.46.57,3.29,3.29,0,0,0-.68,2h-3.69a6.9,6.9,0,0,1,1.65-4,5.84,5.84,0,0,1,4.42-1.66,5.68,5.68,0,0,1,4.15,1.52,5.32,5.32,0,0,1,1.49,3.84,5.7,5.7,0,0,1-1.2,3.53,20.75,20.75,0,0,1-2.57,2.76L490.11,67h5.52Z"/><path class="cls-2" d="M502.42,69.1a4.54,4.54,0,0,1-1.53-3.48A3.85,3.85,0,0,1,502,62.88a4.93,4.93,0,0,1,2-1.2,4,4,0,0,1-1.46-1,3.41,3.41,0,0,1-1-2.54,4.06,4.06,0,0,1,1.18-3,6.54,6.54,0,0,1,8.26,0,4.05,4.05,0,0,1,1.17,3,3.4,3.4,0,0,1-1,2.54,4.11,4.11,0,0,1-1.47,1,4.86,4.86,0,0,1,2,1.2,3.81,3.81,0,0,1,1.08,2.74,4.54,4.54,0,0,1-1.53,3.48,7.88,7.88,0,0,1-8.79,0Zm2.84-5.35a2.35,2.35,0,0,0-.63,1.58,2.2,2.2,0,0,0,.63,1.61,2.32,2.32,0,0,0,1.56.58,2.36,2.36,0,0,0,1.56-.58,2.27,2.27,0,0,0,.62-1.63,2.12,2.12,0,0,0-.62-1.56,2.27,2.27,0,0,0-1.61-.58A2.12,2.12,0,0,0,505.26,63.75ZM505.4,57a1.86,1.86,0,0,0,0,2.74,2.14,2.14,0,0,0,1.42.52,2,2,0,0,0,1.39-.52,1.78,1.78,0,0,0,.6-1.37,1.85,1.85,0,0,0-.6-1.39,2.14,2.14,0,0,0-1.39-.51A2.06,2.06,0,0,0,505.4,57Z"/><path class="cls-1" d="M438.2,79.49v6h-.67v-6Z"/><path class="cls-1" d="M440.65,85.49V79.24l4.68,4.9V79.49H446v6.27l-4.68-4.9v4.63Z"/><path class="cls-1" d="M452.1,79.49v5.37h1.66v.63h-2.32v-6Z"/><path class="cls-1" d="M458.87,83.8h-2.56l-.72,1.69h-.73l2.76-6.29,2.69,6.29h-.74Zm-.26-.63-1-2.4-1,2.4Z"/><path class="cls-1" d="M464.64,80.68a1.56,1.56,0,0,0-.35-.45,1.11,1.11,0,0,0-.68-.21.92.92,0,0,0-1,.93.63.63,0,0,0,.22.52,2,2,0,0,0,.63.38l.58.25a2.86,2.86,0,0,1,.92.57,1.43,1.43,0,0,1,.44,1.09,1.94,1.94,0,0,1-3.21,1.36,2.18,2.18,0,0,1-.56-1.07l.65-.18a1.46,1.46,0,0,0,.36.77,1.23,1.23,0,0,0,2.07-.86.88.88,0,0,0-.3-.7,2.49,2.49,0,0,0-.72-.41l-.54-.25a2.8,2.8,0,0,1-.8-.5,1.24,1.24,0,0,1-.41-1,1.55,1.55,0,0,1,1.68-1.55,1.64,1.64,0,0,1,1,.27,1.79,1.79,0,0,1,.58.67Z"/><path class="cls-1" d="M470.55,79.49l1.69,4.58,1.7-4.58h.73l-2.43,6.36-2.43-6.36Z"/><path class="cls-1" d="M479.54,80.12h-2.45V81.9h2.37v.63h-2.37v2.33h2.45v.63h-3.12v-6h3.12Z"/><path class="cls-1" d="M484.75,82.48h2.51v.14a3.28,3.28,0,0,1-.58,1.9,2.66,2.66,0,0,1-2.23,1.08,3.11,3.11,0,1,1,0-6.21,3,3,0,0,1,1.83.59,4,4,0,0,1,.7.72l-.5.45a3.18,3.18,0,0,0-.57-.63,2.19,2.19,0,0,0-1.46-.5,2.48,2.48,0,0,0,0,5,2.06,2.06,0,0,0,1.83-1,1.86,1.86,0,0,0,.25-.85h-1.79Z"/><path class="cls-1" d="M492.69,83.8h-2.55l-.72,1.69h-.74l2.76-6.29,2.69,6.29h-.74Zm-.26-.63-1-2.4-1,2.4Z"/><path class="cls-1" d="M498.46,80.68a1.56,1.56,0,0,0-.35-.45,1.08,1.08,0,0,0-.68-.21.92.92,0,0,0-1,.93.63.63,0,0,0,.22.52,2,2,0,0,0,.63.38l.58.25a3,3,0,0,1,.93.57,1.46,1.46,0,0,1,.43,1.09A1.94,1.94,0,0,1,496,85.12a2.26,2.26,0,0,1-.56-1.07l.65-.18a1.46,1.46,0,0,0,.36.77,1.15,1.15,0,0,0,.87.33,1.13,1.13,0,0,0,1.2-1.19.91.91,0,0,0-.29-.7,2.79,2.79,0,0,0-.72-.41l-.54-.25a2.7,2.7,0,0,1-.81-.5,1.24,1.24,0,0,1-.41-1,1.55,1.55,0,0,1,1.68-1.55,1.64,1.64,0,0,1,1,.27,1.79,1.79,0,0,1,.58.67Z"/><path class="cls-1" d="M423.84,138.28v-16h3.21l8.69,10.32V122.27h3.7v16h-3.22l-8.69-10.37v10.37Z"/><path class="cls-1" d="M459.53,124.24a8.53,8.53,0,0,1,0,12,8.57,8.57,0,0,1-6.2,2.35,8.82,8.82,0,0,1-6.24-2.35,8.19,8.19,0,0,1-2.49-5.95,8.94,8.94,0,0,1,2.47-6.08,9.46,9.46,0,0,1,12.46,0Zm-9.72,2.45a4.89,4.89,0,0,0-1.42,3.62,4.78,4.78,0,0,0,1.46,3.6,4.71,4.71,0,0,0,3.44,1.32,4.84,4.84,0,0,0,3.55-1.37,4.79,4.79,0,0,0,1.39-3.57,5,5,0,0,0-1.39-3.6,5.14,5.14,0,0,0-3.53-1.37A4.88,4.88,0,0,0,449.81,126.69Z"/><path class="cls-1" d="M468.76,134.3a2.18,2.18,0,1,1-2.18,2.18A2.16,2.16,0,0,1,468.76,134.3Z"/><path class="cls-2" d="M483.57,127.07a6.47,6.47,0,0,1,1.59-3.62,5.38,5.38,0,0,1,4-1.51,5.86,5.86,0,0,1,4.2,1.41,4.4,4.4,0,0,1,1.23,3.27,3.51,3.51,0,0,1-.65,2.18,3.09,3.09,0,0,1-1.2,1,3.92,3.92,0,0,1,1.82,1.29,4.53,4.53,0,0,1,.75,2.52,5,5,0,0,1-1.61,3.65,5.86,5.86,0,0,1-4.23,1.39,6.21,6.21,0,0,1-4.68-1.65,6.77,6.77,0,0,1-1.77-4h3.69a3.09,3.09,0,0,0,.77,1.8,2.53,2.53,0,0,0,1.78.65,2.4,2.4,0,0,0,1.61-.56,2.31,2.31,0,0,0,.65-1.63,2,2,0,0,0-.7-1.53,3.23,3.23,0,0,0-2-.51h-.29v-2.54h.22a2.83,2.83,0,0,0,1.61-.46,1.9,1.9,0,0,0,.6-1.44,1.73,1.73,0,0,0-.53-1.29,2.22,2.22,0,0,0-2.81,0,2.57,2.57,0,0,0-.58,1.49Z"/><path class="cls-2" d="M510.76,137a6.32,6.32,0,0,1-8.54,0,9.26,9.26,0,0,1-2.3-6.69c0-2.76.74-5.21,2.3-6.72a5.85,5.85,0,0,1,4.25-1.66,5.93,5.93,0,0,1,4.29,1.66c1.57,1.51,2.31,4,2.31,6.72A9.22,9.22,0,0,1,510.76,137ZM505,125.68c-1.17,1.15-1.34,3.46-1.34,4.58s.22,3.51,1.34,4.61a2,2,0,0,0,1.49.6,2,2,0,0,0,1.49-.6c1.13-1.1,1.35-3.36,1.35-4.61s-.17-3.43-1.35-4.58a2,2,0,0,0-1.49-.6A2,2,0,0,0,505,125.68Z"/><path class="cls-1" d="M444,148.38v6h-.66v-6Z"/><path class="cls-1" d="M446.46,154.39v-6.26l4.68,4.91v-4.66h.67v6.28l-4.68-4.91v4.64Z"/><path class="cls-1" d="M457.25,154.39v-6.26l4.68,4.91v-4.66h.67v6.28l-4.68-4.91v4.64Z"/><path class="cls-1" d="M468.16,149h-2.45v1.79h2.38v.63h-2.38v2.33h2.45v.63h-3.11v-6h3.11Z"/><path class="cls-1" d="M470.32,148.38,472,153l1.69-4.59h.74L472,154.75l-2.43-6.37Z"/><path class="cls-1" d="M479,152.7h-2.55l-.72,1.69H475l2.76-6.29,2.69,6.29h-.73Zm-.26-.64-1-2.4-1,2.4Z"/><path class="cls-1" d="M482.22,148.38h1.22a3.3,3.3,0,0,1,2.22.71,2.9,2.9,0,0,1,1,2.3,2.84,2.84,0,0,1-1.05,2.3,3,3,0,0,1-2.2.7h-1.21Zm.66,5.38h.59a2.6,2.6,0,0,0,1.72-.54,2.41,2.41,0,0,0-1.72-4.21h-.59Z"/><path class="cls-1" d="M492.12,152.7h-2.56l-.72,1.69h-.74l2.77-6.29,2.69,6.29h-.74Zm-.26-.64-1-2.4-1,2.4Z"/><path class="cls-1" d="M50.89,192.51,53.08,190c.16-.18.56-.66.7-.87a1.51,1.51,0,0,0,.34-.92,1.14,1.14,0,0,0-1.2-1.17,1.17,1.17,0,0,0-1,.53,1.3,1.3,0,0,0-.2.71h-.66a1.85,1.85,0,0,1,.45-1.24,1.88,1.88,0,0,1,3.27,1.18,2.09,2.09,0,0,1-.47,1.28,11.29,11.29,0,0,1-.82,1l-1.25,1.42h2.53v.61Z"/><path class="cls-1" d="M57.25,191.72a4.35,4.35,0,0,1,0-4.41,1.77,1.77,0,0,1,3.08,0,4.35,4.35,0,0,1,0,4.41,1.77,1.77,0,0,1-3.08,0Zm.5-4a4,4,0,0,0,0,3.66,1.28,1.28,0,0,0,1,.67,1.25,1.25,0,0,0,1-.67,3.95,3.95,0,0,0,0-3.66,1.24,1.24,0,0,0-1-.66A1.26,1.26,0,0,0,57.75,187.68Z"/><path class="cls-1" d="M63.74,187.14h-1l.35-.63H64.4v6h-.66Z"/><path class="cls-1" d="M70.23,187.12H66.94v-.61h4.41l-4,6.14-.52-.35Z"/><path class="cls-1" d="M133.08,192.53l2.19-2.53a10.4,10.4,0,0,0,.7-.88,1.54,1.54,0,0,0,.34-.91,1.14,1.14,0,0,0-1.2-1.17,1.17,1.17,0,0,0-1,.53,1.3,1.3,0,0,0-.2.71h-.66a1.85,1.85,0,0,1,.45-1.24,1.88,1.88,0,0,1,3.27,1.18,2.09,2.09,0,0,1-.47,1.28c-.26.35-.58.72-.82,1l-1.25,1.42H137v.61Z"/><path class="cls-1" d="M139.44,191.74a3.88,3.88,0,0,1-.6-2.21,3.82,3.82,0,0,1,.6-2.2,1.76,1.76,0,0,1,3.08,0,3.9,3.9,0,0,1,.6,2.2,4,4,0,0,1-.6,2.21,1.77,1.77,0,0,1-3.08,0Zm.5-4a4,4,0,0,0,0,3.66,1.26,1.26,0,0,0,1,.66,1.24,1.24,0,0,0,1-.66,3.95,3.95,0,0,0,0-3.66,1.24,1.24,0,0,0-1-.66A1.26,1.26,0,0,0,139.94,187.7Z"/><path class="cls-1" d="M145.93,187.15h-1l.35-.63h1.32v6h-.66Z"/><path class="cls-1" d="M152.81,190.87a1.84,1.84,0,0,1-3.67,0,1.52,1.52,0,0,1,.91-1.47,1.45,1.45,0,0,1-.73-1.31,1.66,1.66,0,1,1,3.31,0,1.46,1.46,0,0,1-.72,1.31A1.51,1.51,0,0,1,152.81,190.87Zm-.66,0A1.17,1.17,0,1,0,151,192,1.11,1.11,0,0,0,152.15,190.85ZM152,188.1a1,1,0,1,0-1,1A1,1,0,0,0,152,188.1Z"/><path class="cls-1" d="M214.73,192.51l2.19-2.53c.15-.18.56-.66.7-.87a1.58,1.58,0,0,0,.34-.92,1.14,1.14,0,0,0-1.2-1.17,1.16,1.16,0,0,0-1,.53,1.3,1.3,0,0,0-.2.71h-.66a1.85,1.85,0,0,1,.45-1.24,1.88,1.88,0,0,1,3.27,1.18,2.09,2.09,0,0,1-.47,1.28c-.26.36-.58.73-.82,1l-1.25,1.42h2.53v.61Z"/><path class="cls-1" d="M221.09,191.72a4.35,4.35,0,0,1,0-4.41,1.77,1.77,0,0,1,3.08,0,4.35,4.35,0,0,1,0,4.41,1.77,1.77,0,0,1-3.08,0Zm.5-4a4,4,0,0,0,0,3.66,1.28,1.28,0,0,0,1,.67,1.26,1.26,0,0,0,1-.67,4,4,0,0,0,0-3.66,1.25,1.25,0,0,0-1-.66A1.26,1.26,0,0,0,221.59,187.68Z"/><path class="cls-1" d="M227.58,187.14h-1l.35-.63h1.32v6h-.66Z"/><path class="cls-1" d="M231.77,192.29l1.38-1.92a1.84,1.84,0,0,1-.53.08,1.91,1.91,0,0,1-2-2,2.07,2.07,0,0,1,4.14,0,2.33,2.33,0,0,1-.49,1.38l-2,2.82Zm-.43-3.84a1.41,1.41,0,0,0,2.81,0,1.41,1.41,0,1,0-2.81,0Z"/><path class="cls-1" d="M295.68,192.53l2.19-2.53c.15-.18.56-.66.7-.88a1.51,1.51,0,0,0,.33-.91,1.13,1.13,0,0,0-1.19-1.17,1.15,1.15,0,0,0-1,.53,1.3,1.3,0,0,0-.2.71h-.67a2,2,0,0,1,.45-1.24,1.8,1.8,0,0,1,1.43-.62,1.77,1.77,0,0,1,1.85,1.8,2.11,2.11,0,0,1-.48,1.28,12.56,12.56,0,0,1-.82,1L297,191.92h2.54v.61Z"/><path class="cls-1" d="M302,191.74a3.88,3.88,0,0,1-.61-2.21,3.83,3.83,0,0,1,.61-2.2,1.76,1.76,0,0,1,3.08,0,3.9,3.9,0,0,1,.6,2.2,4,4,0,0,1-.6,2.21,1.77,1.77,0,0,1-3.08,0Zm.5-4a4,4,0,0,0,0,3.66,1.26,1.26,0,0,0,1,.66,1.25,1.25,0,0,0,1-.66,4,4,0,0,0,0-3.66,1.25,1.25,0,0,0-1-.66A1.26,1.26,0,0,0,302.54,187.7Z"/><path class="cls-1" d="M307.48,192.53l2.19-2.53c.15-.18.56-.66.7-.88a1.51,1.51,0,0,0,.33-.91,1.13,1.13,0,0,0-1.19-1.17,1.15,1.15,0,0,0-1,.53,1.3,1.3,0,0,0-.2.71h-.67a2,2,0,0,1,.45-1.24,1.88,1.88,0,0,1,3.28,1.18,2.11,2.11,0,0,1-.48,1.28,12.56,12.56,0,0,1-.82,1l-1.25,1.42h2.54v.61Z"/><path class="cls-1" d="M313.84,191.74a3.88,3.88,0,0,1-.61-2.21,3.83,3.83,0,0,1,.61-2.2,1.75,1.75,0,0,1,3.07,0,3.83,3.83,0,0,1,.61,2.2,3.88,3.88,0,0,1-.61,2.21,1.76,1.76,0,0,1-3.07,0Zm.5-4a4,4,0,0,0,0,3.66,1.25,1.25,0,0,0,1,.66,1.26,1.26,0,0,0,1-.66,4,4,0,0,0,0-3.66,1.26,1.26,0,0,0-1-.66A1.25,1.25,0,0,0,314.34,187.7Z"/></g><g id="Layer_4" data-name="Layer 4"><path class="cls-1" d="M427.45,206.85v-16h3.22l8.69,10.32V190.84h3.69v16h-3.21l-8.69-10.37v10.37Z"/><path class="cls-1" d="M463.14,192.81a8.51,8.51,0,0,1,0,12.05,8.56,8.56,0,0,1-6.19,2.35,8.82,8.82,0,0,1-6.24-2.35,8.16,8.16,0,0,1-2.5-6,8.94,8.94,0,0,1,2.47-6.08,9.46,9.46,0,0,1,12.46,0Zm-9.72,2.45a4.89,4.89,0,0,0-1.42,3.62,4.75,4.75,0,0,0,1.47,3.6,4.67,4.67,0,0,0,3.43,1.32,4.84,4.84,0,0,0,3.55-1.37,4.75,4.75,0,0,0,1.39-3.57,5,5,0,0,0-1.39-3.6,5.12,5.12,0,0,0-3.53-1.37A4.88,4.88,0,0,0,453.42,195.26Z"/><path class="cls-1" d="M472.38,202.87a2.18,2.18,0,1,1-2.19,2.18A2.16,2.16,0,0,1,472.38,202.87Z"/><path class="cls-2" d="M489.58,206.8l4.23-5.23a5.38,5.38,0,0,1-1.61.24,5.64,5.64,0,0,1-4-1.49,5.21,5.21,0,0,1-1.39-3.86,5.82,5.82,0,0,1,1.56-4.18,7.91,7.91,0,0,1,9.81-.19,5.39,5.39,0,0,1,1.64,4.06,8.3,8.3,0,0,1-.72,3.26,17.66,17.66,0,0,1-1.88,3l-3.65,4.82Zm1.83-12.57a2.62,2.62,0,0,0-.84,2,2.66,2.66,0,0,0,.81,2.07,3,3,0,0,0,1.95.67,2.85,2.85,0,0,0,1.94-.7,2.74,2.74,0,0,0,.82-2.11,2.5,2.5,0,0,0-.82-1.94,2.73,2.73,0,0,0-1.94-.72A2.76,2.76,0,0,0,491.41,194.23Z"/><path class="cls-2" d="M506.43,194h-2.28v-3.12h6v16h-3.7Z"/><path class="cls-1" d="M422.22,217v6h-.67v-6Z"/><path class="cls-1" d="M424.66,223v-6.26l4.69,4.9V217H430v6.27l-4.68-4.9V223Z"/><path class="cls-1" d="M435.25,223l1-6.34,2.3,5.07,2.35-5.08.94,6.35h-.69l-.57-4.18-2,4.43-2-4.43-.59,4.18Z"/><path class="cls-1" d="M447.43,221.28h-2.55l-.72,1.7h-.74l2.76-6.3,2.69,6.3h-.74Zm-.26-.63-1-2.4-1,2.4Z"/><path class="cls-1" d="M450.62,223v-6.26l4.68,4.9V217H456v6.27l-4.69-4.9V223Z"/><path class="cls-1" d="M459.08,220.65a1.7,1.7,0,0,0,.48,1.46,1.62,1.62,0,0,0,1,.34,1.67,1.67,0,0,0,1-.34,1.72,1.72,0,0,0,.47-1.46V217h.67v3.86a2.34,2.34,0,0,1-.38,1.44,2.31,2.31,0,0,1-3.51,0,2.34,2.34,0,0,1-.38-1.44V217h.67Z"/><path class="cls-1" d="M467.86,217.6h-2.07v1.77h2V220h-2v3h-.66v-6h2.73Z"/><path class="cls-1" d="M473,221.28h-2.56l-.72,1.7h-.74l2.77-6.3,2.69,6.3h-.74Zm-.26-.63-1-2.4-1,2.4Z"/><path class="cls-1" d="M480.53,218.29a2.85,2.85,0,0,0-.78-.56,2.58,2.58,0,0,0-1-.23,2.48,2.48,0,0,0,0,4.95,2.38,2.38,0,0,0,1.12-.28,2.54,2.54,0,0,0,.69-.5v.83a3.08,3.08,0,0,1-1.81.58,3.11,3.11,0,1,1,0-6.21,2.83,2.83,0,0,1,1.77.6Z"/><path class="cls-1" d="M484.13,217.6V223h-.66V217.6H482V217h3.58v.63Z"/><path class="cls-1" d="M488.06,220.65a1.7,1.7,0,0,0,.48,1.46,1.62,1.62,0,0,0,1,.34,1.67,1.67,0,0,0,1-.34,1.72,1.72,0,0,0,.47-1.46V217h.67v3.86a2.34,2.34,0,0,1-.38,1.44,2.31,2.31,0,0,1-3.51,0,2.34,2.34,0,0,1-.38-1.44V217h.67Z"/><path class="cls-1" d="M495.07,217a2.7,2.7,0,0,1,1.46.33,1.67,1.67,0,0,1-.86,3l1.91,2.69h-.81l-1.83-2.63h-.17V223h-.66v-6Zm-.3,2.78h.42c.83,0,1.33-.39,1.33-1.1a.94.94,0,0,0-.48-.88,1.72,1.72,0,0,0-.86-.17h-.41Z"/><path class="cls-1" d="M500.19,217v6h-.67v-6Z"/><path class="cls-1" d="M502.64,223v-6.26l4.68,4.9V217H508v6.27l-4.68-4.9V223Z"/><path class="cls-1" d="M513.53,220H516v.14a3.28,3.28,0,0,1-.58,1.9,2.66,2.66,0,0,1-2.23,1.08,3.11,3.11,0,1,1,0-6.21,3,3,0,0,1,1.84.6,3.3,3.3,0,0,1,.69.71l-.5.45a2.83,2.83,0,0,0-.56-.62,2.18,2.18,0,0,0-1.46-.51,2.48,2.48,0,0,0,0,4.95,2.08,2.08,0,0,0,1.84-1,1.83,1.83,0,0,0,.24-.85h-1.78Z"/></g></svg>