<svg id="Layer_1" data-name="Layer 1" xmlns="http://www.w3.org/2000/svg" viewBox="0 0 172.46 251.05"><defs><style>.cls-1{fill:#231f20;}.cls-2{fill:#fff;}</style></defs><title>moda-seal</title><path class="cls-1" d="M8.59,94.74c-1.17-.52,0-9.48-.05-10.68A100.06,100.06,0,0,1,9.7,68.31,87.84,87.84,0,0,1,19.8,38.63C39.72,3.37,86.2-10.18,122.12,8.2a77.47,77.47,0,0,1,33.4,33.43c8.4,16.42,8.28,35.11,8.33,53.1-5.81,2.78-11.65,5.5-17.48,8.23,1-.46.62-9.35.64-10.31a127.65,127.65,0,0,0-1.57-24c-3.08-18.46-13.36-34.92-29.92-44.23a60.7,60.7,0,0,0-50.87-3.67c-15,5.78-26.5,18.31-32.94,32.82a69.81,69.81,0,0,0-5.84,22.85c-.23,2.86-1.47,25.24-.1,25.83Z"/><path class="cls-1" d="M0,102.25s33.28.31,34.35,30H137.78s.72-28.47,34-29.7l.15,32.68.12,25.24c0,8.8,1.15,17.41-.45,26.18-3.49,19.15-15.44,37.2-33.28,49-36.83,24.42-91.43,19.46-119.15-13.18A79.71,79.71,0,0,1,.39,173l0-1.47C0,140.93,0,102.25,0,102.25Z"/><path class="cls-2" d="M87.22,161.33c-6.93,10.39-16.82,26.18-16.82,37.09a15.83,15.83,0,0,0,31.66,0C102.05,183.58,87.22,161.33,87.22,161.33Z"/><path d="M75.34,195.23C75.89,199.9,78.17,206.8,88,210,88,210,70.82,211.34,75.34,195.23Z"/></svg>