<svg xmlns="http://www.w3.org/2000/svg" viewBox="0 0 41.95 50.75"><defs><style>.cls-1{fill:none;stroke:#ffffff;stroke-linecap:round;stroke-linejoin:round;stroke-width:0.75px;}</style></defs><title>CONTROL-ICON</title><g id="Layer_2" data-name="Layer 2"><g id="Layer_1-2" data-name="Layer 1"><rect class="cls-1" x="0.38" y="0.38" width="41.2" height="50" rx="0.59" ry="0.59"/><rect class="cls-1" x="11.76" y="4.83" width="18.43" height="13.69"/><rect class="cls-1" x="11.76" y="20.69" width="8.42" height="2.67"/><rect class="cls-1" x="21.74" y="20.69" width="8.45" height="2.67"/><circle class="cls-1" cx="35.77" cy="11.68" r="1.37"/><circle class="cls-1" cx="6.18" cy="11.68" r="1.37"/><circle class="cls-1" cx="20.98" cy="36.69" r="9.77"/><circle class="cls-1" cx="20.98" cy="36.69" r="5.77"/><rect class="cls-1" x="32.94" y="26.62" width="5.66" height="2.36" rx="0.98" ry="0.98" transform="translate(-9.18 33.44) rotate(-45)"/><rect class="cls-1" x="3.34" y="42.61" width="5.66" height="2.36" rx="0.98" ry="0.98" transform="translate(-29.16 17.19) rotate(-45)"/><rect class="cls-1" x="32.94" y="42.61" width="5.66" height="2.36" rx="0.98" ry="0.98" transform="translate(41.44 -12.47) rotate(45)"/><rect class="cls-1" x="3.34" y="26.62" width="5.66" height="2.36" rx="0.98" ry="0.98" transform="translate(21.47 3.78) rotate(45)"/></g></g></svg>
