<svg id="Layer_1" data-name="Layer 1" xmlns="http://www.w3.org/2000/svg" viewBox="0 0 489.63 54.22"><defs><style>.cls-1{fill:#fff;stroke:#000;stroke-miterlimit:10;stroke-width:0.25px;}</style></defs><title>COVE-WHITE</title><g id="Layer_2" data-name="Layer 2"><g id="Layer_1-2" data-name="Layer 1-2"><path class="cls-1" d="M489.38,2.63a1,1,0,0,0-.1-.48L488.59.92s0,0,0,0L487.33.19a1,1,0,0,0-.49-.12H2.59A1,1,0,0,0,2.1.16L.86.87h0L0,2.35a0,0,0,0,0,0,0V32.47l.05.76L.1,34A5.68,5.68,0,0,0,.29,35q.12.36.24.66A3,3,0,0,0,.66,36c0,.1.09.18.14.26a3,3,0,0,0,1,1.1,3.06,3.06,0,0,0,1.38.53h.26L198.66,38V48.22l-.21.4-.37.21H182.49A1,1,0,0,0,182,49l-1.1.61h0l-.61,1.1a1.05,1.05,0,0,0-.13.49V54H309.24V51.16a1,1,0,0,0-.12-.49l-.61-1.1h0L307.4,49a1,1,0,0,0-.48-.12H291.33l-.38-.21-.21-.4V38H487.06a1,1,0,0,0,.48-.13l1.1-.61.61-1.11a1,1,0,0,0,.13-.48" transform="translate(0.13 0.06)"/></g></g></svg>