<?xml version="1.0" encoding="utf-8"?>
<!-- Generator: Adobe Illustrator 22.1.0, SVG Export Plug-In . SVG Version: 6.00 Build 0)  -->
<svg version="1.1" id="Layer_1" xmlns="http://www.w3.org/2000/svg" xmlns:xlink="http://www.w3.org/1999/xlink" x="0px" y="0px"
	 viewBox="0 0 263.8 26.1" style="enable-background:new 0 0 263.8 26.1;" xml:space="preserve">
<style type="text/css">
	.st0{fill:none;stroke:#FFFFFF;stroke-width:0.5;stroke-miterlimit:10;}
</style>
<title>COVE-ICON</title>
<g id="Layer_2_1_">
	<g id="Layer_1-2">
		<line class="st0" x1="111.8" y1="22.1" x2="112" y2="19.4"/>
		<polyline class="st0" points="113.2,18.6 112.1,18.6 112,19.4 		"/>
		<path class="st0" d="M111.8,22.1v1.9h40v-1.9l-0.2-2.6"/>
		<polyline class="st0" points="150.4,18.6 151.5,18.6 151.6,19.4 		"/>
		<path class="st0" d="M151.8,22.5h6.3c0.4,0,0.8,0.1,1.1,0.3l1.1,1.4c0.4,0.4,0.3,0.7,0.3,0.7v0.4c0,0.3-0.4,0.3-0.4,0.3l-56.6,0.2
			c-0.7,0.1-0.5-0.8-0.5-0.8c0.1-0.5,0.9-1.1,0.9-1.1l1.7-1.2c0.2-0.2,0.4-0.2,0.6-0.2h5.4"/>
		<path class="st0" d="M113.8,7.7c0,0-1.1-0.1-1.1,0.8c0,0,0.2,6.9,0.3,8.5c0,1,0.2,2.1,0.4,3.1h36.3c0,0,0.6,0,0.5-1V8.2
			c0,0,0-0.6-0.8-0.5h-9.9c0,0-0.9-0.1-0.8,0.7l0.1,3.9c0,0-0.2,2.9-2.4,3.1l-9.2,0.1c-1.3-0.1-2.5-1-2.8-2.3V8.4c0,0,0.1-0.7-1-0.7
			L113.8,7.7z"/>
		<line class="st0" x1="160.6" y1="24.9" x2="103.1" y2="25.1"/>
		<path class="st0" d="M1,16.2h4v0.6h0.5c0,0.3,0,0.6,0.1,0.8H4.5v-0.9H3.6l-1,0.9v0.8l0.5,0.5h7.5l0.1,0.2h1.1l1.6-0.1v-0.7
			c0,0,2.3,0,3-0.1c0,0,3.9-0.2,4.2-0.2c0,0,7.1-0.1,7.5-0.1c-0.7-1.6-0.8-5.1-0.9-6L20.4,12l-5.8-0.2H6.3c-0.2,0-0.5,0.1-0.6,0.3
			c0,0-0.3,0.2-0.3,1.3H5V14H0.6l-0.4,0.6v1.6L1,16.2z"/>
		<line class="st0" x1="5" y1="14" x2="5" y2="16.2"/>
		<path class="st0" d="M5.5,13.4c0,0,0.1,3.2,0.1,3.5"/>
		<path class="st0" d="M5.6,17.7c0,0,0,0.9,1.4,0.7l6.4,0.1"/>
		<path class="st0" d="M20.4,12c-0.7,0.3-1.2,1-1.2,1.8c-0.2,1-0.1,2,0,2.9v0.1c0,0,0.4,1.3,1,1.5"/>
		<path class="st0" d="M28,17.6c0.2,1.3,0.8,2.4,1.6,3.4l2.6,0.1c0.4,0,0.7-0.1,0.9-0.4c0.3-0.3,0.5-0.7,0.6-1.1"/>
		<path class="st0" d="M233.6,19.5c0,0,0.3,1.5,1.1,1.5h2.3c0.3-0.1,0.6-0.3,0.8-0.5c0.5-0.6,0.9-1.3,1-2.1l18.2-0.1
			c0,0,0.6,0.1,1-0.9l0.1-7.3c0,0,0-0.5,0.8-0.4h2.2c0.5,0,1.1-0.6,1.3-0.9c0.3-0.5,0.4-1,0.6-1.6c0.2-0.6,0.4-1.2,0.5-1.8
			c0-0.4,0-0.7,0-1.1c0-0.5-0.1-0.9-0.2-1.4c-0.2-0.6-0.5-1.2-0.9-1.6c-0.4-0.5-0.9-0.8-1.4-1l-2-0.1c-0.3-0.1-0.7,0-1,0.2
			c0,0-1.1,0.6-1.1,1L11,2.4c-0.6-0.6-1.3-1-2.1-1.2C8,1.1,7.1,1.2,6.2,1.4c0,0-2.2,1.4-2.4,2.9c-0.3,2.3,0.5,4.6,2,6.3l21.2,0.1
			c0,0.3,0,0.7,0,1"/>
		<path class="st0" d="M7.2,3.3C7.9,2.5,9,2.1,10.1,2.5l0.9-0.1"/>
		<path class="st0" d="M28,17.6c-0.5-1.9-0.8-3.9-0.9-5.9"/>
		<path class="st0" d="M256.7,1.4h1.3c0,0,1.5-0.1,2,1"/>
		<path class="st0" d="M258.9,0.3c0.9,0.4,1.6,1.2,1.9,2.1l-23.9,0.2c-0.2,0-0.4,0.1-0.4,0.3c0,0.1,0,0.1,0,0.2
			c0.4,2.9,0.5,5.9,0.3,8.8c0,0-0.5,7.9-1.8,9.2"/>
		<path class="st0" d="M236.5,3l-0.1,1.2c0.7,4.8,0.4,9.6-0.7,14.3c-0.6,1.9-1.5,1.1-1.5,1.1h-0.6l-81.9-0.1"/>
		<path class="st0" d="M8.4,1.2c0,0-1.9,1.1-2.1,2.1l23.3-0.1c0,0,0.6,0,0.5,1.1c-0.2,2.3-0.3,4.7-0.2,7c0,0,0.4,8.4,2.3,9.8"/>
		<path class="st0" d="M27.1,10.7c0,0-0.1-2,0.1-4.5c0,0,0-1.1-2.2-0.9H3.8"/>
		<path class="st0" d="M258.3,9.9c-0.3-0.6-0.9-0.9-1.6-0.8h-17"/>
		<path class="st0" d="M238.7,18.5c1-4.2,1.2-8.6,0.8-12.9c0.1-0.2,0.3-0.4,0.5-0.4h23.5"/>
		<line class="st0" x1="112.8" y1="9.4" x2="30.1" y2="9.4"/>
		<line class="st0" x1="124.5" y1="9.4" x2="139" y2="9.4"/>
		<line class="st0" x1="150.4" y1="9.4" x2="236.7" y2="9.4"/>
		<line class="st0" x1="236.7" y1="7.7" x2="30.2" y2="7.7"/>
		<path class="st0" d="M236.4,3.6H30.1l0.3,0.5c-0.3,4.2-0.2,5.4-0.2,5.4c0,3.1,0.5,6.2,1.4,9.2c0.5,1.6,1.6,0.8,1.6,0.8H112"/>
	</g>
</g>
</svg>
