<svg xmlns="http://www.w3.org/2000/svg" viewBox="0 0 263.75 26.07"><defs><style>.cls-1{fill:none;stroke:#231f20;stroke-miterlimit:10;stroke-width:0.5px;}</style></defs><title>COVE-ICON</title><g id="Layer_2" data-name="Layer 2"><g id="Layer_1-2" data-name="Layer 1"><line class="cls-1" x1="111.79" y1="22.07" x2="112" y2="19.44"/><polyline class="cls-1" points="113.24 18.57 112.11 18.57 112 19.44"/><path class="cls-1" d="M111.79,22.07v1.86h40.05V22.07l-.22-2.63"/><polyline class="cls-1" points="150.39 18.57 151.51 18.57 151.63 19.44"/><path class="cls-1" d="M151.84,22.52l6.28,0a1.77,1.77,0,0,1,1.15.28l1.07,1.39c.43.38.29.72.29.72v.39c0,.28-.39.26-.39.26l-56.62.23c-.68.09-.51-.75-.51-.75.06-.55.94-1.11.94-1.11l1.66-1.21a.8.8,0,0,1,.64-.21h5.44"/><path class="cls-1" d="M113.84,7.72s-1.09-.1-1.09.77c0,0,.2,6.91.33,8.54a13.27,13.27,0,0,0,.41,3.06h36.35s.58,0,.51-1V8.21s0-.56-.79-.48h-9.89s-.92-.1-.79.74l.05,3.91s-.19,2.89-2.4,3.11l-9.23.08a3.09,3.09,0,0,1-2.83-2.3l0-4.83s.07-.73-1-.71Z"/><line class="cls-1" x1="160.63" y1="24.93" x2="103.11" y2="25.06"/><path class="cls-1" d="M1,16.23H5l0,.65h.49a1.76,1.76,0,0,0,.07.84l-1.08,0,0-.9-.9,0-1,.93,0,.82.5.51H10.6l.13.2h1.06l1.58-.12,0-.66s2.26,0,2.95-.09c0,0,3.89-.19,4.19-.23,0,0,7.08-.12,7.53-.07-.7-1.65-.82-5.09-.91-6L20.4,12l-5.83-.22-8.22,0a.65.65,0,0,0-.63.29s-.32.19-.26,1.34H5V14H.62l-.37.61v1.61Z"/><line class="cls-1" x1="5.03" y1="14.01" x2="5" y2="16.23"/><path class="cls-1" d="M5.46,13.35s.07,3.2.06,3.53"/><path class="cls-1" d="M5.59,17.72s0,.85,1.4.71l6.4.08"/><path class="cls-1" d="M20.4,12a2,2,0,0,0-1.19,1.75,8.18,8.18,0,0,0,.05,2.92l0,.1s.41,1.33,1,1.46"/><path class="cls-1" d="M28,17.64A6.41,6.41,0,0,0,29.65,21l2.59.1a1.13,1.13,0,0,0,.93-.43,3.92,3.92,0,0,0,.64-1.07"/><path class="cls-1" d="M233.55,19.54s.28,1.54,1.09,1.54h2.26a2.83,2.83,0,0,0,.8-.49,4.48,4.48,0,0,0,1-2.06l18.24-.1s.63.13,1-.86l.12-7.31s0-.5.77-.44l2.23,0c.48,0,1.08-.59,1.31-.95a6.62,6.62,0,0,0,.57-1.58,11.26,11.26,0,0,0,.53-1.8,5.06,5.06,0,0,0,0-1.1,7.26,7.26,0,0,0-.19-1.4,3.33,3.33,0,0,0-.94-1.58,3.39,3.39,0,0,0-1.43-1l-2-.14a1.51,1.51,0,0,0-1,.16s-1.07.64-1.14,1l-245.81,1A3.77,3.77,0,0,0,8.84,1.23a6.91,6.91,0,0,0-2.59.2S4.1,2.81,3.87,4.36a8,8,0,0,0,2,6.26l21.2.11a6,6,0,0,0,0,1"/><path class="cls-1" d="M7.21,3.34a2.53,2.53,0,0,1,2.85-.84l.87-.13"/><path class="cls-1" d="M28,17.64a26.32,26.32,0,0,1-.85-5.86"/><path class="cls-1" d="M256.74,1.4h1.33s1.5-.12,2,1"/><path class="cls-1" d="M258.85.27a3.62,3.62,0,0,1,1.92,2.13l-23.91.15a.34.34,0,0,0-.36.46,49.22,49.22,0,0,1,.33,8.82s-.48,7.85-1.81,9.25"/><path class="cls-1" d="M236.5,3l-.15,1.15a39.24,39.24,0,0,1-.68,14.3c-.56,1.85-1.53,1.08-1.53,1.08h-.59l-81.93-.1"/><path class="cls-1" d="M8.43,1.2S6.52,2.32,6.34,3.34l23.3-.13s.64,0,.5,1.1a63.72,63.72,0,0,0-.22,7s.42,8.43,2.32,9.79"/><path class="cls-1" d="M27.1,10.73S27,8.68,27.24,6.2c0,0,.05-1.06-2.16-.87H3.82"/><path class="cls-1" d="M258.31,9.9a1.42,1.42,0,0,0-1.57-.76h-17"/><path class="cls-1" d="M238.71,18.53a37.49,37.49,0,0,0,.75-12.85A.53.53,0,0,1,240,5.3h23.47"/><line class="cls-1" x1="112.77" y1="9.36" x2="30.14" y2="9.36"/><line class="cls-1" x1="124.5" y1="9.36" x2="138.96" y2="9.36"/><line class="cls-1" x1="150.35" y1="9.36" x2="236.67" y2="9.36"/><line class="cls-1" x1="236.67" y1="7.72" x2="30.19" y2="7.72"/><path class="cls-1" d="M236.42,3.64l-206.31,0,.27.5c-.27,4.24-.24,5.43-.24,5.43a31.6,31.6,0,0,0,1.41,9.21c.5,1.6,1.56.75,1.56.75H112"/></g></g></svg>