<svg xmlns="http://www.w3.org/2000/svg" viewBox="0 0 263.75 50.5"><defs><style>.cls-1{fill:none;stroke:#231f20;stroke-miterlimit:10;stroke-width:0.5px;}</style></defs><title>GRAZE-ICON</title><g id="Layer_2" data-name="Layer 2"><g id="Layer_1-2" data-name="Layer 1"><path class="cls-1" d="M161.17,39.31V10.63l-.91-1.05H146s-.87.61-.87,1.09V20A5.2,5.2,0,0,1,141,24.77H129.39A5.18,5.18,0,0,1,125.25,20V10.67c0-.48-.88-1.09-.88-1.09H110.16l-.91,1.05V39.31Z"/><path class="cls-1" d="M254.93.25V12.4h-37V40.88h6.37s1.22-.52,1.22-1.28v-12s.3-1.4,1.4-1.4h32s1.17.14,1.17-1.73V1.36s-.06-1-.7-1Z"/><ellipse class="cls-1" cx="222.92" cy="38.7" rx="1.3" ry="0.72"/><path class="cls-1" d="M13,.25V12.4H50V40.88H43.62s-1.23-.52-1.23-1.28v-12s-.29-1.4-1.4-1.4H8.94s-1.17.14-1.17-1.73V1.36s.06-1,.7-1Z"/><ellipse class="cls-1" cx="44.97" cy="38.7" rx="1.3" ry="0.72"/><line class="cls-1" x1="12.92" y1="5.33" x2="254.96" y2="5.33"/><line class="cls-1" x1="161.17" y1="12.39" x2="218.03" y2="12.39"/><line class="cls-1" x1="125.2" y1="12.39" x2="145.21" y2="12.39"/><line class="cls-1" x1="49.82" y1="12.39" x2="109.25" y2="12.39"/><line class="cls-1" x1="161.17" y1="14.06" x2="218.03" y2="14.06"/><line class="cls-1" x1="125.25" y1="14.06" x2="145.17" y2="14.06"/><line class="cls-1" x1="49.82" y1="14.06" x2="109.15" y2="14.06"/><line class="cls-1" x1="12.92" y1="2.27" x2="254.96" y2="2.27"/><line class="cls-1" x1="161.07" y1="39.36" x2="218" y2="39.36"/><line class="cls-1" x1="49.91" y1="39.22" x2="109.03" y2="39.22"/><polyline class="cls-1" points="144.68 43.29 161.13 43.29 161.13 39.35 163.92 39.35 173.43 39.35"/><polyline class="cls-1" points="173.39 39.35 173.39 50.25 96.81 50.25 96.81 39.22 109.2 39.22 109.2 43.29 125.55 43.29"/><polyline class="cls-1" points="106.36 39.19 106.36 46.14 163.89 46.14 163.89 39.22"/><line class="cls-1" x1="158.02" y1="43.39" x2="156.97" y2="46.2"/><line class="cls-1" x1="112.19" y1="43.34" x2="113.22" y2="46.17"/><line class="cls-1" x1="106.3" y1="44.5" x2="96.84" y2="44.5"/><line class="cls-1" x1="173.55" y1="44.5" x2="164.09" y2="44.5"/><rect class="cls-1" x="127.2" y="26" width="15.84" height="1.4" rx="0.7" ry="0.7" transform="translate(270.24 53.4) rotate(-180)"/><rect class="cls-1" x="127.2" y="28.26" width="15.84" height="1.4" rx="0.7" ry="0.7" transform="translate(270.24 57.92) rotate(180)"/><rect class="cls-1" x="127.2" y="30.52" width="15.84" height="1.4" rx="0.7" ry="0.7" transform="translate(270.24 62.44) rotate(180)"/><rect class="cls-1" x="127.2" y="32.78" width="15.84" height="1.4" rx="0.7" ry="0.7" transform="translate(270.24 66.96) rotate(-180)"/><rect class="cls-1" x="127.2" y="35.04" width="15.84" height="1.11" rx="0.55" ry="0.55" transform="translate(270.24 71.18) rotate(180)"/><rect class="cls-1" x="127.2" y="37" width="15.84" height="1.11" rx="0.55" ry="0.55" transform="translate(270.24 75.11) rotate(180)"/><polygon class="cls-1" points="144.18 40.33 126.15 40.33 125.55 40.81 125.55 44.63 144.68 44.63 144.68 40.88 144.18 40.33"/><path class="cls-1" d="M42.3,29.26H32.14V35.7H42.32S42.21,29.26,42.3,29.26Z"/><path class="cls-1" d="M28,36.53h3.89a.26.26,0,0,0,.25-.26c0-1.22,0-6.42,0-7.65a.25.25,0,0,0-.24-.26H28"/><path class="cls-1" d="M27,28.27h-6v9.42h1.77l4.83-1.15a.44.44,0,0,0,.34-.42V28.36Z"/><polygon class="cls-1" points="26.36 36.92 26.45 37.38 23.34 38.06 23.32 37.62 26.36 36.92"/><path class="cls-1" d="M9.68,28.21h2.57A.76.76,0,0,1,13,29v7.17a.76.76,0,0,1-.76.76H9.67a.42.42,0,0,1-.42-.42V28.63a.42.42,0,0,1,.42-.42Z" transform="translate(22.27 65.1) rotate(-180)"/><rect class="cls-1" x="7.65" y="30.7" width="1.6" height="4.58" transform="translate(16.89 65.98) rotate(-180)"/><line class="cls-1" x1="1.06" y1="34.2" x2="7.54" y2="34.2"/><line class="cls-1" x1="7.54" y1="31.34" x2="1.06" y2="31.34"/><rect class="cls-1" x="0.25" y="31.34" width="0.72" height="2.85" transform="translate(1.22 65.54) rotate(-180)"/><polygon class="cls-1" points="14.76 37.08 14.76 38.15 13.58 38.15 12.9 36.94 14.76 37.08"/><polyline class="cls-1" points="13.4 37.93 3.14 38.1 2.61 37.93 2.57 37.05 4.39 35.8 4.93 35.83 4.93 37.05 8.48 37.05"/><polyline class="cls-1" points="8.41 35.32 8.41 37.32 12.97 37.36"/><path class="cls-1" d="M225.48,29.26h7.74V35.7h-7.76S225.55,29.26,225.48,29.26Z"/><path class="cls-1" d="M237.38,36.53h-3.89a.25.25,0,0,1-.24-.26c0-1.22,0-6.42,0-7.65a.26.26,0,0,1,.25-.26h3.87"/><path class="cls-1" d="M238.49,28.27h7v9.91h-2.08L237.75,37a.47.47,0,0,1-.39-.45V28.37Z"/><polyline class="cls-1" points="238.67 37.24 238.65 37.53 241.51 38.18 241.51 37.79"/><path class="cls-1" d="M261.18,36.65l-7.25.73a.42.42,0,0,1-.41-.41l0-8.36a.4.4,0,0,1,.4-.4h7.28a.72.72,0,0,1,.72.72l-.05,7A.73.73,0,0,1,261.18,36.65Z"/><rect class="cls-1" x="261.9" y="30.33" width="1.6" height="4.22"/><polyline class="cls-1" points="260.01 28.23 260.01 27.88 256.41 27.88 256.41 28.19"/><path class="cls-1" d="M218,34.84h6.35a1.8,1.8,0,0,0,1.18-1.27"/><path class="cls-1" d="M50,34.84H43.6a1.8,1.8,0,0,1-1.18-1.27"/><line class="cls-1" x1="245.52" y1="28.36" x2="253.73" y2="28.36"/><line class="cls-1" x1="245.52" y1="37.97" x2="253.63" y2="37.03"/><rect class="cls-1" x="246.33" y="28.21" width="1.01" height="9.7" rx="0.19" ry="0.19"/><rect class="cls-1" x="248.14" y="28.21" width="0.94" height="9.66" rx="0.19" ry="0.19"/><rect class="cls-1" x="249.98" y="28.21" width="0.94" height="9.39" rx="0.19" ry="0.19"/><rect class="cls-1" x="251.73" y="28.33" width="0.94" height="9.17" rx="0.19" ry="0.19"/><line class="cls-1" x1="21.07" y1="28.27" x2="12.9" y2="28.36"/><line class="cls-1" x1="21.07" y1="37.69" x2="12.9" y2="36.94"/><rect class="cls-1" x="19.25" y="28.21" width="0.94" height="9.5" rx="0.19" ry="0.19" transform="translate(39.44 65.92) rotate(-180)"/><rect class="cls-1" x="17.39" y="28.21" width="0.94" height="9.26" rx="0.19" ry="0.19" transform="translate(35.72 65.67) rotate(-180)"/><rect class="cls-1" x="15.64" y="28.21" width="0.94" height="9.03" rx="0.19" ry="0.19" transform="translate(32.22 65.45) rotate(-180)"/><rect class="cls-1" x="13.86" y="28.21" width="0.94" height="8.87" rx="0.19" ry="0.19" transform="translate(28.67 65.29) rotate(-180)"/></g></g></svg>
