<svg xmlns="http://www.w3.org/2000/svg" viewBox="0 0 57.54 50.5"><defs><style>.cls-1,.cls-2{fill:none;stroke:#000;stroke-miterlimit:10;}.cls-1{stroke-width:0.5px;}.cls-2{stroke-width:0.25px;}</style></defs><title>INT-FLEX-ICON</title><g id="Layer_2" data-name="Layer 2"><g id="Layer_1-2" data-name="Layer 1"><path class="cls-1" d="M41.9.25H15.64a2.27,2.27,0,0,0-2,1.13L.55,24.12a2.28,2.28,0,0,0,0,2.26L13.68,49.12a2.27,2.27,0,0,0,2,1.13H41.9a2.25,2.25,0,0,0,2-1.13L57,26.38a2.23,2.23,0,0,0,0-2.26L43.85,1.38A2.25,2.25,0,0,0,41.9.25Z"/><path class="cls-2" d="M41.28,1.42h-25A2.15,2.15,0,0,0,14.39,2.5L1.88,24.17a2.14,2.14,0,0,0,0,2.16L14.39,48a2.15,2.15,0,0,0,1.87,1.08h25A2.16,2.16,0,0,0,43.15,48L55.66,26.33a2.19,2.19,0,0,0,0-2.16L43.15,2.5A2.16,2.16,0,0,0,41.28,1.42Z"/><path class="cls-2" d="M35.2,8.13l-.51-.83H32.27"/><path class="cls-2" d="M17.16,11.12l-1,0L15,13.26"/><path class="cls-2" d="M10.73,28.24l-.47.85,1.21,2.1"/><path class="cls-2" d="M22.34,42.37l.5.83h2.42"/><path class="cls-2" d="M40.38,39.38l1,0,1.22-2.11"/><path class="cls-2" d="M46.81,22.26l.46-.85-1.21-2.1"/><path class="cls-2" d="M32.27,7.3H26.18l-.33.54A17.47,17.47,0,0,1,35.74,9l-.54-.9"/><path class="cls-2" d="M15,13.26l-3,5.26.3.54a17.75,17.75,0,0,1,6-8l-1.05,0"/><path class="cls-2" d="M11.47,31.19l3,5.28h.62a17.59,17.59,0,0,1-3.9-9.17l-.51.93"/><path class="cls-2" d="M25.26,43.2h6.1l.32-.54a17.47,17.47,0,0,1-9.89-1.19l.55.9"/><path class="cls-2" d="M42.57,37.24l3-5.26-.3-.54a17.75,17.75,0,0,1-6,8l1.05,0"/><path class="cls-2" d="M46.06,19.31,43,14h-.62a17.52,17.52,0,0,1,3.91,9.17l.51-.93"/><path class="cls-2" d="M36.33,10l-.59-1a17.47,17.47,0,0,0-9.89-1.19l-.43.71"/><path class="cls-2" d="M19.34,11.07l-1.13,0a17.75,17.75,0,0,0-6,8l.41.74"/><path class="cls-2" d="M11.78,26.32l-.54,1a17.59,17.59,0,0,0,3.9,9.17l.85,0"/><path class="cls-2" d="M21.2,40.51l.59,1a17.47,17.47,0,0,0,9.89,1.19l.43-.71"/><path class="cls-2" d="M38.2,39.43l1.13,0a17.75,17.75,0,0,0,6-8l-.41-.74"/><path class="cls-2" d="M45.76,24.18l.54-1A17.52,17.52,0,0,0,42.39,14l-.84,0"/><path class="cls-2" d="M25.42,8.55,25,9.3a16.33,16.33,0,0,1,12,1.76L36.33,10"/><path class="cls-2" d="M12.64,19.8l.41.76A16.45,16.45,0,0,1,20.58,11l-1.24,0"/><path class="cls-2" d="M16,36.5h.86a16.37,16.37,0,0,1-4.48-11.26h0l-.59,1.08"/><path class="cls-2" d="M32.11,42l.45-.75a16.3,16.3,0,0,1-12-1.76l.64,1.07"/><path class="cls-2" d="M44.9,30.7l-.42-.76A16.45,16.45,0,0,1,37,39.46l1.25,0"/><path class="cls-2" d="M41.55,14h-.87a16.34,16.34,0,0,1,4.49,11.26h0l.59-1.08"/><path class="cls-2" d="M37,11.81l.2-.34L37,11.06A16.33,16.33,0,0,0,25,9.3l-.46.77"/><path class="cls-2" d="M21.26,11.38,21.07,11h-.49a16.45,16.45,0,0,0-7.53,9.52l.44.78"/><path class="cls-2" d="M13,24.82H12.6l-.23.43h0a16.37,16.37,0,0,0,4.48,11.26l.9,0"/><path class="cls-2" d="M20.51,38.69,20.3,39l.26.41a16.3,16.3,0,0,0,12,1.76l.47-.77"/><path class="cls-2" d="M36.28,39.12l.19.35H37a16.45,16.45,0,0,0,7.53-9.52l-.43-.78"/><path class="cls-2" d="M44.53,25.68h.4l.24-.43h0A16.34,16.34,0,0,0,40.68,14l-.9,0"/><path class="cls-2" d="M24.51,10.07l-.49.8a15.24,15.24,0,0,1,4.75-.76,15.08,15.08,0,0,1,7.93,2.24l.33-.54"/><path class="cls-2" d="M13.49,21.34l.45.83a15.16,15.16,0,0,1,7.62-10.24l-.3-.55"/><path class="cls-2" d="M17.75,36.53l.94,0a15.09,15.09,0,0,1-5.06-11.3c0-.14,0-.28,0-.42H13"/><path class="cls-2" d="M33,40.43l.48-.8a15.16,15.16,0,0,1-12.67-1.48l-.33.54"/><path class="cls-2" d="M44.05,29.16l-.45-.83A15.18,15.18,0,0,1,36,38.57l.31.55"/><path class="cls-2" d="M39.78,14l-.93,0a15.12,15.12,0,0,1,5.06,11.3c0,.14,0,.28,0,.42h.63"/><path class="cls-2" d="M36.37,12.89l.33-.54a15.08,15.08,0,0,0-7.93-2.24,15.24,15.24,0,0,0-4.75.76l-.36.6.09.16"/><path class="cls-2" d="M21.86,12.48l-.3-.55a15.16,15.16,0,0,0-7.62,10.24l.34.62h.19"/><path class="cls-2" d="M14.26,24.85l-.62,0c0,.14,0,.28,0,.42a15.09,15.09,0,0,0,5.06,11.3h.7l.09-.16"/><path class="cls-2" d="M21.16,37.61l-.32.54a15.16,15.16,0,0,0,12.67,1.48l.37-.6-.1-.16"/><path class="cls-2" d="M35.67,38l.3.55A15.18,15.18,0,0,0,43.6,28.33l-.35-.62h-.18"/><path class="cls-2" d="M43.27,25.65l.63,0c0-.14,0-.28,0-.42A15.12,15.12,0,0,0,38.85,14h-.71l-.08.16"/><path class="cls-2" d="M23.75,11.63l.33.55a13.84,13.84,0,0,1,12,1.24l.33-.53"/><path class="cls-2" d="M14.47,22.78h.64A13.92,13.92,0,0,1,22.16,13l-.3-.55"/><path class="cls-2" d="M19.48,36.4l.31-.56a13.87,13.87,0,0,1-4.91-10.59c0-.13,0-.26,0-.39h-.63"/><path class="cls-2" d="M33.78,38.87l-.33-.55a13.71,13.71,0,0,1-4.68.82,13.88,13.88,0,0,1-7.28-2.06l-.33.53"/><path class="cls-2" d="M43.07,27.72h-.64a13.93,13.93,0,0,1-7.06,9.74l.3.55"/><path class="cls-2" d="M38.06,14.1l-.31.56a13.86,13.86,0,0,1,4.9,10.59c0,.13,0,.26,0,.39h.63"/><path class="cls-2" d="M35.72,14l.32-.54a13.84,13.84,0,0,0-12-1.24l.34.55"/><path class="cls-2" d="M22.47,13.58,22.16,13a13.92,13.92,0,0,0-7,9.74h.64"/><path class="cls-2" d="M15.52,24.88l-.63,0c0,.13,0,.26,0,.39a13.87,13.87,0,0,0,4.91,10.59l.31-.56"/><path class="cls-2" d="M21.82,36.54l-.33.54a13.88,13.88,0,0,0,7.28,2.06,13.71,13.71,0,0,0,4.68-.82l-.33-.55"/><path class="cls-2" d="M35.07,36.92l.3.55a13.93,13.93,0,0,0,7.06-9.74h-.64"/><path class="cls-2" d="M42,25.62l.62,0c0-.13,0-.26,0-.39a13.86,13.86,0,0,0-4.9-10.59l-.32.56"/><path class="cls-2" d="M24.42,12.73l.33.55a12.41,12.41,0,0,1,4-.66,12.56,12.56,0,0,1,6.62,1.88l.33-.54"/><path class="cls-2" d="M15.75,22.76l.64,0a12.64,12.64,0,0,1,6.38-8.6l-.3-.56"/><path class="cls-2" d="M20.1,35.28l.31-.57a12.57,12.57,0,0,1-4.27-9.46c0-.12,0-.24,0-.36h-.63"/><path class="cls-2" d="M33.12,37.77l-.33-.55A12.59,12.59,0,0,1,22.15,36l-.33.54"/><path class="cls-2" d="M41.79,27.74l-.64,0a12.64,12.64,0,0,1-6.38,8.6l.3.56"/><path class="cls-2" d="M37.43,15.22l-.31.57a12.58,12.58,0,0,1,4.28,9.46c0,.12,0,.24,0,.36H42"/><path class="cls-2" d="M35.06,15l.33-.53a12.56,12.56,0,0,0-6.62-1.88,12.41,12.41,0,0,0-4,.66l.33.55"/><path class="cls-2" d="M23.07,14.69l-.3-.55a12.64,12.64,0,0,0-6.38,8.6H17"/><path class="cls-2" d="M16.78,24.91l-.63,0c0,.12,0,.24,0,.36a12.57,12.57,0,0,0,4.27,9.46l.31-.56"/><path class="cls-2" d="M22.47,35.47l-.32.53a12.59,12.59,0,0,0,10.64,1.22l-.34-.55"/><path class="cls-2" d="M34.47,35.81l.3.55a12.64,12.64,0,0,0,6.38-8.6H40.5"/><path class="cls-2" d="M40.76,25.59l.63,0c0-.12,0-.24,0-.36a12.58,12.58,0,0,0-4.28-9.46l-.31.56"/><path class="cls-2" d="M25.08,13.83l.34.55a11.55,11.55,0,0,1,3.35-.5,11.35,11.35,0,0,1,6,1.69l.32-.54"/><path class="cls-2" d="M17,22.73h.65a11.43,11.43,0,0,1,5.69-7.48l-.3-.55"/><path class="cls-2" d="M20.72,34.15l.31-.57a11.34,11.34,0,0,1-3.63-8.33c0-.11,0-.22,0-.33h-.63"/><path class="cls-2" d="M32.45,36.67l-.33-.55a11.61,11.61,0,0,1-3.35.5,11.32,11.32,0,0,1-6-1.69l-.33.54"/><path class="cls-2" d="M40.5,27.77h-.65a11.39,11.39,0,0,1-5.68,7.48l.3.55"/><path class="cls-2" d="M36.81,16.35l-.31.57a11.31,11.31,0,0,1,3.64,8.33c0,.11,0,.22,0,.33h.63"/><path class="cls-2" d="M33.57,15.64h1.12l.05-.07a11.35,11.35,0,0,0-6-1.69,11.55,11.55,0,0,0-3.35.5l.33.56"/><path class="cls-2" d="M22.85,16.28l.56-1,0-.08a11.43,11.43,0,0,0-5.69,7.48h.65"/><path class="cls-2" d="M18.05,25.89l-.56-1h-.08c0,.11,0,.22,0,.33A11.34,11.34,0,0,0,21,33.58l.32-.57"/><path class="cls-2" d="M24,34.86H22.84l0,.07a11.32,11.32,0,0,0,6,1.69,11.61,11.61,0,0,0,3.35-.5l-.34-.56"/><path class="cls-2" d="M34.69,34.22l-.56,1,0,.08a11.39,11.39,0,0,0,5.68-7.48H39.2"/><path class="cls-2" d="M39.49,24.61l.56,1h.08c0-.11,0-.22,0-.33a11.31,11.31,0,0,0-3.64-8.33l-.31.57"/><path class="cls-2" d="M25.75,14.94l.34.56a9.85,9.85,0,0,1,2.68-.36,10.3,10.3,0,0,1,3.16.5h1.64"/><path class="cls-2" d="M18.33,22.71l.65,0a10.15,10.15,0,0,1,3.05-5l.82-1.43"/><path class="cls-2" d="M21.35,33l.31-.56a10.2,10.2,0,0,1-2.8-5.14l-.81-1.42"/><path class="cls-2" d="M31.78,35.56,31.45,35a9.91,9.91,0,0,1-2.68.36,10.25,10.25,0,0,1-3.16-.5H24"/><path class="cls-2" d="M39.2,27.79l-.64,0a10.15,10.15,0,0,1-3.05,5l-.82,1.43"/><path class="cls-2" d="M36.19,17.49l-.32.56a10.13,10.13,0,0,1,2.8,5.14l.82,1.42"/><path class="cls-2" d="M31.93,15.64a10.3,10.3,0,0,0-3.16-.5,9.85,9.85,0,0,0-2.68.36l.09.14Z"/><path class="cls-2" d="M19,22.69h.17l2.88-5"/><path class="cls-2" d="M18.86,27.31a10.2,10.2,0,0,0,2.8,5.14l.08-.15Z"/><path class="cls-2" d="M25.61,34.86a10.25,10.25,0,0,0,3.16.5A9.91,9.91,0,0,0,31.45,35l-.09-.14Z"/><path class="cls-2" d="M35.51,32.79a10.15,10.15,0,0,0,3.05-5h-.18Z"/><path class="cls-2" d="M35.87,18.05l-.08.15,2.88,5A10.13,10.13,0,0,0,35.87,18.05Z"/></g></g></svg>