<svg xmlns="http://www.w3.org/2000/svg" viewBox="0 0 263.75 35.57"><defs><style>.cls-1{fill:none;stroke:#231f20;stroke-linecap:round;stroke-linejoin:round;stroke-width:0.5px;}</style></defs><title>LEGACY-ICON</title><g id="Layer_2" data-name="Layer 2"><g id="Layer_1-2" data-name="Layer 1"><line id="_Path_" data-name="&lt;Path&gt;" class="cls-1" x1="260.83" y1="8.68" x2="260.83" y2="8.68"/><line id="_Path_2" data-name="&lt;Path&gt;" class="cls-1" x1="0.25" y1="20.62" x2="0.25" y2="23.5"/><line id="_Path_3" data-name="&lt;Path&gt;" class="cls-1" x1="2.33" y1="20.83" x2="2.33" y2="23.3"/><line id="_Path_4" data-name="&lt;Path&gt;" class="cls-1" x1="3" y1="20.83" x2="3" y2="23.3"/><line id="_Path_5" data-name="&lt;Path&gt;" class="cls-1" x1="6.58" y1="6.9" x2="6.58" y2="10.94"/><line id="_Path_6" data-name="&lt;Path&gt;" class="cls-1" x1="6.75" y1="16.8" x2="6.75" y2="0.66"/><line id="_Path_7" data-name="&lt;Path&gt;" class="cls-1" x1="7.58" y1="19.8" x2="7.58" y2="20.83"/><line id="_Path_8" data-name="&lt;Path&gt;" class="cls-1" x1="7.58" y1="23.3" x2="7.58" y2="24.33"/><line id="_Path_9" data-name="&lt;Path&gt;" class="cls-1" x1="8.16" y1="19.8" x2="8.16" y2="20.79"/><line id="_Path_10" data-name="&lt;Path&gt;" class="cls-1" x1="8.16" y1="23.34" x2="8.16" y2="24.33"/><line id="_Path_11" data-name="&lt;Path&gt;" class="cls-1" x1="8.58" y1="24.33" x2="8.58" y2="23.3"/><line id="_Path_12" data-name="&lt;Path&gt;" class="cls-1" x1="8.58" y1="20.83" x2="8.58" y2="19.8"/><line id="_Path_13" data-name="&lt;Path&gt;" class="cls-1" x1="8.83" y1="17.21" x2="8.83" y2="0.25"/><line id="_Path_14" data-name="&lt;Path&gt;" class="cls-1" x1="9" y1="19.8" x2="9" y2="20.83"/><line id="_Path_15" data-name="&lt;Path&gt;" class="cls-1" x1="9" y1="23.3" x2="9" y2="24.33"/><line id="_Path_16" data-name="&lt;Path&gt;" class="cls-1" x1="10.05" y1="17.89" x2="10.02" y2="17.48"/><line id="_Path_17" data-name="&lt;Path&gt;" class="cls-1" x1="14.68" y1="17.54" x2="14.65" y2="17.21"/><line id="_Path_18" data-name="&lt;Path&gt;" class="cls-1" x1="9.25" y1="24.33" x2="9.25" y2="25.83"/><line id="_Path_19" data-name="&lt;Path&gt;" class="cls-1" x1="9.25" y1="19.8" x2="9.25" y2="18.3"/><line id="_Path_20" data-name="&lt;Path&gt;" class="cls-1" x1="9.66" y1="18.3" x2="9.66" y2="19.8"/><line id="_Path_21" data-name="&lt;Path&gt;" class="cls-1" x1="9.66" y1="24.33" x2="9.66" y2="25.83"/><line id="_Path_22" data-name="&lt;Path&gt;" class="cls-1" x1="12.33" y1="19.8" x2="12.33" y2="20.83"/><line id="_Path_23" data-name="&lt;Path&gt;" class="cls-1" x1="12.33" y1="23.3" x2="12.33" y2="24.33"/><line id="_Path_24" data-name="&lt;Path&gt;" class="cls-1" x1="13.21" y1="20.83" x2="13.21" y2="23.3"/><line id="_Path_25" data-name="&lt;Path&gt;" class="cls-1" x1="13.58" y1="19.8" x2="13.58" y2="24.33"/><line id="_Path_26" data-name="&lt;Path&gt;" class="cls-1" x1="14.68" y1="26.59" x2="14.68" y2="27"/><line id="_Path_27" data-name="&lt;Path&gt;" class="cls-1" x1="14.68" y1="17.54" x2="14.68" y2="17.21"/><line id="_Path_28" data-name="&lt;Path&gt;" class="cls-1" x1="14.83" y1="19.8" x2="14.83" y2="24.33"/><line id="_Path_29" data-name="&lt;Path&gt;" class="cls-1" x1="15.33" y1="24.33" x2="15.33" y2="27"/><line id="_Path_30" data-name="&lt;Path&gt;" class="cls-1" x1="15.33" y1="19.8" x2="15.33" y2="17.21"/><line id="_Path_31" data-name="&lt;Path&gt;" class="cls-1" x1="15.75" y1="26.59" x2="15.75" y2="17.54"/><line id="_Path_32" data-name="&lt;Path&gt;" class="cls-1" x1="16.13" y1="17.83" x2="16.13" y2="26.29"/><line id="_Path_33" data-name="&lt;Path&gt;" class="cls-1" x1="10.05" y1="26.24" x2="10.02" y2="26.65"/><line id="_Path_34" data-name="&lt;Path&gt;" class="cls-1" x1="20.05" y1="18.76" x2="20.05" y2="25.36"/><line id="_Path_35" data-name="&lt;Path&gt;" class="cls-1" x1="20.08" y1="17.54" x2="20.08" y2="18.76"/><line id="_Path_36" data-name="&lt;Path&gt;" class="cls-1" x1="20.08" y1="25.36" x2="20.08" y2="26.59"/><line id="_Path_37" data-name="&lt;Path&gt;" class="cls-1" x1="25.08" y1="27" x2="25.08" y2="17.21"/><line id="_Path_38" data-name="&lt;Path&gt;" class="cls-1" x1="25.91" y1="17.54" x2="25.91" y2="26.59"/><line id="_Path_39" data-name="&lt;Path&gt;" class="cls-1" x1="29.57" y1="35.32" x2="29.57" y2="33.18"/><line id="_Path_40" data-name="&lt;Path&gt;" class="cls-1" x1="32.57" y1="17.87" x2="32.57" y2="26.18"/><line id="_Path_41" data-name="&lt;Path&gt;" class="cls-1" x1="33.24" y1="26.84" x2="33.24" y2="17.21"/><line id="_Path_42" data-name="&lt;Path&gt;" class="cls-1" x1="33.74" y1="35.32" x2="33.74" y2="33.18"/><line id="_Path_43" data-name="&lt;Path&gt;" class="cls-1" x1="37.72" y1="26.43" x2="37.72" y2="26.84"/><line id="_Path_44" data-name="&lt;Path&gt;" class="cls-1" x1="46.24" y1="31.94" x2="46.24" y2="33.18"/><line id="_Path_45" data-name="&lt;Path&gt;" class="cls-1" x1="47.15" y1="31.94" x2="47.15" y2="29.47"/><line id="_Path_46" data-name="&lt;Path&gt;" class="cls-1" x1="47.55" y1="17.54" x2="47.55" y2="17.21"/><line id="_Path_47" data-name="&lt;Path&gt;" class="cls-1" x1="52.48" y1="31.94" x2="52.48" y2="17.21"/><line id="_Path_48" data-name="&lt;Path&gt;" class="cls-1" x1="55.82" y1="31.94" x2="55.82" y2="17.21"/><line id="_Path_49" data-name="&lt;Path&gt;" class="cls-1" x1="56.32" y1="17.21" x2="56.32" y2="31.94"/><line id="_Path_50" data-name="&lt;Path&gt;" class="cls-1" x1="58.81" y1="17.21" x2="58.81" y2="31.8"/><line id="_Path_51" data-name="&lt;Path&gt;" class="cls-1" x1="46.24" y1="33.18" x2="45.4" y2="32.35"/><line id="_Path_52" data-name="&lt;Path&gt;" class="cls-1" x1="52.48" y1="23.3" x2="48.58" y2="29.47"/><line id="_Path_53" data-name="&lt;Path&gt;" class="cls-1" x1="47.15" y1="31.73" x2="47.02" y2="31.94"/><line id="_Path_54" data-name="&lt;Path&gt;" class="cls-1" x1="52.48" y1="24.85" x2="49.56" y2="29.47"/><line id="_Path_55" data-name="&lt;Path&gt;" class="cls-1" x1="30.41" y1="32.35" x2="29.57" y2="33.18"/><line id="_Path_56" data-name="&lt;Path&gt;" class="cls-1" x1="247.5" y1="27.21" x2="260.21" y2="26.42"/><line id="_Path_57" data-name="&lt;Path&gt;" class="cls-1" x1="237.84" y1="35.32" x2="29.57" y2="35.32"/><line id="_Path_58" data-name="&lt;Path&gt;" class="cls-1" x1="14.65" y1="27" x2="10.02" y2="26.65"/><line id="_Path_59" data-name="&lt;Path&gt;" class="cls-1" x1="10.05" y1="26.24" x2="14.68" y2="26.59"/><line id="_Path_60" data-name="&lt;Path&gt;" class="cls-1" x1="20.04" y1="26.59" x2="16.13" y2="26.29"/><line id="_Path_61" data-name="&lt;Path&gt;" class="cls-1" x1="247.5" y1="26.55" x2="256.25" y2="26.01"/><line id="_Path_62" data-name="&lt;Path&gt;" class="cls-1" x1="29.57" y1="33.18" x2="237.84" y2="33.18"/><line id="_Path_63" data-name="&lt;Path&gt;" class="cls-1" x1="237.01" y1="32.35" x2="222.01" y2="32.35"/><line id="_Path_64" data-name="&lt;Path&gt;" class="cls-1" x1="30.41" y1="32.35" x2="45.4" y2="32.35"/><line id="_Path_65" data-name="&lt;Path&gt;" class="cls-1" x1="46.24" y1="31.94" x2="221.18" y2="31.94"/><line id="_Path_66" data-name="&lt;Path&gt;" class="cls-1" x1="52.48" y1="31.39" x2="55.82" y2="31.39"/><line id="_Path_67" data-name="&lt;Path&gt;" class="cls-1" x1="211.6" y1="31.39" x2="214.93" y2="31.39"/><line id="_Path_68" data-name="&lt;Path&gt;" class="cls-1" x1="214.76" y1="30.06" x2="211.76" y2="30.06"/><line id="_Path_69" data-name="&lt;Path&gt;" class="cls-1" x1="52.65" y1="30.06" x2="55.82" y2="30.06"/><line id="_Path_70" data-name="&lt;Path&gt;" class="cls-1" x1="47.15" y1="29.47" x2="52.48" y2="29.47"/><line id="_Path_71" data-name="&lt;Path&gt;" class="cls-1" x1="214.93" y1="29.47" x2="220.26" y2="29.47"/><line id="_Path_72" data-name="&lt;Path&gt;" class="cls-1" x1="240.26" y1="27.46" x2="240.59" y2="27.46"/><line id="_Path_73" data-name="&lt;Path&gt;" class="cls-1" x1="242.09" y1="27.46" x2="242.42" y2="27.46"/><line id="_Path_74" data-name="&lt;Path&gt;" class="cls-1" x1="243.92" y1="27.46" x2="244.25" y2="27.46"/><line id="_Path_75" data-name="&lt;Path&gt;" class="cls-1" x1="245.75" y1="27.46" x2="246.09" y2="27.46"/><line id="_Path_76" data-name="&lt;Path&gt;" class="cls-1" x1="247.59" y1="27.46" x2="247.92" y2="27.46"/><line id="_Path_77" data-name="&lt;Path&gt;" class="cls-1" x1="23.99" y1="27.25" x2="23.66" y2="27.25"/><line id="_Path_78" data-name="&lt;Path&gt;" class="cls-1" x1="22.16" y1="27.25" x2="21.83" y2="27.25"/><line id="_Path_79" data-name="&lt;Path&gt;" class="cls-1" x1="20.33" y1="27.25" x2="19.99" y2="27.25"/><line id="_Path_80" data-name="&lt;Path&gt;" class="cls-1" x1="18.49" y1="27.25" x2="18.16" y2="27.25"/><line id="_Path_81" data-name="&lt;Path&gt;" class="cls-1" x1="16.66" y1="27.25" x2="16.33" y2="27.25"/><line id="_Path_82" data-name="&lt;Path&gt;" class="cls-1" x1="247.5" y1="27.21" x2="248.17" y2="27.21"/><line id="_Path_83" data-name="&lt;Path&gt;" class="cls-1" x1="239.01" y1="27.21" x2="247.5" y2="27.21"/><line id="_Path_84" data-name="&lt;Path&gt;" class="cls-1" x1="14.68" y1="27" x2="25.49" y2="27"/><line id="_Path_85" data-name="&lt;Path&gt;" class="cls-1" x1="33.24" y1="26.84" x2="37.72" y2="26.84"/><line id="_Path_86" data-name="&lt;Path&gt;" class="cls-1" x1="229.86" y1="26.84" x2="234.34" y2="26.84"/><line id="_Path_87" data-name="&lt;Path&gt;" class="cls-1" x1="14.68" y1="26.59" x2="15.75" y2="26.59"/><line id="_Path_88" data-name="&lt;Path&gt;" class="cls-1" x1="20.04" y1="26.59" x2="25.91" y2="26.59"/><line id="_Path_89" data-name="&lt;Path&gt;" class="cls-1" x1="238.34" y1="26.55" x2="247.5" y2="26.55"/><line id="_Path_90" data-name="&lt;Path&gt;" class="cls-1" x1="33.24" y1="26.43" x2="37.72" y2="26.43"/><line id="_Path_91" data-name="&lt;Path&gt;" class="cls-1" x1="229.86" y1="26.43" x2="234.34" y2="26.43"/><line id="_Path_92" data-name="&lt;Path&gt;" class="cls-1" x1="16.13" y1="26.29" x2="15.74" y2="26.29"/><line id="_Path_93" data-name="&lt;Path&gt;" class="cls-1" x1="9.25" y1="25.83" x2="9.66" y2="25.83"/><line id="_Path_94" data-name="&lt;Path&gt;" class="cls-1" x1="238.34" y1="25.69" x2="235.01" y2="25.69"/><line id="_Path_95" data-name="&lt;Path&gt;" class="cls-1" x1="25.91" y1="25.69" x2="32.57" y2="25.69"/><line id="_Path_96" data-name="&lt;Path&gt;" class="cls-1" x1="20.08" y1="25.36" x2="20.05" y2="25.36"/><line id="_Path_97" data-name="&lt;Path&gt;" class="cls-1" x1="14.68" y1="27" x2="14.65" y2="27"/><line id="_Path_98" data-name="&lt;Path&gt;" class="cls-1" x1="7.58" y1="24.33" x2="15.75" y2="24.33"/><line id="_Path_99" data-name="&lt;Path&gt;" class="cls-1" x1="263.5" y1="24.16" x2="256.25" y2="24.16"/><line id="_Path_100" data-name="&lt;Path&gt;" class="cls-1" x1="7.58" y1="23.5" x2="0.25" y2="23.5"/><line id="_Path_101" data-name="&lt;Path&gt;" class="cls-1" x1="8.55" y1="23.34" x2="8.16" y2="23.34"/><line id="_Path_102" data-name="&lt;Path&gt;" class="cls-1" x1="2.33" y1="23.3" x2="13.21" y2="23.3"/><line id="_Path_103" data-name="&lt;Path&gt;" class="cls-1" x1="260.83" y1="23.21" x2="263.5" y2="23.21"/><line id="_Path_104" data-name="&lt;Path&gt;" class="cls-1" x1="13.21" y1="20.83" x2="2.33" y2="20.83"/><line id="_Path_105" data-name="&lt;Path&gt;" class="cls-1" x1="8.16" y1="20.79" x2="8.55" y2="20.79"/><line id="_Path_106" data-name="&lt;Path&gt;" class="cls-1" x1="7.58" y1="20.62" x2="0.25" y2="20.62"/><line id="_Path_107" data-name="&lt;Path&gt;" class="cls-1" x1="263.5" y1="20.5" x2="260.83" y2="20.5"/><line id="_Path_108" data-name="&lt;Path&gt;" class="cls-1" x1="211.26" y1="20.42" x2="213.1" y2="20.42"/><line id="_Path_109" data-name="&lt;Path&gt;" class="cls-1" x1="219.97" y1="20.17" x2="215.43" y2="20.17"/><line id="_Path_110" data-name="&lt;Path&gt;" class="cls-1" x1="7.58" y1="19.8" x2="15.75" y2="19.8"/><line id="_Path_111" data-name="&lt;Path&gt;" class="cls-1" x1="256.25" y1="19.55" x2="263.5" y2="19.55"/><line id="_Path_112" data-name="&lt;Path&gt;" class="cls-1" x1="56.32" y1="19.35" x2="55.82" y2="19.35"/><line id="_Path_113" data-name="&lt;Path&gt;" class="cls-1" x1="211.26" y1="19.02" x2="208.77" y2="19.02"/><line id="_Path_114" data-name="&lt;Path&gt;" class="cls-1" x1="56.32" y1="19.02" x2="58.81" y2="19.02"/><line id="_Path_115" data-name="&lt;Path&gt;" class="cls-1" x1="208.77" y1="18.85" x2="58.81" y2="18.85"/><line id="_Path_116" data-name="&lt;Path&gt;" class="cls-1" x1="20.08" y1="18.76" x2="20.05" y2="18.76"/><line id="_Path_117" data-name="&lt;Path&gt;" class="cls-1" x1="238.34" y1="18.44" x2="235.01" y2="18.44"/><line id="_Path_118" data-name="&lt;Path&gt;" class="cls-1" x1="25.91" y1="18.44" x2="32.57" y2="18.44"/><line id="_Path_119" data-name="&lt;Path&gt;" class="cls-1" x1="56.32" y1="18.36" x2="55.82" y2="18.36"/><line id="_Path_120" data-name="&lt;Path&gt;" class="cls-1" x1="9.66" y1="18.3" x2="9.25" y2="18.3"/><line id="_Path_121" data-name="&lt;Path&gt;" class="cls-1" x1="15.75" y1="17.83" x2="16.13" y2="17.83"/><line id="_Path_122" data-name="&lt;Path&gt;" class="cls-1" x1="254.2" y1="17.57" x2="238.34" y2="17.57"/><line id="_Path_123" data-name="&lt;Path&gt;" class="cls-1" x1="55.82" y1="17.57" x2="52.65" y2="17.57"/><line id="_Path_124" data-name="&lt;Path&gt;" class="cls-1" x1="213.1" y1="17.57" x2="214.76" y2="17.57"/><line id="_Path_125" data-name="&lt;Path&gt;" class="cls-1" x1="15.75" y1="17.54" x2="14.68" y2="17.54"/><line id="_Path_126" data-name="&lt;Path&gt;" class="cls-1" x1="33.24" y1="17.54" x2="47.55" y2="17.54"/><line id="_Path_127" data-name="&lt;Path&gt;" class="cls-1" x1="220.03" y1="17.54" x2="234.34" y2="17.54"/><line id="_Path_128" data-name="&lt;Path&gt;" class="cls-1" x1="25.91" y1="17.54" x2="20.04" y2="17.54"/><line id="_Path_129" data-name="&lt;Path&gt;" class="cls-1" x1="7.16" y1="17.21" x2="260.42" y2="17.21"/><line id="_Path_130" data-name="&lt;Path&gt;" class="cls-1" x1="16.13" y1="17.83" x2="20.05" y2="17.54"/><line id="_Path_131" data-name="&lt;Path&gt;" class="cls-1" x1="14.68" y1="17.54" x2="10.05" y2="17.89"/><line id="_Path_132" data-name="&lt;Path&gt;" class="cls-1" x1="10.02" y1="17.48" x2="13.58" y2="17.21"/><line id="_Path_133" data-name="&lt;Path&gt;" class="cls-1" x1="260.83" y1="11.86" x2="258.75" y2="11.86"/><line id="_Path_134" data-name="&lt;Path&gt;" class="cls-1" x1="8.83" y1="11.86" x2="6.75" y2="11.86"/><line id="_Path_135" data-name="&lt;Path&gt;" class="cls-1" x1="6.58" y1="10.94" x2="6.75" y2="10.94"/><line id="_Path_136" data-name="&lt;Path&gt;" class="cls-1" x1="260.83" y1="10.93" x2="261" y2="10.93"/><line id="_Path_137" data-name="&lt;Path&gt;" class="cls-1" x1="260.83" y1="10.92" x2="261" y2="10.92"/><line id="_Path_138" data-name="&lt;Path&gt;" class="cls-1" x1="6.75" y1="10.88" x2="6.58" y2="10.88"/><line id="_Path_139" data-name="&lt;Path&gt;" class="cls-1" x1="260.42" y1="10.39" x2="258.75" y2="10.39"/><line id="_Path_140" data-name="&lt;Path&gt;" class="cls-1" x1="8.83" y1="10.39" x2="7.16" y2="10.39"/><line id="_Path_141" data-name="&lt;Path&gt;" class="cls-1" x1="6.75" y1="9.23" x2="6.58" y2="9.23"/><line id="_Path_142" data-name="&lt;Path&gt;" class="cls-1" x1="6.75" y1="8.78" x2="6.58" y2="8.78"/><line id="_Path_143" data-name="&lt;Path&gt;" class="cls-1" x1="260.83" y1="8.64" x2="261" y2="8.64"/><line id="_Path_144" data-name="&lt;Path&gt;" class="cls-1" x1="254.2" y1="17.57" x2="256.25" y2="17.7"/><line id="_Path_145" data-name="&lt;Path&gt;" class="cls-1" x1="258.87" y1="17.21" x2="260.21" y2="17.29"/><line id="_Path_146" data-name="&lt;Path&gt;" class="cls-1" x1="6.75" y1="7.73" x2="6.58" y2="7.73"/><line id="_Path_147" data-name="&lt;Path&gt;" class="cls-1" x1="260.83" y1="7.64" x2="261" y2="7.64"/><line id="_Path_148" data-name="&lt;Path&gt;" class="cls-1" x1="6.75" y1="7.63" x2="6.58" y2="7.63"/><line id="_Path_149" data-name="&lt;Path&gt;" class="cls-1" x1="260.83" y1="7.63" x2="261" y2="7.63"/><line id="_Path_150" data-name="&lt;Path&gt;" class="cls-1" x1="6.75" y1="6.9" x2="6.58" y2="6.9"/><line id="_Path_151" data-name="&lt;Path&gt;" class="cls-1" x1="260.83" y1="6.9" x2="261" y2="6.9"/><line id="_Path_152" data-name="&lt;Path&gt;" class="cls-1" x1="8.83" y1="5.84" x2="258.75" y2="5.84"/><line id="_Path_153" data-name="&lt;Path&gt;" class="cls-1" x1="258.75" y1="0.27" x2="8.83" y2="0.27"/><line id="_Path_154" data-name="&lt;Path&gt;" class="cls-1" x1="8.83" y1="0.25" x2="7.16" y2="0.25"/><line id="_Path_155" data-name="&lt;Path&gt;" class="cls-1" x1="258.75" y1="0.25" x2="260.42" y2="0.25"/><line id="_Path_156" data-name="&lt;Path&gt;" class="cls-1" x1="237.84" y1="33.18" x2="237.01" y2="32.35"/><line id="_Path_157" data-name="&lt;Path&gt;" class="cls-1" x1="217.85" y1="29.47" x2="214.93" y2="24.85"/><line id="_Path_158" data-name="&lt;Path&gt;" class="cls-1" x1="220.4" y1="31.94" x2="220.26" y2="31.73"/><line id="_Path_159" data-name="&lt;Path&gt;" class="cls-1" x1="218.84" y1="29.47" x2="214.93" y2="23.3"/><line id="_Path_160" data-name="&lt;Path&gt;" class="cls-1" x1="208.77" y1="31.94" x2="208.77" y2="17.21"/><line id="_Path_161" data-name="&lt;Path&gt;" class="cls-1" x1="211.26" y1="31.94" x2="211.26" y2="17.21"/><line id="_Path_162" data-name="&lt;Path&gt;" class="cls-1" x1="211.76" y1="31.94" x2="211.76" y2="22.73"/><line id="_Path_163" data-name="&lt;Path&gt;" class="cls-1" x1="222.01" y1="32.35" x2="221.18" y2="33.18"/><line id="_Path_164" data-name="&lt;Path&gt;" class="cls-1" x1="213.1" y1="20.83" x2="213.1" y2="17.21"/><line id="_Path_165" data-name="&lt;Path&gt;" class="cls-1" x1="214.93" y1="17.21" x2="214.93" y2="31.94"/><line id="_Path_166" data-name="&lt;Path&gt;" class="cls-1" x1="215.43" y1="20.17" x2="215.43" y2="17.21"/><line id="_Path_167" data-name="&lt;Path&gt;" class="cls-1" x1="216.68" y1="20.17" x2="216.68" y2="17.21"/><line id="_Path_168" data-name="&lt;Path&gt;" class="cls-1" x1="220.03" y1="17.54" x2="220.03" y2="17.21"/><line id="_Path_169" data-name="&lt;Path&gt;" class="cls-1" x1="220.26" y1="31.94" x2="220.26" y2="29.47"/><line id="_Path_170" data-name="&lt;Path&gt;" class="cls-1" x1="221.18" y1="31.94" x2="221.18" y2="33.18"/><line id="_Path_171" data-name="&lt;Path&gt;" class="cls-1" x1="229.86" y1="26.43" x2="229.86" y2="26.84"/><line id="_Path_172" data-name="&lt;Path&gt;" class="cls-1" x1="233.67" y1="35.32" x2="233.67" y2="33.18"/><line id="_Path_173" data-name="&lt;Path&gt;" class="cls-1" x1="234.34" y1="26.84" x2="234.34" y2="17.21"/><line id="_Path_174" data-name="&lt;Path&gt;" class="cls-1" x1="235.01" y1="26.18" x2="235.01" y2="17.87"/><line id="_Path_175" data-name="&lt;Path&gt;" class="cls-1" x1="237.84" y1="35.32" x2="237.84" y2="33.18"/><line id="_Path_176" data-name="&lt;Path&gt;" class="cls-1" x1="238.34" y1="17.57" x2="238.34" y2="26.55"/><line id="_Path_177" data-name="&lt;Path&gt;" class="cls-1" x1="239.01" y1="27.21" x2="239.01" y2="17.21"/><line id="_Path_178" data-name="&lt;Path&gt;" class="cls-1" x1="247.5" y1="26.55" x2="247.5" y2="17.57"/><line id="_Path_179" data-name="&lt;Path&gt;" class="cls-1" x1="256.25" y1="17.21" x2="256.25" y2="26.66"/><line id="_Path_180" data-name="&lt;Path&gt;" class="cls-1" x1="258.75" y1="0.25" x2="258.75" y2="17.21"/><line id="_Path_181" data-name="&lt;Path&gt;" class="cls-1" x1="260.83" y1="0.66" x2="260.83" y2="16.8"/><line id="_Path_182" data-name="&lt;Path&gt;" class="cls-1" x1="260.83" y1="25.76" x2="260.83" y2="17.95"/><line id="_Path_183" data-name="&lt;Path&gt;" class="cls-1" x1="261" y1="10.92" x2="261" y2="6.9"/><line id="_Path_184" data-name="&lt;Path&gt;" class="cls-1" x1="261.5" y1="23.21" x2="261.5" y2="20.5"/><line id="_Path_185" data-name="&lt;Path&gt;" class="cls-1" x1="263.5" y1="24.16" x2="263.5" y2="19.55"/><path id="_Path_186" data-name="&lt;Path&gt;" class="cls-1" d="M9.25,25.83a.82.82,0,0,0,.77.82"/><path id="_Path_187" data-name="&lt;Path&gt;" class="cls-1" d="M25.49,27a.41.41,0,0,0,.42-.41"/><path id="_Path_188" data-name="&lt;Path&gt;" class="cls-1" d="M15.75,26.59a.41.41,0,0,0,.41.41"/><path id="_Path_189" data-name="&lt;Path&gt;" class="cls-1" d="M9.66,25.83a.42.42,0,0,0,.39.41"/><path id="_Path_190" data-name="&lt;Path&gt;" class="cls-1" d="M16.66,27.25a.25.25,0,0,0,.25-.25"/><path id="_Path_191" data-name="&lt;Path&gt;" class="cls-1" d="M16.08,27a.25.25,0,0,0,.25.25"/><path id="_Path_192" data-name="&lt;Path&gt;" class="cls-1" d="M18.49,27.25a.25.25,0,0,0,.25-.25"/><path id="_Path_193" data-name="&lt;Path&gt;" class="cls-1" d="M17.91,27a.25.25,0,0,0,.25.25"/><path id="_Path_194" data-name="&lt;Path&gt;" class="cls-1" d="M20.33,27.25a.25.25,0,0,0,.25-.25"/><path id="_Path_195" data-name="&lt;Path&gt;" class="cls-1" d="M19.74,27a.25.25,0,0,0,.25.25"/><path id="_Path_196" data-name="&lt;Path&gt;" class="cls-1" d="M22.16,27.25a.25.25,0,0,0,.25-.25"/><path id="_Path_197" data-name="&lt;Path&gt;" class="cls-1" d="M21.58,27a.25.25,0,0,0,.25.25"/><path id="_Path_198" data-name="&lt;Path&gt;" class="cls-1" d="M24,27.25a.25.25,0,0,0,.25-.25"/><path id="_Path_199" data-name="&lt;Path&gt;" class="cls-1" d="M23.41,27a.25.25,0,0,0,.25.25"/><path id="_Path_200" data-name="&lt;Path&gt;" class="cls-1" d="M10,17.48a.82.82,0,0,0-.77.82"/><path id="_Path_201" data-name="&lt;Path&gt;" class="cls-1" d="M25.91,17.54a.39.39,0,0,0-.17-.33"/><path id="_Path_202" data-name="&lt;Path&gt;" class="cls-1" d="M15.91,17.21a.41.41,0,0,0-.16.33"/><path id="_Path_203" data-name="&lt;Path&gt;" class="cls-1" d="M10.05,17.89a.41.41,0,0,0-.39.41"/><path id="_Path_204" data-name="&lt;Path&gt;" class="cls-1" d="M6.75,16.8a.41.41,0,0,0,.41.41"/><path id="_Path_205" data-name="&lt;Path&gt;" class="cls-1" d="M32.57,26.18a.67.67,0,0,0,.67.66"/><path id="_Path_206" data-name="&lt;Path&gt;" class="cls-1" d="M40,26.58a10.86,10.86,0,0,0,8.31-8.82"/><path id="_Path_207" data-name="&lt;Path&gt;" class="cls-1" d="M39.8,26.19a10,10,0,0,0,7.75-8.65"/><path id="_Path_208" data-name="&lt;Path&gt;" class="cls-1" d="M37.72,26.84A10.2,10.2,0,0,0,40,26.58"/><path id="_Path_209" data-name="&lt;Path&gt;" class="cls-1" d="M37.72,26.43a9.09,9.09,0,0,0,2.08-.24"/><path id="_Path_210" data-name="&lt;Path&gt;" class="cls-1" d="M32.57,17.87a.66.66,0,0,0-.66-.66"/><path id="_Path_211" data-name="&lt;Path&gt;" class="cls-1" d="M49,17.21a.66.66,0,0,0-.66.55"/><path id="_Path_212" data-name="&lt;Path&gt;" class="cls-1" d="M7.16.25a.41.41,0,0,0-.41.41"/><path id="_Path_213" data-name="&lt;Path&gt;" class="cls-1" d="M234.34,26.84a.67.67,0,0,0,.67-.66"/><path id="_Path_214" data-name="&lt;Path&gt;" class="cls-1" d="M219.28,17.76a10.86,10.86,0,0,0,8.31,8.82"/><path id="_Path_215" data-name="&lt;Path&gt;" class="cls-1" d="M220,17.54a10,10,0,0,0,7.75,8.65"/><path id="_Path_216" data-name="&lt;Path&gt;" class="cls-1" d="M227.59,26.58a10.2,10.2,0,0,0,2.27.26"/><path id="_Path_217" data-name="&lt;Path&gt;" class="cls-1" d="M227.78,26.19a9.09,9.09,0,0,0,2.08.24"/><path id="_Path_218" data-name="&lt;Path&gt;" class="cls-1" d="M211.26,22.89a1.87,1.87,0,0,0,.34,0"/><path id="_Path_219" data-name="&lt;Path&gt;" class="cls-1" d="M211.27,22.87a2.06,2.06,0,0,0,1.83-2"/><path id="_Path_220" data-name="&lt;Path&gt;" class="cls-1" d="M235.67,17.21a.66.66,0,0,0-.66.66"/><path id="_Path_221" data-name="&lt;Path&gt;" class="cls-1" d="M219.28,17.76a.66.66,0,0,0-.66-.55"/><path id="_Path_222" data-name="&lt;Path&gt;" class="cls-1" d="M260.21,26.42a.66.66,0,0,0,.62-.66"/><path id="_Path_223" data-name="&lt;Path&gt;" class="cls-1" d="M238.34,26.55a.67.67,0,0,0,.67.66"/><path id="_Path_224" data-name="&lt;Path&gt;" class="cls-1" d="M247.34,27.21a.25.25,0,0,0,.25.25"/><path id="_Path_225" data-name="&lt;Path&gt;" class="cls-1" d="M247.92,27.46a.25.25,0,0,0,.25-.25"/><path id="_Path_226" data-name="&lt;Path&gt;" class="cls-1" d="M245.5,27.21a.25.25,0,0,0,.25.25"/><path id="_Path_227" data-name="&lt;Path&gt;" class="cls-1" d="M246.09,27.46a.25.25,0,0,0,.25-.25"/><path id="_Path_228" data-name="&lt;Path&gt;" class="cls-1" d="M243.67,27.21a.25.25,0,0,0,.25.25"/><path id="_Path_229" data-name="&lt;Path&gt;" class="cls-1" d="M244.25,27.46a.25.25,0,0,0,.25-.25"/><path id="_Path_230" data-name="&lt;Path&gt;" class="cls-1" d="M241.84,27.21a.25.25,0,0,0,.25.25"/><path id="_Path_231" data-name="&lt;Path&gt;" class="cls-1" d="M242.42,27.46a.25.25,0,0,0,.25-.25"/><path id="_Path_232" data-name="&lt;Path&gt;" class="cls-1" d="M240,27.21a.25.25,0,0,0,.25.25"/><path id="_Path_233" data-name="&lt;Path&gt;" class="cls-1" d="M240.59,27.46a.25.25,0,0,0,.25-.25"/><path id="_Path_234" data-name="&lt;Path&gt;" class="cls-1" d="M260.83,18a.66.66,0,0,0-.62-.66"/><path id="_Path_235" data-name="&lt;Path&gt;" class="cls-1" d="M238.45,17.2a.7.7,0,0,0-.11.37"/><path id="_Path_236" data-name="&lt;Path&gt;" class="cls-1" d="M260.42,17.21a.41.41,0,0,0,.41-.41"/><path id="_Path_237" data-name="&lt;Path&gt;" class="cls-1" d="M260.83.66a.41.41,0,0,0-.41-.41"/><path id="_Path_238" data-name="&lt;Path&gt;" class="cls-1" d="M214.93,30.11h-.17"/><path id="_Path_239" data-name="&lt;Path&gt;" class="cls-1" d="M214.93,17.63h-.05s0,0,0,0h-.1"/><path id="_Path_240" data-name="&lt;Path&gt;" class="cls-1" d="M211.6,30.11h.16"/><path id="_Path_241" data-name="&lt;Path&gt;" class="cls-1" d="M52.48,17.63h.17"/><path id="_Path_242" data-name="&lt;Path&gt;" class="cls-1" d="M52.48,30.11h.17"/><path id="_Path_243" data-name="&lt;Path&gt;" class="cls-1" d="M247.5,17.21v.37"/><path id="_Path_244" data-name="&lt;Path&gt;" class="cls-1" d="M254.2,17.57v-.09a2.53,2.53,0,0,1,0-.28"/><path id="_Path_245" data-name="&lt;Path&gt;" class="cls-1" d="M247.5,27.21v-.53a.62.62,0,0,1,0-.13"/><path id="_Path_246" data-name="&lt;Path&gt;" class="cls-1" d="M254.21,17.21v.08a2.83,2.83,0,0,1,0,.29"/><path id="_Path_247" data-name="&lt;Path&gt;" class="cls-1" d="M20.08,17.21v.33"/><path id="_Path_248" data-name="&lt;Path&gt;" class="cls-1" d="M20,17.54a.31.31,0,0,1,0-.1,1.69,1.69,0,0,1,0-.23"/><path id="_Path_249" data-name="&lt;Path&gt;" class="cls-1" d="M14.65,27h0s0,0,0,0h.05"/><path id="_Path_250" data-name="&lt;Path&gt;" class="cls-1" d="M14.65,27s0,0,0,0h0v0s0,0,0,0v-.25"/><path id="_Path_251" data-name="&lt;Path&gt;" class="cls-1" d="M20,17.54l-1-.08-2.94-.22"/><path id="_Path_252" data-name="&lt;Path&gt;" class="cls-1" d="M16.12,17.24a.4.4,0,0,0-.15,0l-.12.07a.24.24,0,0,0-.08.09.36.36,0,0,0,0,.11"/><path id="_Path_253" data-name="&lt;Path&gt;" class="cls-1" d="M20,26.59a.34.34,0,0,0,0,.1,1.69,1.69,0,0,0,0,.23"/><path id="_Path_254" data-name="&lt;Path&gt;" class="cls-1" d="M20.06,26.92v0s0,0,0,0v0h0"/><path id="_Path_255" data-name="&lt;Path&gt;" class="cls-1" d="M16.12,26.89a.19.19,0,0,0,0,.08,0,0,0,0,0,0,0h0"/><path id="_Path_256" data-name="&lt;Path&gt;" class="cls-1" d="M16.13,17.83a.86.86,0,0,0,0-.16v-.43"/><path id="_Path_257" data-name="&lt;Path&gt;" class="cls-1" d="M15.75,26.59a.36.36,0,0,0,0,.11l.08.09.12.07.15,0"/><path id="_Path_258" data-name="&lt;Path&gt;" class="cls-1" d="M16.12,26.89v-.13c0-.15,0-.31,0-.47"/><path id="_Path_259" data-name="&lt;Path&gt;" class="cls-1" d="M20.09,27h0v-.08"/><path id="_Path_260" data-name="&lt;Path&gt;" class="cls-1" d="M20.08,26.92v-.33"/><path id="_Path_261" data-name="&lt;Path&gt;" class="cls-1" d="M16.12,26.89l1-.08L20,26.59"/><path id="_Path_262" data-name="&lt;Path&gt;" class="cls-1" d="M260.83,10.51s0,0,0,0l0,0-.05,0h-.29"/><path id="_Path_263" data-name="&lt;Path&gt;" class="cls-1" d="M234.34,26.43l.22,0,.19-.05a.38.38,0,0,0,.15-.09.22.22,0,0,0,.09-.1"/><path id="_Path_264" data-name="&lt;Path&gt;" class="cls-1" d="M235,26.17v0a.43.43,0,0,0,0,0"/><path id="_Path_265" data-name="&lt;Path&gt;" class="cls-1" d="M234.34,17.54a1.63,1.63,0,0,1,.31,0l.21.09.06.05a.12.12,0,0,1,.05.05l0,0s0,0,0,.06"/><path id="_Path_266" data-name="&lt;Path&gt;" class="cls-1" d="M219.28,17.76v0l0,0s0,0,.05-.05l.08,0a.23.23,0,0,1,.11,0l.14,0H220"/><path id="_Path_267" data-name="&lt;Path&gt;" class="cls-1" d="M227.78,26.19l-.06.16,0,.07,0,.06a.08.08,0,0,1,0,0s0,0,0,0h0"/><path id="_Path_268" data-name="&lt;Path&gt;" class="cls-1" d="M6.75,10.51s0,0,0,0l0,0,0,0h.29"/><path id="_Path_269" data-name="&lt;Path&gt;" class="cls-1" d="M32.57,17.87s0,0,0-.06l0,0a.12.12,0,0,1,0-.05l.06-.05a1,1,0,0,1,.21-.09,1.63,1.63,0,0,1,.31,0"/><path id="_Path_270" data-name="&lt;Path&gt;" class="cls-1" d="M33.24,26.43l-.22,0-.19-.05a.38.38,0,0,1-.15-.09.22.22,0,0,1-.09-.1"/><path id="_Path_271" data-name="&lt;Path&gt;" class="cls-1" d="M32.59,26.17v0a.43.43,0,0,1,0,0"/><path id="_Path_272" data-name="&lt;Path&gt;" class="cls-1" d="M39.8,26.19l.06.16,0,.07a.14.14,0,0,1,0,.06l0,0,0,0h0"/><path id="_Path_273" data-name="&lt;Path&gt;" class="cls-1" d="M47.55,17.54h.34l.14,0a.23.23,0,0,1,.11,0l.08,0,.05,0,0,0v0"/><line id="_Path_274" data-name="&lt;Path&gt;" class="cls-1" x1="237.84" y1="35.32" x2="237.84" y2="35.32"/><line id="_Path_275" data-name="&lt;Path&gt;" class="cls-1" x1="260.42" y1="0.25" x2="260.42" y2="0.25"/><line id="_Path_276" data-name="&lt;Path&gt;" class="cls-1" x1="29.57" y1="35.32" x2="29.57" y2="35.32"/><line id="_Path_277" data-name="&lt;Path&gt;" class="cls-1" x1="237.84" y1="35.32" x2="237.84" y2="35.32"/><line id="_Path_278" data-name="&lt;Path&gt;" class="cls-1" x1="56.32" y1="20.91" x2="55.82" y2="20.91"/><line id="_Path_279" data-name="&lt;Path&gt;" class="cls-1" x1="58.81" y1="22.85" x2="208.77" y2="22.85"/><line class="cls-1" x1="58.81" y1="25.38" x2="208.77" y2="25.38"/><line class="cls-1" x1="58.81" y1="27.9" x2="208.77" y2="27.9"/><line id="_Path_280" data-name="&lt;Path&gt;" class="cls-1" x1="58.81" y1="30.43" x2="208.77" y2="30.43"/></g></g></svg>