<svg xmlns="http://www.w3.org/2000/svg" viewBox="0 0 272.48 54"><defs><style>.cls-1{fill:#d1d1d1;}</style></defs><title>MCGI-Icon</title><g id="Layer_2" data-name="Layer 2"><g id="Layer_1-2" data-name="Layer 1"><path class="cls-1" d="M271.73.22,266.87,0V2.27H5.62V0L.76.22C.11.22,0,1.3,0,1.3V26.14C0,28.08,1.3,28,1.3,28H35.86c1.18,0,1.51,1.51,1.51,1.51v13c0,.87,1.29,1.41,1.29,1.41h6.92V42.12h56.13v7H96.12V54h82.73V49.1h-5.59V42.34h53.65v1.51h6.91s1.3-.54,1.3-1.41V36.23a17.21,17.21,0,0,1-.11,2.11l.11-6.91V29.48s.32-1.51,1.51-1.51h34.56s1.29.11,1.29-1.83V1.3S272.38.22,271.73.22Z"/><path class="cls-1" d="M235.12,31.43v4.8C235.17,34.2,235.18,31.43,235.12,31.43Z"/><path class="cls-1" d="M235.12,36.23v-4.8L235,38.34A17.21,17.21,0,0,0,235.12,36.23Z"/></g></g></svg>