<svg xmlns="http://www.w3.org/2000/svg" viewBox="0 0 512.22 57.51"><defs><style>.cls-1{fill:#d1d1d1;}</style></defs><title>MCGI-Icon</title><g id="Layer_2" data-name="Layer 2"><g id="Layer_1-2" data-name="Layer 1"><path class="cls-1" d="M496.58,30.48a1,1,0,0,1-1-1v-1h-1.1a1,1,0,0,1-1-1V24.85h-20.1l-5.81.29-3,.15a1,1,0,0,1-.94.69H438.65a1,1,0,0,1-1-1H437a1,1,0,0,1-1-1v-.36a1,1,0,0,1,.29-.71l.61-.6a1,1,0,0,1,.7-.29h50.65l.55-.31.3-.62V2.85l-.31-.55-.62-.3h-2.7V4.22a1,1,0,0,1-1,1H6.63a1,1,0,0,1-1-1V2H2.84l-.54.3L2,2.94V21.2l.3.55.63.3h6.4a1,1,0,0,1,.48.12l.85.47a1,1,0,0,1,.39.39l.48.85a1,1,0,0,1,.12.49V38.84l.21.38.4.21H54.12a1,1,0,0,1,1,1v2.23l.59,0h30.9l.4,0h4.8s.09,0,.13,0l.44.06H199.71a1,1,0,0,1,1,1V52a1,1,0,0,1-.12.49l-.48.85a1.09,1.09,0,0,1-.38.39l-.86.47a.91.91,0,0,1-.48.13h-15.6l-.38.21-.2.4v.6H308.93v-.63l-.21-.38-.39-.2H292.75a1,1,0,0,1-.49-.13l-.85-.47a1.12,1.12,0,0,1-.39-.39l-.47-.85a1,1,0,0,1-.12-.49V43.64a1,1,0,0,1,1-1H398.76l.39,0h4.94l.43.06h26.67l0-2.21a1,1,0,0,1,1-1h5.49a1,1,0,0,1,1-1H463.7l9.45,1.09h.2l.09,0h20v-3a1,1,0,0,1,1-1h1.1V35a1,1,0,0,1,1-1h13.64V30.48H496.58Z"/><path class="cls-1" d="M511.22,28.48H497.58v-1a1,1,0,0,0-1-1h-1.1V23.85a1,1,0,0,0-1-1h-4l.5-.91a.94.94,0,0,0,.13-.48V2.59a.91.91,0,0,0-.13-.48l-.57-1a1,1,0,0,0-.39-.39l-1-.56a.89.89,0,0,0-.48-.13h-4a1,1,0,0,0-1,1V3.22H7.63V1a1,1,0,0,0-1-1h-4A1,1,0,0,0,2.1.12l-1,.57a1,1,0,0,0-.39.39l-.57,1A1,1,0,0,0,0,2.59V21.46a1,1,0,0,0,.12.47l.56,1a1,1,0,0,0,.4.4l1,.56a1.05,1.05,0,0,0,.49.13H9l.4.2.21.38V39.1a.94.94,0,0,0,.13.48l.47.85a1,1,0,0,0,.38.39l.86.48a1,1,0,0,0,.48.13H53.12v1.23a2,2,0,0,0,2,2h31.7l.4-.05h4.53l.4.06h0l.08,0H198.71v7l-.21.4-.38.21H182.53a1,1,0,0,0-.48.12l-.86.47a1,1,0,0,0-.39.4l-.47.85a1,1,0,0,0-.12.48v.28h0v1.6a1,1,0,0,0,1,1H309.93a1,1,0,0,0,1-1V54.62a1,1,0,0,0-.12-.49l-.48-.85a1,1,0,0,0-.39-.39l-.85-.47a1.05,1.05,0,0,0-.49-.13H293l-.4-.21-.2-.38V44.64H399l.39-.05h4.54l.4.06h0l.08,0h26.77a2,2,0,0,0,2-2V41.43h5.24a1,1,0,0,0,.71-.3l.24-.24a1.05,1.05,0,0,0,.23-.43h23.94L473,41.54l.06,0a1.45,1.45,0,0,0,.3,0h8.52v1.09a1,1,0,0,0,1,1h2.41a1,1,0,0,0,.83-.49h19.45a1,1,0,0,0,.7-.3l1.13-1.12a1.19,1.19,0,0,0,.22-.33,1,1,0,0,0,.07-.38V39a1,1,0,0,0-.07-.38,1,1,0,0,0-.22-.33L505.1,36h6.12a1,1,0,0,0,1-1V29.48A1,1,0,0,0,511.22,28.48Zm-26.75,13.2h-.57v-.09h.63A.35.35,0,0,0,484.47,41.68Zm21.24-2.29v1.26l-.53.54h-9.92a1,1,0,0,0,.22-.6V40h6.71a.74.74,0,0,0,.14,0,.85.85,0,0,0,.19-.06.54.54,0,0,0,.16-.1l.15-.12.11-.16a.91.91,0,0,0,.09-.17,1.06,1.06,0,0,0,0-.19.8.8,0,0,0,0-.15s0,0,0,0,0,0,0,0L503,37.56h.91Zm-4.81-2.78v0L501,38h-5.53v-.42h1.1a1,1,0,0,0,1-1V36h3.52s0,.07-.05.1a.56.56,0,0,0-.09.17.58.58,0,0,0,0,.19.8.8,0,0,0,0,.15A.09.09,0,0,0,500.9,36.61ZM510.22,34H496.58a1,1,0,0,0-1,1v.61h-1.1a1,1,0,0,0-1,1v3h-20l-.09,0h-.2l-9.45-1.09H438.65a1,1,0,0,0-1,1h-5.49a1,1,0,0,0-1,1l0,2.21H404.52l-.43-.06h-4.94l-.39,0H291.43a1,1,0,0,0-1,1V52a1,1,0,0,0,.12.49l.47.85a1.12,1.12,0,0,0,.39.39l.85.47a1,1,0,0,0,.49.13h15.58l.39.2.21.38v.63H182.21v-.6l.2-.4.38-.21h15.6a.91.91,0,0,0,.48-.13l.86-.47a1.09,1.09,0,0,0,.38-.39l.48-.85a1,1,0,0,0,.12-.49V43.64a1,1,0,0,0-1-1H92.38l-.44-.06s-.1,0-.13,0H87l-.4,0H55.71l-.59,0V40.43a1,1,0,0,0-1-1H12.26l-.4-.21-.21-.38V24.37a1,1,0,0,0-.12-.49L11.05,23a1,1,0,0,0-.39-.39l-.85-.47a1,1,0,0,0-.48-.12H2.93l-.63-.3L2,21.2V2.94l.3-.64L2.84,2H5.63V4.22a1,1,0,0,0,1,1H484.51a1,1,0,0,0,1-1V2h2.7l.62.3.31.55V21.12l-.3.62-.55.31H437.64a1,1,0,0,0-.7.29l-.61.6a1,1,0,0,0-.29.71V24a1,1,0,0,0,1,1h.62a1,1,0,0,0,1,1h24.94a1,1,0,0,0,.94-.69l3-.15,5.81-.29h20.1v2.62a1,1,0,0,0,1,1h1.1v1a1,1,0,0,0,1,1h13.64Z"/></g></g></svg>