<svg xmlns="http://www.w3.org/2000/svg" viewBox="0 0 489.53 57.51"><defs><style>.cls-1{fill:#d1d1d1;}</style></defs><title>MCGI-Icon_1</title><g id="Layer_2" data-name="Layer 2"><g id="Layer_1-2" data-name="Layer 1"><path class="cls-1" d="M5.63,4.22V2H2.84l-.54.3L2,2.94V21.2l.3.55.63.3h6.4a1,1,0,0,1,.48.12l.85.47a1,1,0,0,1,.39.39l.48.85a1,1,0,0,1,.12.49V38.84l.21.38.4.21H54.12a1,1,0,0,1,1,1v2.23l.59,0h30.9l.4,0h4.8s.09,0,.13,0l.44.06H199.71a1,1,0,0,1,1,1V52a1,1,0,0,1-.12.49l-.48.85a1.09,1.09,0,0,1-.38.39l-.86.47a.91.91,0,0,1-.48.13h-15.6l-.38.21-.2.4v.6h62.55V5.22H6.63A1,1,0,0,1,5.63,4.22Z"/><path class="cls-1" d="M186,55.51h-3.83v-.6l.2-.4.38-.21h15.6a.91.91,0,0,0,.48-.13l.86-.47a1.09,1.09,0,0,0,.38-.39l.48-.85a1,1,0,0,0,.12-.49V43.64a1,1,0,0,0-1-1H92.38l-.44-.06s-.1,0-.13,0H87l-.4,0H55.71l-.59,0V40.43a1,1,0,0,0-1-1H12.26l-.4-.21-.21-.38V24.37a1,1,0,0,0-.12-.49L11.05,23a1,1,0,0,0-.39-.39l-.85-.47a1,1,0,0,0-.48-.12H2.93l-.63-.3L2,21.2V2.94l.3-.64L2.84,2H5.63V4.22a1,1,0,0,0,1,1H244.76v-2H7.63V1a1,1,0,0,0-1-1h-4A1,1,0,0,0,2.1.12l-1,.57a1,1,0,0,0-.39.39l-.57,1A1,1,0,0,0,0,2.59V21.46a1,1,0,0,0,.12.47l.56,1a1,1,0,0,0,.4.4l1,.56a1.05,1.05,0,0,0,.49.13H9l.4.2.21.38V39.1a.94.94,0,0,0,.13.48l.47.85a1,1,0,0,0,.38.39l.86.48a1,1,0,0,0,.48.13H53.12v1.23a2,2,0,0,0,2,2h31.7l.4-.05h4.53l.4.06h0l.08,0H198.71v7l-.21.4-.38.21H182.53a1,1,0,0,0-.48.12l-.86.47a1,1,0,0,0-.39.4l-.47.85a1,1,0,0,0-.12.48v.28h0v1.6a1,1,0,0,0,1,1h63.55v-2Z"/><path class="cls-1" d="M483.9,4.22V2h2.78l.55.3.3.64V21.2l-.3.55-.63.3h-6.4a1,1,0,0,0-.48.12l-.85.47a1,1,0,0,0-.39.39l-.48.85a1,1,0,0,0-.12.49V38.84l-.21.38-.41.21H435.4a1,1,0,0,0-1,1v2.23l-.58,0H402.91l-.39,0h-4.8s-.09,0-.13,0l-.44.06H289.81a1,1,0,0,0-1,1V52a1.05,1.05,0,0,0,.13.49l.48.85a1.09,1.09,0,0,0,.38.39l.85.47a1,1,0,0,0,.49.13h15.6l.37.21.21.4v.6H244.76V5.22H482.9A1,1,0,0,0,483.9,4.22Z"/><path class="cls-1" d="M303.49,55.51h3.83v-.6l-.21-.4-.37-.21h-15.6a1,1,0,0,1-.49-.13l-.85-.47a1.09,1.09,0,0,1-.38-.39l-.48-.85a1.05,1.05,0,0,1-.13-.49V43.64a1,1,0,0,1,1-1H397.15l.44-.06s.1,0,.13,0h4.8l.39,0h30.91l.58,0V40.43a1,1,0,0,1,1-1h41.86l.41-.21.21-.38V24.37a1,1,0,0,1,.12-.49l.48-.85a1,1,0,0,1,.39-.39l.85-.47a1,1,0,0,1,.48-.12h6.4l.63-.3.3-.55V2.94l-.3-.64-.55-.3H483.9V4.22a1,1,0,0,1-1,1H244.76v-2H481.9V1a1,1,0,0,1,1-1h4a.89.89,0,0,1,.48.13l1,.56a1,1,0,0,1,.39.39l.56,1a1,1,0,0,1,.13.48V21.46a1,1,0,0,1-.13.47l-.55,1a1,1,0,0,1-.4.4l-1,.56a1,1,0,0,1-.48.13h-6.46l-.4.2-.2.38V39.1a1,1,0,0,1-.13.48l-.47.85a.92.92,0,0,1-.39.39l-.85.48a1.05,1.05,0,0,1-.49.13H436.4v1.23a2,2,0,0,1-2,2h-31.7l-.4-.05h-4.54l-.4.06h0l-.09,0H290.81v7l.21.4.38.21H307a1,1,0,0,1,.48.12l.85.47a.94.94,0,0,1,.39.4l.47.85a.91.91,0,0,1,.13.48v.28h0v1.6a1,1,0,0,1-1,1H244.76v-2Z"/></g></g></svg>