<svg xmlns="http://www.w3.org/2000/svg" viewBox="0 0 489.41 54"><defs><style>.cls-1{fill:#d1d1d1;}</style></defs><title>MMCGI-Icon</title><g id="Layer_2" data-name="Layer 2"><g id="Layer_1-2" data-name="Layer 1"><path class="cls-1" d="M489.28,2.11l-.56-1a1,1,0,0,0-.39-.39l-1-.57a1,1,0,0,0-.49-.12H2.59A1,1,0,0,0,2.1.12l-1,.57a1,1,0,0,0-.39.39l-.57,1A1,1,0,0,0,0,2.59V18a1,1,0,0,0,.12.48l.56,1a1,1,0,0,0,.4.4l1,.57a1,1,0,0,0,.49.12H9l.4.21.21.37V35.59a1,1,0,0,0,.12.48l.47.85a1,1,0,0,0,.39.39l.85.48a1.05,1.05,0,0,0,.49.13H198.66V48.18l-.21.4-.37.21H182.49a1,1,0,0,0-.49.12l-.85.47a1,1,0,0,0-.39.39l-.47.85a1.05,1.05,0,0,0-.13.49v.28h0V53a1,1,0,0,0,1,1H308.24a1,1,0,0,0,1-1V51.4h0v-.28a1,1,0,0,0-.12-.49l-.47-.85a1,1,0,0,0-.39-.39l-.86-.47a1,1,0,0,0-.48-.12H291.33l-.38-.21-.21-.4V37.92h186.7a1,1,0,0,0,.48-.13l.86-.48a1,1,0,0,0,.38-.39l.47-.85a1,1,0,0,0,.13-.48V21.12l.21-.37.4-.21h6.45a1,1,0,0,0,.48-.12l1-.57a1,1,0,0,0,.4-.4l.55-1a1,1,0,0,0,.13-.48V2.59A1,1,0,0,0,489.28,2.11Z"/></g></g></svg>