<?xml version="1.0" encoding="utf-8"?>
<!-- Generator: Adobe Illustrator 22.1.0, SVG Export Plug-In . SVG Version: 6.00 Build 0)  -->
<svg version="1.1" xmlns="http://www.w3.org/2000/svg" xmlns:xlink="http://www.w3.org/1999/xlink" x="0px" y="0px"
	 viewBox="0 0 524 68.5" style="enable-background:new 0 0 524 68.5;" xml:space="preserve">
<style type="text/css">
	.st0{display:none;}
	.st1{display:inline;fill:#F0F0F0;}
	.st2{fill:none;stroke:#231F20;stroke-width:1.5;stroke-miterlimit:10;}
</style>
<g id="Layer_2" class="st0">
	<rect class="st1" width="524" height="68.5"/>
</g>
<g id="Layer_1">
	<g>
		<g>
			<g>
				<line class="st2" x1="223.5" y1="51.8" x2="224" y2="46.7"/>
				<polyline class="st2" points="226.3,45.1 224.2,45.1 224,46.7 				"/>
				<path class="st2" d="M223.5,51.8l0,3.6c0,0,75.1,0,76.7,0l0-3.6l-0.4-5"/>
				<polyline class="st2" points="297.4,45.1 299.6,45.1 299.8,46.7 				"/>
			</g>
			<path class="st2" d="M300.2,52.6l12,0c1.2-0.1,2.2,0.5,2.2,0.5l2,2.7c0.8,0.7,0.6,1.4,0.6,1.4V58c0,0.5-0.8,0.5-0.8,0.5
				l-108.4,0.4c-1.3,0.2-1-1.4-1-1.4c0.1-1,1.8-2.1,1.8-2.1l3.2-2.3c0,0,0.5-0.5,1.2-0.4h10.4"/>
			<path class="st2" d="M227.5,24.3c0,0-2.1-0.2-2.1,1.5c0,0,0.4,13.2,0.6,16.4c0,0,0.2,4.8,0.8,5.9h69.6c0,0,1.1,0,1-1.9l0-20.8
				c0,0,0-1.1-1.5-0.9l-18.9,0c0,0-1.8-0.2-1.5,1.4l0.1,7.5c0,0-0.4,5.5-4.6,6l-17.7,0.2c0,0-4.4-0.2-5.4-4.4l-0.1-9.2
				c0,0,0.1-1.4-1.9-1.3H227.5z"/>
			<path class="st2" d="M206.9,57.5"/>
			<path class="st2" d="M317.1,57.3"/>
		</g>
		<g>
			<g>
				<path class="st2" d="M11.5,40.6c2.6,0,7.6,0,7.6,0l0.1,1.3h0.9c0,0-0.1,1.1,0.1,1.6l-2.1,0.1l0.1-1.7l-1.7-0.1l-1.9,1.8l0,1.6
					l1,1h14.3l0.3,0.4h2l3-0.2l0-1.3c0,0,4.3,0,5.7-0.2c0,0,7.4-0.4,8-0.4c0,0,13.6-0.2,14.4-0.1c-1.4-3.2-1.6-9.8-1.7-11.5
					l-12.9-0.2L37.4,32L21.7,32c0,0-0.8-0.1-1.2,0.5c0,0-0.6,0.4-0.5,2.6h-0.8v1.3h-8.5L10,37.5v3.1C10,40.6,10.6,40.6,11.5,40.6z"
					/>
				<path class="st2" d="M19.1,40.6"/>
				<path class="st2" d="M19.2,36.3"/>
				<path class="st2" d="M20.1,41.8"/>
				<path class="st2" d="M20,35.1"/>
				<path class="st2" d="M20.2,43.5c0,0,0,1.6,2.7,1.4L35.2,45"/>
				<path class="st2" d="M48.6,32.5c0,0-2,0.7-2.3,3.3c0,0-0.6,3.4,0.1,5.6c0,0.1,0,0.1,0.1,0.2c0,0,0.8,2.6,1.9,2.8"/>
			</g>
			<path class="st2" d="M260.9,46.3"/>
			<path class="st2" d="M63,43.3c0,0,0.8,4.4,3.3,6.3l5,0.2c0,0,1,0.1,1.8-0.8c0.8-0.9,1.2-2,1.2-2"/>
			<path class="st2" d="M61.4,32.1"/>
			<path class="st2" d="M456.7,46.9c0,0,0.5,3,2.1,3c0.3,0,4.3,0,4.3,0s0.9-0.3,1.5-1c0,0,1.6-1.7,1.9-3.9l34.9-0.2
				c0,0,1.2,0.2,1.9-1.7l0.2-14c0,0,0-1,1.5-0.9c0,0,4.3,0.1,4.3,0.1c0.9,0,2.1-1.1,2.5-1.8c0.6-0.9,0.7-2,1.1-3
				c0.4-1.1,0.9-2.3,1-3.5c0.1-0.7,0-1.4,0-2.1c-0.1-0.9-0.1-1.8-0.4-2.7c-0.3-1.2-0.9-2.1-1.8-3c-0.7-0.7-1.7-1.8-2.7-2l-3.9-0.3
				c0,0-1.2-0.2-1.9,0.3c0,0-2,1.2-2.2,1.9L30.4,14.1c0,0-2-2.1-4-2.2c0,0-3.6-0.3-5,0.4c0,0-4.1,2.6-4.6,5.6c0,0-1,6.9,3.9,12
				l40.6,0.2"/>
			<path class="st2" d="M336.7,46"/>
			<path class="st2" d="M260.4,53.1"/>
			<path class="st2" d="M23.3,15.9c2.3-2.9,5.5-1.6,5.5-1.6l1.7-0.2"/>
			<path class="st2" d="M63,43.3"/>
			<path class="st2" d="M501.1,12.2h2.5c0,0,2.9-0.2,3.9,1.9"/>
			<path class="st2" d="M505.1,10c0,0,3,1.3,3.7,4.1L463,14.4c0,0-0.9,0-0.7,0.9c0,0,1.3,10.4,0.6,16.9c0,0-0.9,15-3.5,17.7"/>
			<polyline class="st2" points="460.8,46.9 456.7,46.9 299.8,46.7 			"/>
			<path class="st2" d="M462.3,15.3"/>
			<path class="st2" d="M25.7,11.8c0,0-3.7,2.1-4,4.1l44.6-0.2c0,0,1.2,0.1,1,2.1c0,0-0.8,10.5-0.4,13.3c0,0,0.8,16.2,4.4,18.7"/>
			<path class="st2" d="M16.8,19.7h40.7c4.2-0.4,4.1,1.7,4.1,1.7c-0.4,4.8-0.3,8.7-0.3,8.7l0.1,2.6"/>
			<path class="st2" d="M504.1,28.5c0,0-0.6-1.7-3-1.4l-32.5,0"/>
			<path class="st2" d="M466.5,45c-0.1-0.4,3.3-12.3,1.4-24.6c0,0,0.1-0.7,1.1-0.7H514"/>
			<path class="st2" d="M67.2,27.4"/>
			<path class="st2" d="M225.4,27.4"/>
			<path class="st2" d="M275.6,27.4"/>
			<path class="st2" d="M247.9,27.4"/>
			<path class="st2" d="M462.6,27.4"/>
			<path class="st2" d="M297.4,27.4"/>
			<line class="st2" x1="462.6" y1="24.3" x2="67.3" y2="24.3"/>
			<polyline class="st2" points="69.4,47 74.3,47 224,47 			"/>
			<path class="st2" d="M67.2,27.9"/>
			<line class="st2" x1="462.2" y1="16.5" x2="67.2" y2="16.5"/>
		</g>
	</g>
</g>
</svg>
