<svg id="Layer_1" data-name="Layer 1" xmlns="http://www.w3.org/2000/svg" viewBox="0 0 495.37 70.31"><title>modalogo</title><path d="M114.5,14.75a27.39,27.39,0,1,0,27.39,27.4A27.39,27.39,0,0,0,114.5,14.75Zm0,50.56a23.18,23.18,0,1,1,23.2-23.16A23.18,23.18,0,0,1,114.5,65.31Z" transform="translate(-0.03 0.01)"/><path d="M194.7,22a28,28,0,0,0-18.52-7.25A27.39,27.39,0,1,0,203.5,43.89l.07-.66V.86a.79.79,0,0,0-.73-.86H200.3a.85.85,0,0,0-1,.7.7.7,0,0,0,0,.25V42.14A23.19,23.19,0,1,1,192,25.24s.37.41.67,0l2-2.5a.5.5,0,0,0,0-.71Z" transform="translate(-0.03 0.01)"/><path d="M256.15,61.27l-1.94-2.41c-.24-.3-.63,0-.63,0a23.09,23.09,0,1,1,7.24-16.79V67.79c0,1.31,1.11,1.23,1.11,1.23h2.14a.86.86,0,0,0,1-.75,1,1,0,0,0,0-.25V42a27.34,27.34,0,1,0-8.82,20.13C256.55,61.83,256.15,61.27,256.15,61.27Z" transform="translate(-0.03 0.01)"/><path d="M74.34,20.15c-3.68-3.89-8.71-5.86-15-5.86s-11.26,2-14.89,5.86a20.4,20.4,0,0,0-3.55,5.36,16.34,16.34,0,0,0-3.6-5.76c-3.55-3.61-8.94-5.43-16-5.43-6.39,0-11.51,2-15.19,5.91C-.39,27.17,0,37.66.05,38.72V68.21s0,1.16,1,1.16H3.16s.93.14.93-1.13V38.53c0-.09-.52-9.68,5-15.52,2.88-3.06,7-4.62,12.2-4.62,6,0,10.36,1.42,13.12,4.22,3.79,3.84,4,9.82,4,13.84q-.07,1.5,0,3V68.32a1,1,0,0,0,1,1h2.07a1,1,0,0,0,1-1V36.8c.18-3.42,1.09-9.63,5-13.85,2.83-3,6.84-4.56,11.9-4.56s9.11,1.54,12,4.57c5.76,6.07,5.3,16.25,5.29,16.35V68.37s.06,1,1,1h2s1,.16,1-1V39.47C80.78,38.44,81.12,27.34,74.34,20.15Z" transform="translate(-0.03 0.01)"/><path d="M294.16,14.69V60.45H320v9.37H283.7V14.69Z" transform="translate(-0.03 0.01)"/><path d="M336.37,14.69V69.82H325.91V14.69Z" transform="translate(-0.03 0.01)"/><path d="M367.84,40.49h24.28l.16,11q0,12-4.51,15.41T367.7,70.3q-14.29,0-18.94-4.6T344.1,46.92q0-18.1,1.85-22.86,2.31-5.82,7-7.84t15.91-2q14.7,0,19,3.13t4.28,13.88H381.53q-.27-5.41-2.36-6.73T368.7,23.15q-9.09,0-11.53,2.26t-2.41,10.64v5.53l.08,7.07q0,8.2,2.42,10.44t11.23,2.24q8.56,0,10.88-1.89c1.55-1.26,2.32-4.26,2.33-9V48.18H367.84Z" transform="translate(-0.03 0.01)"/><path d="M446.63,14.69V69.82H436.17V46H410.32V69.82H399.86V14.69h10.46V37.15h25.85V14.69Z" transform="translate(-0.03 0.01)"/><path d="M478.92,24.06V69.82H468.46V24.06H452.55V14.69H495.4v9.37Z" transform="translate(-0.03 0.01)"/></svg>