<svg id="Layer_1" data-name="Layer 1" xmlns="http://www.w3.org/2000/svg" viewBox="0 0 272.73 54.22"><defs><style>.cls-1{fill:#fff;stroke:#000;stroke-miterlimit:10;stroke-width:0.25px;}.cls-2{fill:#d1d1d1;}</style></defs><title>Moda-COVE-WHITE</title><g id="Layer_2" data-name="Layer 2"><g id="Layer_1-2" data-name="Layer 1-2"><path class="cls-1" d="M271.73.22,267.66,0a.75.75,0,0,0-.79.75v.73a.76.76,0,0,1-.76.75H6.37a.76.76,0,0,1-.75-.75V.79A.75.75,0,0,0,4.83,0L.76.22C.11.22,0,1.3,0,1.3V26.14C0,28.08,1.3,28,1.3,28H35.86c1.18,0,1.51,1.51,1.51,1.51v13c.84.06,63.58-.38,63.58-.38a.74.74,0,0,1,.76.75v5.49a.76.76,0,0,1-.75.75H96.88a.76.76,0,0,0-.76.75v3.38a.76.76,0,0,0,.76.75H178.1a.76.76,0,0,0,.75-.75v-3.4a.76.76,0,0,0-.75-.75H174a.76.76,0,0,1-.76-.75V43.09a.76.76,0,0,1,.76-.75s61.1,1,61.1.1V36.23a16.57,16.57,0,0,1-.11,2.11l.11-6.91V29.48s.32-1.51,1.51-1.51h34.56s1.29.11,1.29-1.83V1.3S272.38.22,271.73.22Z" transform="translate(0.13 0.09)"/><path class="cls-2" d="M235.12,31.43v4.8C235.17,34.2,235.18,31.43,235.12,31.43Z" transform="translate(0.13 0.09)"/><path class="cls-2" d="M235.12,36.23v-4.8L235,38.34A18.52,18.52,0,0,0,235.12,36.23Z" transform="translate(0.13 0.09)"/></g></g><path class="cls-2" d="M39.81,43.56" transform="translate(0.13 0.09)"/></svg>