<svg xmlns="http://www.w3.org/2000/svg" viewBox="0 0 186.76 50.5"><defs><style>.cls-1{fill:none;stroke:#ffffff;stroke-width:0.5px;}</style></defs><title>POWER-ICON</title><g id="Layer_2" data-name="Layer 2"><g id="Layer_1-2" data-name="Layer 1"><rect class="cls-1" x="9.19" y="0.25" width="168.45" height="50"/><line class="cls-1" x1="9.19" y1="3.18" x2="177.65" y2="3.18"/><line class="cls-1" x1="9.19" y1="4.21" x2="177.65" y2="4.21"/><line class="cls-1" x1="9.19" y1="6.92" x2="177.65" y2="6.92"/><line class="cls-1" x1="9.19" y1="8.25" x2="177.65" y2="8.25"/><line class="cls-1" x1="177.65" y1="47.63" x2="9.19" y2="47.63"/><line class="cls-1" x1="177.65" y1="46.61" x2="9.19" y2="46.61"/><line class="cls-1" x1="177.65" y1="44.81" x2="9.19" y2="44.81"/><line class="cls-1" x1="177.65" y1="43.48" x2="9.19" y2="43.48"/><rect class="cls-1" x="8.19" y="0.25" width="1.01" height="49.99"/><rect class="cls-1" x="177.73" y="0.26" width="1.01" height="49.99"/><line class="cls-1" x1="9.17" y1="3.18" x2="8.24" y2="3.18"/><line class="cls-1" x1="9.17" y1="8.86" x2="8.24" y2="8.86"/><line class="cls-1" x1="9.17" y1="47.63" x2="8.24" y2="47.63"/><line class="cls-1" x1="9.17" y1="42.85" x2="8.24" y2="42.85"/><line class="cls-1" x1="178.64" y1="3.14" x2="177.72" y2="3.14"/><line class="cls-1" x1="178.64" y1="8.84" x2="177.72" y2="8.84"/><line class="cls-1" x1="178.64" y1="47.63" x2="177.72" y2="47.63"/><line class="cls-1" x1="178.69" y1="42.87" x2="177.76" y2="42.87"/><path class="cls-1" d="M8.11,46.5H2.6S-.32,46.4.35,41.67H5.08a1.63,1.63,0,0,0,1.79-1.79S6.93,38.45,5,38.45H.42V12.17H4.89c2,0,1.92-1.43,1.92-1.43C7,8.79,5,9,5,9H.39C.12,3.71,2.54,4.12,2.54,4.12H8.05"/><path class="cls-1" d="M180.65,38.69a2.51,2.51,0,0,1,1.16-.24h4.52V12.17h-4.46c-2,0-1.92-1.43-1.92-1.43-.2-2,1.8-1.79,1.8-1.79h4.61c.28-5.24-2.14-4.83-2.14-4.83h-5.51"/><path class="cls-1" d="M178.65,46.5h5.51s2.92-.1,2.25-4.83h-4.73a1.9,1.9,0,0,1-1.17-.32"/><path class="cls-1" d="M183.77,26.06h-2.29A1.29,1.29,0,0,1,180,24.75c-.16-1.8,1.34-1.65,1.34-1.65h2.29"/><path class="cls-1" d="M181.74,26.06H184a1.29,1.29,0,0,0,1.44-1.31c.15-1.8-1.35-1.65-1.35-1.65h-2.28"/><path class="cls-1" d="M180.57,42V36s.06-.8-.68-.8h-1.13V42.7h1.13c.74,0,.68-.81.68-.81"/><path class="cls-1" d="M6.38,27.49V21.55s-.06-.8.68-.8H8.19v7.49H7.06c-.74,0-.68-.81-.68-.81"/></g></g></svg>
