<?xml version="1.0" encoding="utf-8"?>
<!-- Generator: Adobe Illustrator 24.1.0, SVG Export Plug-In . SVG Version: 6.00 Build 0)  -->
<svg version="1.1" id="Layer_1" xmlns="http://www.w3.org/2000/svg" xmlns:xlink="http://www.w3.org/1999/xlink" x="0px" y="0px"
	 viewBox="0 0 23.9 19.4" style="enable-background:new 0 0 23.9 19.4;" xml:space="preserve">
<style type="text/css">
	.st0{display:none;}
	.st1{clip-path:url(#SVGID_2_);}
	.st2{fill:#FFFFFF;}
	.st3{fill:none;stroke:#000000;stroke-width:0.5;stroke-miterlimit:10;}
</style>
<path class="st0" d="M38.9,15.4l4-4h-3v-9h-2v9h-3L38.9,15.4z M48,1.9h-6v2h6v14H30v-14h6v-2h-6c-1.1,0-2,0.9-2,2v14
	c0,1.1,0.9,2,2,2h18c1.1,0,2-0.9,2-2v-14C50,2.8,49.1,1.9,48,1.9z"/>
<path class="st0" d="M38.9,15.4l4-4h-3v-9h-2v9h-3L38.9,15.4z M48,1.9h-6v2h6v14H30v-14h6v-2h-6c-1.1,0-2,0.9-2,2v14
	c0,1.1,0.9,2,2,2h18c1.1,0,2-0.9,2-2v-14C50,2.8,49.1,1.9,48,1.9z"/>
<g id="icon-compatibility-blk_2_" transform="translate(-1.318 -2.266)">
	<g id="Layer_1-2_3_" transform="translate(1.319 2.266)">
		<g id="Group_2708_2_">
			<g>
				<defs>
					<rect id="SVGID_1_" x="29" y="-8.7" width="18.5" height="30"/>
				</defs>
				<clipPath id="SVGID_2_">
					<use xlink:href="#SVGID_1_"  style="overflow:visible;"/>
				</clipPath>
				<g id="Group_2707_2_" class="st1">
					<path id="Path_530_2_" class="st2" d="M38.3,11.8h-0.2v-11h0.2V11.8L38.3,11.8"/>
					<path id="Path_531_2_" class="st3" d="M38.3,11.8h-0.2v-11h0.2C38.3,0.8,38.3,11.8,38.3,11.8z"/>
					<path id="Path_532_2_" class="st3" d="M33.2-8.5h10c2.2,0,4,1.8,4,4V17c0,2.2-1.8,4-4,4h-10c-2.2,0-4-1.8-4-4V-4.4
						C29.2-6.6,31-8.4,33.2-8.5z"/>
					<path id="Path_533_2_" class="st3" d="M35.3-4.6h5.9c1,0,1.8,0.8,1.8,1.8c0,0,0,0,0,0v18c0,1-0.8,1.8-1.8,1.9c0,0,0,0,0,0h-5.9
						c-1,0-1.8-0.8-1.8-1.8c0,0,0-0.1,0-0.1l0,0v-18C33.5-3.7,34.3-4.6,35.3-4.6C35.3-4.6,35.3-4.6,35.3-4.6z"/>
					<path id="Path_534_2_" class="st2" d="M32.5,3.6h11.4c0.3,0,0.5,0.1,0.5,0.3v0.2c0,0.2-0.2,0.4-0.5,0.4H32.5
						c-0.3,0-0.5-0.2-0.5-0.4V3.9C32,3.7,32.3,3.6,32.5,3.6"/>
					<path id="Path_535_2_" class="st3" d="M32.5,3.6h11.4c0.3,0,0.5,0.1,0.5,0.3v0.2c0,0.2-0.2,0.4-0.5,0.4H32.5
						c-0.3,0-0.5-0.2-0.5-0.4V3.9C32,3.8,32.3,3.6,32.5,3.6z"/>
				</g>
			</g>
		</g>
	</g>
</g>
<g>
	<path d="M23.4,19.4H0.6c-0.3,0-0.6-0.3-0.6-0.6V0.6C0,0.3,0.3,0,0.6,0h7.9v0.6H0.6v18.2h22.8V0.6h-7.8V0l7.8,0
		c0.3,0,0.6,0.3,0.6,0.6v18.2C23.9,19.1,23.7,19.4,23.4,19.4z"/>
</g>
<line class="st3" x1="11.9" y1="0" x2="11.9" y2="11.7"/>
<polygon points="15.4,11.6 11.9,15.1 8.4,11.6 "/>
</svg>
