<svg xmlns="http://www.w3.org/2000/svg" viewBox="0 0 50 50.75"><defs><style>.cls-1{fill:none;stroke:#ffffff;stroke-miterlimit:10;stroke-width:0.75px;}</style></defs><title>XTRUSION-ICON</title><g id="Layer_2" data-name="Layer 2"><g id="Layer_1-2" data-name="Layer 1"><path class="cls-1" d="M2.89,26.82l.81.73H5.31l.22,0,.19-.07.18-.11L6,27.2,6.15,27a1.59,1.59,0,0,0,.07-.2l0-.21v-2.7c0-.08,0-.17,0-.25s0-.17,0-.25-.05-.16-.07-.24L6,22.94l-.12-.22-.15-.2-.17-.19L4.2,21,4,20.79a2.43,2.43,0,0,0-.14-.2c0-.08-.09-.15-.13-.22l-.09-.23c0-.09-.05-.17-.07-.25s0-.16,0-.25,0-.17,0-.25V5.31l0-.22a1.18,1.18,0,0,0,.07-.2l.11-.17.15-.14.17-.12.2-.07.21,0H45.54l.21,0,.2.07.17.12.15.14a1,1,0,0,0,.11.17c0,.07,0,.14.07.2a1.64,1.64,0,0,1,0,.22V19.39c0,.08,0,.17,0,.25s0,.17,0,.25-.05.16-.08.25l-.09.23c0,.07-.09.14-.13.22a2.43,2.43,0,0,0-.14.2L45.8,21l-1.38,1.35-.17.19-.15.2-.12.22-.1.24c0,.08-.05.16-.07.24l0,.25c0,.08,0,.17,0,.25v2.7l0,.21c0,.07,0,.13.07.2a1.63,1.63,0,0,0,.11.17l.14.15.18.11.19.07.22,0H46.3l.81-.73,0-.06a.1.1,0,0,0,0-.05l0-.06,0-.07a.64.64,0,0,0,0-.07s0,0,0-.07,0-.05,0-.07V25.9s0,0,0-.07v-.07l0-.06,0-.07,0-.05,0,0s0,0,0-.05L46.38,25l-.12-.09-.11-.11-.09-.13L46,24.55c0-.05,0-.1-.05-.15l0-.15V24.1a.81.81,0,0,1,0-.16l0-.16a.88.88,0,0,0,0-.15s.05-.09.07-.14l.08-.13a1.47,1.47,0,0,0,.1-.13,1.14,1.14,0,0,0,.11-.11l.18-.13.18-.12.2-.09.21-.08.21-.06.21,0h1.71a.2.2,0,0,1,.08,0l.06-.07.06-.08a.3.3,0,0,0,0-.1l0-.11a.49.49,0,0,0,0-.12V1.71l0-.31a2.29,2.29,0,0,1-.07-.28,1.89,1.89,0,0,1-.11-.25l-.15-.2L49,.51l-.2-.1-.21,0H1.41L1.2.41,1,.51.83.67.68.87a1.89,1.89,0,0,1-.11.25A2.29,2.29,0,0,1,.5,1.4c0,.1,0,.21,0,.31V22.07a.49.49,0,0,0,0,.12.52.52,0,0,1,0,.11.93.93,0,0,0,.05.1l.06.08a.46.46,0,0,0,.07.07l.07,0H2.47l.21,0,.21.06.21.08.2.09.18.12.18.13.11.11a1.47,1.47,0,0,0,.1.13l.08.13c0,.05,0,.1.07.14l.05.15,0,.16a.81.81,0,0,1,0,.16v.15l0,.15c0,.05,0,.1,0,.15l-.07.13-.09.13a1.14,1.14,0,0,0-.11.11L3.62,25l-.71.47-.05.05,0,0,0,.05,0,.07,0,.06s0,0,0,.07v.54s0,.05,0,.07,0,0,0,.07l0,.07,0,.07,0,.06a.1.1,0,0,0,0,.05Z"/><path class="cls-1" d="M49.31,50.38a.31.31,0,0,0,.31-.32V23a.36.36,0,0,0-.36-.36H47.85a2.19,2.19,0,0,0-1.42.53,1.29,1.29,0,0,0-.45,1,1.12,1.12,0,0,0,.49.92l.71.47a.49.49,0,0,1,.22.41v.47a.59.59,0,0,1-.2.45l-.81.74h-.88v7.27a.67.67,0,0,1-.68.67H5.17a.67.67,0,0,1-.68-.67V27.55H3.61l-.81-.74a.59.59,0,0,1-.2-.45v-.47a.49.49,0,0,1,.22-.41L3.53,25A1.14,1.14,0,0,0,4,24.09a1.29,1.29,0,0,0-.45-1,2.19,2.19,0,0,0-1.42-.53H.73A.36.36,0,0,0,.38,23V50.06a.31.31,0,0,0,.31.32H18.75a.34.34,0,0,0,.33-.34V47.09a.34.34,0,0,0-.33-.34H13.94a.33.33,0,0,1-.33-.33V44.49a.34.34,0,0,0-.34-.33h-.83a.64.64,0,0,0-.51.28A2.2,2.2,0,1,1,10.16,41a2.17,2.17,0,0,1,1.83,1,.63.63,0,0,0,.5.29h.78a.34.34,0,0,0,.34-.34V40a.33.33,0,0,1,.33-.33H36.06a.34.34,0,0,1,.34.33v1.92a.34.34,0,0,0,.33.34h.78a.63.63,0,0,0,.5-.29,2.17,2.17,0,0,1,1.83-1,2.2,2.2,0,1,1-1.77,3.49.64.64,0,0,0-.51-.28h-.83a.33.33,0,0,0-.33.33v1.93a.34.34,0,0,1-.34.33H31.25a.34.34,0,0,0-.33.34V50a.34.34,0,0,0,.33.34Z"/></g></g></svg>
