<svg id="Layer_1" data-name="Layer 1" xmlns="http://www.w3.org/2000/svg" viewBox="0 0 139.391 65.783"><title>Communicate</title><rect x="85.035" y="22.302" width="22.179" height="14.881" rx="4.216" ry="4.216" fill="#231f20"/><path d="M168.837,95.625" transform="translate(-19.107 -63.522)" fill="none" stroke="#231f20" stroke-linecap="round" stroke-miterlimit="10" stroke-width="2"/><path d="M74.68,96.019s10.878,8.575,0,20.023" transform="translate(-19.107 -63.522)" fill="none" stroke="#010101" stroke-linecap="round" stroke-miterlimit="10" stroke-width="3"/><path d="M70.909,100.305s6.211,4.9,0,11.433" transform="translate(-19.107 -63.522)" fill="none" stroke="#010101" stroke-linecap="round" stroke-miterlimit="10" stroke-width="3"/><path d="M76.9,90.285s18.249,13.887,0,31.111" transform="translate(-19.107 -63.522)" fill="none" stroke="#010101" stroke-linecap="round" stroke-miterlimit="10" stroke-width="3"/><rect x="0.9" y="23.747" width="15.075" height="16.903" rx="3.802" ry="3.802" fill="none" stroke="#231f20" stroke-miterlimit="10" stroke-width="1.8"/><circle cx="6.337" cy="36.548" r="0.946" fill="#231f20" stroke="#231f20" stroke-miterlimit="10" stroke-width="0.8"/><circle cx="10.538" cy="36.548" r="0.946" fill="#231f20" stroke="#231f20" stroke-miterlimit="10" stroke-width="0.8"/><rect x="21.962" y="23.747" width="15.075" height="16.903" rx="3.802" ry="3.802" fill="none" stroke="#231f20" stroke-miterlimit="10" stroke-width="1.8"/><rect x="24.546" y="26.197" width="9.907" height="7.702" rx="1.902" ry="1.902" fill="#231f20"/><rect x="24.546" y="48.072" width="9.907" height="7.702" rx="1.902" ry="1.902" fill="#231f20"/><rect x="3.421" y="26.197" width="9.907" height="7.702" rx="1.902" ry="1.902" fill="#231f20"/><rect x="3.421" y="48.072" width="9.907" height="7.702" rx="1.902" ry="1.902" fill="#231f20"/><circle cx="27.4" cy="36.548" r="0.946" fill="#231f20" stroke="#231f20" stroke-miterlimit="10" stroke-width="0.8"/><circle cx="31.601" cy="36.548" r="0.946" fill="#231f20" stroke="#231f20" stroke-miterlimit="10" stroke-width="0.8"/><rect x="21.962" y="45.622" width="15.075" height="16.903" rx="3.802" ry="3.802" fill="none" stroke="#231f20" stroke-miterlimit="10" stroke-width="1.8"/><circle cx="27.4" cy="58.423" r="0.946" fill="#231f20" stroke="#231f20" stroke-miterlimit="10" stroke-width="0.8"/><circle cx="31.601" cy="58.423" r="0.946" fill="#231f20" stroke="#231f20" stroke-miterlimit="10" stroke-width="0.8"/><rect x="0.9" y="45.622" width="15.075" height="16.903" rx="3.802" ry="3.802" fill="none" stroke="#231f20" stroke-miterlimit="10" stroke-width="1.8"/><circle cx="6.337" cy="58.423" r="0.946" fill="#231f20" stroke="#231f20" stroke-miterlimit="10" stroke-width="0.8"/><circle cx="10.538" cy="58.423" r="0.946" fill="#231f20" stroke="#231f20" stroke-miterlimit="10" stroke-width="0.8"/><rect x="81.139" y="18.78" width="29.971" height="45.503" rx="3.712" ry="3.712" fill="none" stroke="#231f20" stroke-miterlimit="10" stroke-width="3"/><circle cx="88.238" cy="42.144" r="2.314" fill="#231f20" stroke="#231f20" stroke-miterlimit="10" stroke-width="0.9"/><circle cx="96.125" cy="42.144" r="2.314" fill="#231f20" stroke="#231f20" stroke-miterlimit="10" stroke-width="0.9"/><circle cx="104.013" cy="42.144" r="2.314" fill="#231f20" stroke="#231f20" stroke-miterlimit="10" stroke-width="0.9"/><polygon points="115.264 17.754 118.624 7.704 122.02 11.517 115.264 17.754" fill="#231f20"/><rect x="117.211" width="22.179" height="14.881" rx="3.382" ry="3.382" fill="#231f20"/><circle cx="88.238" cy="57.355" r="2.314" fill="#231f20" stroke="#231f20" stroke-miterlimit="10" stroke-width="0.9"/><circle cx="96.125" cy="57.355" r="2.314" fill="#231f20" stroke="#231f20" stroke-miterlimit="10" stroke-width="0.9"/><circle cx="104.013" cy="57.355" r="2.314" fill="#231f20" stroke="#231f20" stroke-miterlimit="10" stroke-width="0.9"/><circle cx="88.238" cy="49.75" r="2.314" fill="#231f20" stroke="#231f20" stroke-miterlimit="10" stroke-width="0.9"/><circle cx="96.125" cy="49.75" r="2.314" fill="#231f20" stroke="#231f20" stroke-miterlimit="10" stroke-width="0.9"/><circle cx="104.013" cy="49.75" r="2.314" fill="#231f20" stroke="#231f20" stroke-miterlimit="10" stroke-width="0.9"/><circle cx="123.267" cy="7.774" r="1.477" fill="#fff" stroke="#231f20" stroke-miterlimit="10" stroke-width="0.9"/><circle cx="128.301" cy="7.774" r="1.477" fill="#fff" stroke="#231f20" stroke-miterlimit="10" stroke-width="0.9"/><circle cx="133.335" cy="7.774" r="1.477" fill="#fff" stroke="#231f20" stroke-miterlimit="10" stroke-width="0.9"/></svg>