<svg id="Layer_1" data-name="Layer 1" xmlns="http://www.w3.org/2000/svg" viewBox="0 0 495.39 70.3"><title>modalogo</title><path d="M172.8,44.6A27.39,27.39,0,1,0,200.19,72,27.42,27.42,0,0,0,172.8,44.6Zm0,50.56A23.18,23.18,0,1,1,196,72,23.2,23.2,0,0,1,172.8,95.16Z" transform="translate(-58.3 -29.85)"/><path d="M253,51.85a28,28,0,0,0-18.52-7.25,27.39,27.39,0,1,0,27.32,29.14l.07-.66V30.71a.8.8,0,0,0-.89-.86H258.6a.86.86,0,0,0-1,.95l0,26.69s0,7.94,0,14.5a23.19,23.19,0,1,1-7.32-16.9s.37.41.67,0L253,52.59A.5.5,0,0,0,253,51.85Z" transform="translate(-58.3 -29.85)"/><path d="M314.45,91.12l-1.94-2.41c-.24-.3-.63,0-.63,0a23.1,23.1,0,1,1,7.24-16.79V97.64c0,1.31,1.11,1.23,1.11,1.23h2.14a.86.86,0,0,0,.95-1v-26A27.34,27.34,0,1,0,314.5,92C314.85,91.68,314.45,91.12,314.45,91.12Z" transform="translate(-58.3 -29.85)"/><path d="M132.64,50c-3.68-3.89-8.71-5.86-15-5.86s-11.26,2-14.89,5.86a20.3,20.3,0,0,0-3.55,5.36A16.26,16.26,0,0,0,95.6,49.6c-3.55-3.61-8.94-5.43-16-5.43-6.39,0-11.51,2-15.19,5.91-6.5,6.94-6.12,17.43-6.06,18.49V98.06s0,1.16,1,1.16h2.11s.93.14.93-1.13V68.38c0-.09-.52-9.68,5-15.52,2.88-3.06,7-4.62,12.2-4.62,6,0,10.36,1.42,13.12,4.22,3.79,3.84,4,9.82,4,13.84a27.32,27.32,0,0,0,0,3V98.17a1,1,0,0,0,1.07,1h2a1,1,0,0,0,1-1.07V68.51c0-.37,0-.77,0-1.21,0-.21,0-.43,0-.65.18-3.42,1.09-9.63,5-13.85,2.83-3,6.84-4.56,11.9-4.56s9.11,1.54,12,4.57c5.76,6.07,5.3,16.25,5.29,16.35V98.22s.06,1,1,1h2s1,.16,1-1V69.32C139.08,68.29,139.42,57.19,132.64,50Z" transform="translate(-58.3 -29.85)"/><path d="M352.46,44.54V90.3h25.85v9.37H342V44.54Z" transform="translate(-58.3 -29.85)"/><path d="M394.67,44.54V99.67H384.21V44.54Z" transform="translate(-58.3 -29.85)"/><path d="M426.14,70.34h24.28l.16,11q0,12-4.51,15.41T426,100.15q-14.3,0-18.94-4.6T402.4,76.77q0-18.1,1.85-22.86,2.31-5.82,7-7.84t15.91-2q14.7,0,19,3.13t4.28,13.88H439.83q-.27-5.41-2.36-6.73T427,53q-9.09,0-11.53,2.26T413.06,65.9l0,5.53.08,7.07q0,8.2,2.42,10.44t11.23,2.24q8.56,0,10.88-1.89t2.33-9l0-2.26H426.14Z" transform="translate(-58.3 -29.85)"/><path d="M504.93,44.54V99.67H494.47V75.84H468.62V99.67H458.16V44.54h10.46V67h25.85V44.54Z" transform="translate(-58.3 -29.85)"/><path d="M537.22,53.91V99.67H526.76V53.91H510.85V44.54H553.7v9.37Z" transform="translate(-58.3 -29.85)"/></svg>