<svg xmlns="http://www.w3.org/2000/svg" viewBox="0 0 50.25 71.97"><title>icon-add-blk</title><g id="Layer_2" data-name="Layer 2"><g id="Layer_1-2" data-name="Layer 1"><path d="M35.31,2.17A25.08,25.08,0,0,0,2.19,35.32a24.46,24.46,0,0,0,2.45,4.27A121.93,121.93,0,0,0,15.8,55.25a41.07,41.07,0,0,1,7.83,15.56,1.55,1.55,0,0,0,3,0,41,41,0,0,1,7.84-15.56A122.45,122.45,0,0,0,45.61,39.62a24.46,24.46,0,0,0,2.45-4.27l0,0A25.12,25.12,0,0,0,35.31,2.17ZM25.13,37.3A12.21,12.21,0,1,1,37.34,25.09,12.21,12.21,0,0,1,25.13,37.3Z"/></g></g></svg>