<svg xmlns="http://www.w3.org/2000/svg" viewBox="0 0 72.64 72.01"><title>icon-phone-blk</title><g id="Layer_2" data-name="Layer 2"><g id="Layer_1-2" data-name="Layer 1"><g id="Layer_2-2" data-name="Layer 2"><g id="Layer_1-2-2" data-name="Layer 1-2"><path d="M12.64.61A1.48,1.48,0,0,0,11.05.05C7.87,1-1.59,4.66.23,16.61,2.4,30.9,29.08,67.21,60.12,72a1.09,1.09,0,0,0,.36,0A13.09,13.09,0,0,0,72.62,60.52a1.47,1.47,0,0,0-.71-1.46L54.71,48.55a1.48,1.48,0,0,0-1.34-.11l-9.77,4a1.49,1.49,0,0,1-1.4-.15c-3-2.12-15.33-11.15-22.2-22.8A1.52,1.52,0,0,1,20,28l5-9a1.48,1.48,0,0,0-.09-1.6Z"/></g></g></g></g></svg>