<?xml version="1.0" encoding="utf-8"?>
<!-- Generator: Adobe Illustrator 24.3.0, SVG Export Plug-In . SVG Version: 6.00 Build 0)  -->
<svg version="1.1" xmlns="http://www.w3.org/2000/svg" xmlns:xlink="http://www.w3.org/1999/xlink" x="0px" y="0px"
	 viewBox="0 0 35.9 30.8" style="enable-background:new 0 0 35.9 30.8;" xml:space="preserve">
<style type="text/css">
	.st0{display:none;}
	.st1{display:inline;opacity:0.25;}
	.st2{fill:none;stroke:#000000;stroke-width:0.5;stroke-miterlimit:10;}
	.st3{fill:none;stroke:#000000;stroke-width:0.5;stroke-linecap:round;stroke-miterlimit:10;}
	.st4{fill:none;stroke:#000000;stroke-width:0.5;stroke-linecap:round;stroke-linejoin:round;stroke-miterlimit:10;}
</style>
<g id="Layer_1" class="st0">
	<g id="icon-brochure-blk" transform="translate(0.051 0.051)" class="st1">
		<g id="Group_2703" transform="translate(0.2 0.2)">
			<g id="Group_2702">
				<g id="Layer_1-2">
					<g id="Group_2701">
						<g id="Group_2700">
							<path id="Path_512" class="st2" d="M17.7,3.6V29c0,0.6,0.5,1.1,1.1,1.1c0,0,0,0,0,0l13.3-2.2c0.6-0.1,1-0.5,1.1-1.1V1.4
								c0-0.6-0.5-1.1-1.1-1.1c0,0,0,0,0,0l0,0l-3.3,0.6 M27.8,28.1l-9,2.2c-0.6,0-1.1-0.5-1.1-1.1c0,0,0,0,0,0l0,0V3.3
								c0-0.6,0.5-1.1,1.1-1.1l9-2.2c0.6,0,1.1,0.5,1.1,1.1c0,0,0,0,0,0l0,0V27C29,27.7,28.4,27.9,27.8,28.1z M18.1,2.5H1.6
								C0.7,2.5,0,3.1,0,4l0,0v24.7c0,0.9,0.7,1.6,1.5,1.6h32.3c0.9,0,1.6-0.7,1.6-1.5l0,0V4.1c0-0.8-0.7-1.5-1.5-1.5c0,0,0,0-0.1,0
								h-0.6"/>
							<path id="Path_513" class="st2" d="M13.4,19.2H4.2C3.5,19.1,3,18.6,3,18c0,0,0,0,0,0V6.7c0-0.7,0.5-1.2,1.2-1.2h9.2
								c0.7,0,1.2,0.5,1.2,1.2c0,0,0,0,0,0v11.2C14.6,18.6,14.1,19.1,13.4,19.2z"/>
							<path id="Path_514" class="st2" d="M26.4,19.2l-5.3,1.4c-0.4,0.1-0.8-0.4-0.8-0.8V11c0-0.4,0.4-0.8,0.8-0.9l5.3-1.4
								c0.5-0.1,0.8,0.4,0.8,0.9v8.8C27.1,18.8,26.8,19.1,26.4,19.2z"/>
							<path id="Path_515" class="st2" d="M29.4,17.4l1.2-0.3c0.4-0.1,0.7,0.4,0.7,0.8v8.8c0,0.4-0.3,0.8-0.7,0.9L28.7,28"/>
							<path id="Path_516" class="st2" d="M22.2,6.8l-1.5,0.4c-0.1,0-0.2-0.1-0.2-0.2V4.3c0-0.1,0.1-0.2,0.2-0.2l1.5-0.5
								c0.1,0,0.2,0.1,0.2,0.2v2.7C22.4,6.7,22.4,6.8,22.2,6.8"/>
							<path id="Path_517" class="st2" d="M22.2,6.8l-1.5,0.4c-0.1,0-0.2-0.1-0.2-0.2V4.3c0-0.1,0.1-0.2,0.2-0.2l1.5-0.5
								c0.1,0,0.2,0.1,0.2,0.2v2.7C22.4,6.7,22.4,6.8,22.2,6.8z"/>
						</g>
					</g>
					<path id="Path_518" class="st3" d="M33.3,26.5h0.7 M33.4,24.3h0.6 M33.3,4.7h0.7 M33.3,6.8h0.7 M33.3,9h0.7 M33.3,11.2h0.7
						 M33.3,13.4h0.7 M33.3,15.6h0.7 M33.3,17.7h0.7 M33.3,19.9h0.7 M33.3,22.1h0.7 M3,26.5h12.2 M3,24.3h12.2 M3,22.1h12.2
						 M19.8,27.6l7.5-2 M29.2,14.8l2.3-0.6 M29.2,12.7l2.3-0.6 M29.2,10.5l2.3-0.6 M29.2,8.3l2.3-0.6 M29.2,6.1l2.3-0.6 M29.1,3.9
						l2.3-0.6 M25.1,6.1l2.3-0.6 M24.7,3.3l2.6-0.7 M19.8,25.4l7.5-2 M19.8,23.2l7.5-2"/>
				</g>
			</g>
		</g>
	</g>
</g>
<g id="Layer_2">
	<rect x="8.2" y="-1" transform="matrix(4.491169e-11 -1 1 4.491169e-11 2.5565 33.3655)" class="st4" width="19.6" height="32.8"/>
	
		<rect x="26.6" y="7.9" transform="matrix(2.357498e-11 -1 1 2.357498e-11 19.0278 39.7088)" class="st4" width="5.5" height="4.8"/>
	<line class="st4" x1="5.3" y1="16.3" x2="14.7" y2="16.3"/>
	<line class="st4" x1="5.3" y1="18.8" x2="14.7" y2="18.8"/>
	<line class="st4" x1="5.3" y1="21.3" x2="14.7" y2="21.3"/>
</g>
</svg>
