<svg xmlns="http://www.w3.org/2000/svg" viewBox="0 0 35.922 30.809">
  <defs>
    <style>
      .cls-1, .cls-2 {
        fill: none;
        stroke: #000;
        stroke-miterlimit: 10;
        stroke-width: 0.5px;
      }

      .cls-2 {
        stroke-linecap: round;
      }
    </style>
  </defs>
  <g id="icon-brochure-blk" transform="translate(0.051 0.051)">
    <g id="Group_2703" data-name="Group 2703" transform="translate(0.2 0.2)">
      <g id="Group_2702" data-name="Group 2702">
        <g id="Layer_1-2">
          <g id="Group_2701" data-name="Group 2701">
            <g id="Group_2700" data-name="Group 2700">
              <path id="Path_512" data-name="Path 512" class="cls-1" d="M17.941,3.773V29.152a1.1,1.1,0,0,0,1.109,1.109L32.355,28.1A1.245,1.245,0,0,0,33.464,27V1.617A1.1,1.1,0,0,0,32.355.508h0l-3.326.554M28.043,28.29,19.05,30.507A1.1,1.1,0,0,1,17.941,29.4h0V3.526A1.145,1.145,0,0,1,19.05,2.418L28.043.2a1.1,1.1,0,0,1,1.109,1.109h0V27.181C29.152,27.859,28.6,28.1,28.043,28.29ZM18.311,2.664H1.8A1.578,1.578,0,0,0,.2,4.2h0v24.7a1.578,1.578,0,0,0,1.54,1.6H34.019a1.578,1.578,0,0,0,1.6-1.54h0V4.266a1.539,1.539,0,0,0-1.6-1.54H33.4" transform="translate(-0.2 -0.2)"/>
              <path id="Path_513" data-name="Path 513" class="cls-1" d="M15.51,22.775H6.27A1.184,1.184,0,0,1,5.1,21.543V10.332A1.225,1.225,0,0,1,6.27,9.1h9.24a1.184,1.184,0,0,1,1.17,1.232V21.543A1.268,1.268,0,0,1,15.51,22.775Z" transform="translate(-2.082 -3.618)"/>
              <path id="Path_514" data-name="Path 514" class="cls-1" d="M39.2,24.83l-5.3,1.417c-.431.123-.8-.37-.8-.8v-8.87a.92.92,0,0,1,.8-.862L39.2,14.3c.493-.062.8.37.8.862v8.809A.982.982,0,0,1,39.2,24.83Z" transform="translate(-12.833 -5.611)"/>
              <path id="Path_515" data-name="Path 515" class="cls-1" d="M47.478,28.2l1.17-.308c.431-.062.739.37.739.8v8.809a.864.864,0,0,1-.739.862l-1.848.493" transform="translate(-18.094 -10.833)"/>
              <path id="Path_516" data-name="Path 516" class="cls-1" d="M35.263,9.265,33.785,9.7c-.123,0-.185-.123-.185-.246V6.739c0-.123.062-.246.185-.246L35.263,6a.265.265,0,0,1,.246.246v2.71a.615.615,0,0,1-.246.308" transform="translate(-13.025 -2.427)"/>
              <path id="Path_517" data-name="Path 517" class="cls-1" d="M35.263,9.265,33.785,9.7c-.123,0-.185-.123-.185-.246V6.739c0-.123.062-.246.185-.246L35.263,6a.265.265,0,0,1,.246.246v2.71A.615.615,0,0,1,35.263,9.265Z" transform="translate(-13.025 -2.427)"/>
            </g>
          </g>
          <path id="Path_518" data-name="Path 518" class="cls-2" d="M35.307,28.262h.678m-.554-2.156h.554m-.678-19.65h.678m-.678,2.156h.678m-.678,2.156h.678m-.678,2.218h.678m-.678,2.156h.678m-.678,2.218h.678m-.678,2.156h.678m-.678,2.156h.678m-.678,2.218h.678M5,28.262H17.2M5,26.106H17.2M5,23.889H17.2m4.62,5.482,7.515-2.033m1.91-10.718L33.521,16m-2.279-1.54,2.279-.616m-2.279-1.6,2.279-.616m-2.279-1.54,2.279-.616m-2.279-1.6,2.279-.616M31.18,5.717,33.459,5.1M27.115,7.873l2.279-.616M26.745,5.039,29.394,4.3M21.817,27.154l7.515-2.033M21.817,25l7.515-2.033" transform="translate(-2.043 -1.774)"/>
        </g>
      </g>
    </g>
  </g>
</svg>
