<svg xmlns="http://www.w3.org/2000/svg" xmlns:xlink="http://www.w3.org/1999/xlink" viewBox="0 0 31.86 49.67"><defs><style>.cls-1,.cls-11,.cls-12,.cls-5{fill:none;}.cls-2{clip-path:url(#clip-path);}.cls-3{fill:gray;}.cls-4{fill:#363636;}.cls-5{stroke:#f7f7f8;}.cls-11,.cls-5{stroke-miterlimit:10;}.cls-11,.cls-12,.cls-5{stroke-width:0.5px;}.cls-6{fill:#8b8b8b;}.cls-7{fill:#737373;}.cls-8{fill:#989898;}.cls-9{fill:#595959;}.cls-10{fill:#fff;}.cls-11,.cls-12{stroke:gray;}.cls-12{stroke-linejoin:round;}</style><clipPath id="clip-path" transform="translate(-0.17 -0.17)"><rect class="cls-1" width="32.19" height="50"/></clipPath></defs><title>icon-revit</title><g id="Layer_2" data-name="Layer 2"><g id="Layer_1-2" data-name="Layer 1"><g class="cls-2"><path class="cls-3" d="M31.77,40.18V37.6H.47v4.82L.68,47a5.36,5.36,0,0,0,2.69,2.59H29.08A30.7,30.7,0,0,0,31.77,47Z" transform="translate(-0.17 -0.17)"/></g><polygon class="cls-4" points="9.57 11.03 6.06 31.62 10.54 33.12 12.59 25.92 25.36 33.13 26.97 30.49 18.34 20.68 21.37 20.02 21.74 16.42 16.13 7.85 9.57 11.03"/><polygon class="cls-5" points="9.57 11.03 6.06 31.62 10.54 33.12 12.59 25.92 25.36 33.13 26.97 30.49 18.34 20.68 21.37 20.02 21.74 16.42 16.13 7.85 9.57 11.03"/><polygon class="cls-6" points="9.28 10.67 14.86 13.16 16.14 7.34 9.28 10.67"/><polygon class="cls-3" points="16.14 7.34 14.86 13.16 17.31 14.35 17.14 8.88 16.14 7.34"/><polygon class="cls-7" points="17.14 8.88 17.31 14.35 22 16.27 17.14 8.88"/><polygon class="cls-7" points="9.28 10.65 14.22 16.38 14.86 13.16 9.28 10.65"/><polygon class="cls-8" points="14.86 13.16 14.13 16.27 18.44 20.71 17.31 14.35 14.86 13.16"/><polygon class="cls-6" points="17.31 14.35 22 16.27 21.61 20.02 18.44 20.71 17.31 14.35"/><polygon class="cls-3" points="9.28 10.65 7.77 19.47 13.04 21.94 14.13 16.27 9.28 10.65"/><polygon class="cls-9" points="12.99 21.95 18.45 20.7 14.13 16.26 12.99 21.95"/><polygon class="cls-7" points="7.77 19.47 13.04 21.94 7.13 23.25 7.77 19.47"/><polygon class="cls-3" points="13.04 21.94 18.45 20.7 27.46 30.92 25.78 33.66 12.43 26.16 13.04 21.94"/><polygon class="cls-6" points="7.13 23.25 13.04 21.94 10.68 25.66 7.13 23.25"/><polygon class="cls-9" points="10.68 25.66 12.46 26.18 13.04 21.94 10.68 25.66"/><polygon class="cls-6" points="5.61 32.09 10.29 33.65 12.46 26.18 10.68 25.66 5.61 32.09"/><polygon class="cls-3" points="7.13 23.25 10.68 25.66 5.61 32.09 7.13 23.25"/><g class="cls-2"><path class="cls-10" d="M6.83,43.28h.33A1.3,1.3,0,0,0,8.63,42c0-1.1-.92-1.2-1.44-1.2H6.83ZM7,39.69a2.78,2.78,0,0,1,1.81.46A2.3,2.3,0,0,1,9.64,42a2.09,2.09,0,0,1-1.53,2.18l2.15,3.34H9l-2-3.2H6.83v3.2h-1V39.69Z" transform="translate(-0.17 -0.17)"/></g><polygon class="cls-10" points="17.31 40.65 14.87 40.65 14.87 42.63 17.23 42.63 17.23 43.76 14.87 43.76 14.87 47.34 13.8 47.34 13.8 39.53 17.31 39.53 17.31 40.65"/><path class="cls-10" d="M24.67,44.68,23.58,42.2l-1.13,2.48Zm.45,1.06H22l-.8,1.77H20l3.65-7.76,3.47,7.76H25.89Z" transform="translate(-0.17 -0.17)"/><g class="cls-2"><path class="cls-11" d="M4.39.42a4,4,0,0,0-4,4V45.58a4,4,0,0,0,4,4H27.8a4,4,0,0,0,4-4V7.44l-7-7Z" transform="translate(-0.17 -0.17)"/><path class="cls-12" d="M28.79,7.42h2.94L24.91.51v3A3.92,3.92,0,0,0,28.79,7.42Z" transform="translate(-0.17 -0.17)"/></g></g></g></svg>