<svg xmlns="http://www.w3.org/2000/svg" xmlns:xlink="http://www.w3.org/1999/xlink" viewBox="0 0 57.99 49.67"><defs><style>.cls-1,.cls-3,.cls-4{fill:none;}.cls-2{clip-path:url(#clip-path);}.cls-3,.cls-4{stroke:gray;stroke-miterlimit:10;stroke-width:0.5px;}.cls-4{stroke-linecap:round;}</style><clipPath id="clip-path" transform="translate(-0.17 -0.17)"><rect class="cls-1" width="58.32" height="50"/></clipPath></defs><title>icon-brochure</title><g id="Layer_2" data-name="Layer 2"><g id="Layer_1-2" data-name="Layer 1"><g class="cls-2"><path class="cls-3" d="M29.15,6.14V47.36a1.79,1.79,0,0,0,1.79,1.78l21.63-3.48a2,2,0,0,0,1.8-1.77V2.67A1.79,1.79,0,0,0,52.57.89l-5.45.93M45.53,46,30.94,49.57a1.8,1.8,0,0,1-1.79-1.82v-42A1.81,1.81,0,0,1,30.94,4L45.53.42a1.8,1.8,0,0,1,1.8,1.82v42C47.35,45.22,46.51,45.68,45.53,46ZM29.8,4.4H3A2.55,2.55,0,0,0,.42,6.94V47A2.55,2.55,0,0,0,3,49.58H55.35A2.55,2.55,0,0,0,57.91,47V6.93a2.56,2.56,0,0,0-2.56-2.55h-1" transform="translate(-0.17 -0.17)"/><path class="cls-3" d="M22.14,31.44H7.1a2,2,0,0,1-1.94-2V11.32a2,2,0,0,1,1.94-2h15a2,2,0,0,1,1.94,2V29.48A2,2,0,0,1,22.14,31.44Z" transform="translate(-0.17 -0.17)"/><path class="cls-3" d="M43.14,31.56l-8.61,2.27c-.73.17-1.29-.61-1.29-1.34V18.14a1.42,1.42,0,0,1,1.29-1.35l8.61-2.27c.77-.12,1.28.61,1.28,1.35V30.22C44.42,31,43.9,31.38,43.14,31.56Z" transform="translate(-0.17 -0.17)"/><path class="cls-3" d="M48.11,28.53,50.05,28c.71-.13,1.19.6,1.19,1.34V43.61A1.39,1.39,0,0,1,50.05,45L47,45.84" transform="translate(-0.17 -0.17)"/><path class="cls-1" d="M36.43,11.45l-2.35.7c-.19,0-.35-.19-.35-.42V7.33a.41.41,0,0,1,.35-.41l2.35-.71c.21,0,.36.19.36.42V11a.45.45,0,0,1-.36.42" transform="translate(-0.17 -0.17)"/><path class="cls-3" d="M36.43,11.45l-2.35.7c-.19,0-.35-.19-.35-.42V7.33a.41.41,0,0,1,.35-.41l2.35-.71c.21,0,.36.19.36.42V11A.45.45,0,0,1,36.43,11.45Z" transform="translate(-0.17 -0.17)"/></g><path class="cls-4" d="M54.33,43.36h1.14m-.87-3.54h.87M54.33,7.92h1.14m-1.14,3.55h1.14M54.33,15h1.14m-1.14,3.54h1.14m-1.14,3.55h1.14m-1.14,3.54h1.14m-1.14,3.53h1.14m-1.14,3.55h1.14m-1.14,3.54h1.14M5.17,43.36H24.93M5.17,39.82H24.93M5.17,36.27H24.93M32.5,45.2l12.22-3.29m3-17.42,3.69-1m-3.69-2.56,3.69-1m-3.69-2.55,3.69-1m-3.69-2.54,3.69-1m-3.69-2.55,3.69-1M47.67,6.78l3.69-1M41.05,10.32l3.67-1M40.45,5.72l4.27-1.16M32.5,41.61l12.22-3.29M32.5,38.08l12.22-3.31" transform="translate(-0.17 -0.17)"/><g class="cls-2"><path class="cls-3" d="M29.15,6.14V47.36a1.79,1.79,0,0,0,1.79,1.78l21.63-3.48a2,2,0,0,0,1.8-1.77V2.67A1.79,1.79,0,0,0,52.57.89l-5.45.93M45.53,46,30.94,49.57a1.8,1.8,0,0,1-1.79-1.82v-42A1.81,1.81,0,0,1,30.94,4L45.53.42a1.8,1.8,0,0,1,1.8,1.82v42C47.35,45.22,46.51,45.68,45.53,46ZM29.8,4.4H3A2.55,2.55,0,0,0,.42,6.94V47A2.55,2.55,0,0,0,3,49.58H55.35A2.55,2.55,0,0,0,57.91,47V6.93a2.56,2.56,0,0,0-2.56-2.55h-1" transform="translate(-0.17 -0.17)"/><path class="cls-3" d="M22.14,31.44H7.1a2,2,0,0,1-1.94-2V11.32a2,2,0,0,1,1.94-2h15a2,2,0,0,1,1.94,2V29.48A2,2,0,0,1,22.14,31.44Z" transform="translate(-0.17 -0.17)"/><path class="cls-3" d="M43.14,31.56l-8.61,2.27c-.73.17-1.29-.61-1.29-1.34V18.14a1.42,1.42,0,0,1,1.29-1.35l8.61-2.27c.77-.12,1.28.61,1.28,1.35V30.22C44.42,31,43.9,31.38,43.14,31.56Z" transform="translate(-0.17 -0.17)"/><path class="cls-3" d="M48.11,28.53,50.05,28c.71-.13,1.19.6,1.19,1.34V43.61A1.39,1.39,0,0,1,50.05,45L47,45.84" transform="translate(-0.17 -0.17)"/><path class="cls-1" d="M36.43,11.45l-2.35.7c-.19,0-.35-.19-.35-.42V7.33a.41.41,0,0,1,.35-.41l2.35-.71c.21,0,.36.19.36.42V11a.45.45,0,0,1-.36.42" transform="translate(-0.17 -0.17)"/><path class="cls-3" d="M36.43,11.45l-2.35.7c-.19,0-.35-.19-.35-.42V7.33a.41.41,0,0,1,.35-.41l2.35-.71c.21,0,.36.19.36.42V11A.45.45,0,0,1,36.43,11.45Z" transform="translate(-0.17 -0.17)"/></g><path class="cls-4" d="M54.33,43.36h1.14m-.87-3.54h.87M54.33,7.92h1.14m-1.14,3.55h1.14M54.33,15h1.14m-1.14,3.54h1.14m-1.14,3.55h1.14m-1.14,3.54h1.14m-1.14,3.53h1.14m-1.14,3.55h1.14m-1.14,3.54h1.14M5.17,43.36H24.93M5.17,39.82H24.93M5.17,36.27H24.93M32.5,45.2l12.22-3.29m3-17.42,3.69-1m-3.69-2.56,3.69-1m-3.69-2.55,3.69-1m-3.69-2.54,3.69-1m-3.69-2.55,3.69-1M47.67,6.78l3.69-1M41.05,10.32l3.67-1M40.45,5.72l4.27-1.16M32.5,41.61l12.22-3.29M32.5,38.08l12.22-3.31" transform="translate(-0.17 -0.17)"/></g></g></svg>