<svg xmlns="http://www.w3.org/2000/svg" width="20.171" height="20" viewBox="0 0 20.171 20">
  <g id="icon-phone-blk" transform="translate(0 0)">
    <g id="Layer_1" data-name="Layer 1">
      <g id="Layer_2" data-name="Layer 2">
        <g id="Layer_1-2" data-name="Layer 1-2">
          <path id="Path_398" data-name="Path 398" d="M3.51.168A.411.411,0,0,0,3.068.012a3.926,3.926,0,0,0-3,4.6C.666,8.579,8.075,18.663,16.7,19.993a.3.3,0,0,0,.1,0,3.635,3.635,0,0,0,3.371-3.188.408.408,0,0,0-.2-.405l-4.777-2.919a.411.411,0,0,0-.372-.031l-2.713,1.111a.414.414,0,0,1-.389-.042A23.192,23.192,0,0,1,5.554,8.188a.422.422,0,0,1,0-.414l1.389-2.5a.411.411,0,0,0-.025-.444Z" transform="translate(0 0.003)" fill="#fff"/>
        </g>
      </g>
    </g>
  </g>
</svg>
