<svg xmlns="http://www.w3.org/2000/svg" xmlns:xlink="http://www.w3.org/1999/xlink" viewBox="0 0 30.44 49.67"><defs><style>.cls-1,.cls-4{fill:none;}.cls-2{clip-path:url(#clip-path);}.cls-3{fill:#fff;}.cls-4{stroke:gray;stroke-miterlimit:10;stroke-width:0.5px;}</style><clipPath id="clip-path" transform="translate(-0.17 -0.17)"><rect class="cls-1" width="30.78" height="50"/></clipPath></defs><title>icon-compatibility</title><g id="Layer_2" data-name="Layer 2"><g id="Layer_1-2" data-name="Layer 1"><g class="cls-2"><path class="cls-3" d="M15.53,34.15h-.28s0,0,0-.1V16c0-.06,0-.1,0-.1h.28s0,0,0,.1v18.1c0,.06,0,.1,0,.1" transform="translate(-0.17 -0.17)"/><path class="cls-4" d="M15.53,34.15h-.28s0,0,0-.1V16c0-.06,0-.1,0-.1h.28s0,0,0,.1v18.1C15.56,34.11,15.54,34.15,15.53,34.15Z" transform="translate(-0.17 -0.17)"/><path class="cls-4" d="M7.09.42h16.6a6.71,6.71,0,0,1,6.67,6.74V42.84a6.71,6.71,0,0,1-6.67,6.74H7.09A6.71,6.71,0,0,1,.42,42.84V7.16A6.71,6.71,0,0,1,7.09.42Z" transform="translate(-0.17 -0.17)"/><path class="cls-4" d="M10.44,6.9h9.93a3.08,3.08,0,0,1,3,3.12V40a3.08,3.08,0,0,1-3,3.12H10.44A3.08,3.08,0,0,1,7.4,40V10A3.08,3.08,0,0,1,10.44,6.9Z" transform="translate(-0.17 -0.17)"/><path class="cls-3" d="M5.89,20.48h19c.47,0,.83.25.83.55v.26c0,.31-.37.56-.83.56h-19c-.46,0-.82-.26-.82-.56V21c0-.3.37-.55.82-.55" transform="translate(-0.17 -0.17)"/><path class="cls-4" d="M5.89,20.48h19c.47,0,.83.25.83.55v.26c0,.31-.37.56-.83.56h-19c-.46,0-.82-.26-.82-.56V21C5.07,20.73,5.44,20.48,5.89,20.48Z" transform="translate(-0.17 -0.17)"/></g></g></g></svg>