<svg xmlns="http://www.w3.org/2000/svg" xmlns:xlink="http://www.w3.org/1999/xlink" viewBox="0 0 21.748 30.039">
  <defs>
    <style>
      .cls-1, .cls-3 {
        fill: none;
        stroke: #000;
        stroke-miterlimit: 10;
        stroke-width: 0.5px;
      }

      .cls-1 {
        stroke-linecap: round;
      }

      .cls-2 {
        clip-path: url(#clip-path);
      }
    </style>
    <clipPath id="clip-path">
      <rect id="Rectangle_1297" data-name="Rectangle 1297" width="21.749" height="30.04"/>
    </clipPath>
  </defs>
  <g id="icon-ies-blk" transform="translate(-1.801 -5.67)">
    <g id="Layer_1-2" transform="translate(1.8 5.669)">
      <path id="Path_536" data-name="Path 536" class="cls-1" d="M18.689,40.743H13.281M12.2,38.4h7.57" transform="translate(-4.75 -15.209)"/>
      <g id="Group_2710" data-name="Group 2710">
        <g id="Group_2709" data-name="Group 2709" class="cls-2">
          <path id="Path_537" data-name="Path 537" d="M15.6,47.2h3.725a2.221,2.221,0,0,1-1.682,1.322c-1.142.06-1.562-.421-2.043-1.322" transform="translate(-6.107 -18.722)"/>
          <path id="Path_538" data-name="Path 538" class="cls-3" d="M15.6,47.2h3.725a2.221,2.221,0,0,1-1.682,1.322C16.5,48.582,16.081,48.1,15.6,47.2Z" transform="translate(-6.107 -18.722)"/>
          <path id="Path_539" data-name="Path 539" class="cls-1" d="M17.359,19.25a10.69,10.69,0,0,0,1.983-14.9A10.647,10.647,0,0,0,2.46,17.328a11.976,11.976,0,0,0,2.523,2.4" transform="translate(0.004 0.035)"/>
        </g>
      </g>
    </g>
  </g>
</svg>
