<svg xmlns="http://www.w3.org/2000/svg" viewBox="0 0 52.23 48.61"><defs><style>.cls-1,.cls-2{fill:none;stroke:gray;stroke-width:0.5px;}.cls-1{stroke-linecap:round;stroke-linejoin:round;}.cls-2{stroke-miterlimit:10;}</style></defs><title>icon-install</title><g id="Layer_2" data-name="Layer 2"><g id="Layer_1-2" data-name="Layer 1"><path class="cls-1" d="M21,26.51,42.88,48.36l2.83-2.82L24,23.8A31.58,31.58,0,0,1,21,26.51Zm6.64-10.45L29,14.59l4.81,5.16-3.36,3.66M14.9,29,.57,43.44l4.79,4.91L22.5,31.17M18.12,1.9C22.65.65,27.53-.29,32.22.6c4.17.81,10.2,4.07,12,8.16,0,.1-1.73,2.57-1.66,3.42a4.21,4.21,0,0,0,2.65,3c1.43.48,2.85-.47,4.26-.1,1.73.45,3.41,2.7,1.92,4.18l-7.33,7.32L41,24.49c-1.4-1,.23-4.48-.33-5.81A2.81,2.81,0,0,0,38.47,17c-1.72-.2-3.66,1.45-4.62,2.72L29,14.69c1.14-1.49,3.69-3.76,2.12-6.09C29.09,5.63,21.89.85,18.12,1.9Z"/><line class="cls-2" x1="39.75" y1="44.58" x2="41.85" y2="42.48"/><path class="cls-1" d="M24,23.89l2.29-2.29S25.64,20,25,19.86s-1.35.76-3.25,0A3.35,3.35,0,0,1,20,15.8L8,3.83s-1.21-1.35-3.62.45A15.06,15.06,0,0,0,.27,8.42c0,.3-.3,1.66,1.73,3.7L12.36,22.45s2.74-.87,4.09.8,1.13,4,.68,4.52l1.1,1.09a16.07,16.07,0,0,0,2.82-2.29Z"/></g></g></svg>