<svg xmlns="http://www.w3.org/2000/svg" viewBox="0 0 32.494 30.48">
  <defs>
    <style>
      .cls-1, .cls-2 {
        fill: none;
        stroke: #000;
        stroke-width: 0.5px;
      }

      .cls-1 {
        stroke-linecap: round;
        stroke-linejoin: round;
      }

      .cls-2 {
        stroke-miterlimit: 10;
      }
    </style>
  </defs>
  <g id="icon-install-blk" transform="translate(0.963 112.977)">
    <g id="Layer_1-2" transform="translate(-1 -113)">
      <path id="Path_562" data-name="Path 562" class="cls-1" d="M13.22,16.607,26.768,30.253,28.5,28.508,15.076,14.925A11.956,11.956,0,0,1,13.22,16.607Zm4.083-6.48.866-.935,2.969,3.24-2.1,2.305M9.447,18.165.6,27.138l2.969,3.053L14.148,19.474M11.426,1.279C14.21.532,17.241-.092,20.149.469c2.6.5,6.31,2.555,7.424,5.109A9.5,9.5,0,0,0,26.521,7.7a2.542,2.542,0,0,0,1.67,1.869c.866.312,1.732-.312,2.66-.062,1.052.249,2.1,1.682,1.175,2.617L27.511,16.67l-1.918-1.308c-.866-.623.124-2.8-.186-3.614a1.84,1.84,0,0,0-1.361-1.059c-1.052-.125-2.289.935-2.846,1.682L18.169,9.255c.681-.935,2.289-2.368,1.3-3.8C18.231,3.585,13.777.656,11.426,1.279Z" transform="translate(-0.121 0)"/>
      <line id="Line_161" data-name="Line 161" class="cls-2" y1="1.308" x2="1.237" transform="translate(24.73 26.577)"/>
      <path id="Path_563" data-name="Path 563" class="cls-1" d="M14.956,16.145l1.423-1.433s-.433-1-.8-1.059-.866.5-1.98,0A2.161,2.161,0,0,1,12.481,11.1L5.057,3.621s-.742-.81-2.227.249A9.922,9.922,0,0,0,.294,6.425,2.709,2.709,0,0,0,1.346,8.73l6.434,6.418s1.67-.561,2.536.5a2.769,2.769,0,0,1,.433,2.8l.681.685A9.666,9.666,0,0,0,13.162,17.7Z" transform="translate(0 -1.158)"/>
    </g>
  </g>
</svg>
