<svg xmlns="http://www.w3.org/2000/svg" xmlns:xlink="http://www.w3.org/1999/xlink" viewBox="0 0 53.53 49.66"><defs><style>.cls-1,.cls-3{fill:none;}.cls-2{fill:gray;}.cls-3{stroke:gray;stroke-miterlimit:10;stroke-width:0.5px;}.cls-4{clip-path:url(#clip-path);}</style><clipPath id="clip-path" transform="translate(-0.17 -0.17)"><rect class="cls-1" width="53.87" height="50"/></clipPath></defs><title>icon-cad</title><g id="Layer_2" data-name="Layer 2"><g id="Layer_1-2" data-name="Layer 1"><polygon class="cls-2" points="19.92 34.81 18.55 32.03 19.4 32.03 20.36 34.01 21.36 32.03 22.23 32.03 20.79 34.81 22.3 37.86 21.45 37.86 20.35 35.63 19.21 37.86 18.35 37.86 19.92 34.81"/><polygon class="cls-2" points="45.12 36.99 43.48 33.68 44.35 33.68 45.5 36.01 46.66 33.68 47.53 33.68 45.88 36.99 45.88 39.51 45.12 39.51 45.12 36.99"/><polygon class="cls-2" points="33.91 16.51 36.28 16.54 36.27 17.36 32.68 17.33 35.14 12.36 33.12 12.33 33.13 11.51 36.37 11.54 33.91 16.51"/><path class="cls-3" d="M39.41,3,39.3,40M49.35,45,39.19,39.82m-34.52,1,34.69-.87" transform="translate(-0.17 -0.17)"/><polygon class="cls-2" points="38.42 4.44 40.23 4.44 39.33 2.87 38.42 4.44"/><polygon class="cls-3" points="38.42 4.44 39.33 2.87 40.23 4.44 38.42 4.44"/><polygon class="cls-2" points="48.22 45.54 50.03 45.54 49.13 43.98 48.22 45.54"/><polygon class="cls-3" points="48.22 45.54 49.13 43.98 50.03 45.54 48.22 45.54"/><polygon class="cls-2" points="3.88 40.67 5.45 41.57 5.45 39.76 3.88 40.67"/><polygon class="cls-3" points="3.88 40.66 5.45 39.76 5.45 41.57 3.88 40.66"/><g class="cls-4"><path class="cls-3" d="M14.31,49.72l.28-40.17m38.72-1.4L14.59,9.55.56,2M53.45,8,39.7.42.42,1.83V42l13.75,7.59,39.28-1.41Z" transform="translate(-0.17 -0.17)"/></g></g></g></svg>