<svg xmlns="http://www.w3.org/2000/svg" xmlns:xlink="http://www.w3.org/1999/xlink" viewBox="0 0 31.87 49.67"><defs><style>.cls-1,.cls-3,.cls-4,.cls-5,.cls-6{fill:none;}.cls-2{clip-path:url(#clip-path);}.cls-3{stroke:#f7f7f8;}.cls-3,.cls-4,.cls-6{stroke-miterlimit:10;}.cls-3,.cls-4,.cls-5,.cls-6{stroke-width:0.5px;}.cls-4,.cls-5,.cls-6{stroke:gray;}.cls-5{stroke-linejoin:round;}.cls-6{stroke-linecap:round;}</style><clipPath id="clip-path" transform="translate(-0.17 -0.17)"><rect class="cls-1" width="32.2" height="50"/></clipPath></defs><title>icon-quick-spec</title><g id="Layer_2" data-name="Layer 2"><g id="Layer_1-2" data-name="Layer 1"><g class="cls-2"><path class="cls-3" d="M4.39.42a4,4,0,0,0-4,4V45.58a4,4,0,0,0,4,4H27.82a4,4,0,0,0,4-4V7.44l-7-7Z" transform="translate(-0.17 -0.17)"/><path class="cls-4" d="M4.39.42a4,4,0,0,0-4,4V45.58a4,4,0,0,0,4,4H27.82a4,4,0,0,0,4-4V7.44l-7-7Z" transform="translate(-0.17 -0.17)"/><path class="cls-5" d="M28.84,7.44h2.93L25,.56V3.51A3.91,3.91,0,0,0,28.84,7.44Z" transform="translate(-0.17 -0.17)"/></g><path class="cls-6" d="M7.49,35.11h17m-17-3.44h17m-17-3.19h17M7.49,25h17m-17-3.31h17m-17-3.45h17" transform="translate(-0.17 -0.17)"/></g></g></svg>