<svg xmlns="http://www.w3.org/2000/svg" xmlns:xlink="http://www.w3.org/1999/xlink" viewBox="0 0 32.72 49.78"><defs><style>.cls-1,.cls-3,.cls-4,.cls-5,.cls-7{fill:none;}.cls-2{clip-path:url(#clip-path);}.cls-3{stroke:#f7f7f8;}.cls-3,.cls-4,.cls-7{stroke-miterlimit:10;}.cls-3,.cls-4,.cls-5,.cls-7{stroke-width:0.5px;}.cls-4,.cls-5,.cls-7{stroke:gray;}.cls-5{stroke-linejoin:round;}.cls-6{clip-path:url(#clip-path-2);}.cls-7{stroke-linecap:round;}</style><clipPath id="clip-path" transform="translate(-0.11 -0.11)"><rect class="cls-1" x="5.17" width="27.76" height="43.1"/></clipPath><clipPath id="clip-path-2" transform="translate(-0.11 -0.11)"><rect class="cls-1" y="6.9" width="27.76" height="43.1"/></clipPath></defs><title>icon-spec-sheet</title><g id="Layer_2" data-name="Layer 2"><g id="Layer_1-2" data-name="Layer 1"><g class="cls-2"><path class="cls-3" d="M29.15,42.74a3.46,3.46,0,0,0,3.43-3.45V6.42l-6-6.06H9A3.46,3.46,0,0,0,5.53,3.81" transform="translate(-0.11 -0.11)"/><path class="cls-4" d="M27.39,42.74h1.76a3.46,3.46,0,0,0,3.43-3.45V6.42l-6-6.06H9A3.46,3.46,0,0,0,5.53,3.81V7.33" transform="translate(-0.11 -0.11)"/><path class="cls-5" d="M30,6.41h2.53L26.69.48V3A3.36,3.36,0,0,0,30,6.41Z" transform="translate(-0.11 -0.11)"/></g><g class="cls-6"><path class="cls-3" d="M3.78,7.26A3.46,3.46,0,0,0,.36,10.71V46.19a3.45,3.45,0,0,0,3.42,3.45H24a3.44,3.44,0,0,0,3.42-3.45V13.31l-6-6.05Z" transform="translate(-0.11 -0.11)"/><path class="cls-4" d="M3.78,7.26A3.46,3.46,0,0,0,.36,10.71V46.19a3.45,3.45,0,0,0,3.42,3.45H24a3.44,3.44,0,0,0,3.42-3.45V13.31l-6-6.05Z" transform="translate(-0.11 -0.11)"/><path class="cls-5" d="M24.86,13.31h2.53L21.52,7.38V9.92A3.37,3.37,0,0,0,24.86,13.31Z" transform="translate(-0.11 -0.11)"/></g><path class="cls-7" d="M6.45,37.16H21.14m-14.69-3H21.14M6.45,31.45H21.14m-14.69-3H21.14M6.45,25.63H21.14m-14.69-3H21.14" transform="translate(-0.11 -0.11)"/></g></g></svg>