<?xml version="1.0" encoding="utf-8"?>
<!-- Generator: Adobe Illustrator 25.4.2, SVG Export Plug-In . SVG Version: 6.00 Build 0)  -->
<svg version="1.1" id="Layer_1" xmlns="http://www.w3.org/2000/svg" xmlns:xlink="http://www.w3.org/1999/xlink" x="0px" y="0px"
	 viewBox="0 0 26.7 24" style="enable-background:new 0 0 26.7 24;" xml:space="preserve">
<style type="text/css">
	.st0{fill:#231F20;}
	.st1{fill:#FFFFFF;}
</style>
<path id="Path_745" class="st0" d="M20.9,0H5.8C2.8-0.1,0.2,2.2,0,5.3v13.5c0.2,3.1,2.8,5.4,5.8,5.3h15.1c3.1,0.1,5.6-2.2,5.8-5.3
	V5.3C26.5,2.2,23.9-0.1,20.9,0z"/>
<path id="Path_746" class="st1" d="M17.3,21h-8c-3,0.1-5.5-2.1-5.7-5.1V8.2c0.2-3,2.7-5.3,5.7-5.1h8c3-0.1,5.5,2.1,5.7,5.1v7.7
	C22.9,18.9,20.3,21.1,17.3,21z M9.3,4.4C7.1,4.3,5.2,6,5.1,8.2v7.7c0.1,2.2,2,3.9,4.2,3.8h8c2.2,0.1,4.1-1.6,4.2-3.8V8.2
	c-0.1-2.2-2-3.9-4.2-3.8H9.3z"/>
<path id="Path_747" class="st1" d="M13.3,16.8c-2.8,0.1-5.1-2-5.3-4.8c0-1.3,0.6-2.6,1.6-3.5c1-0.9,2.3-1.4,3.7-1.3
	c1.5,0,2.9,0.5,4,1.4c0.9,0.9,1.4,2.1,1.3,3.3c0,1.3-0.6,2.5-1.6,3.4C16,16.3,14.7,16.8,13.3,16.8z M13.2,8.8
	c-0.8,0-1.7,0.3-2.3,0.9c-0.7,0.6-1.1,1.4-1.1,2.3c0.2,1.9,1.9,3.3,3.9,3.1c1.7-0.2,3-1.5,3.1-3.2l0,0c0.1-0.8-0.3-1.6-0.8-2.2
	c-0.8-0.6-1.7-1-2.7-0.9L13.2,8.8z"/>
<ellipse id="Ellipse_54" class="st1" cx="18.8" cy="7.1" rx="1.2" ry="1.1"/>
</svg>
