<svg xmlns="http://www.w3.org/2000/svg" width="26.685" height="24.001" viewBox="0 0 26.685 24.001">
  <g id="ig_copy" data-name="ig copy" transform="translate(0)">
    <path id="Path_745" data-name="Path 745" d="M213.33,194H198.257a5.553,5.553,0,0,0-5.807,5.258v13.485A5.553,5.553,0,0,0,198.257,218H213.33a5.552,5.552,0,0,0,5.8-5.258V199.257A5.55,5.55,0,0,0,213.33,194Z" transform="translate(-192.45 -194)" fill="#fff"/>
    <path id="Path_746" data-name="Path 746" d="M294.018,293.346h-8a5.435,5.435,0,0,1-5.688-5.126v-7.694a5.435,5.435,0,0,1,5.688-5.126h8a5.435,5.435,0,0,1,5.688,5.126v7.694A5.435,5.435,0,0,1,294.018,293.346Zm-8-16.632a4.042,4.042,0,0,0-4.23,3.812v7.694a4.042,4.042,0,0,0,4.23,3.812h8a4.042,4.042,0,0,0,4.23-3.812v-7.694a4.042,4.042,0,0,0-4.23-3.812Z" transform="translate(-276.675 -272.349)"/>
    <path id="Path_747" data-name="Path 747" d="M391.35,396.415a5.056,5.056,0,0,1-5.29-4.768,4.627,4.627,0,0,1,1.622-3.46,5.369,5.369,0,0,1,3.694-1.308,5.785,5.785,0,0,1,3.952,1.447,4.351,4.351,0,0,1,1.311,3.338,4.658,4.658,0,0,1-1.565,3.352A5.508,5.508,0,0,1,391.35,396.415Zm-.122-7.931a3.486,3.486,0,0,0-2.3.856,3.086,3.086,0,0,0-1.081,2.307,3.526,3.526,0,0,0,7.016-.018h0a2.86,2.86,0,0,0-.832-2.2,3.977,3.977,0,0,0-2.7-.939Z" transform="translate(-378.007 -379.648)"/>
    <ellipse id="Ellipse_54" data-name="Ellipse 54" cx="1.234" cy="1.112" rx="1.234" ry="1.112" transform="translate(17.528 5.985)"/>
  </g>
</svg>
