<?xml version="1.0" encoding="utf-8"?>
<!-- Generator: Adobe Illustrator 25.4.2, SVG Export Plug-In . SVG Version: 6.00 Build 0)  -->
<svg version="1.1" id="Layer_1" xmlns="http://www.w3.org/2000/svg" xmlns:xlink="http://www.w3.org/1999/xlink" x="0px" y="0px"
	 viewBox="0 0 27.7 23.9" style="enable-background:new 0 0 27.7 23.9;" xml:space="preserve">
<style type="text/css">
	.st0{fill:#231F20;}
</style>
<g id="linedkin_copy" transform="translate(0)">
	<ellipse id="Ellipse_55" class="st0" cx="3.4" cy="3.1" rx="3.4" ry="3.1"/>
	<path id="Path_748" class="st0" d="M6.5,8h-6v15.9h6C6.5,23.9,6.5,8,6.5,8z"/>
	<path id="Path_749" class="st0" d="M9.6,8h6v1.9c1.2-1.6,3.2-2.5,5.2-2.4c3.7,0,6.8,2.2,6.8,6.8v9.6h-6v-8.4c0,0,0.3-3.7-2.9-3.7
		c-1.6-0.1-3,1.2-3.1,2.8c0,0.1,0,0.2,0,0.3v9.1h-6C9.6,23.9,9.5,8,9.6,8z"/>
</g>
</svg>
