<?xml version="1.0" encoding="utf-8"?>
<!-- Generator: Adobe Illustrator 25.4.2, SVG Export Plug-In . SVG Version: 6.00 Build 0)  -->
<svg version="1.1" id="Layer_1" xmlns="http://www.w3.org/2000/svg" xmlns:xlink="http://www.w3.org/1999/xlink" x="0px" y="0px"
	 viewBox="0 0 28.3 20.7" style="enable-background:new 0 0 28.3 20.7;" xml:space="preserve">
<style type="text/css">
	.st0{fill:#231F20;}
</style>
<path id="twitter_copy" class="st0" d="M28.3,2.4c-1.1,0.4-2.2,0.7-3.3,0.8c1.2-0.6,2.1-1.6,2.6-2.9c-1.2,0.6-2.4,1-3.7,1.3
	c-1.9-1.7-4.7-2.1-7-1c-2.2,1-3.5,3.4-2.9,5.8C9.4,6.3,5.1,4.3,2,1C0.5,3.3,1.2,6.3,3.5,7.8c0.1,0.1,0.2,0.1,0.3,0.2
	C2.9,7.9,2,7.7,1.1,7.3v0.1c0.1,2.6,2.1,4.8,4.7,5.1c-0.9,0.2-1.8,0.2-2.6,0.1c0.9,2.2,3,3.7,5.4,3.6c-2.1,1.5-4.6,2.3-7.2,2.2
	c-0.5,0-0.9,0-1.4-0.1c2.7,1.6,5.8,2.4,8.9,2.3c10.7,0,16.5-8,16.5-14.9c0-0.2,0-0.5,0-0.7C26.5,4.4,27.5,3.5,28.3,2.4L28.3,2.4z"/>
</svg>
