<svg xmlns="http://www.w3.org/2000/svg" width="28.279" height="20.708" viewBox="0 0 28.279 20.708">
  <path id="twitter_copy" data-name="twitter copy" d="M201.778,236.806a12.6,12.6,0,0,1-3.332.825A5.383,5.383,0,0,0,201,234.738a12.422,12.422,0,0,1-3.684,1.267,6.277,6.277,0,0,0-6.971-1.029,5.068,5.068,0,0,0-2.916,5.8,17.131,17.131,0,0,1-11.958-5.463,4.931,4.931,0,0,0,1.8,6.979,6.27,6.27,0,0,1-2.628-.654v.066a5.4,5.4,0,0,0,4.653,5.129,6.438,6.438,0,0,1-2.621.089,5.768,5.768,0,0,0,5.421,3.631,12.476,12.476,0,0,1-7.205,2.239,13.06,13.06,0,0,1-1.384-.075,17.757,17.757,0,0,0,8.893,2.349c10.672,0,16.507-7.967,16.507-14.877q0-.34-.017-.675a11.218,11.218,0,0,0,2.895-2.707Z" transform="translate(-173.5 -234.356)" fill="#fff"/>
</svg>
