<svg id="Layer_1" data-name="Layer 1" xmlns="http://www.w3.org/2000/svg" viewBox="0 0 628.61 84.32"><defs><style>.cls-1{font-size:70px;}.cls-1,.cls-3{font-family:FuturaBT-Bold, Futura Md BT;font-weight:700;}.cls-2{letter-spacing:-0.02em;}.cls-3{font-size:18px;}</style></defs><title>modosynergy-logo</title><path d="M114.47,14.76a27.39,27.39,0,1,0,27.39,27.4,27.39,27.39,0,0,0-27.39-27.4Zm0,50.56a23.18,23.18,0,1,1,23.2-23.16,23.18,23.18,0,0,1-23.2,23.16Z" transform="translate(0 0.01)"/><path d="M194.67,22a28,28,0,0,0-18.52-7.25A27.39,27.39,0,1,0,203.47,43.9l.07-.66V.87a.79.79,0,0,0-.71-.86h-2.56a.85.85,0,0,0-1,.67v0a1,1,0,0,0,0,.25V42.15a23.19,23.19,0,1,1-7.3-16.9s.37.41.67,0l2-2.5a.5.5,0,0,0,0-.71h0Z" transform="translate(0 0.01)"/><path d="M256.12,61.28l-1.94-2.41c-.24-.3-.63,0-.63,0a23.09,23.09,0,1,1,7.24-16.79V67.8c0,1.31,1.11,1.23,1.11,1.23H264a.85.85,0,0,0,1-.7.09.09,0,0,0,0,0,1,1,0,0,0,0-.25V42a27.34,27.34,0,1,0-8.82,20.13C256.52,61.84,256.12,61.28,256.12,61.28Z" transform="translate(0 0.01)"/><path d="M74.31,20.16c-3.68-3.89-8.71-5.86-15-5.86s-11.26,2-14.89,5.86a20.4,20.4,0,0,0-3.55,5.36,16.34,16.34,0,0,0-3.6-5.76c-3.55-3.61-8.94-5.43-16-5.43-6.39,0-11.51,2-15.19,5.91C-.42,27.18,0,37.67,0,38.73V68.22s0,1.16,1,1.16H3.13s.93.14.93-1.13V38.54c0-.09-.52-9.68,5-15.52,2.88-3.06,7-4.62,12.2-4.62,6,0,10.36,1.42,13.12,4.22,3.79,3.84,4,9.82,4,13.84q-.08,1.5,0,3V68.33a1,1,0,0,0,1,1h2.07a1,1,0,0,0,1-1V36.81c.18-3.42,1.09-9.63,5-13.85,2.83-3,6.84-4.56,11.9-4.56s9.11,1.54,12,4.57c5.76,6.07,5.3,16.25,5.29,16.35V68.38s.06,1,1,1h2s1,.16,1-1V39.48C80.75,38.45,81.09,27.35,74.31,20.16Z" transform="translate(0 0.01)"/><text class="cls-1" transform="translate(272.13 67.75)">SYNER<tspan class="cls-2" x="226.68" y="0">G</tspan><tspan x="284.44" y="0">Y</tspan></text><text class="cls-3" transform="translate(602 30.01)">TM</text></svg>