<svg xmlns="http://www.w3.org/2000/svg" viewBox="0 0 368.459 269.357">
  <defs>
    <style>
      .cls-1 {
        fill: none;
        stroke: #000;
        stroke-miterlimit: 10;
        stroke-width: 4px;
      }

      .cls-2 {
        fill: #c1272d;
      }

      .cls-3 {
        fill: #93278f;
      }

      .cls-4 {
        fill: #ed1e79;
      }

      .cls-5 {
        fill: #39b54a;
      }

      .cls-6 {
        fill: #f05a26;
      }

      .cls-7 {
        fill: #f7931e;
      }

      .cls-8 {
        fill: #fcee21;
      }

      .cls-9 {
        fill: #0071bc;
      }

      .cls-10 {
        fill: #8bc540;
      }

      .cls-11 {
        fill: #eb2027;
      }

      .cls-12 {
        fill: #2e368e;
      }

      .cls-13 {
        fill: #29a9e1;
      }

      .cls-14 {
        fill: #016937;
      }

      .cls-15 {
        fill: #272361;
      }

      .cls-16 {
        fill: #d4145a;
      }

      .cls-17 {
        fill: #e5e5e4;
      }

      .cls-18 {
        fill: #f5ea14;
      }

      .cls-19 {
        fill: #00a89c;
      }

      .cls-20 {
        fill: #c0272d;
      }
    </style>
  </defs>
  <g id="cerket" transform="translate(-15.914 -10.443)">
    <path id="Path_587" data-name="Path 587" class="cls-1" d="M555.893,89.878,539.3,48.342,566.938,13.2l44.284,6.394,16.593,41.483L600.177,96.272Z" transform="translate(-245.727 -0.612)"/>
    <path id="Path_588" data-name="Path 588" class="cls-1" d="M376.793,434.278,360.2,392.794,387.838,357.6l44.284,6.394,16.593,41.536-27.638,35.142Z" transform="translate(-161.271 -163.015)"/>
    <path id="Path_589" data-name="Path 589" class="cls-1" d="M125.546,397.878,108.9,356.342,136.591,321.2l44.231,6.394,16.646,41.483L169.83,404.219Z" transform="translate(-42.77 -145.85)"/>
    <path id="Path_590" data-name="Path 590" class="cls-1" d="M262.146,343.278,245.5,301.794,273.138,266.6l44.284,6.394,16.593,41.536-27.638,35.142Z" transform="translate(-107.184 -120.103)"/>
    <path id="Path_591" data-name="Path 591" class="cls-1" d="M419.393,144.025,402.8,102.542,430.438,67.4l44.284,6.341,16.593,41.536-27.638,35.142Z" transform="translate(-181.36 -26.17)"/>
    <path id="Path_592" data-name="Path 592" class="cls-1" d="M282.946,198.178,266.3,156.642,293.938,121.5l44.284,6.394,16.593,41.483-27.638,35.142Z" transform="translate(-116.993 -51.681)"/>
    <path id="Path_593" data-name="Path 593" class="cls-1" d="M212.177,113.919l-44.231-6.394L151.3,66.042,178.938,30.9l44.284,6.341,16.646,41.536Z" transform="translate(-62.764 -8.958)"/>
    <path id="Path_594" data-name="Path 594" class="cls-1" d="M34.793,169.425,18.2,127.942,45.838,92.8l44.231,6.341,16.646,41.536L79.077,175.819Z" transform="translate(0 -38.147)"/>
    <circle id="Ellipse_23" data-name="Ellipse 23" class="cls-2" cx="13.37" cy="13.37" r="13.37" transform="translate(72.012 65.21) rotate(-70.001)"/>
    <circle id="Ellipse_24" data-name="Ellipse 24" class="cls-3" cx="13.37" cy="13.37" r="13.37" transform="translate(87.756 107.348) rotate(-70.001)"/>
    <circle id="Ellipse_25" data-name="Ellipse 25" class="cls-4" cx="13.37" cy="13.37" r="13.37" transform="translate(193.603 160.243) rotate(-70.001)"/>
    <circle id="Ellipse_26" data-name="Ellipse 26" class="cls-5" cx="13.37" cy="13.37" r="13.37" transform="translate(67.64 258.098) rotate(-70.001)"/>
    <circle id="Ellipse_27" data-name="Ellipse 27" class="cls-6" cx="13.37" cy="13.37" r="13.37" transform="translate(269.446 250.759) rotate(-70.001)"/>
    <circle id="Ellipse_28" data-name="Ellipse 28" class="cls-7" cx="13.37" cy="13.37" r="13.37" transform="translate(264.553 132.141) rotate(-70.001)"/>
    <circle id="Ellipse_29" data-name="Ellipse 29" class="cls-8" cx="13.37" cy="13.37" r="13.37" transform="translate(143.151 37.784) rotate(-70.001)"/>
    <circle id="Ellipse_30" data-name="Ellipse 30" class="cls-9" cx="13.37" cy="13.37" r="13.37" transform="translate(203.052 84.307) rotate(-70.001)"/>
    <circle id="Ellipse_31" data-name="Ellipse 31" class="cls-10" cx="8.032" cy="8.032" r="8.032" transform="translate(165.853 73.504) rotate(-70.001)"/>
    <circle id="Ellipse_32" data-name="Ellipse 32" class="cls-11" cx="8.032" cy="8.032" r="8.032" transform="translate(106.003 26.999) rotate(-70.001)"/>
    <circle id="Ellipse_33" data-name="Ellipse 33" class="cls-12" cx="8.032" cy="8.032" r="8.032" transform="translate(69.593 141.315) rotate(-70.001)"/>
    <circle id="Ellipse_34" data-name="Ellipse 34" class="cls-13" cx="8.032" cy="8.032" r="8.032" transform="translate(116.058 262.373) rotate(-70.001)"/>
    <circle id="Ellipse_35" data-name="Ellipse 35" class="cls-14" cx="8.032" cy="8.032" r="8.032" transform="translate(83.021 180.423) rotate(-70.001)"/>
    <circle id="Ellipse_36" data-name="Ellipse 36" class="cls-6" cx="8.032" cy="8.032" r="8.032" transform="translate(36.59 60.294) rotate(-70.001)"/>
    <circle id="Ellipse_37" data-name="Ellipse 37" class="cls-15" cx="8.032" cy="8.032" r="8.032" transform="translate(138.444 101.181) rotate(-17.391)"/>
    <circle id="Ellipse_38" data-name="Ellipse 38" class="cls-16" cx="8.032" cy="8.032" r="8.032" transform="translate(156.732 140.39) rotate(-17.391)"/>
    <circle id="Ellipse_39" data-name="Ellipse 39" cx="8.032" cy="8.032" r="8.032" transform="translate(215.763 189.221) rotate(-17.391)"/>
    <circle id="Ellipse_40" data-name="Ellipse 40" class="cls-17" cx="8.032" cy="8.032" r="8.032" transform="translate(261.634 195.511) rotate(-17.391)"/>
    <circle id="Ellipse_41" data-name="Ellipse 41" class="cls-13" cx="8.032" cy="8.032" r="8.032" transform="translate(227.911 112.91) rotate(-17.391)"/>
    <circle id="Ellipse_42" data-name="Ellipse 42" class="cls-18" cx="8.032" cy="8.032" r="8.032" transform="translate(298.361 83.898) rotate(-17.391)"/>
    <circle id="Ellipse_43" data-name="Ellipse 43" class="cls-19" cx="8.032" cy="8.032" r="8.032" transform="translate(282.038 42.848) rotate(-17.391)"/>
    <circle id="Ellipse_44" data-name="Ellipse 44" class="cls-20" cx="8.032" cy="8.032" r="8.032" transform="translate(190.021 224.104) rotate(-17.391)"/>
  </g>
</svg>
