<svg id="Layer_1" data-name="Layer 1" xmlns="http://www.w3.org/2000/svg" viewBox="0 0 255.36 238.55"><defs><style>.cls-1,.cls-2{stroke:#000;stroke-linecap:round;stroke-linejoin:round;}.cls-1{stroke-width:6.9px;}.cls-2{stroke-width:6.81px;}.cls-3{fill:#878787;}.cls-4{fill:#4a494a;}.cls-5{fill:#b0b0b0;}.cls-6{fill:#77787b;}</style></defs><title>moda-guard</title><path class="cls-1" d="M46.41,69s75.41-82.76,162.78,0C209.19,69,135.69-63.87,46.41,69Z" transform="translate(-1.53 -6.47)"/><path class="cls-2" d="M224.45,104.53s49.49,99.89-63.3,137.08C161.15,241.61,316.21,238.12,224.45,104.53Z" transform="translate(-1.53 -6.47)"/><path class="cls-2" d="M101.78,241.61S-7.85,221.41,29.92,108.82C29.92,108.81-60.16,235.07,101.78,241.61Z" transform="translate(-1.53 -6.47)"/><circle cx="127.35" cy="134.47" r="83.39"/><path class="cls-3" d="M168.42,114.05s-14.42-.52-22.77-3-16.86-9.9-16.86-9.9-8.52,7.47-16.86,9.9-22.77,3-22.78,3c-.24,0,.33,8.46.37,9.2a96.32,96.32,0,0,0,2,16.92A68.56,68.56,0,0,0,99.85,160c6.05,10,14.27,19.34,24.74,24.79a16.59,16.59,0,0,0,2.69,1.2l1.16.71,2.15-.88a21.62,21.62,0,0,0,5.47-2.86,48.81,48.81,0,0,0,7.23-5.3q3.17-3,6-6.3A81.77,81.77,0,0,0,159.46,157c5-9.2,7.38-19,8.27-29.4C167.8,126.7,168.68,114.06,168.42,114.05Z" transform="translate(-1.53 -6.47)"/><path class="cls-4" d="M168.45,114s-14.46-.53-22.82-3-16.9-9.93-16.9-9.93l-.09.07v85.53l1.89-.78A21.74,21.74,0,0,0,136,183a49.65,49.65,0,0,0,7.25-5.32q3.15-3,6-6.31A80.86,80.86,0,0,0,159.46,157c5-9.22,7.4-19.07,8.29-29.46C167.83,126.63,168.7,114,168.45,114Z" transform="translate(-1.53 -6.47)"/><path class="cls-5" d="M158.92,121.22s-11-.4-17.31-2.25-12.82-7.53-12.82-7.53S122.31,117.12,116,119s-17.31,2.25-17.31,2.25c-.19,0,.24,6.43.28,7a73.21,73.21,0,0,0,1.54,12.86,52.16,52.16,0,0,0,6.3,15.1c4.6,7.57,10.85,14.7,18.81,18.84a12.93,12.93,0,0,0,2,.91l.88.54,1.63-.67a16.39,16.39,0,0,0,4.17-2.17,37.39,37.39,0,0,0,5.5-4c1.6-1.53,3.12-3.12,4.58-4.79a60.84,60.84,0,0,0,7.7-10.93,55.51,55.51,0,0,0,6.29-22.35C158.45,130.83,159.11,121.23,158.92,121.22Z" transform="translate(-1.53 -6.47)"/><path class="cls-6" d="M158.92,121.22s-11-.4-17.31-2.25-12.82-7.53-12.82-7.53h0v64.9l1.38-.57a16.39,16.39,0,0,0,4.17-2.17,37.32,37.32,0,0,0,5.5-4q2.4-2.29,4.58-4.79a62.14,62.14,0,0,0,7.71-10.93,55.54,55.54,0,0,0,6.28-22.35C158.45,130.83,159.11,121.23,158.92,121.22Z" transform="translate(-1.53 -6.47)"/></svg>