<svg xmlns="http://www.w3.org/2000/svg" viewBox="0 0 282 35">
  <defs>
    <style>
      .cls-1 {
        font-size: 28px;
        font-family: FuturaPT-Medium, Futura PT;
        font-weight: 500;
      }
    </style>
  </defs>
  <g id="Group_2780" data-name="Group 2780" transform="translate(-220 -1533)">
    <g id="Group_783" data-name="Group 783" transform="translate(220.001 1535)">
      <path id="Path_211" data-name="Path 211" d="M21.022,1.9A9.662,9.662,0,0,0,11.3,11.622a9.722,9.722,0,1,0,19.444,0A9.491,9.491,0,0,0,21.022,1.9Zm0,18.333A8.185,8.185,0,0,1,12.689,11.9a8.185,8.185,0,0,1,8.333-8.333A8.185,8.185,0,0,1,29.356,11.9,8.357,8.357,0,0,1,21.022,20.233Z" transform="translate(20.098 3.378)"/>
      <path id="Path_212" data-name="Path 212" d="M35.689,7.778a9.462,9.462,0,0,0-6.667-2.5,9.722,9.722,0,1,0,9.722,10.278V.278A.272.272,0,0,0,38.467,0h-.833a.272.272,0,0,0-.278.278v15a8.185,8.185,0,0,1-8.333,8.333,8.185,8.185,0,0,1-8.333-8.333,8.185,8.185,0,0,1,8.333-8.333,8.965,8.965,0,0,1,5.833,2.222s0,.278.278,0c-.278,0,.278-.833.556-1.389Z" transform="translate(34.32)"/>
      <path id="Path_213" data-name="Path 213" d="M43.867,18.567l-.833-.833h-.278a8.454,8.454,0,0,1-14.167-6.111,8.333,8.333,0,0,1,16.667,0v9.444c0,.556.278.556.278.556h.833a.272.272,0,0,0,.278-.278V11.622A9.662,9.662,0,0,0,36.922,1.9,9.842,9.842,0,0,0,27.2,11.622a9.842,9.842,0,0,0,9.722,9.722,10.9,10.9,0,0,0,6.667-2.5A.272.272,0,0,0,43.867,18.567Z" transform="translate(48.365 3.378)"/>
      <path id="Path_214" data-name="Path 214" d="M26.673,3.844A6.915,6.915,0,0,0,21.395,1.9a6.685,6.685,0,0,0-5.278,2.222,4.083,4.083,0,0,0-1.389,1.667,3.215,3.215,0,0,0-1.389-1.944C12.228,2.456,10.284,1.9,7.784,1.9A7.756,7.756,0,0,0,2.228,4.122C-.272,6.344.006,10.233.006,10.511V21.067s0,.556.278.556h.833a.272.272,0,0,0,.278-.278V10.511h0S1.117,6.9,3.061,4.956A5.865,5.865,0,0,1,7.506,3.289a7.355,7.355,0,0,1,4.722,1.389,7.249,7.249,0,0,1,1.667,5V21.067s0,.556.278.556h.833a.272.272,0,0,0,.278-.278V9.678a7.187,7.187,0,0,1,1.944-5,5.75,5.75,0,0,1,4.167-1.389,5.865,5.865,0,0,1,4.444,1.667c1.944,2.222,1.667,5.833,1.667,5.833V21.344a.272.272,0,0,0,.278.278h.833a.272.272,0,0,0,.278-.278V10.789C29.173,10.511,29.173,6.344,26.673,3.844Z" transform="translate(0.003 3.378)"/>
    </g>
    <g id="Group_785" data-name="Group 785" transform="translate(339.954 1540.278)">
      <path id="Path_219" data-name="Path 219" d="M63.156,3.289V8.567H61.489V3.289H60.1V1.9h4.444V3.289ZM65.1,8.567,66.211,1.9H67.6l1.389,3.611L70.656,1.9h1.389l1.111,6.667H71.489l-.556-3.611L69.544,8.567h-.556L67.044,4.956l-.556,3.611Z" transform="translate(79.9 -1.9)"/>
    </g>
    <text id="HARDWARE" class="cls-1" transform="translate(297 1533)"><tspan x="31.576" y="27">HARDWARE</tspan></text>
  </g>
</svg>
