<svg xmlns="http://www.w3.org/2000/svg" viewBox="0 0 239.176 25">
  <g id="Group_2739" data-name="Group 2739" transform="translate(0.004)">
    <g id="Group_795" data-name="Group 795" transform="translate(-0.003)">
      <path id="Path_285" data-name="Path 285" d="M21.022,1.9A9.662,9.662,0,0,0,11.3,11.622a9.722,9.722,0,1,0,19.444,0A9.491,9.491,0,0,0,21.022,1.9Zm0,18.333A8.185,8.185,0,0,1,12.689,11.9a8.185,8.185,0,0,1,8.333-8.333A8.185,8.185,0,0,1,29.356,11.9,8.357,8.357,0,0,1,21.022,20.233Z" transform="translate(20.098 3.378)"/>
      <path id="Path_286" data-name="Path 286" d="M35.689,7.778a9.463,9.463,0,0,0-6.667-2.5,9.722,9.722,0,1,0,9.722,10.278V.278A.272.272,0,0,0,38.467,0h-.833a.272.272,0,0,0-.278.278v15a8.185,8.185,0,0,1-8.333,8.333,8.185,8.185,0,0,1-8.333-8.333,8.185,8.185,0,0,1,8.333-8.333,8.965,8.965,0,0,1,5.833,2.222s0,.278.278,0c-.278,0,.278-.833.556-1.389Z" transform="translate(34.32)"/>
      <path id="Path_287" data-name="Path 287" d="M43.867,18.567l-.833-.833h-.278a8.454,8.454,0,0,1-14.167-6.111,8.333,8.333,0,0,1,16.667,0v9.444c0,.556.278.556.278.556h.833a.272.272,0,0,0,.278-.278V11.622A9.662,9.662,0,0,0,36.922,1.9,9.842,9.842,0,0,0,27.2,11.622a9.842,9.842,0,0,0,9.722,9.722,10.9,10.9,0,0,0,6.667-2.5A.272.272,0,0,0,43.867,18.567Z" transform="translate(48.365 3.378)"/>
      <path id="Path_288" data-name="Path 288" d="M26.673,3.844A6.915,6.915,0,0,0,21.395,1.9a6.685,6.685,0,0,0-5.278,2.222,4.083,4.083,0,0,0-1.389,1.667,3.215,3.215,0,0,0-1.389-1.944C12.228,2.456,10.284,1.9,7.784,1.9A7.756,7.756,0,0,0,2.228,4.122C-.272,6.344.006,10.233.006,10.511V21.067s0,.556.278.556h.833a.272.272,0,0,0,.278-.278V10.511h0S1.117,6.9,3.061,4.956A5.865,5.865,0,0,1,7.506,3.289a7.355,7.355,0,0,1,4.722,1.389,7.249,7.249,0,0,1,1.667,5V21.067s0,.556.278.556h.833a.272.272,0,0,0,.278-.278V9.678a7.187,7.187,0,0,1,1.944-5,5.75,5.75,0,0,1,4.167-1.389,5.865,5.865,0,0,1,4.444,1.667c1.944,2.222,1.667,5.833,1.667,5.833V21.344a.272.272,0,0,0,.278.278h.833a.272.272,0,0,0,.278-.278V10.789C29.173,10.511,29.173,6.344,26.673,3.844Z" transform="translate(0.003 3.378)"/>
    </g>
    <g id="Group_796" data-name="Group 796" transform="translate(100.839 5.278)">
      <path id="Path_289" data-name="Path 289" d="M47.133,6.722a3.926,3.926,0,0,0-3.056-1.389,2.644,2.644,0,0,0-1.944.556A2.106,2.106,0,0,0,41.578,7a1.443,1.443,0,0,0,.556,1.111c.556.556,1.111.556,2.222,1.111l1.389.556c.833.556,1.944.833,2.5,1.667a4.979,4.979,0,0,1,1.389,3.611,6.534,6.534,0,0,1-1.667,4.722,8.4,8.4,0,0,1-5.278,1.667,7.689,7.689,0,0,1-3.611-.833c-.833-.556-1.944-1.389-2.778-1.944l2.222-3.056A7.365,7.365,0,0,0,40.189,17a3.34,3.34,0,0,0,2.222.556A2.644,2.644,0,0,0,44.356,17a2.014,2.014,0,0,0,0-2.778,2.812,2.812,0,0,0-1.944-1.111l-1.389-.556a7.283,7.283,0,0,1-2.5-1.389,4.373,4.373,0,0,1-1.111-3.333,5.653,5.653,0,0,1,1.667-4.167A5.873,5.873,0,0,1,43.8,2a8.9,8.9,0,0,1,5.556,1.944Z" transform="translate(-36.3 -1.722)"/>
      <path id="Path_290" data-name="Path 290" d="M47.867,12.1,41.2,2.1h5l3.889,5.833L53.978,2.1h5l-6.667,10v8.889H47.867V12.1Z" transform="translate(-27.589 -1.544)"/>
      <path id="Path_291" data-name="Path 291" d="M48.3,20.711V2.1h3.889L62.467,14.322V2.1h4.444V20.989H63.022L52.744,8.767V20.989H48.3Z" transform="translate(-14.967 -1.544)"/>
      <path id="Path_292" data-name="Path 292" d="M66.956,5.711H60.567V9.322H66.4v3.611H60.567V17.1h6.389v3.611H56.4V2.1H66.956Z" transform="translate(-0.567 -1.544)"/>
      <path id="Path_293" data-name="Path 293" d="M68.067,2.1a6.272,6.272,0,0,1,4.722,1.667,5.8,5.8,0,0,1,1.667,4.167,5.605,5.605,0,0,1-1.389,3.889,8.689,8.689,0,0,1-2.778,1.389l5.833,7.778H70.844l-5-7.5v7.5H61.4V2.1Zm-2.222,8.611h1.111c.833,0,1.944,0,2.5-.833a2.539,2.539,0,0,0,.833-1.944,2.539,2.539,0,0,0-.833-1.944,4.568,4.568,0,0,0-2.5-.556H65.844Z" transform="translate(8.322 -1.544)"/>
      <path id="Path_294" data-name="Path 294" d="M77.2,11.067h9.167v.278A13.472,13.472,0,0,1,83.589,19.4c-1.944,1.944-4.444,2.222-6.667,2.222a9.03,9.03,0,0,1-6.944-2.5A9.784,9.784,0,0,1,67.2,11.9a10.06,10.06,0,0,1,2.778-7.222c2.222-2.5,5-2.778,7.222-2.778a9.428,9.428,0,0,1,5.278,1.389,11.515,11.515,0,0,1,3.056,3.333L81.644,8.844A3.735,3.735,0,0,0,79.978,6.9,4.693,4.693,0,0,0,77.2,6.067a5.5,5.5,0,0,0-3.889,1.389A6.308,6.308,0,0,0,71.644,11.9a6.023,6.023,0,0,0,1.667,4.444A4.837,4.837,0,0,0,77.2,17.733a4.209,4.209,0,0,0,3.333-1.111A2.928,2.928,0,0,0,81.922,14.4H77.478V11.067Z" transform="translate(18.633 -1.9)"/>
      <path id="Path_295" data-name="Path 295" d="M80.867,12.1,74.2,2.1h5l3.889,5.833L86.978,2.1h5l-6.667,10v8.889H80.867V12.1Z" transform="translate(31.078 -1.544)"/>
    </g>
    <g id="Group_797" data-name="Group 797" transform="translate(226.395 5.278)">
      <path id="Path_296" data-name="Path 296" d="M84.556,3.289V8.567H82.889V3.289H81.5V1.9h4.444V3.289Zm1.667,5.278L87.333,1.9h1.389l1.389,3.611L91.778,1.9h1.389l1.111,6.667H92.611l-.278-3.611L90.944,8.567h-.556L88.444,4.956l-.556,3.611Z" transform="translate(-81.5 -1.9)"/>
    </g>
  </g>
</svg>
