<svg xmlns="http://www.w3.org/2000/svg" viewBox="0 0 166.219 25">
  <g id="Group_2748" data-name="Group 2748" transform="translate(-220 -1535)">
    <g id="Group_788" data-name="Group 788" transform="translate(220.001 1535)">
      <path id="Path_220" data-name="Path 220" d="M20.915,1.9A9.556,9.556,0,0,0,11.3,11.515a9.615,9.615,0,1,0,19.231,0A9.387,9.387,0,0,0,20.915,1.9Zm0,18.132a8.1,8.1,0,0,1-8.242-8.242,8.1,8.1,0,0,1,8.242-8.242,8.1,8.1,0,0,1,8.242,8.242A8.265,8.265,0,0,1,20.915,20.032Z" transform="translate(19.753 3.32)"/>
      <path id="Path_221" data-name="Path 221" d="M35.509,7.692A9.359,9.359,0,0,0,28.915,5.22a9.615,9.615,0,1,0,9.615,10.165V.275A.269.269,0,0,0,38.256,0h-.824a.269.269,0,0,0-.275.275V15.11a8.1,8.1,0,0,1-8.242,8.242,8.1,8.1,0,0,1-8.242-8.242,8.1,8.1,0,0,1,8.242-8.242,8.866,8.866,0,0,1,5.769,2.2s0,.275.275,0c-.275,0,.275-.824.549-1.374Z" transform="translate(33.731)"/>
      <path id="Path_222" data-name="Path 222" d="M43.684,18.384l-.824-.824h-.275a8.361,8.361,0,0,1-14.011-6.044,8.242,8.242,0,0,1,16.484,0v9.341c0,.549.275.549.275.549h.824a.269.269,0,0,0,.275-.275V11.515A9.556,9.556,0,0,0,36.815,1.9,9.734,9.734,0,0,0,27.2,11.515a9.734,9.734,0,0,0,9.615,9.615,10.777,10.777,0,0,0,6.593-2.473A.269.269,0,0,0,43.684,18.384Z" transform="translate(47.534 3.32)"/>
      <path id="Path_223" data-name="Path 223" d="M26.379,3.823A6.839,6.839,0,0,0,21.16,1.9a6.612,6.612,0,0,0-5.22,2.2,4.038,4.038,0,0,0-1.374,1.648,3.179,3.179,0,0,0-1.374-1.923C12.094,2.449,10.171,1.9,7.7,1.9A7.671,7.671,0,0,0,2.2,4.1c-2.473,2.2-2.2,6.044-2.2,6.319v10.44s0,.549.275.549H1.1a.269.269,0,0,0,.275-.275V10.416h0S1.1,6.845,3.028,4.922a5.8,5.8,0,0,1,4.4-1.648,7.274,7.274,0,0,1,4.67,1.374,7.169,7.169,0,0,1,1.648,4.945V20.856s0,.549.275.549h.824a.269.269,0,0,0,.275-.275V9.592a7.108,7.108,0,0,1,1.923-4.945A5.687,5.687,0,0,1,21.16,3.274a5.8,5.8,0,0,1,4.4,1.648c1.923,2.2,1.648,5.769,1.648,5.769v10.44a.269.269,0,0,0,.275.275H28.3a.269.269,0,0,0,.275-.275V10.691C28.852,10.416,28.852,6.3,26.379,3.823Z" transform="translate(0.003 3.32)"/>
    </g>
    <g id="Group_789" data-name="Group 789" transform="translate(319.46 1540.495)">
      <path id="Path_224" data-name="Path 224" d="M42.519,2c2.473,0,5.22.275,7.692,2.747a9.284,9.284,0,0,1,2.747,6.868,9.284,9.284,0,0,1-2.747,6.868,10.638,10.638,0,0,1-7.692,3.022H36.2V2ZM40.87,17.659h1.1c.824,0,3.022,0,4.4-1.374a5.734,5.734,0,0,0,1.923-4.67c0-2.2-.824-3.571-1.648-4.121a6.527,6.527,0,0,0-4.67-1.648h-1.1Z" transform="translate(-36.2 -2)"/>
      <path id="Path_225" data-name="Path 225" d="M48,2V21.231H43.6V2Z" transform="translate(-23.27 -2)"/>
      <path id="Path_226" data-name="Path 226" d="M46.4,21.231,49.7,2h3.846l4.945,11.538L62.884,2H66.73l3.022,19.231h-4.4L63.708,9.692l-4.67,11.538H57.389L52.444,9.692,51.07,21.231Z" transform="translate(-18.378 -2)"/>
    </g>
    <g id="Group_790" data-name="Group 790" transform="translate(373.581 1540.495)">
      <path id="Path_227" data-name="Path 227" d="M58.922,3.374v5.22H57.274V3.374H55.9V2h4.4V3.374Zm1.648,5.22L61.669,2h1.374l1.374,3.571L66.065,2h1.374l1.1,6.593H66.889L66.34,5.022,64.966,8.593h-.549L63.043,5.022l-.549,3.571Z" transform="translate(-55.9 -2)"/>
    </g>
  </g>
</svg>
