<?xml version="1.0" encoding="utf-8"?>
<!-- Generator: Adobe Illustrator 23.0.1, SVG Export Plug-In . SVG Version: 6.00 Build 0)  -->
<svg version="1.1" id="Layer_1" xmlns="http://www.w3.org/2000/svg" xmlns:xlink="http://www.w3.org/1999/xlink" x="0px" y="0px"
	 viewBox="0 0 117.6 117.3" style="enable-background:new 0 0 117.6 117.3;" xml:space="preserve">
<style type="text/css">
	.st0{fill:url(#SVGID_1_);}
	.st1{fill-rule:evenodd;clip-rule:evenodd;fill:url(#SVGID_2_);}
	.st2{fill:#FFFFFF;}
	.st3{fill:#F8F8F9;}
</style>
<title>pia-2018</title>
<g>
	<g id="Layer_5">
		
			<linearGradient id="SVGID_1_" gradientUnits="userSpaceOnUse" x1="49.9739" y1="-6.0297" x2="159.834" y2="124.9003" gradientTransform="matrix(1 0 0 1 -47.14 -1.79)">
			<stop  offset="0.31" style="stop-color:#F2F2F2"/>
			<stop  offset="0.5" style="stop-color:#CCCCCC"/>
			<stop  offset="0.62" style="stop-color:#FFFFFF"/>
			<stop  offset="0.7" style="stop-color:#D9D9D9"/>
			<stop  offset="0.76" style="stop-color:#F2F2F2"/>
			<stop  offset="0.95" style="stop-color:#FFFFFF"/>
		</linearGradient>
		<path class="st0" d="M49.5,3.2C43.4,1,36.6,3.2,33,8.5c-6.5-0.2-12.3,4-14.1,10.3c-6.2,1.8-10.4,7.5-10.2,14v0.1
			c-2.6,1.8-4.5,4.4-5.5,7.4c-0.4,1.4-0.7,2.8-0.7,4.3c0,1.6,0.3,3.3,0.9,4.8c-4.1,5.2-4.1,12.4,0,17.6c-0.5,1.6-0.8,3.2-0.9,4.8
			c0,1.5,0.2,2.9,0.7,4.3c1,3,2.9,5.6,5.5,7.4v0.1c-0.2,6.5,4,12.2,10.2,14c1.8,6.2,7.6,10.5,14.1,10.3c1.8,2.6,4.4,4.5,7.4,5.5
			c2.9,0.9,6.2,0.4,9.3-0.6c2.4,1.9,5.4,2.9,8.5,2.9c3.2,0.1,6.9-1.3,8.7-3.5c5.6,1.6,12.9-3.2,14.8-5.9c3.3,0.1,6.5-0.9,9.3-2.8
			c2.5-1.8,4-4.7,5-7.8c3.1-1,5.8-2,7.6-4.5s2.4-9,2.4-9.1c2.7-1.9,5-4,6.1-6.8s1.7-6.6,1.1-8.2c4-5.2,4-12.4,0-17.6
			c0.5-1.6,0.8-3.2,0.9-4.8c0-1.5-0.2-2.9-0.7-4.3c-1-3-2.9-5.6-5.5-7.4c0,0,0,0,0-0.1c0.2-6.5-4.1-12.2-10.3-14
			C95.8,12.7,90,8.4,83.5,8.7C80,3.2,73.2,1,67.1,3.2C62-0.8,54.7-0.8,49.5,3.2z"/>
		
			<image style="overflow:visible;opacity:0.2;enable-background:new    ;" width="310" height="126" xlink:href="528047DEF8AFAE5A.png"  transform="matrix(0.2352 0 0 0.2352 23.173 19.688)">
		</image>
		
			<radialGradient id="SVGID_2_" cx="323.2766" cy="319.621" r="47.78" gradientTransform="matrix(0.978 0 0 0.978 -259.314 -252.299)" gradientUnits="userSpaceOnUse">
			<stop  offset="6.000000e-03" style="stop-color:#FFBE00"/>
			<stop  offset="0.747" style="stop-color:#D99600"/>
			<stop  offset="0.813" style="stop-color:#D39200"/>
			<stop  offset="0.898" style="stop-color:#C38700"/>
			<stop  offset="0.994" style="stop-color:#A87500"/>
			<stop  offset="1" style="stop-color:#A67400"/>
		</radialGradient>
		<path class="st1" d="M105.6,58c-0.1-2.7-1.3-5.2-3.4-7c2.7-4.1,1.7-9.6-2.4-12.4c-0.6-0.4-1.2-0.7-1.9-1c1.3-4.7-1.4-9.7-6.1-11
			c-0.7-0.2-1.4-0.3-2.1-0.3c-0.2-4.9-4.3-8.8-9.2-8.6c-0.7,0-1.4,0.1-2.1,0.3c-1.7-4.6-6.8-7-11.4-5.3c-0.7,0.2-1.3,0.6-1.9,1
			c-3-3.9-8.6-4.5-12.5-1.5c-0.6,0.4-1.1,0.9-1.5,1.5C47,11,41.5,12,38.7,16.1c-0.4,0.6-0.7,1.2-1,1.9c-4.7-1.3-9.7,1.4-11,6.1
			c-0.2,0.7-0.3,1.4-0.3,2.1c-4.9,0.2-8.7,4.3-8.6,9.2c0,0.7,0.1,1.4,0.3,2.1c-4.6,1.7-7,6.8-5.3,11.4c0.2,0.7,0.6,1.3,1,1.9
			c-3.9,3-4.5,8.6-1.5,12.5c0.4,0.6,0.9,1.1,1.5,1.5c-2.7,4.1-1.6,9.6,2.4,12.3c0.6,0.4,1.2,0.7,1.9,1c-1.3,4.7,1.4,9.7,6.1,11
			c0.7,0.2,1.4,0.3,2.1,0.3c0.2,4.9,4.3,8.7,9.2,8.6c0.7,0,1.4-0.1,2.1-0.3c1.7,4.6,6.8,7,11.4,5.3c0.7-0.2,1.3-0.6,1.9-1
			c3,3.9,8.6,4.5,12.5,1.5c0.6-0.4,1.1-0.9,1.5-1.5c2.6,1.4,4.2,0.7,6.6-0.1c2.5-0.9,4.6-2.9,5.6-5.4c4.7,1.3,9.7-1.4,11-6.1
			c0.2-0.7,0.3-1.4,0.3-2.1c4.9-0.2,8.7-4.3,8.6-9.2c0-0.7-0.1-1.4-0.3-2.1c2.7-1.3,4.9-3.2,5.7-5.7c0.8-2.1,0.7-4.4-0.2-6.5
			C104.3,63.3,105.5,60.7,105.6,58z"/>
		<path class="st2" d="M24.9,42.5l0.8-1.5c0.3-0.8,1.2-1.1,1.9-0.8c0.1,0,0.1,0,0.2,0.1l0,0c0.7,0.5,1,1.4,0.5,2.2l-0.1,0.1l-0.6,1
			l1.4,0.8l-0.2,0.4L24.9,42.5z M27.9,42.3c0.4-0.5,0.3-1.1-0.2-1.5c0,0-0.1,0-0.1-0.1l0,0c-0.6-0.3-1.1-0.1-1.5,0.6l-0.6,1l1.8,1
			L27.9,42.3z"/>
		<path class="st2" d="M27.4,38.4l1.2-1.6c0.3-0.4,0.7-0.7,1.1-0.8c0.3,0,0.7,0,0.9,0.3l0,0c0.6,0.4,0.7,1.2,0.3,1.8h2.3l-0.4,0.5
			h-2.2l-0.8,1l1.4,1.1L31,41.1L27.4,38.4z M30.4,38.3c0.4-0.4,0.5-1,0.1-1.4l-0.1-0.1l0,0c-0.4-0.3-1-0.2-1.4,0.4l-0.8,1.1l1.5,1.1
			L30.4,38.3z"/>
		<path class="st2" d="M32,36.2L32,36.2c-0.9-0.9-0.9-2.4,0-3.3c0.9-0.9,2.4-0.9,3.3,0l0,0l0,0c0.9,0.9,0.9,2.4,0,3.3l0,0
			C34.4,37.1,32.9,37.2,32,36.2C32,36.3,32,36.2,32,36.2z M34.9,33.3L34.9,33.3c-0.7-0.7-1.8-0.8-2.6-0.1l0,0
			c-0.7,0.7-0.7,1.8,0,2.5l0,0l0,0c0.7,0.7,1.8,0.7,2.6,0S35.6,34,34.9,33.3z"/>
		<path class="st2" d="M34.9,30.3l1.3-0.9c1-0.8,2.4-0.7,3.2,0.3l0.1,0.1l0,0c0.7,1,0.5,2.4-0.5,3.2l-0.1,0.1L37.6,34L34.9,30.3z
			 M38.6,32.7c0.8-0.5,1.1-1.6,0.6-2.4l-0.1-0.1l0,0c-0.6-0.8-1.7-1-2.5-0.4l-0.1,0.1l-0.9,0.6l2.1,2.9L38.6,32.7z"/>
		<path class="st2" d="M40.4,29.6l-1.2-2.3l0.4-0.2l1.2,2.3c0.2,0.7,1,1.1,1.7,0.8c0.1,0,0.2-0.1,0.2-0.1c0.7-0.3,1-1.1,0.7-1.7
			c0-0.1-0.1-0.2-0.2-0.3L42,25.8l0.4-0.2l1.2,2.3c0.5,0.9,0.2,2.1-0.8,2.6C42.1,30.9,40.9,30.5,40.4,29.6L40.4,29.6L40.4,29.6z"/>
		<path class="st2" d="M44.4,27.2L44.4,27.2c-0.5-1.2,0.1-2.5,1.3-3h0.1c0.6-0.3,1.3-0.2,1.9,0.1l-0.2,0.5c-0.5-0.2-1-0.3-1.6-0.1
			c-0.9,0.4-1.4,1.4-1,2.3l0,0l0,0c0.3,0.9,1.3,1.5,2.3,1.2l0,0c0.5-0.2,0.9-0.6,1.2-1.1l0.5,0.2c-0.3,0.6-0.8,1.1-1.4,1.4
			C46.3,29,44.9,28.5,44.4,27.2C44.5,27.3,44.5,27.2,44.4,27.2z"/>
		<path class="st2" d="M49.9,23.5l-1.5,0.3l-0.1-0.5l3.5-0.8L52,23l-1.5,0.3l0.9,4l-0.5,0.1L49.9,23.5z"/>
		<path class="st2" d="M55.1,22.2h0.5l0.4,4.5h-0.5L55.1,22.2z"/>
		<path class="st2" d="M57.2,22h0.5l2.8,3.7l0.1-3.7h0.5L61,26.6h-0.4l-2.9-3.8l-0.1,3.7h-0.5L57.2,22z"/>
		<path class="st2" d="M62.9,22.2l0.5,0.1l2.2,4.1l0.6-3.6l0.5,0.1l-0.8,4.5l-0.4-0.1l-2.3-4.2l-0.6,3.7l-0.5-0.1L62.9,22.2z"/>
		<path class="st2" d="M67.5,25.4L67.5,25.4c0.4-1.2,1.7-1.9,2.9-1.5c0,0,0,0,0.1,0c1.2,0.4,1.9,1.7,1.5,2.9v0.1l0,0
			c-0.4,1.2-1.7,1.9-2.9,1.5C67.8,27.9,67.1,26.6,67.5,25.4L67.5,25.4z M71.4,26.7L71.4,26.7c0.4-0.9-0.1-2-1.1-2.3l0,0
			c-0.9-0.3-2,0.2-2.3,1.1c0,0,0,0,0,0.1l0,0c-0.4,0.9,0.1,2,1.1,2.3c0,0,0,0,0.1,0C70.1,28.2,71.1,27.7,71.4,26.7L71.4,26.7z"/>
		<path class="st2" d="M73.2,25l0.5,0.2l-0.3,4.2l3.2-2.8l0.5,0.2L73.3,30L73,29.9L73.2,25z"/>
		<path class="st2" d="M79.1,28.1l0.4,0.3l-0.8,5l-0.5-0.3l0.2-1.3l-2.1-1.4l-1.1,0.7l-0.4-0.3L79.1,28.1z M78.6,31.3l0.4-2.5
			l-2.2,1.4L78.6,31.3z"/>
		<path class="st2" d="M82.4,31.2l-1.2-1l0.3-0.4l2.7,2.4l-0.3,0.4l-1.2-1l-2.6,3.1l-0.4-0.3L82.4,31.2z"/>
		<path class="st2" d="M85.1,33l0.4,0.4l-3.2,3.2l-0.4-0.4L85.1,33z"/>
		<path class="st2" d="M84.7,35.9L84.7,35.9c1-0.8,2.4-0.7,3.3,0.3l0,0c0.8,1,0.7,2.4-0.3,3.2c0,0,0,0-0.1,0.1l0,0
			c-1,0.8-2.4,0.7-3.3-0.3C83.5,38.2,83.7,36.8,84.7,35.9L84.7,35.9z M87.3,39.1L87.3,39.1c0.8-0.6,1-1.7,0.4-2.5s-1.7-1-2.5-0.4
			c-0.1,0-0.1,0.1-0.2,0.1l0,0c-0.8,0.6-1,1.7-0.4,2.5s1.7,1,2.5,0.4C87.2,39.2,87.2,39.1,87.3,39.1z"/>
		<path class="st2" d="M90.3,39.5l0.2,0.4l-1.8,4.3l3.2-1.8l0.2,0.4l-4,2.2L88,44.7l1.8-4.4l-3.2,1.8l-0.2-0.4L90.3,39.5z"/>
		
			<image style="overflow:visible;opacity:0.2;enable-background:new    ;" width="278" height="101" xlink:href="528047DEF8AFAE5E.png"  transform="matrix(0.236 0 0 0.236 26.2386 75.3929)">
		</image>
		<path class="st2" d="M33.1,79.5l0.8,0.8l-2.2,5.3l-0.8-0.8l0.5-1.2L29.9,82l-1.2,0.5l-0.8-0.8L33.1,79.5z M31.8,82.5l0.7-1.7
			l-1.7,0.7L31.8,82.5z"/>
		<path class="st2" d="M34.7,81.4l1,0.7l-1.2,3.5l3-2.2l0.8,0.6l-1.1,3.6l2.9-2.3l1,0.7l-4.5,3.3l-0.8-0.6l1-3.5l-2.9,2.1l-0.8-0.6
			L34.7,81.4z"/>
		<path class="st2" d="M42.7,86.4l1,0.4l-0.2,5.8l-1.1-0.5l0.1-1.3l-2-0.9l-0.9,0.9l-1.1-0.5L42.7,86.4z M42.4,89.7l0.1-1.8
			l-1.4,1.2L42.4,89.7z"/>
		<path class="st2" d="M45.9,87.9l2.3,0.7c0.6,0.1,1,0.5,1.3,1c0.2,0.4,0.2,0.9,0.1,1.3l0,0c-0.2,0.7-0.8,1.2-1.6,1.2l0.7,2.2
			l-1.3-0.4L46.8,92l0,0L46,91.7l-0.5,1.6L44.4,93L45.9,87.9z M47.4,91c0.4,0.2,0.8,0,1-0.3v-0.1l0,0c0.1-0.5-0.1-0.8-0.7-1
			l-1.1-0.3l-0.4,1.4L47.4,91z"/>
		<path class="st2" d="M50.8,89.3l2,0.3c1.4,0.1,2.5,1.3,2.4,2.8c0,0.1,0,0.2,0,0.2l0,0c-0.2,1.4-1.5,2.4-3,2.3c-0.1,0-0.1,0-0.2,0
			l-2-0.3L50.8,89.3z M52.2,93.8c0.8,0.2,1.6-0.4,1.7-1.2c0,0,0-0.1,0-0.2l0,0c0.2-0.8-0.4-1.6-1.2-1.8c0,0-0.1,0-0.2,0l-0.9-0.1
			l-0.4,3.1L52.2,93.8z"/>
		<path class="st2" d="M57.6,90.2l1.2-0.1l1.5,3.4l0.8-3.7l1-0.1l1.6,3.4l0.7-3.7l1.2-0.1l-1.2,5.4l-1,0.1l-1.6-3.3L61,95.2l-1,0.1
			L57.6,90.2z"/>
		<path class="st2" d="M66.1,88.9l1.1-0.3l1.4,5.1L67.4,94L66.1,88.9z"/>
		<path class="st2" d="M68.1,88.4l1-0.4l3.5,2.1l-1.2-3l1.1-0.4l1.9,4.9L73.5,92l-3.6-2.2l1.2,3.1L70,93.3L68.1,88.4z"/>
		<path class="st2" d="M73.3,86.2l0.9-0.6l3.8,1.5l-1.7-2.8l1-0.6l2.7,4.5l-0.8,0.5l-3.9-1.5L77,90l-1,0.6L73.3,86.2z"/>
		<path class="st2" d="M78.1,83.2l3-2.5l0.7,0.8l-2.2,1.8l0.7,0.8l1.9-1.6l0.7,0.8L81,84.9l0.7,0.8l2.2-1.8l0.7,0.8l-3.1,2.6
			L78.1,83.2z"/>
		<path class="st2" d="M81.7,80.1l1.6-1.8c0.3-0.4,0.9-0.7,1.4-0.8c0.4,0,0.9,0.2,1.2,0.5l0,0c0.6,0.5,0.8,1.3,0.4,1.9l2.2,0.3
			l-0.9,1l-2-0.3l0,0L85,81.6l1.2,1.1l-0.8,0.9L81.7,80.1z M85.1,80.1c0.3-0.3,0.4-0.7,0.1-1.1l-0.1-0.1l0,0
			c-0.4-0.3-0.8-0.2-1.2,0.2L83.2,80l1.1,1L85.1,80.1z"/>
		
			<image style="overflow:visible;opacity:0.25;enable-background:new    ;" width="197" height="159" xlink:href="528047DEF8AFAE59.png"  transform="matrix(0.2351 0 0 0.2351 24.2437 40.7904)">
		</image>
		<path class="st2" d="M42,62.2L42,62.2c0,0.7-0.1,1.4-0.3,2.1c-0.3,0.7-0.9,1.2-1.6,1.6c-1.1,0.3-2.2,0.4-3.4,0.3h-2v-0.1l0,0V51.2
			v-0.1V51h3.4l0,0c1.7,0,3.1,0.3,3.7,2c0.2,0.9,0.3,1.8,0.3,2.8L42,62.2z M48.3,43.1c-0.5-0.2-1-0.3-1.6-0.2h-4v3.7
			c0,0.6,0,1.2,0.2,1.8c0.9,2.4,4,1.7,7.1,1.8C50.1,47.1,50.6,44.1,48.3,43.1L48.3,43.1z M58.2,53.9L58.2,53.9v-3h-7.3v3
			c-0.1,0.8,0,1.6,0.2,2.4c0.6,1.6,2.3,1.8,4.3,1.8h2.8V53.9z M58.2,61.8L58.2,61.8v-3h-3.9c-0.9,0-1.8,0.2-2.5,0.8
			c-1.7,1.6-1.1,5.4,0.9,6.2c0.5,0.2,1.1,0.3,1.6,0.2h3.8l0,0l0,0L58.2,61.8z M50.2,50.9h-2.3c-2.3,0-4.2,0.1-4.8,1.9
			c-0.2,1.1-0.3,2.1-0.2,3.2v10c3.2,0,6.3,0.5,7.1-1.8c0.1-0.4,0.2-0.7,0.2-1.1l0,0V50.9z M33.9,69.7V51h-1.3c-0.7,0-1.4,0-2.1,0
			l0,0c-1.8,0.1-3.2,0.4-3.7,1.9c-0.5,1.2-0.3,3.3-0.3,5v16c3.1,0,6.2,0.5,7.2-1.7C33.9,71.4,33.9,70.5,33.9,69.7z M66.1,53
			c-0.7-2.5-3.8-2.1-7.1-2.1h-0.1v3.6l0,0v7.3l0,0v4.3h7.3V66l0,0v-9.8C66.3,55.2,66.2,54.1,66.1,53L66.1,53z"/>
		
			<image style="overflow:visible;opacity:0.2;enable-background:new    ;" width="154" height="154" xlink:href="528047DEF8AFAE5B.png"  transform="matrix(0.2314 0 0 0.2314 64.7399 41.1699)">
		</image>
		<path class="st3" d="M81.6,46.2c-6.5,0-11.7,5.2-11.7,11.7s5.2,11.7,11.7,11.7s11.7-5.2,11.7-11.7l0,0
			C93.3,51.4,88.1,46.2,81.6,46.2L81.6,46.2z M79.2,65.2h-1.9V54h-1.7v-1.4c1-0.1,1.8-0.5,2-1.6h1.6V65.2z M87.1,58.2
			c0.2,0.2,0.3,0.4,0.3,0.7c0.1,0.3,0.1,0.6,0.1,0.9c0,0.4,0,0.8,0,1.3s0,0.8,0,1.1s0,0.5-0.1,0.8c0,0.2-0.1,0.4-0.2,0.5
			c-0.1,0.2-0.2,0.3-0.3,0.5c-0.3,0.4-0.6,0.7-1,0.9c-1,0.5-2.2,0.5-3.1,0c-0.4-0.2-0.7-0.5-1-0.9c-0.1-0.1-0.2-0.3-0.3-0.5
			c-0.1-0.2-0.1-0.3-0.2-0.5s-0.1-0.5-0.1-0.8s0-0.6,0-1.1s0-1,0-1.3s0-0.6,0.1-0.9c0.1-0.2,0.2-0.5,0.3-0.7
			c0.2-0.2,0.4-0.4,0.6-0.6c-0.2-0.2-0.4-0.3-0.6-0.6c-0.2-0.2-0.3-0.4-0.3-0.6c-0.1-0.2-0.1-0.5-0.1-0.8s0-0.7,0-1.1
			c0-0.3,0-0.7,0-1c0-0.2,0.1-0.5,0.1-0.7c0.1-0.2,0.1-0.4,0.2-0.5c0.1-0.2,0.2-0.3,0.4-0.5c0.3-0.3,0.6-0.6,1-0.8
			c0.9-0.4,1.8-0.4,2.7,0c0.4,0.2,0.7,0.5,1,0.8c0.1,0.2,0.2,0.3,0.4,0.5c0.1,0.2,0.2,0.3,0.2,0.5c0.1,0.2,0.1,0.5,0.1,0.7
			c0,0.3,0,0.7,0,1c0,0.4,0,0.8,0,1.1s-0.1,0.5-0.1,0.8c-0.1,0.2-0.2,0.4-0.3,0.6c-0.2,0.2-0.4,0.4-0.6,0.6
			C86.7,57.8,86.9,58,87.1,58.2L87.1,58.2z"/>
		
			<image style="overflow:visible;opacity:0.2;enable-background:new    ;" width="63" height="71" xlink:href="528047DEF8AFAE58.png"  transform="matrix(0.2293 0 0 0.2293 78.2173 47.8501)">
		</image>
		<path class="st3" d="M84.4,52.9c-0.3,0-0.5,0.1-0.7,0.3s-0.3,0.4-0.3,0.7V56c0,0.3,0.1,0.5,0.3,0.7c0.4,0.4,1,0.4,1.4,0
			c0.2-0.2,0.3-0.4,0.3-0.7v-2.1c0-0.3-0.1-0.5-0.3-0.7S84.7,52.9,84.4,52.9z"/>
		
			<image style="overflow:visible;opacity:0.2;enable-background:new    ;" width="63" height="75" xlink:href="528047DEF8AFAE66.png"  transform="matrix(0.2278 0 0 0.2278 78.2653 53.3287)">
		</image>
		<path class="st3" d="M84.4,58.5c-0.3,0-0.5,0.1-0.7,0.3s-0.3,0.4-0.3,0.7v2.8c0,0.3,0.1,0.5,0.3,0.7c0.4,0.4,1,0.4,1.4,0
			c0.2-0.2,0.3-0.4,0.3-0.7v-2.8c0-0.3-0.1-0.5-0.3-0.7S84.7,58.5,84.4,58.5z"/>
	</g>
</g>
</svg>
