<svg xmlns="http://www.w3.org/2000/svg" viewBox="0 0 138.981 138.981"><title>Asset 1</title><g id="Layer_2" data-name="Layer 2"><g id="Layer_1-2" data-name="Layer 1"><path d="M15.969,3.65H123.013a12.318,12.318,0,0,1,12.318,12.318V123.014a12.317,12.317,0,0,1-12.317,12.317H15.968A12.318,12.318,0,0,1,3.652,123.013V15.968A12.318,12.318,0,0,1,15.969,3.65Z" fill="#fff"/><path d="M123.013,7.3a8.678,8.678,0,0,1,8.668,8.668V123.013a8.678,8.678,0,0,1-8.668,8.668H15.968A8.678,8.678,0,0,1,7.3,123.013V15.968A8.678,8.678,0,0,1,15.968,7.3H123.013m0-7.3H15.968A16.015,16.015,0,0,0,0,15.968V123.013a16.015,16.015,0,0,0,15.968,15.968H123.013a16.015,16.015,0,0,0,15.968-15.968V15.968A16.015,16.015,0,0,0,123.013,0Z" fill="#231f20"/><rect x="34.157" y="34.157" width="70.667" height="70.667" rx="9.432" ry="9.432" fill="#231f20"/><circle cx="85.305" cy="71.161" r="3.26" transform="translate(13.868 156.236) rotate(-89.815)" fill="none" stroke="#fff" stroke-miterlimit="10" stroke-width="1.467"/><polyline points="85.295 74.421 85.255 86.868 75.632 96.616 75.048 107.064" fill="none" stroke="#fff" stroke-miterlimit="10" stroke-width="1.76"/><circle cx="62.314" cy="72.922" r="3.26" fill="none" stroke="#fff" stroke-miterlimit="10" stroke-width="1.467"/><polyline points="62.314 69.422 62.314 53.422 71.906 43.643 71.906 31.922" fill="none" stroke="#fff" stroke-miterlimit="10" stroke-width="1.76"/><circle cx="51.15" cy="60.492" r="3.368" fill="none" stroke="#fff" stroke-miterlimit="10" stroke-width="1.516"/><polyline points="64.474 112.704 64.474 95.019 51.168 78.682 51.168 63.861" fill="none" stroke="#fff" stroke-miterlimit="10" stroke-width="1.819"/><circle cx="84.604" cy="51.38" r="3.183" fill="none" stroke="#fff" stroke-miterlimit="10" stroke-width="1.432"/><polyline points="82.648 53.551 70.473 65.726 70.473 108.089" fill="none" stroke="#fff" stroke-miterlimit="10" stroke-width="1.719"/></g></g></svg>