<svg id="Layer_1" data-name="Layer 1" xmlns="http://www.w3.org/2000/svg" viewBox="0 0 920.76 92.85"><defs><style>.cls-1,.cls-2,.cls-4{isolation:isolate;}.cls-1,.cls-2{font-size:70px;font-family:Futura-Bold, Futura;font-weight:700;}.cls-1{letter-spacing:-0.04em;}.cls-3{letter-spacing:0.01em;}.cls-5{fill:none;}</style></defs><title>modaDYNAMIC-COOL-LOGO</title><path d="M114.5,14.8a27.4,27.4,0,1,0,27.4,27.4,27.44,27.44,0,0,0-27.4-27.4Zm0,50.5a23.15,23.15,0,1,1,23.2-23.1,23.22,23.22,0,0,1-23.2,23.1Z" transform="translate(0 0.02)"/><path d="M194.7,22a27.71,27.71,0,0,0-18.5-7.2A27.4,27.4,0,1,0,203.5,44l.1-.7V.9a1,1,0,0,0-.7-.9h-2.6a.82.82,0,0,0-1,.7h0V42.1A23.19,23.19,0,1,1,192,25.3s.4.4.7,0l2-2.5a1.1,1.1,0,0,0,0-.8Z" transform="translate(0 0.02)"/><path d="M256.1,61.3l-1.9-2.4c-.2-.3-.6,0-.6,0a23.06,23.06,0,1,1,.9-32.6,23.44,23.44,0,0,1,6.3,15.9V67.9c0,1.3,1.1,1.2,1.1,1.2H264a.82.82,0,0,0,1-.7h0V42a27.26,27.26,0,1,0-8.8,20.2C256.5,61.8,256.1,61.3,256.1,61.3Z" transform="translate(0 0.02)"/><path d="M74.3,20.2c-3.7-3.9-8.7-5.9-15-5.9s-11.3,2-14.9,5.9a17.3,17.3,0,0,0-3.5,5.4,16.64,16.64,0,0,0-3.6-5.8c-3.5-3.6-8.9-5.4-16-5.4-6.4,0-11.5,2-15.2,5.9C-.4,27.2,0,37.7,0,38.7V68.2s0,1.2,1,1.2H3.1s.9.1.9-1.1V38.5c0-.1-.5-9.7,5-15.5,2.9-3.1,7-4.6,12.2-4.6,6,0,10.4,1.4,13.1,4.2,3.8,3.8,4,9.8,4,13.8a15,15,0,0,0,0,3V68.3a.94.94,0,0,0,1,1h2.1a.94.94,0,0,0,1-1V36.8c.2-3.4,1.1-9.6,5-13.9,2.8-3,6.8-4.6,11.9-4.6s9.1,1.6,12,4.6c5.8,6.1,5.3,16.2,5.3,16.3v29s.1,1,1,1h2s1,.2,1-1V39.5C80.8,38.5,81.1,27.4,74.3,20.2Z" transform="translate(0 0.02)"/><text class="cls-1" transform="translate(293.14 68.77)">D</text><text class="cls-2" transform="translate(344.38 68.77)">Y</text><text class="cls-2" transform="translate(394.99 68.77)">N</text><text class="cls-2" transform="translate(458.9 68.77)">AMIC <tspan class="cls-3" x="223.86" y="0">C</tspan><tspan x="271.32" y="0">OOL </tspan></text><text class="cls-4" y="0.02"></text><text class="cls-4" y="0.02"></text><line class="cls-5" x1="6.1" y1="15.22" x2="479.6" y2="14.02"/><line class="cls-5" x1="1" y1="69.42" x2="498" y2="69.42"/><line class="cls-5" x1="268" y1="43.02" x2="282" y2="43.02"/><line class="cls-5" x1="268" y1="43.02" x2="283" y2="43.02"/></svg>