<?xml version="1.0" encoding="utf-8"?>
<!-- Generator: Adobe Illustrator 22.1.0, SVG Export Plug-In . SVG Version: 6.00 Build 0)  -->
<svg version="1.1" id="Layer_1" xmlns="http://www.w3.org/2000/svg" xmlns:xlink="http://www.w3.org/1999/xlink" x="0px" y="0px"
	 viewBox="0 0 936.4 92.8" style="enable-background:new 0 0 936.4 92.8;" xml:space="preserve">
<style type="text/css">
	.st0{font-family:'Futura-Bold';}
	.st1{font-size:70px;}
	.st2{letter-spacing:-3;}
	.st3{letter-spacing:-2;}
	.st4{enable-background:new    ;}
	.st5{fill:none;}
</style>
<title>modaDYNAMIC-WARM-LOGO</title>
<path d="M114.5,14.8c-15.1,0-27.4,12.3-27.4,27.4s12.3,27.4,27.4,27.4c15.1,0,27.4-12.3,27.4-27.4C141.9,27,129.6,14.8,114.5,14.8
	C114.5,14.8,114.5,14.8,114.5,14.8z M114.5,65.3c-12.8,0-23.2-10.4-23.2-23.2S101.7,19,114.5,19c12.8,0,23.2,10.4,23.2,23.2
	S127.3,65.3,114.5,65.3C114.5,65.3,114.5,65.3,114.5,65.3z"/>
<path d="M194.7,22c-5.1-4.6-11.7-7.2-18.5-7.2c-15.1,0-27.4,12.2-27.4,27.4c0,15.1,12.2,27.4,27.4,27.4c14.4,0,26.4-11.2,27.3-25.6
	l0.1-0.7V0.9c0-0.4-0.3-0.8-0.7-0.9h-2.6c-0.5-0.1-0.9,0.2-1,0.7c0,0,0,0,0,0l0,0c0,0.1,0,0.2,0,0.2v41.2
	c0,12.8-10.4,23.2-23.2,23.2c-12.8,0-23.2-10.4-23.2-23.2S163.3,19,176.1,19c5.9,0,11.6,2.3,15.9,6.3c0,0,0.4,0.4,0.7,0l2-2.5
	C194.8,22.6,194.8,22.2,194.7,22C194.7,22.1,194.7,22.1,194.7,22L194.7,22L194.7,22z"/>
<path d="M256.1,61.3l-1.9-2.4c-0.2-0.3-0.6,0-0.6,0c-9.3,8.8-23.9,8.3-32.6-0.9s-8.3-23.9,0.9-32.6c9.3-8.8,23.9-8.3,32.6,0.9
	c4,4.3,6.3,10,6.3,15.9v25.7c0,1.3,1.1,1.2,1.1,1.2h2.1c0.5,0.1,0.9-0.2,1-0.7c0,0,0,0,0,0l0,0l0,0c0-0.1,0-0.2,0-0.2V42
	c0-15.1-12.3-27.3-27.4-27.3c-15.1,0-27.3,12.3-27.3,27.4c0,15.1,12.3,27.3,27.4,27.3c6.9,0,13.5-2.6,18.5-7.2
	C256.5,61.8,256.1,61.3,256.1,61.3z"/>
<path d="M74.3,20.2c-3.7-3.9-8.7-5.9-15-5.9s-11.3,2-14.9,5.9c-1.5,1.6-2.7,3.4-3.5,5.4c-0.8-2.2-2-4.1-3.6-5.8
	c-3.5-3.6-8.9-5.4-16-5.4c-6.4,0-11.5,2-15.2,5.9C-0.4,27.2,0,37.7,0,38.7v29.5c0,0,0,1.2,1,1.2h2.1c0,0,0.9,0.1,0.9-1.1V38.5
	c0-0.1-0.5-9.7,5-15.5c2.9-3.1,7-4.6,12.2-4.6c6,0,10.4,1.4,13.1,4.2c3.8,3.8,4,9.8,4,13.8c-0.1,1-0.1,2,0,3v28.9c0,0.6,0.4,1,1,1
	h2.1c0.6,0,1-0.4,1-1V36.8c0.2-3.4,1.1-9.6,5-13.9c2.8-3,6.8-4.6,11.9-4.6c5.1,0,9.1,1.6,12,4.6c5.8,6.1,5.3,16.2,5.3,16.3v29
	c0,0,0.1,1,1,1h2c0,0,1,0.2,1-1V39.5C80.8,38.5,81.1,27.4,74.3,20.2z"/>
<text transform="matrix(1 0 0 1 293.14 68.75)" class="st0 st1 st2">D</text>
<text transform="matrix(1 0 0 1 344.38 68.75)" class="st0 st1">Y</text>
<text transform="matrix(1 0 0 1 394.99 68.75)" class="st0 st1">N</text>
<text transform="matrix(1 0 0 1 458.9 68.75)" class="st0 st1">AMIC </text>
<text transform="matrix(1 0 0 1 682.76 68.75)" class="st0 st1 st3">W</text>
<text transform="matrix(1 0 0 1 760.1801 68.75)" class="st0 st1">ARM</text>
<text transform="matrix(1 0 0 1 936.4 30.01)" class="st0" style="font-size:18px;">TM</text>
<line class="st5" x1="6.1" y1="15.2" x2="479.6" y2="14"/>
<line class="st5" x1="1" y1="69.4" x2="498" y2="69.4"/>
<line class="st5" x1="268" y1="43" x2="282" y2="43"/>
<line class="st5" x1="268" y1="43" x2="283" y2="43"/>
</svg>
