<svg xmlns="http://www.w3.org/2000/svg" xmlns:xlink="http://www.w3.org/1999/xlink" viewBox="0 0 277.879 116.086">
  <defs>
    <linearGradient id="linear-gradient" x1="-96.98" y1="66.909" x2="262.391" y2="66.909" gradientTransform="matrix(0.742, 0.046, 0.082, 0.984, 71.617, -13.936)" gradientUnits="userSpaceOnUse">
      <stop offset="0" stop-color="#fff200"/>
      <stop offset="0.515" stop-color="#ffd88c"/>
      <stop offset="1" stop-color="#f7941d"/>
    </linearGradient>
    <linearGradient id="linear-gradient-2" x1="-98.98" y1="66.909" x2="264.391" y2="66.909" xlink:href="#linear-gradient"/>
  </defs>
  <title>moda_glowdim</title>
  <g id="Layer_2" data-name="Layer 2">
    <g id="Layer_1-2" data-name="Layer 1">
      <path d="M275.879,114.086S191.191-31.685,2,9.25l33.35,40.2S202.1,12.1,275.879,114.086Z" stroke-linecap="round" stroke-linejoin="round" stroke-width="4" fill="url(#linear-gradient)" stroke="url(#linear-gradient-2)"/>
      <g>
        <path d="M34.3,100.45h9.378v.749a15.5,15.5,0,0,1-.6,4.527,9.621,9.621,0,0,1-1.984,3.411,10.284,10.284,0,0,1-8.041,3.558,11.055,11.055,0,0,1-8.158-3.44,11.819,11.819,0,0,1,8.467-20.124,11.5,11.5,0,0,1,4.969,1.088,14.346,14.346,0,0,1,4.337,3.527l-2.44,2.338a8.283,8.283,0,0,0-6.807-3.72,8.133,8.133,0,0,0-6.041,2.484,8.3,8.3,0,0,0-2.44,6.115,8.527,8.527,0,0,0,8.232,8.526,6.846,6.846,0,0,0,4.542-1.705,6.067,6.067,0,0,0,2.249-4.116H34.3Z" fill="#f3b31e"/>
        <path d="M61.048,89.571v19.478h6.674v3.22h-10.1v-22.7Z" fill="#f3b31e"/>
        <path d="M78.547,100.817a11.117,11.117,0,0,1,3.513-8.232,11.565,11.565,0,0,1,8.408-3.439,11.87,11.87,0,0,1,11.8,11.8,11.162,11.162,0,0,1-3.5,8.306,12,12,0,0,1-16.376.383A11.153,11.153,0,0,1,78.547,100.817Zm3.454.044a8.2,8.2,0,0,0,2.528,6.188,8.375,8.375,0,0,0,11.834-.044,8.811,8.811,0,0,0,.029-12.172,8.464,8.464,0,0,0-11.951,0A8.189,8.189,0,0,0,82,100.861Z" fill="#f3b31e"/>
        <path d="M116.359,89.571l5.909,15.171,6.174-16.273,5.909,16.273,6.277-15.171h3.719l-10.143,24.138-5.836-16.082-6.086,16.1L112.64,89.571Z" fill="#f3b31e"/>
        <path d="M156.8,112.268v-22.7h4.763a17.319,17.319,0,0,1,5.409.677,10.115,10.115,0,0,1,3.866,2.249,11.737,11.737,0,0,1-.146,16.891,10.706,10.706,0,0,1-3.852,2.249,17.548,17.548,0,0,1-5.336.632Zm3.425-3.22h1.544a12.881,12.881,0,0,0,3.836-.484,7.791,7.791,0,0,0,5.292-7.645,7.887,7.887,0,0,0-2.5-6.057q-2.249-2.073-6.629-2.072h-1.544Z" fill="#f47a20"/>
        <path d="M191.721,89.571v22.7H188.3v-22.7Z" fill="#f47a20"/>
        <path d="M206.015,112.268l4.777-24.4,7.791,17.641,8.07-17.641,4.292,24.4h-3.513l-2.19-13.7-6.718,14.744L212,98.554l-2.439,13.715Z" fill="#f47a20"/>
      </g>
    </g>
  </g>
</svg>
