<?xml version="1.0" encoding="utf-8"?>
<!-- Generator: Adobe Illustrator 24.3.0, SVG Export Plug-In . SVG Version: 6.00 Build 0)  -->
<svg version="1.1" xmlns="http://www.w3.org/2000/svg" xmlns:xlink="http://www.w3.org/1999/xlink" x="0px" y="0px"
	 viewBox="0 0 160.01 166.88" style="enable-background:new 0 0 160.01 166.88;" xml:space="preserve">
<style type="text/css">
	.st0{display:none;}
	.st1{display:inline;fill:#FFFFFF;stroke:#000000;stroke-width:0.7;stroke-linecap:round;stroke-linejoin:round;}
	.st2{display:inline;}
	.st3{fill:#FFFFFF;stroke:#000000;stroke-width:0.7;stroke-linecap:round;stroke-linejoin:round;}
	.st4{fill:none;stroke:#EE2732;stroke-width:0.7;stroke-linecap:round;stroke-linejoin:round;}
	.st5{fill:none;stroke:#010101;stroke-width:0.5;stroke-miterlimit:10;}
	.st6{fill:none;stroke:#010101;stroke-width:0.7;stroke-miterlimit:10;}
	.st7{fill:none;stroke:#010101;stroke-miterlimit:10;stroke-dasharray:2;}
	.st8{fill:#FFFFFF;stroke:#010101;stroke-width:0.7;stroke-miterlimit:10;}
	.st9{fill:none;stroke:#000000;stroke-width:0.25;stroke-linecap:round;stroke-linejoin:round;}
	.st10{display:inline;fill:none;stroke:#000000;stroke-width:0.25;stroke-linecap:round;stroke-linejoin:round;}
	.st11{fill:none;stroke:#000000;stroke-width:0.5;stroke-linecap:round;stroke-linejoin:round;}
	.st12{fill:none;stroke:#000000;stroke-width:0.7;stroke-linecap:round;stroke-linejoin:round;}
	.st13{display:inline;fill:none;stroke:#000000;stroke-width:0.7;stroke-linecap:round;stroke-linejoin:round;}
	.st14{font-family:'FuturaBT-Light';}
	.st15{font-size:22.0345px;}
	.st16{font-size:12.8461px;}
	.st17{fill:none;stroke:#000000;stroke-width:0.144;stroke-miterlimit:10;}
	.st18{fill:none;stroke:#000000;stroke-width:0.25;}
</style>
<g id="Layer_1">
</g>
<g id="Layer_2" class="st0">
</g>
<g id="Layer_7">
</g>
<g id="Layer_5">
	<g>
		<line class="st6" x1="56" y1="124.39" x2="56" y2="132.66"/>
		<line class="st6" x1="100.09" y1="127.8" x2="100.09" y2="132.66"/>
		<path class="st6" d="M105.82,137.06l-1.22-3.63c-0.15-0.5-0.56-0.78-1.2-0.77H52.42c0,0-0.71-0.01-1.02,0.76
			c-0.3,0.8-1.31,3.63-1.31,3.63"/>
		<path class="st6" d="M143.62,136.98H13.12c-0.48,0-0.87,0.39-0.87,0.87v5.92h132.24v-5.92
			C144.49,137.37,144.1,136.98,143.62,136.98z"/>
	</g>
	<g>
		<g>
			<path class="st5" d="M82.64,75.79c-2.76-1-5.78,0.31-6.74,2.94c-0.96,2.62,0.51,5.58,3.27,6.58c2.76,1,5.78-0.31,6.74-2.94
				C86.87,79.75,85.4,76.8,82.64,75.79z M79.44,84.58c-2.34-0.85-3.58-3.35-2.77-5.57c0.81-2.22,3.37-3.34,5.7-2.49
				c2.34,0.85,3.58,3.35,2.77,5.57C84.34,84.31,81.78,85.43,79.44,84.58z"/>
			<path class="st5" d="M96.83,82.38c-0.63-1.09-1.62-2.02-2.93-2.49c-2.76-1-5.78,0.31-6.74,2.94c-0.96,2.62,0.51,5.58,3.27,6.58
				c2.65,0.97,5.55-0.21,6.62-2.64l0.05-0.11l2.68-7.36c0.06-0.16-0.11-0.21-0.11-0.21l-0.43-0.15c-0.2-0.07-0.24,0.1-0.24,0.1
				l-1.69,4.64c0,0-0.5,1.38-0.93,2.52c-0.84,2.21-3.37,3.34-5.7,2.49c-2.34-0.85-3.58-3.35-2.77-5.57c0.81-2.22,3.36-3.34,5.7-2.49
				c1.12,0.41,1.99,1.19,2.5,2.15c0,0,0.04,0.1,0.12,0.05c0,0,0.36-0.21,0.53-0.3C96.88,82.46,96.83,82.38,96.83,82.38z"/>
			<path class="st5" d="M105.58,93.3l-0.2-0.55c-0.03-0.07-0.11-0.04-0.11-0.04c-1.01,0.41-2.18,0.45-3.3,0.04
				c-2.33-0.85-3.57-3.34-2.76-5.55c0.81-2.21,3.36-3.33,5.69-2.48c2.33,0.85,3.57,3.34,2.76,5.55l-0.92,2.52l-0.71,1.95
				c-0.08,0.23,0.13,0.29,0.13,0.29l0.39,0.14c0,0,0.17,0.08,0.24-0.11l1.64-4.52c0.95-2.62-0.51-5.56-3.26-6.56
				c-2.75-1-5.77,0.31-6.72,2.93c-0.95,2.62,0.51,5.56,3.26,6.56c1.3,0.47,2.66,0.43,3.84-0.03
				C105.62,93.42,105.58,93.3,105.58,93.3z"/>
			<path class="st5" d="M74.96,74.06c-0.43-0.92-1.22-1.6-2.36-2.01c-1.14-0.42-2.18-0.41-3.09,0.03c-0.38,0.18-0.71,0.43-0.99,0.7
				c-0.01-0.41-0.09-0.83-0.3-1.25c-0.42-0.86-1.29-1.54-2.58-2.01c-1.17-0.43-2.23-0.42-3.15,0.02c-1.63,0.77-2.22,2.62-2.28,2.81
				l-1.87,5.12c0,0-0.08,0.2,0.12,0.27l0.38,0.14c0,0,0.16,0.09,0.24-0.13l1.87-5.14l0.01-0.02c0-0.02,0.52-1.72,1.89-2.37
				c0.72-0.34,1.57-0.34,2.52,0.01c1.09,0.4,1.8,0.94,2.13,1.61c0.46,0.93,0.1,2-0.16,2.69c-0.11,0.26-0.17,0.45-0.19,0.5l-0.6,1.66
				l-1.22,3.35c0,0-0.08,0.18,0.13,0.25l0.36,0.13c0.2,0.07,0.25-0.12,0.25-0.12l1.22-3.35l0.61-1.67l0.05-0.13
				c0.02-0.06,0.05-0.13,0.08-0.21c0.01-0.03,0.03-0.07,0.04-0.11c0.25-0.58,0.81-1.61,1.8-2.08c0.71-0.34,1.54-0.34,2.46,0
				c0.93,0.34,1.57,0.87,1.9,1.59c0.67,1.44-0.06,3.18-0.07,3.19l-1.84,5.05c0,0-0.05,0.18,0.12,0.25l0.38,0.14
				c0,0,0.18,0.1,0.25-0.11l1.83-5.02C74.98,77.66,75.74,75.76,74.96,74.06z"/>
		</g>
		<g>
			<path class="st6" d="M120.56,99.32c0,0-10.44,43.59-54.03,31.09l0,0C25.09,111.96,45.2,71.63,45.2,71.63"/>
			<path class="st6" d="M81.04,92.59l-24.49-8.91c-0.57-0.21-1.1-0.51-1.56-0.89l-7.33-5.95c-0.76-0.62-1.65-1.27-1.8-2.24
				l-0.56-2.16c-0.21-1.32,0.74-2.93,1.56-3.98l4.77-6.09c1.95-2.49,5.28-3.44,8.25-2.36l29.16,10.61"/>
			<path class="st6" d="M79.87,92.17l24.49,8.91c0.57,0.21,1.16,0.32,1.77,0.33l9.44,0.15c0.98,0.02,2.08,0.09,2.82-0.56l1.82-1.29
				c1.01-0.88,1.32-2.72,1.36-4.06l0.26-7.73c0.11-3.16-1.83-6.03-4.8-7.11L87.87,70.2"/>
		</g>
		<g>
			<path class="st6" d="M48.58,117.19l40.48,14.73c0.64,0.23,1.35,0,1.73-0.55l8.99-13c0.14-0.21,0.23-0.44,0.26-0.69l1.63-15.9
				c0.07-0.68-0.33-1.32-0.97-1.55L60.12,85.46c-0.63-0.23-1.33-0.01-1.71,0.53l-9.24,12.78c-0.16,0.22-0.26,0.48-0.28,0.75
				l-1.29,16.15C47.55,116.34,47.95,116.96,48.58,117.19z"/>
			
				<rect x="53.29" y="100.31" transform="matrix(0.9397 0.342 -0.342 0.9397 41.6459 -18.9108)" class="st6" width="42.32" height="16.65"/>
			<g>
				<path class="st6" d="M89.98,105.43c0.13-0.35-0.05-0.74-0.4-0.87s-0.74,0.05-0.87,0.4"/>
			</g>
			<g>
				<path class="st6" d="M78.56,101.27c0.13-0.35-0.05-0.74-0.4-0.87s-0.74,0.05-0.87,0.4"/>
				<path class="st6" d="M77.3,100.81c0.13-0.35-0.05-0.74-0.4-0.87s-0.74,0.05-0.87,0.4"/>
			</g>
			<g>
				<path class="st6" d="M65.55,96.54c0.13-0.35-0.05-0.74-0.4-0.87s-0.74,0.05-0.87,0.4"/>
				<path class="st6" d="M66.82,97c0.13-0.35-0.05-0.74-0.4-0.87s-0.74,0.05-0.87,0.4"/>
				<path class="st6" d="M64.28,96.08c0.13-0.35-0.05-0.74-0.4-0.87c-0.35-0.13-0.74,0.05-0.87,0.4"/>
			</g>
			
				<rect x="56.99" y="99.03" transform="matrix(0.9397 0.342 -0.342 0.9397 39.3976 -15.0167)" class="st6" width="10.58" height="10.35"/>
			
				<rect x="69.16" y="103.46" transform="matrix(0.9397 0.342 -0.342 0.9397 41.6459 -18.9108)" class="st6" width="10.58" height="10.35"/>
			<polygon class="st6" points="89.7,119.7 79.76,116.08 82.3,109.1 86,107.33 90.6,109.01 92.24,112.72 			"/>
			<polygon class="st6" points="88.27,116.71 82.78,114.71 84.18,110.86 86.22,109.88 88.76,110.81 89.67,112.86 			"/>
			<polygon class="st6" points="76.21,112.32 70.72,110.32 72.13,106.47 74.17,105.5 76.71,106.42 77.62,108.47 			"/>
			<polygon class="st6" points="63.94,107.85 58.45,105.86 59.85,102 61.89,101.03 64.43,101.95 65.34,104 			"/>
			<polyline class="st6" points="59.95,121.32 58.87,124.28 76.32,130.64 77.4,127.67 			"/>
			<line class="st6" x1="83.02" y1="120.62" x2="80.09" y2="128.65"/>
			<line class="st6" x1="59.96" y1="112.23" x2="57.04" y2="120.26"/>
			<line class="st6" x1="62.92" y1="113.3" x2="60" y2="121.34"/>
			<line class="st6" x1="67.06" y1="114.81" x2="63.37" y2="124.96"/>
			<line class="st6" x1="80.27" y1="119.62" x2="77.34" y2="127.65"/>
			<line class="st6" x1="76.14" y1="118.12" x2="72.45" y2="128.27"/>
			<polyline class="st6" points="76.5,118.31 74.9,122.69 65.06,119.11 66.66,114.73 			"/>
			<line class="st6" x1="62.61" y1="114.15" x2="66.42" y2="115.54"/>
			<line class="st6" x1="76.15" y1="119.08" x2="79.96" y2="120.46"/>
			<line class="st6" x1="59.18" y1="123.44" x2="76.63" y2="129.79"/>
		</g>
	</g>
	<g>
		<g>
			<path class="st11" d="M80.15,42.54c-12.49-1.36-24.13,0.23-34.48,5.17"/>
			<g>
				<polygon points="76.98,39.28 79.64,42.53 76.38,45.18 78.89,45.43 82.14,42.78 79.49,39.53 				"/>
			</g>
			<g>
				<polygon points="47.59,43.59 46.17,47.54 50.11,48.96 47.83,50.03 43.89,48.6 45.31,44.66 				"/>
			</g>
		</g>
	</g>
</g>
<g id="Layer_4" class="st0">
</g>
<g id="Layer_6">
	<g>
		<text transform="matrix(1 0 0 1 39.1194 32.5835)" class="st14 st15">60</text>
		<text transform="matrix(1 0 0 1 67.5228 26.2413)" class="st14 st16">ยบ</text>
	</g>
</g>
</svg>
