<?xml version="1.0" encoding="utf-8"?>
<!-- Generator: Adobe Illustrator 25.2.3, SVG Export Plug-In . SVG Version: 6.00 Build 0)  -->
<svg version="1.1" id="Layer_1" xmlns="http://www.w3.org/2000/svg" xmlns:xlink="http://www.w3.org/1999/xlink" x="0px" y="0px"
	 viewBox="0 0 160 166.9" style="enable-background:new 0 0 160 166.9;" xml:space="preserve">
<style type="text/css">
	.st0{display:none;}
	.st1{fill:none;stroke:#010101;stroke-width:0.7;stroke-miterlimit:10;}
	.st2{fill:none;stroke:#010101;stroke-width:0.5;stroke-miterlimit:10;}
	.st3{fill:none;stroke:#000000;stroke-width:0.5;stroke-linecap:round;stroke-linejoin:round;}
	.st4{font-family:'FuturaPT-Book';}
	.st5{font-size:22.0345px;}
	.st6{font-size:12.8461px;}
</style>
<g id="Layer_1_1_">
</g>
<g id="Layer_2_1_" class="st0">
</g>
<g id="Layer_7">
</g>
<g id="Layer_5">
	<g>
		<line class="st1" x1="56" y1="124.4" x2="56" y2="132.7"/>
		<line class="st1" x1="100.1" y1="127.8" x2="100.1" y2="132.7"/>
		<path class="st1" d="M105.8,137.1l-1.2-3.6c-0.2-0.5-0.6-0.8-1.2-0.8h-51c0,0-0.7,0-1,0.8c-0.3,0.8-1.3,3.6-1.3,3.6"/>
		<path class="st1" d="M143.6,137H13.1c-0.5,0-0.9,0.4-0.9,0.9v5.9h132.2v-5.9C144.5,137.4,144.1,137,143.6,137z"/>
	</g>
	<g>
		<g>
			<path class="st2" d="M82.6,75.8c-2.8-1-5.8,0.3-6.7,2.9c-1,2.6,0.5,5.6,3.3,6.6c2.8,1,5.8-0.3,6.7-2.9
				C86.9,79.8,85.4,76.8,82.6,75.8z M79.4,84.6c-2.3-0.8-3.6-3.3-2.8-5.6c0.8-2.2,3.4-3.3,5.7-2.5c2.3,0.8,3.6,3.3,2.8,5.6
				C84.3,84.3,81.8,85.4,79.4,84.6z"/>
			<path class="st2" d="M96.8,82.4c-0.6-1.1-1.6-2-2.9-2.5c-2.8-1-5.8,0.3-6.7,2.9c-1,2.6,0.5,5.6,3.3,6.6c2.7,1,5.6-0.2,6.6-2.6
				l0.1-0.1l2.7-7.4c0.1-0.2-0.1-0.2-0.1-0.2l-0.4-0.2C99,78.9,99,79,99,79l-1.7,4.6c0,0-0.5,1.4-0.9,2.5c-0.8,2.2-3.4,3.3-5.7,2.5
				c-2.3-0.8-3.6-3.3-2.8-5.6c0.8-2.2,3.4-3.3,5.7-2.5c1.1,0.4,2,1.2,2.5,2.2c0,0,0,0.1,0.1,0.1c0,0,0.4-0.2,0.5-0.3
				C96.9,82.5,96.8,82.4,96.8,82.4z"/>
			<path class="st2" d="M105.6,93.3l-0.2-0.6c0-0.1-0.1,0-0.1,0c-1,0.4-2.2,0.4-3.3,0c-2.3-0.8-3.6-3.3-2.8-5.6
				c0.8-2.2,3.4-3.3,5.7-2.5s3.6,3.3,2.8,5.6l-0.9,2.5l-0.7,1.9c-0.1,0.2,0.1,0.3,0.1,0.3l0.4,0.1c0,0,0.2,0.1,0.2-0.1l1.6-4.5
				c0.9-2.6-0.5-5.6-3.3-6.6s-5.8,0.3-6.7,2.9c-0.9,2.6,0.5,5.6,3.3,6.6c1.3,0.5,2.7,0.4,3.8,0C105.6,93.4,105.6,93.3,105.6,93.3z"
				/>
			<path class="st2" d="M75,74.1c-0.4-0.9-1.2-1.6-2.4-2c-1.1-0.4-2.2-0.4-3.1,0c-0.4,0.2-0.7,0.4-1,0.7c0-0.4-0.1-0.8-0.3-1.2
				c-0.4-0.9-1.3-1.5-2.6-2c-1.2-0.4-2.2-0.4-3.2,0c-1.6,0.8-2.2,2.6-2.3,2.8l-1.9,5.1c0,0-0.1,0.2,0.1,0.3l0.4,0.1
				c0,0,0.2,0.1,0.2-0.1l1.9-5.1l0,0c0,0,0.5-1.7,1.9-2.4c0.7-0.3,1.6-0.3,2.5,0c1.1,0.4,1.8,0.9,2.1,1.6c0.5,0.9,0.1,2-0.2,2.7
				c-0.1,0.3-0.2,0.4-0.2,0.5l-0.6,1.7L65.3,80c0,0-0.1,0.2,0.1,0.2l0.4,0.1c0.2,0.1,0.2-0.1,0.2-0.1l1.2-3.3l0.6-1.7l0.1-0.1
				c0-0.1,0.1-0.1,0.1-0.2c0,0,0-0.1,0-0.1c0.2-0.6,0.8-1.6,1.8-2.1c0.7-0.3,1.5-0.3,2.5,0c0.9,0.3,1.6,0.9,1.9,1.6
				c0.7,1.4-0.1,3.2-0.1,3.2l-1.8,5.1c0,0-0.1,0.2,0.1,0.2l0.4,0.1c0,0,0.2,0.1,0.2-0.1l1.8-5C75,77.7,75.7,75.8,75,74.1z"/>
		</g>
		<g>
			<path class="st1" d="M120.6,99.3c0,0-10.4,43.6-54,31.1l0,0C25.1,112,45.2,71.6,45.2,71.6"/>
			<path class="st1" d="M81,92.6l-24.5-8.9c-0.6-0.2-1.1-0.5-1.6-0.9l-7.3-5.9c-0.8-0.6-1.7-1.3-1.8-2.2l-0.6-2.2
				c-0.2-1.3,0.7-2.9,1.6-4l4.8-6.1c2-2.5,5.3-3.4,8.2-2.4L89,70.6"/>
			<path class="st1" d="M79.9,92.2l24.5,8.9c0.6,0.2,1.2,0.3,1.8,0.3l9.4,0.2c1,0,2.1,0.1,2.8-0.6l1.8-1.3c1-0.9,1.3-2.7,1.4-4.1
				l0.3-7.7c0.1-3.2-1.8-6-4.8-7.1L87.9,70.2"/>
		</g>
		<g>
			<path class="st1" d="M48.6,117.2l40.5,14.7c0.6,0.2,1.3,0,1.7-0.6l9-13c0.1-0.2,0.2-0.4,0.3-0.7l1.6-15.9c0.1-0.7-0.3-1.3-1-1.6
				L60.1,85.5c-0.6-0.2-1.3,0-1.7,0.5l-9.2,12.8c-0.2,0.2-0.3,0.5-0.3,0.8l-1.3,16.2C47.5,116.3,48,117,48.6,117.2z"/>
			
				<rect x="66.1" y="87.5" transform="matrix(0.342 -0.9397 0.9397 0.342 -53.0944 141.446)" class="st1" width="16.7" height="42.3"/>
			<g>
				<path class="st1" d="M90,105.4c0.1-0.3-0.1-0.7-0.4-0.9s-0.7,0.1-0.9,0.4"/>
			</g>
			<g>
				<path class="st1" d="M78.6,101.3c0.1-0.3-0.1-0.7-0.4-0.9s-0.7,0.1-0.9,0.4"/>
				<path class="st1" d="M77.3,100.8c0.1-0.3-0.1-0.7-0.4-0.9s-0.7,0.1-0.9,0.4"/>
			</g>
			<g>
				<path class="st1" d="M65.6,96.5c0.1-0.3-0.1-0.7-0.4-0.9s-0.7,0.1-0.9,0.4"/>
				<path class="st1" d="M66.8,97c0.1-0.3-0.1-0.7-0.4-0.9s-0.7,0.1-0.9,0.4"/>
				<path class="st1" d="M64.3,96.1c0.1-0.3-0.1-0.7-0.4-0.9c-0.3-0.1-0.7,0.1-0.9,0.4"/>
			</g>
			
				<rect x="57.1" y="98.9" transform="matrix(0.342 -0.9397 0.9397 0.342 -56.9381 127.0948)" class="st1" width="10.3" height="10.6"/>
			
				<rect x="69.3" y="103.3" transform="matrix(0.342 -0.9397 0.9397 0.342 -53.0944 141.446)" class="st1" width="10.3" height="10.6"/>
			<polygon class="st1" points="89.7,119.7 79.8,116.1 82.3,109.1 86,107.3 90.6,109 92.2,112.7 			"/>
			<polygon class="st1" points="88.3,116.7 82.8,114.7 84.2,110.9 86.2,109.9 88.8,110.8 89.7,112.9 			"/>
			<polygon class="st1" points="76.2,112.3 70.7,110.3 72.1,106.5 74.2,105.5 76.7,106.4 77.6,108.5 			"/>
			<polygon class="st1" points="63.9,107.8 58.5,105.9 59.8,102 61.9,101 64.4,101.9 65.3,104 			"/>
			<polyline class="st1" points="60,121.3 58.9,124.3 76.3,130.6 77.4,127.7 			"/>
			<line class="st1" x1="83" y1="120.6" x2="80.1" y2="128.6"/>
			<line class="st1" x1="60" y1="112.2" x2="57" y2="120.3"/>
			<line class="st1" x1="62.9" y1="113.3" x2="60" y2="121.3"/>
			<line class="st1" x1="67.1" y1="114.8" x2="63.4" y2="125"/>
			<line class="st1" x1="80.3" y1="119.6" x2="77.3" y2="127.7"/>
			<line class="st1" x1="76.1" y1="118.1" x2="72.4" y2="128.3"/>
			<polyline class="st1" points="76.5,118.3 74.9,122.7 65.1,119.1 66.7,114.7 			"/>
			<line class="st1" x1="62.6" y1="114.2" x2="66.4" y2="115.5"/>
			<line class="st1" x1="76.2" y1="119.1" x2="80" y2="120.5"/>
			<line class="st1" x1="59.2" y1="123.4" x2="76.6" y2="129.8"/>
		</g>
	</g>
	<g>
		<g>
			<path class="st3" d="M80.2,42.5c-12.5-1.4-24.1,0.2-34.5,5.2"/>
			<g>
				<polygon points="77,39.3 79.6,42.5 76.4,45.2 78.9,45.4 82.1,42.8 79.5,39.5 				"/>
			</g>
			<g>
				<polygon points="47.6,43.6 46.2,47.5 50.1,49 47.8,50 43.9,48.6 45.3,44.7 				"/>
			</g>
		</g>
	</g>
</g>
<g id="Layer_4" class="st0">
</g>
<g id="Layer_6">
	<g>
		<text transform="matrix(1 0 0 1 39.1194 32.5835)" class="st4 st5">60</text>
		<text transform="matrix(1 0 0 1 63.5228 26.2413)" class="st4 st6">°</text>
	</g>
</g>
</svg>
