<?xml version="1.0" encoding="utf-8"?>
<!-- Generator: Adobe Illustrator 21.1.0, SVG Export Plug-In . SVG Version: 6.00 Build 0)  -->
<svg version="1.1" id="Layer_1" xmlns="http://www.w3.org/2000/svg" xmlns:xlink="http://www.w3.org/1999/xlink" x="0px" y="0px"
	 viewBox="0 0 405.5 348.2" style="enable-background:new 0 0 405.5 348.2;" xml:space="preserve">
<style type="text/css">
	.st0{fill:none;stroke:#7F7F7F;stroke-width:13.7321;stroke-miterlimit:10;}
	.st1{fill:none;stroke:#7F7F7F;stroke-width:13.6958;stroke-miterlimit:10;}
	.st2{fill:none;stroke:#7F7F7F;stroke-width:13.6349;stroke-miterlimit:10;}
	.st3{fill:#FFFFFF;stroke:#7F7F7F;stroke-width:13.4118;stroke-miterlimit:10;}
	.st4{fill:#FFFFFF;stroke:#7F7F7F;stroke-width:9.3147;stroke-miterlimit:10;}
	.st5{fill:none;stroke:#7F7F7F;stroke-width:9.3147;stroke-miterlimit:10;}
	.st6{fill:#FFFFFF;stroke:#7F7F7F;stroke-width:9.3996;stroke-miterlimit:10;}
	.st7{fill:#FFFFFF;stroke:#7F7F7F;stroke-width:10.3346;stroke-linecap:round;stroke-miterlimit:10;}
	.st8{fill:#FFFFFF;stroke:#7F7F7F;stroke-width:10.7922;stroke-linecap:round;stroke-miterlimit:10;}
	.st9{fill:none;stroke:#7F7F7F;stroke-width:13.7321;stroke-linecap:round;stroke-miterlimit:10;}
</style>
<title>Asset 4</title>
<path class="st0" d="M207.4,33.9H26.8c-9.5,0-17.2,7.7-17.2,17.2v271c0,9.5,7.7,17.2,17.2,17.2h352.6c9.5,0,17.2-7.7,17.2-17.2V51
	c0-9.5-7.7-17.2-17.2-17.2h-6.5"/>
<path class="st1" d="M313.3,315.3l-98.2,23.9c-6.7,0-12.1-5.5-12.1-12.3V43.2c0-6.8,5.4-12.3,12.1-12.3L313.3,7
	c6.7,0,12.1,5.5,12.1,12.3V303C325.5,309.8,319.9,312.9,313.3,315.3z"/>
<path class="st2" d="M203,45.7v278.6c0,6.6,5.4,12,12.1,12l145.6-23.5c6.1-1.6,11.4-4.8,12.1-12V22.2c0-6.6-5.4-12-12.1-12L324,16.5
	"/>
<path class="st3" d="M160.6,220.1H54.5c-7.5,0-13.7-6.1-13.7-13.7V79.5c0-7.5,6.1-13.7,13.7-13.7h106.1c7.5,0,13.7,6.1,13.7,13.7
	v126.9C174.3,214,168.1,220.1,160.6,220.1z"/>
<path class="st4" d="M298.5,219.8l-63.7,16c-5.4,1.2-9.5-4.3-9.5-9.5V125.2c0-5.2,4.3-8.6,9.5-9.5l63.7-16c5.7-0.9,9.5,4.3,9.5,9.5
	v101.1C308,215.5,304.1,218.5,298.5,219.8z"/>
<path class="st5" d="M327.9,192l15.4-3.9c5.7-0.9,9.5,4.3,9.5,9.5v101.1c0,5.2-4,8.2-9.5,9.5l-24.6,6.3"/>
<path class="st6" d="M254.4,87.6l-22.5,5.7c-1.9,0.4-3.4-1.5-3.4-3.4V54.2c0-1.9,1.5-3,3.4-3.4l22.5-5.7c2-0.3,3.4,1.5,3.4,3.4v35.7
	C257.7,86.1,256.3,87.2,254.4,87.6z"/>
<line class="st7" x1="225.4" y1="262.1" x2="308" y2="239.6"/>
<line class="st7" x1="225.4" y1="286.1" x2="308" y2="263.7"/>
<line class="st7" x1="279.1" y1="42.1" x2="308" y2="34.2"/>
<line class="st7" x1="283.2" y1="73.4" x2="308" y2="66.7"/>
<line class="st7" x1="327.9" y1="49.3" x2="352.8" y2="42.6"/>
<line class="st7" x1="327.9" y1="73.4" x2="352.8" y2="66.7"/>
<line class="st7" x1="327.9" y1="97.5" x2="352.8" y2="90.7"/>
<line class="st7" x1="327.9" y1="121.6" x2="352.8" y2="114.8"/>
<line class="st7" x1="327.9" y1="145.6" x2="352.8" y2="138.9"/>
<line class="st7" x1="327.9" y1="169.7" x2="352.8" y2="163"/>
<line class="st7" x1="225.4" y1="310.5" x2="308" y2="288.1"/>
<line class="st8" x1="40.8" y1="249.8" x2="174.3" y2="249.8"/>
<line class="st8" x1="40.8" y1="273.9" x2="174.3" y2="273.9"/>
<line class="st8" x1="40.8" y1="298" x2="174.3" y2="298"/>
<line class="st9" x1="372.9" y1="249.8" x2="380.6" y2="249.8"/>
<line class="st9" x1="372.9" y1="225.7" x2="380.6" y2="225.7"/>
<line class="st9" x1="372.9" y1="201.6" x2="380.6" y2="201.6"/>
<line class="st9" x1="372.9" y1="177.6" x2="380.6" y2="177.6"/>
<line class="st9" x1="372.9" y1="153.5" x2="380.6" y2="153.5"/>
<line class="st9" x1="372.9" y1="129.4" x2="380.6" y2="129.4"/>
<line class="st9" x1="372.9" y1="105.3" x2="380.6" y2="105.3"/>
<line class="st9" x1="372.9" y1="81.2" x2="380.6" y2="81.2"/>
<line class="st9" x1="372.9" y1="57.1" x2="380.6" y2="57.1"/>
<line class="st9" x1="374.7" y1="273.9" x2="380.6" y2="273.9"/>
<line class="st9" x1="372.9" y1="298" x2="380.6" y2="298"/>
</svg>
