<?xml version="1.0" encoding="utf-8"?>
<!-- Generator: Adobe Illustrator 20.0.0, SVG Export Plug-In . SVG Version: 6.00 Build 0)  -->
<svg version="1.1" id="Layer_1" xmlns="http://www.w3.org/2000/svg" xmlns:xlink="http://www.w3.org/1999/xlink" x="0px" y="0px"
	 viewBox="0 0 217.2 344.9" style="enable-background:new 0 0 217.2 344.9;" xml:space="preserve">
<style type="text/css">
	.st0{fill:#FFFFFF;stroke:#7F7F7F;stroke-width:4.068;stroke-miterlimit:10;}
	.st1{fill:none;stroke:#7F7F7F;stroke-width:13.071;stroke-miterlimit:10;}
	.st2{fill:none;stroke:#7F7F7F;stroke-width:8.309;stroke-miterlimit:10;}
	.st3{fill:#FFFFFF;stroke:#7F7F7F;stroke-width:5.972;stroke-miterlimit:10;}
</style>
<title>Asset 7</title>
<g id="Layer_2">
	<g id="Layer_1-2">
		<path class="st0" d="M111.5,235.8h-5.9c-0.4,0-0.7-0.3-0.7-0.7V109.8c0-0.4,0.3-0.7,0.7-0.7h5.9c0.4,0,0.7,0.3,0.7,0.7v125.3
			C112.2,235.5,111.9,235.8,111.5,235.8z"/>
		<path class="st1" d="M52,6.5h113.1c25.1,0,45.5,20.4,45.5,45.5v240.9c0,25.1-20.4,45.5-45.5,45.5H52c-25.1,0-45.5-20.4-45.5-45.5
			V52C6.5,26.9,26.9,6.5,52,6.5z"/>
		<path class="st2" d="M74.1,49.6h69.1c11.7,0,21.2,9.5,21.2,21.2v203.4c0,11.7-9.5,21.2-21.2,21.2H74.1c-11.7,0-21.2-9.5-21.2-21.2
			V70.8C52.9,59.1,62.4,49.6,74.1,49.6z"/>
		<path class="st3" d="M43.1,139.9H174c3.2,0,5.7,2.6,5.7,5.7v2.7c0,3.2-2.6,5.7-5.7,5.7H43.1c-3.2,0-5.7-2.6-5.7-5.7v-2.7
			C37.4,142.5,40,139.9,43.1,139.9z"/>
	</g>
</g>
</svg>
