<?xml version="1.0" encoding="utf-8"?>
<!-- Generator: Adobe Illustrator 24.3.0, SVG Export Plug-In . SVG Version: 6.00 Build 0)  -->
<svg version="1.1" id="Layer_1" xmlns="http://www.w3.org/2000/svg" xmlns:xlink="http://www.w3.org/1999/xlink" x="0px" y="0px"
	 viewBox="0 0 792 424.77" style="enable-background:new 0 0 792 424.77;" xml:space="preserve">
<style type="text/css">
	.st0{opacity:0.5;}
	.st1{fill:none;stroke:#010101;stroke-linecap:round;stroke-linejoin:round;stroke-miterlimit:10;}
</style>
<g class="st0">
	<polygon class="st1" points="180.96,62.36 142.66,62.36 123.51,78.85 142.66,95.35 180.96,95.35 200.11,78.85 	"/>
	<polygon class="st1" points="238.4,78.85 200.11,78.85 180.96,95.35 200.11,111.84 238.4,111.84 257.55,95.35 	"/>
	<polygon class="st1" points="123.51,78.85 85.22,78.85 66.07,95.35 85.22,111.84 123.51,111.84 142.66,95.35 	"/>
	<polygon class="st1" points="180.96,95.35 142.66,95.35 123.51,111.84 142.66,128.33 180.96,128.33 200.11,111.84 	"/>
	<polygon class="st1" points="295.85,95.35 257.55,95.35 238.4,111.84 257.55,128.33 295.85,128.33 315,111.84 	"/>
	<polygon class="st1" points="353.29,111.84 315,111.84 295.85,128.33 315,144.83 353.29,144.83 372.44,128.33 	"/>
	<polygon class="st1" points="238.4,111.84 200.11,111.84 180.96,128.33 200.11,144.83 238.4,144.83 257.55,128.33 	"/>
	<polygon class="st1" points="295.85,128.33 257.55,128.33 238.4,144.83 257.55,161.32 295.85,161.32 315,144.83 	"/>
	<polygon class="st1" points="123.51,111.84 85.22,111.84 66.07,128.33 85.22,144.83 123.51,144.83 142.66,128.33 	"/>
	<polygon class="st1" points="180.96,128.33 142.66,128.33 123.51,144.83 142.66,161.32 180.96,161.32 200.11,144.83 	"/>
	<polygon class="st1" points="66.07,128.33 27.77,128.33 8.62,144.83 27.77,161.32 66.07,161.32 85.22,144.83 	"/>
	<polygon class="st1" points="123.51,144.83 85.22,144.83 66.07,161.32 85.22,177.81 123.51,177.81 142.66,161.32 	"/>
	<polygon class="st1" points="238.4,144.83 200.11,144.83 180.96,161.32 200.11,177.81 238.4,177.81 257.55,161.32 	"/>
	<polygon class="st1" points="295.85,161.32 257.55,161.32 238.4,177.81 257.55,194.31 295.85,194.31 315,177.81 	"/>
	<polygon class="st1" points="180.96,161.32 142.66,161.32 123.51,177.81 142.66,194.31 180.96,194.31 200.11,177.81 	"/>
	<polygon class="st1" points="238.4,177.81 200.11,177.81 180.96,194.31 200.11,210.8 238.4,210.8 257.55,194.31 	"/>
	<polygon class="st1" points="295.85,29.37 257.55,29.37 238.4,45.87 257.55,62.36 295.85,62.36 315,45.87 	"/>
	<polygon class="st1" points="353.29,45.87 315,45.87 295.85,62.36 315,78.85 353.29,78.85 372.44,62.36 	"/>
	<polygon class="st1" points="238.4,45.87 200.11,45.87 180.96,62.36 200.11,78.85 238.4,78.85 257.55,62.36 	"/>
	<polygon class="st1" points="295.85,62.36 257.55,62.36 238.4,78.85 257.55,95.35 295.85,95.35 315,78.85 	"/>
	<polygon class="st1" points="410.74,62.36 372.44,62.36 353.29,78.85 372.44,95.35 410.74,95.35 429.89,78.85 	"/>
	<polygon class="st1" points="468.18,78.85 429.89,78.85 410.74,95.35 429.89,111.84 468.18,111.84 487.33,95.35 	"/>
	<polygon class="st1" points="353.29,78.85 315,78.85 295.85,95.35 315,111.84 353.29,111.84 372.44,95.35 	"/>
	<polygon class="st1" points="410.74,95.35 372.44,95.35 353.29,111.84 372.44,128.33 410.74,128.33 429.89,111.84 	"/>
	<polygon class="st1" points="410.74,128.33 372.44,128.33 353.29,144.83 372.44,161.32 410.74,161.32 429.89,144.83 	"/>
	<polygon class="st1" points="468.18,144.83 429.89,144.83 410.74,161.32 429.89,177.81 468.18,177.81 487.33,161.32 	"/>
	<polygon class="st1" points="353.29,144.83 315,144.83 295.85,161.32 315,177.81 353.29,177.81 372.44,161.32 	"/>
	<polygon class="st1" points="410.74,161.32 372.44,161.32 353.29,177.81 372.44,194.31 410.74,194.31 429.89,177.81 	"/>
	<polygon class="st1" points="583.07,45.87 544.78,45.87 525.63,62.36 544.78,78.85 583.07,78.85 602.22,62.36 	"/>
	<polygon class="st1" points="640.52,62.36 602.22,62.36 583.07,78.85 602.22,95.35 640.52,95.35 659.67,78.85 	"/>
	<polygon class="st1" points="525.63,62.36 487.33,62.36 468.18,78.85 487.33,95.35 525.63,95.35 544.78,78.85 	"/>
	<polygon class="st1" points="583.07,78.85 544.78,78.85 525.63,95.35 544.78,111.84 583.07,111.84 602.22,95.35 	"/>
	<polygon class="st1" points="697.96,78.85 659.67,78.85 640.52,95.35 659.67,111.84 697.96,111.84 717.11,95.35 	"/>
	<polygon class="st1" points="755.41,95.35 717.11,95.35 697.96,111.84 717.11,128.33 755.41,128.33 774.56,111.84 	"/>
	<polygon class="st1" points="640.52,95.35 602.22,95.35 583.07,111.84 602.22,128.33 640.52,128.33 659.67,111.84 	"/>
	<polygon class="st1" points="697.96,111.84 659.67,111.84 640.52,128.33 659.67,144.83 697.96,144.83 717.11,128.33 	"/>
	<polygon class="st1" points="525.63,95.35 487.33,95.35 468.18,111.84 487.33,128.33 525.63,128.33 544.78,111.84 	"/>
	<polygon class="st1" points="583.07,111.84 544.78,111.84 525.63,128.33 544.78,144.83 583.07,144.83 602.22,128.33 	"/>
	<polygon class="st1" points="468.18,111.84 429.89,111.84 410.74,128.33 429.89,144.83 468.18,144.83 487.33,128.33 	"/>
	<polygon class="st1" points="525.63,128.33 487.33,128.33 468.18,144.83 487.33,161.32 525.63,161.32 544.78,144.83 	"/>
	<polygon class="st1" points="640.52,128.33 602.22,128.33 583.07,144.83 602.22,161.32 640.52,161.32 659.67,144.83 	"/>
	<polygon class="st1" points="697.96,144.83 659.67,144.83 640.52,161.32 659.67,177.81 697.96,177.81 717.11,161.32 	"/>
	<polygon class="st1" points="583.07,144.83 544.78,144.83 525.63,161.32 544.78,177.81 583.07,177.81 602.22,161.32 	"/>
	<polygon class="st1" points="640.52,161.32 602.22,161.32 583.07,177.81 602.22,194.31 640.52,194.31 659.67,177.81 	"/>
	<polygon class="st1" points="123.51,177.81 85.22,177.81 66.07,194.31 85.22,210.8 123.51,210.8 142.66,194.31 	"/>
	<polygon class="st1" points="295.85,194.31 257.55,194.31 238.4,210.8 257.55,227.29 295.85,227.29 315,210.8 	"/>
	<polygon class="st1" points="180.96,194.31 142.66,194.31 123.51,210.8 142.66,227.29 180.96,227.29 200.11,210.8 	"/>
	<polygon class="st1" points="238.4,210.8 200.11,210.8 180.96,227.29 200.11,243.79 238.4,243.79 257.55,227.29 	"/>
	<polygon class="st1" points="468.18,177.81 429.89,177.81 410.74,194.31 429.89,210.8 468.18,210.8 487.33,194.31 	"/>
	<polygon class="st1" points="353.29,177.81 315,177.81 295.85,194.31 315,210.8 353.29,210.8 372.44,194.31 	"/>
	<polygon class="st1" points="410.74,194.31 372.44,194.31 353.29,210.8 372.44,227.29 410.74,227.29 429.89,210.8 	"/>
	<polygon class="st1" points="525.63,161.32 487.33,161.32 468.18,177.81 487.33,194.31 525.63,194.31 544.78,177.81 	"/>
	<polygon class="st1" points="697.96,177.81 659.67,177.81 640.52,194.31 659.67,210.8 697.96,210.8 717.11,194.31 	"/>
	<polygon class="st1" points="583.07,177.81 544.78,177.81 525.63,194.31 544.78,210.8 583.07,210.8 602.22,194.31 	"/>
	<polygon class="st1" points="640.52,194.31 602.22,194.31 583.07,210.8 602.22,227.29 640.52,227.29 659.67,210.8 	"/>
	<polygon class="st1" points="123.51,210.8 85.22,210.8 66.07,227.29 85.22,243.79 123.51,243.79 142.66,227.29 	"/>
	<polygon class="st1" points="295.85,227.29 257.55,227.29 238.4,243.79 257.55,260.28 295.85,260.28 315,243.79 	"/>
	<polygon class="st1" points="180.96,227.29 142.66,227.29 123.51,243.79 142.66,260.28 180.96,260.28 200.11,243.79 	"/>
	<polygon class="st1" points="238.4,243.79 200.11,243.79 180.96,260.28 200.11,276.77 238.4,276.77 257.55,260.28 	"/>
	<polygon class="st1" points="468.18,210.8 429.89,210.8 410.74,227.29 429.89,243.79 468.18,243.79 487.33,227.29 	"/>
	<polygon class="st1" points="353.29,210.8 315,210.8 295.85,227.29 315,243.79 353.29,243.79 372.44,227.29 	"/>
	<polygon class="st1" points="410.74,227.29 372.44,227.29 353.29,243.79 372.44,260.28 410.74,260.28 429.89,243.79 	"/>
	<polygon class="st1" points="525.63,194.31 487.33,194.31 468.18,210.8 487.33,227.29 525.63,227.29 544.78,210.8 	"/>
	<polygon class="st1" points="697.96,210.8 659.67,210.8 640.52,227.29 659.67,243.79 697.96,243.79 717.11,227.29 	"/>
	<polygon class="st1" points="583.07,210.8 544.78,210.8 525.63,227.29 544.78,243.79 583.07,243.79 602.22,227.29 	"/>
	<polygon class="st1" points="640.52,227.29 602.22,227.29 583.07,243.79 602.22,260.28 640.52,260.28 659.67,243.79 	"/>
	<polygon class="st1" points="123.51,243.79 85.22,243.79 66.07,260.28 85.22,276.77 123.51,276.77 142.66,260.28 	"/>
	<polygon class="st1" points="66.07,227.29 27.77,227.29 8.62,243.79 27.77,260.28 66.07,260.28 85.22,243.79 	"/>
	<polygon class="st1" points="66.07,293.27 27.77,293.27 8.62,309.76 27.77,326.25 66.07,326.25 85.22,309.76 	"/>
	<polygon class="st1" points="295.85,260.28 257.55,260.28 238.4,276.77 257.55,293.27 295.85,293.27 315,276.77 	"/>
	<polygon class="st1" points="180.96,260.28 142.66,260.28 123.51,276.77 142.66,293.27 180.96,293.27 200.11,276.77 	"/>
	<polygon class="st1" points="238.4,276.77 200.11,276.77 180.96,293.27 200.11,309.76 238.4,309.76 257.55,293.27 	"/>
	<polygon class="st1" points="468.18,243.79 429.89,243.79 410.74,260.28 429.89,276.77 468.18,276.77 487.33,260.28 	"/>
	<polygon class="st1" points="353.29,243.79 315,243.79 295.85,260.28 315,276.77 353.29,276.77 372.44,260.28 	"/>
	<polygon class="st1" points="410.74,260.28 372.44,260.28 353.29,276.77 372.44,293.27 410.74,293.27 429.89,276.77 	"/>
	<polygon class="st1" points="525.63,227.29 487.33,227.29 468.18,243.79 487.33,260.28 525.63,260.28 544.78,243.79 	"/>
	<polygon class="st1" points="697.96,243.79 659.67,243.79 640.52,260.28 659.67,276.77 697.96,276.77 717.11,260.28 	"/>
	<polygon class="st1" points="755.41,194.31 717.11,194.31 697.96,210.8 717.11,227.29 755.41,227.29 774.56,210.8 	"/>
	<polygon class="st1" points="755.41,260.28 717.11,260.28 697.96,276.77 717.11,293.27 755.41,293.27 774.56,276.77 	"/>
	<polygon class="st1" points="583.07,243.79 544.78,243.79 525.63,260.28 544.78,276.77 583.07,276.77 602.22,260.28 	"/>
	<polygon class="st1" points="640.52,260.28 602.22,260.28 583.07,276.77 602.22,293.27 640.52,293.27 659.67,276.77 	"/>
	<polygon class="st1" points="123.51,276.77 85.22,276.77 66.07,293.27 85.22,309.76 123.51,309.76 142.66,293.27 	"/>
	<polygon class="st1" points="295.85,293.27 257.55,293.27 238.4,309.76 257.55,326.25 295.85,326.25 315,309.76 	"/>
	<polygon class="st1" points="180.96,293.27 142.66,293.27 123.51,309.76 142.66,326.25 180.96,326.25 200.11,309.76 	"/>
	<polygon class="st1" points="238.4,309.76 200.11,309.76 180.96,326.25 200.11,342.75 238.4,342.75 257.55,326.25 	"/>
	<polygon class="st1" points="468.18,276.77 429.89,276.77 410.74,293.27 429.89,309.76 468.18,309.76 487.33,293.27 	"/>
	<polygon class="st1" points="353.29,276.77 315,276.77 295.85,293.27 315,309.76 353.29,309.76 372.44,293.27 	"/>
	<polygon class="st1" points="410.74,293.27 372.44,293.27 353.29,309.76 372.44,326.25 410.74,326.25 429.89,309.76 	"/>
	<polygon class="st1" points="525.63,260.28 487.33,260.28 468.18,276.77 487.33,293.27 525.63,293.27 544.78,276.77 	"/>
	<polygon class="st1" points="697.96,276.77 659.67,276.77 640.52,293.27 659.67,309.76 697.96,309.76 717.11,293.27 	"/>
	<polygon class="st1" points="583.07,276.77 544.78,276.77 525.63,293.27 544.78,309.76 583.07,309.76 602.22,293.27 	"/>
	<polygon class="st1" points="640.52,293.27 602.22,293.27 583.07,309.76 602.22,326.25 640.52,326.25 659.67,309.76 	"/>
	<polygon class="st1" points="123.51,309.76 85.22,309.76 66.07,326.25 85.22,342.75 123.51,342.75 142.66,326.25 	"/>
	<polygon class="st1" points="295.85,326.25 257.55,326.25 238.4,342.75 257.55,359.24 295.85,359.24 315,342.75 	"/>
	<polygon class="st1" points="180.96,326.25 142.66,326.25 123.51,342.75 142.66,359.24 180.96,359.24 200.11,342.75 	"/>
	<polygon class="st1" points="238.4,342.75 200.11,342.75 180.96,359.24 200.11,375.73 238.4,375.73 257.55,359.24 	"/>
	<polygon class="st1" points="468.18,309.76 429.89,309.76 410.74,326.25 429.89,342.75 468.18,342.75 487.33,326.25 	"/>
	<polygon class="st1" points="353.29,309.76 315,309.76 295.85,326.25 315,342.75 353.29,342.75 372.44,326.25 	"/>
	<polygon class="st1" points="410.74,326.25 372.44,326.25 353.29,342.75 372.44,359.24 410.74,359.24 429.89,342.75 	"/>
	<polygon class="st1" points="525.63,293.27 487.33,293.27 468.18,309.76 487.33,326.25 525.63,326.25 544.78,309.76 	"/>
	<polygon class="st1" points="697.96,309.76 659.67,309.76 640.52,326.25 659.67,342.75 697.96,342.75 717.11,326.25 	"/>
	<polygon class="st1" points="583.07,309.76 544.78,309.76 525.63,326.25 544.78,342.75 583.07,342.75 602.22,326.25 	"/>
	<polygon class="st1" points="640.52,326.25 602.22,326.25 583.07,342.75 602.22,359.24 640.52,359.24 659.67,342.75 	"/>
	<polygon class="st1" points="123.51,342.75 85.22,342.75 66.07,359.24 85.22,375.73 123.51,375.73 142.66,359.24 	"/>
	<polygon class="st1" points="295.85,359.24 257.55,359.24 238.4,375.73 257.55,392.23 295.85,392.23 315,375.73 	"/>
	<polygon class="st1" points="180.96,359.24 142.66,359.24 123.51,375.73 142.66,392.23 180.96,392.23 200.11,375.73 	"/>
	<polygon class="st1" points="238.4,375.73 200.11,375.73 180.96,392.23 200.11,408.72 238.4,408.72 257.55,392.23 	"/>
	<polygon class="st1" points="468.18,342.75 429.89,342.75 410.74,359.24 429.89,375.73 468.18,375.73 487.33,359.24 	"/>
	<polygon class="st1" points="353.29,342.75 315,342.75 295.85,359.24 315,375.73 353.29,375.73 372.44,359.24 	"/>
	<polygon class="st1" points="410.74,359.24 372.44,359.24 353.29,375.73 372.44,392.23 410.74,392.23 429.89,375.73 	"/>
	<polygon class="st1" points="525.63,326.25 487.33,326.25 468.18,342.75 487.33,359.24 525.63,359.24 544.78,342.75 	"/>
	<polygon class="st1" points="697.96,342.75 659.67,342.75 640.52,359.24 659.67,375.73 697.96,375.73 717.11,359.24 	"/>
	<polygon class="st1" points="583.07,342.75 544.78,342.75 525.63,359.24 544.78,375.73 583.07,375.73 602.22,359.24 	"/>
	<polygon class="st1" points="640.52,359.24 602.22,359.24 583.07,375.73 602.22,392.23 640.52,392.23 659.67,375.73 	"/>
	<polygon class="st1" points="697.96,12.88 659.67,12.88 640.52,29.37 659.67,45.87 697.96,45.87 717.11,29.37 	"/>
	<polygon class="st1" points="755.41,29.37 717.11,29.37 697.96,45.87 717.11,62.36 755.41,62.36 774.56,45.87 	"/>
	<polygon class="st1" points="640.52,29.37 602.22,29.37 583.07,45.87 602.22,62.36 640.52,62.36 659.67,45.87 	"/>
	<polygon class="st1" points="697.96,45.87 659.67,45.87 640.52,62.36 659.67,78.85 697.96,78.85 717.11,62.36 	"/>
	<polygon class="st1" points="755.41,62.36 717.11,62.36 697.96,78.85 717.11,95.35 755.41,95.35 774.56,78.85 	"/>
	<polygon class="st1" points="755.41,128.33 717.11,128.33 697.96,144.83 717.11,161.32 755.41,161.32 774.56,144.83 	"/>
</g>
</svg>
