<?xml version="1.0" encoding="utf-8"?>
<!-- Generator: Adobe Illustrator 20.0.0, SVG Export Plug-In . SVG Version: 6.00 Build 0)  -->
<svg version="1.1" id="Layer_1" xmlns="http://www.w3.org/2000/svg" xmlns:xlink="http://www.w3.org/1999/xlink" x="0px" y="0px"
	 viewBox="0 0 375.3 352.8" style="enable-background:new 0 0 375.3 352.8;" xml:space="preserve">
<style type="text/css">
	.st0{fill:none;stroke:#7F7F7F;stroke-width:11.659;stroke-linecap:round;stroke-linejoin:round;}
	.st1{fill:none;stroke:#7F7F7F;stroke-width:11.659;stroke-miterlimit:10;}
</style>
<title>Asset 6</title>
<g id="Layer_2">
	<g id="Layer_1-2">
		<path class="st0" d="M134.8,17.3c31.4-8.7,65.2-15.2,97.7-9c28.9,5.6,70.7,28.2,83.3,56.6c0.3,0.7-12,17.8-11.5,23.7
			c0.9,8.8,10.2,18.4,18.4,21.1c9.9,3.3,19.7-3.3,29.5-0.7c12,3.1,23.6,18.7,13.3,29l-50.8,50.8L293.5,174
			c-9.7-6.8,1.6-31.1-2.3-40.3c-2.8-6.2-8.6-10.6-15.4-11.4c-11.9-1.4-25.3,10.1-32,18.9l-33.9-35.2c7.9-10.3,25.6-26.1,14.7-42.2
			C210.8,43.2,160.9,10,134.8,17.3z"/>
		<polyline class="st0" points="105.1,212.4 5.8,312.8 39,346.9 157.8,227.7 		"/>
		<polyline class="st0" points="200.8,115.5 210.5,105.3 243.8,141.1 220.5,166.5 		"/>
		<path class="st0" d="M157.1,190.3l151.6,151.6l19.6-19.6L177.5,171.5C177.5,171.5,157.1,191.9,157.1,190.3z"/>
		<line class="st1" x1="281.5" y1="313.1" x2="299.5" y2="295.1"/>
		<path class="st0" d="M177.5,171.5l16.1-16.1c0,0-4.2-11.6-9-12.2s-9.5,5.3-22.8,0s-15.3-22.8-12.2-28.6L65,30.4
			c0,0-8.5-9.5-25.4,3.2S11,60.6,11,62.7S8.9,74.4,23.2,88.7L96,161.4c0,0,19.3-6.1,28.8,5.6s7.9,28.1,4.8,31.8l7.7,7.7
			c0,0,5.6-2.9,19.8-16.1S177.5,171.5,177.5,171.5z"/>
	</g>
</g>
</svg>
