<svg id="Layer_1" data-name="Layer 1" xmlns="http://www.w3.org/2000/svg" viewBox="0 0 720 720"><title>moda_cad</title><path d="M285.5,482.5,264.31,445.757h13.212l14.708,26.075,15.456-26.075H321L298.811,482.5l23.284,40.235H309.082L292.03,493.271l-17.55,29.466H261.317Z" fill="#7f7f7f"/><path d="M578.831,508.627,553.7,464.9h13.361l17.6,30.762L602.314,464.9h13.362l-25.229,43.726v33.255H578.831Z" fill="#7f7f7f"/><path d="M447.384,273.106l36.943.342-.1,10.918-56.038-.519,38.4-65.709-31.607-.293.1-10.918,50.7.47Z" fill="#7f7f7f"/><line x1="107.58" y1="554.005" x2="512.826" y2="543.797" fill="#7f7f7f" stroke="#7f7f7f" stroke-miterlimit="10" stroke-width="3"/><line x1="629.613" y1="603.786" x2="510.911" y2="542.52" fill="#7f7f7f" stroke="#7f7f7f" stroke-miterlimit="10" stroke-width="3"/><line x1="513.465" y1="111.109" x2="512.189" y2="544.436" fill="#7f7f7f" stroke="#7f7f7f" stroke-miterlimit="10" stroke-width="3"/><polygon points="494.334 133.976 512.826 101.947 531.318 133.976 494.334 133.976" fill="#7f7f7f"/><polygon points="608.312 612.1 626.804 580.071 645.297 612.1 608.312 612.1" fill="#7f7f7f"/><polygon points="91.312 553.369 123.342 534.877 123.342 571.862 91.312 553.369" fill="#7f7f7f"/><polygon points="679.735 165.452 517.411 76.009 53.629 92.572 53.629 566.293 215.953 655.737 679.735 639.173 679.735 165.452" fill="none" stroke="#7f7f7f" stroke-miterlimit="10" stroke-width="20"/><polyline points="678.079 167.109 220.922 183.672 55.285 94.229" fill="none" stroke="#7f7f7f" stroke-miterlimit="10" stroke-width="20"/><line x1="217.609" y1="657.393" x2="220.922" y2="183.672" fill="none" stroke="#7f7f7f" stroke-miterlimit="10" stroke-width="20"/></svg>