<?xml version="1.0" encoding="utf-8"?>
<!-- Generator: Adobe Illustrator 22.0.0, SVG Export Plug-In . SVG Version: 6.00 Build 0)  -->
<svg version="1.1" id="Layer_1" xmlns="http://www.w3.org/2000/svg" xmlns:xlink="http://www.w3.org/1999/xlink" x="0px" y="0px"
	 viewBox="0 0 215.3 327.3" style="enable-background:new 0 0 215.3 327.3;" xml:space="preserve">
<style type="text/css">
	.st0{fill:#FFFFFF;}
	.st1{fill:none;stroke:#7F7F7F;stroke-width:13.071;stroke-miterlimit:10;}
	.st2{fill:none;stroke:#7F7F7F;stroke-width:13.071;stroke-linejoin:round;}
	.st3{fill:none;stroke:#7F7F7F;stroke-width:13.071;stroke-linecap:round;stroke-miterlimit:10;}
</style>
<title>Asset 4</title>
<g>
	<path class="st0" d="M32.2,6.5C18.1,6.6,6.7,18,6.6,32.1v263c0,14.1,11.5,25.5,25.6,25.6h151c14.1,0,25.5-11.5,25.6-25.6V51.4
		L163.9,6.5H32.2z"/>
	<path class="st1" d="M32.2,6.5C18.1,6.6,6.7,18,6.6,32.1v263c0,14.1,11.5,25.5,25.6,25.6h151c14.1,0,25.5-11.5,25.6-25.6V51.4
		L163.9,6.5H32.2z"/>
	<path class="st2" d="M188.9,52.7h19.7L162.9,6.6v19.8C162.8,40.8,174.5,52.6,188.9,52.7z"/>
	<line class="st3" x1="51.1" y1="118.9" x2="163.1" y2="118.9"/>
	<line class="st3" x1="51.1" y1="141.6" x2="163.1" y2="141.6"/>
	<line class="st3" x1="51.1" y1="163.4" x2="163.1" y2="163.4"/>
	<line class="st3" x1="51.1" y1="186" x2="163.1" y2="186"/>
	<line class="st3" x1="51.1" y1="207" x2="163.1" y2="207"/>
	<line class="st3" x1="51.1" y1="229.6" x2="163.1" y2="229.6"/>
</g>
</svg>
