<?xml version="1.0" encoding="utf-8"?>
<!-- Generator: Adobe Illustrator 21.0.2, SVG Export Plug-In . SVG Version: 6.00 Build 0)  -->
<svg version="1.1" id="Layer_1" xmlns="http://www.w3.org/2000/svg" xmlns:xlink="http://www.w3.org/1999/xlink" x="0px" y="0px"
	 viewBox="0 0 375.3 352.8" style="enable-background:new 0 0 375.3 352.8;" xml:space="preserve">
<style type="text/css">
	.st0{fill:#FFFFFF;}
	.st1{fill:#7F7F7F;}
</style>
<g>
	<title>Asset 6</title>
	<g>
		<g>
			<path class="st0" d="M188.3,335.6c-183.2-60.8-131-299-131-299s123.3-19.1,129.9-20.2c6.6,1,129.9,20.2,129.9,20.2
				s55,238.4-128.6,299.1C188.5,335.6,188.4,335.6,188.3,335.6z"/>
			<path class="st1" d="M188.6,342l-2.2-0.7c-43.1-14.3-77-39.4-100.8-74.7C66.6,238.5,54,204,48.2,164.1
				c-9.9-67.5,2.7-126.4,3.3-128.8l0.9-4l134.9-21l134.8,20.9l0.9,4c0.6,2.5,13.9,61.4,4.6,128.9c-5.5,39.9-17.8,74.4-36.5,102.5
				c-23.6,35.3-57.5,60.4-100.6,74.7L188.6,342z M62.4,41.9c-2.6,14.3-10.5,65.3-2.3,120.9c5.6,38,17.6,70.7,35.5,97.3
				c22,32.5,53.3,55.8,93,69.3c39.6-13.5,70.7-36.8,92.4-69.2c17.8-26.5,29.4-59.2,34.7-97.3c7.7-55.7-0.8-106.7-3.6-121L187.2,22.5
				L62.4,41.9z"/>
		</g>
		<g>
			<path class="st1" d="M188.6,336.9l-0.6-0.2c-42-14-75.1-38.5-98.4-72.8C71,236.4,58.7,202.6,53,163.4
				c-9.8-66.6,3.1-126.5,3.2-127.1l0.2-0.8l130.9-20.3l0.2,0l130.7,20.3l0.2,0.8c0.1,0.6,13.7,60.6,4.6,127.2
				c-5.4,39.2-17.4,73-35.8,100.5c-23,34.4-56,58.9-98.1,72.8L188.6,336.9z M58.3,37.6c-1.5,7.3-12.1,63.5-3,125.5
				c5.7,38.8,17.9,72.2,36.3,99.4c22.9,33.9,55.6,58.1,97,71.8c41.4-13.8,73.9-37.9,96.5-71.7c18.2-27.2,30.1-60.6,35.4-99.4
				c8.5-62.1-2.8-118.4-4.3-125.6l-128.9-20L58.3,37.6z"/>
			<path class="st1" d="M188.6,343.2l-2.5-0.8c-43.3-14.4-77.5-39.7-101.4-75.2C65.5,239,52.9,204.4,47,164.3
				c-9.9-67.6,3.2-128.7,3.3-129.3l1.1-4.8L187.2,9.1l1.1,0.2L323,30.2l1.1,4.7c0.1,0.6,13.9,61.7,4.7,129.4
				c-5.5,40.1-17.8,74.7-36.7,103c-23.8,35.5-57.8,60.8-101.2,75.1L188.6,343.2z M63.4,42.9c-2.7,15.1-10.2,65.1-2.2,119.4
				c5.6,37.9,17.4,70.5,35.3,96.9c21.8,32.2,52.8,55.4,92.1,68.9c39.2-13.4,70-36.5,91.5-68.7c17.7-26.4,29.3-59,34.5-96.9
				C322,108.1,314,58,311.1,42.9L187.2,23.7L63.4,42.9z"/>
		</g>
	</g>
	<g>
		<path class="st1" d="M277,91.9l-0.4-3.5h-23.8c-0.2-8.7-0.7-14.1-0.8-14.2l-0.1-1.1l-124.2,1l-4.6,0l-0.1,1.1
			c0,0.1-0.4,5.1-0.5,13.2h-23l-0.4,3.5c-0.1,0.7-1.9,17.5,3,37.5c6.3,25.2,20.7,44.2,41.8,55c8,13,18,22.9,29.9,29.4l0.5,22.1h-11
			c-3,0-5.4,2.4-5.4,5.4v14.1h-13.8c-3,0-5.4,2.4-5.4,5.4l-0.2,12.8h100V261c0-3-2.4-5.4-5.4-5.4h-13.8v-14.1c0-3-2.4-5.4-5.4-5.4
			h-10.7l0-22.8c11.5-6.5,21.2-16.1,28.9-28.7c21.2-10.8,35.7-29.8,41.9-55.1C279,109.4,277.1,92.6,277,91.9z M109.8,127.8
			c-3.4-13.5-3.4-25.7-3.2-31.5h15.9c0.2,10,1,22.7,3.3,36.1c2.4,14.4,6.2,27.2,11.1,38.4C123.5,160.8,114.4,146.3,109.8,127.8z
			 M266.4,127.5c-4.7,18.8-13.8,33.3-27.3,43.4c5-11.5,8.7-24.8,11.1-39.7c2-12.9,2.7-25.1,2.7-34.9h16.6
			C269.7,102,269.7,114,266.4,127.5z"/>
	</g>
</g>
</svg>
