<svg xmlns="http://www.w3.org/2000/svg" xmlns:xlink="http://www.w3.org/1999/xlink" viewBox="0 0 144.395 144.395">
  <defs>
    <style>
      .cls-1 {
        fill: url(#linear-gradient);
      }

      .cls-2 {
        fill: url(#linear-gradient-2);
      }

      .cls-3 {
        fill: url(#linear-gradient-3);
      }

      .cls-4 {
        fill: url(#linear-gradient-4);
      }

      .cls-5 {
        fill: url(#linear-gradient-5);
      }

      .cls-6 {
        fill: url(#linear-gradient-6);
      }

      .cls-7 {
        fill: url(#linear-gradient-7);
      }

      .cls-8 {
        fill: url(#linear-gradient-8);
      }

      .cls-9 {
        fill: url(#linear-gradient-9);
      }

      .cls-10 {
        fill: url(#linear-gradient-10);
      }

      .cls-11 {
        fill: url(#linear-gradient-11);
      }

      .cls-12 {
        fill: url(#linear-gradient-12);
      }

      .cls-13 {
        fill: url(#linear-gradient-13);
      }

      .cls-14 {
        fill: url(#linear-gradient-14);
      }

      .cls-15 {
        fill: url(#linear-gradient-15);
      }

      .cls-16 {
        fill: url(#linear-gradient-16);
      }

      .cls-17 {
        fill: url(#linear-gradient-17);
      }

      .cls-18 {
        fill: url(#linear-gradient-18);
      }

      .cls-19 {
        fill: url(#linear-gradient-19);
      }

      .cls-20 {
        fill: url(#linear-gradient-20);
      }

      .cls-21 {
        fill: url(#linear-gradient-21);
      }

      .cls-22 {
        fill: url(#linear-gradient-22);
      }

      .cls-23 {
        fill: url(#linear-gradient-23);
      }

      .cls-24 {
        fill: url(#linear-gradient-24);
      }

      .cls-25 {
        fill: url(#linear-gradient-25);
      }

      .cls-26 {
        fill: url(#linear-gradient-26);
      }

      .cls-27 {
        fill: url(#linear-gradient-27);
      }

      .cls-28 {
        fill: url(#linear-gradient-28);
      }

      .cls-29 {
        fill: url(#linear-gradient-29);
      }

      .cls-30 {
        fill: url(#linear-gradient-30);
      }

      .cls-31 {
        fill: url(#linear-gradient-31);
      }

      .cls-32 {
        fill: url(#linear-gradient-32);
      }

      .cls-33 {
        fill: url(#linear-gradient-33);
      }

      .cls-34 {
        fill: url(#linear-gradient-34);
      }

      .cls-35 {
        fill: url(#linear-gradient-35);
      }

      .cls-36 {
        fill: url(#linear-gradient-36);
      }
    </style>
    <linearGradient id="linear-gradient" x1="5.459" y1="-26.362" x2="5.459" y2="9.641" gradientUnits="objectBoundingBox">
      <stop offset="0" stop-color="#fff"/>
      <stop offset="0.5" stop-color="gray"/>
      <stop offset="0.813"/>
    </linearGradient>
    <linearGradient id="linear-gradient-2" x1="7.216" y1="-20.289" x2="7.216" y2="5.001" xlink:href="#linear-gradient"/>
    <linearGradient id="linear-gradient-3" x1="9.624" y1="-17.282" x2="9.624" y2="2.659" xlink:href="#linear-gradient"/>
    <linearGradient id="linear-gradient-4" x1="12.97" y1="-15.546" x2="12.97" y2="1.286" xlink:href="#linear-gradient"/>
    <linearGradient id="linear-gradient-5" x1="17.961" y1="-14.598" x2="17.961" y2="0.43" xlink:href="#linear-gradient"/>
    <linearGradient id="linear-gradient-6" x1="26.383" y1="-14.017" x2="26.383" y2="-0.117" xlink:href="#linear-gradient"/>
    <linearGradient id="linear-gradient-7" x1="42.68" y1="-13.742" x2="42.68" y2="-0.448" xlink:href="#linear-gradient"/>
    <linearGradient id="linear-gradient-8" x1="92.218" y1="-13.807" x2="92.218" y2="-0.615" xlink:href="#linear-gradient"/>
    <linearGradient id="linear-gradient-9" x1="88.421" y1="-13.759" x2="88.421" y2="-0.601" xlink:href="#linear-gradient"/>
    <linearGradient id="linear-gradient-10" x1="51.246" y1="-13.779" x2="51.246" y2="-0.417" xlink:href="#linear-gradient"/>
    <linearGradient id="linear-gradient-11" x1="37.887" y1="-14.073" x2="37.887" y2="-0.062" xlink:href="#linear-gradient"/>
    <linearGradient id="linear-gradient-12" x1="30.95" y1="-14.641" x2="30.95" y2="0.518" xlink:href="#linear-gradient"/>
    <linearGradient id="linear-gradient-13" x1="26.664" y1="-15.739" x2="26.664" y2="1.428" xlink:href="#linear-gradient"/>
    <linearGradient id="linear-gradient-14" x1="23.931" y1="-17.602" x2="23.931" y2="2.89" xlink:href="#linear-gradient"/>
    <linearGradient id="linear-gradient-15" x1="21.928" y1="-20.889" x2="21.928" y2="5.428" xlink:href="#linear-gradient"/>
    <linearGradient id="linear-gradient-16" x1="20.522" y1="-27.772" x2="20.522" y2="10.631" xlink:href="#linear-gradient"/>
    <linearGradient id="linear-gradient-17" x1="19.522" y1="-48.814" x2="19.522" y2="26.322" xlink:href="#linear-gradient"/>
    <linearGradient id="linear-gradient-18" x1="18.431" y1="-38.223" x2="18.431" y2="29.107" xlink:href="#linear-gradient"/>
    <linearGradient id="linear-gradient-19" x1="17.474" y1="-17.463" x2="17.474" y2="18.792" xlink:href="#linear-gradient"/>
    <linearGradient id="linear-gradient-20" x1="16.72" y1="-10.113" x2="16.72" y2="15.177" xlink:href="#linear-gradient"/>
    <linearGradient id="linear-gradient-21" x1="16.283" y1="-6.478" x2="16.283" y2="13.462" xlink:href="#linear-gradient"/>
    <linearGradient id="linear-gradient-22" x1="16.155" y1="-4.369" x2="16.155" y2="12.519" xlink:href="#linear-gradient"/>
    <linearGradient id="linear-gradient-23" x1="16.539" y1="-3.05" x2="16.539" y2="11.934" xlink:href="#linear-gradient"/>
    <linearGradient id="linear-gradient-24" x1="17.732" y1="-2.239" x2="17.732" y2="11.66" xlink:href="#linear-gradient"/>
    <linearGradient id="linear-gradient-25" x1="20.919" y1="-1.769" x2="20.919" y2="11.558" xlink:href="#linear-gradient"/>
    <linearGradient id="linear-gradient-26" x1="31.877" y1="-1.566" x2="31.877" y2="11.592" xlink:href="#linear-gradient"/>
    <linearGradient id="linear-gradient-27" x1="21.471" y1="-1.579" x2="21.471" y2="11.579" xlink:href="#linear-gradient"/>
    <linearGradient id="linear-gradient-28" x1="8.791" y1="-1.81" x2="8.791" y2="11.552" xlink:href="#linear-gradient"/>
    <linearGradient id="linear-gradient-29" x1="4.545" y1="-2.322" x2="4.545" y2="11.69" xlink:href="#linear-gradient"/>
    <linearGradient id="linear-gradient-30" x1="2.717" y1="-3.191" x2="2.717" y2="12.012" xlink:href="#linear-gradient"/>
    <linearGradient id="linear-gradient-31" x1="1.913" y1="-4.573" x2="1.913" y2="12.593" xlink:href="#linear-gradient"/>
    <linearGradient id="linear-gradient-32" x1="1.683" y1="-6.812" x2="1.683" y2="13.599" xlink:href="#linear-gradient"/>
    <linearGradient id="linear-gradient-33" x1="1.843" y1="-10.788" x2="1.843" y2="15.529" xlink:href="#linear-gradient"/>
    <linearGradient id="linear-gradient-34" x1="2.313" y1="-18.905" x2="2.313" y2="19.498" xlink:href="#linear-gradient"/>
    <linearGradient id="linear-gradient-35" x1="3.083" y1="-43.481" x2="3.083" y2="31.656" xlink:href="#linear-gradient"/>
    <linearGradient id="linear-gradient-36" x1="4.126" y1="-44.366" x2="4.126" y2="22.964" xlink:href="#linear-gradient"/>
  </defs>
  <g id="sync-dimming" transform="translate(-32.4 -32.699)">
    <g id="Group_2698" data-name="Group 2698" transform="translate(32.4 32.7)">
      <path id="Path_455" data-name="Path 455" class="cls-1" d="M505.3,351.655l.278-1.055,10.492,2.942-.305,1.055Z" transform="translate(-374.035 -262.359)"/>
      <path id="Path_456" data-name="Path 456" class="cls-2" d="M491.3,387.872l.472-.972,9.826,4.691-.472,1Z" transform="translate(-363.921 -288.583)"/>
      <path id="Path_457" data-name="Path 457" class="cls-3" d="M471.4,421.188l.638-.888,8.827,6.329-.638.888Z" transform="translate(-349.545 -312.712)"/>
      <path id="Path_458" data-name="Path 458" class="cls-4" d="M446,450.577l.777-.777,7.606,7.772-.777.777Z" transform="translate(-331.195 -334.024)"/>
      <path id="Path_459" data-name="Path 459" class="cls-5" d="M415.9,475.211l.888-.611,6.162,8.966-.916.611Z" transform="translate(-309.45 -351.94)"/>
      <path id="Path_460" data-name="Path 460" class="cls-6" d="M382.1,494.244l1-.444,4.469,9.909-.971.444Z" transform="translate(-285.032 -365.81)"/>
      <path id="Path_461" data-name="Path 461" class="cls-7" d="M345.5,507.178l1.055-.278,2.72,10.548-1.055.278Z" transform="translate(-258.591 -375.274)"/>
      <path id="Path_462" data-name="Path 462" class="cls-8" d="M307.4,513.683l1.083-.083.833,10.825-1.083.083Z" transform="translate(-231.067 -380.114)"/>
      <path id="Path_463" data-name="Path 463" class="cls-9" d="M265.983,513.1l1.083.111-1.083,10.825-1.083-.111Z" transform="translate(-200.364 -379.753)"/>
      <path id="Path_464" data-name="Path 464" class="cls-10" d="M223.242,505.6l1.055.305-2.942,10.465-1.055-.278Z" transform="translate(-168.144 -374.335)"/>
      <path id="Path_465" data-name="Path 465" class="cls-11" d="M182.619,491.7l.971.472-4.691,9.8-1-.472Z" transform="translate(-137.513 -364.293)"/>
      <path id="Path_466" data-name="Path 466" class="cls-12" d="M145.329,471.7l.888.638-6.329,8.855-.888-.638Z" transform="translate(-109.411 -349.845)"/>
      <path id="Path_467" data-name="Path 467" class="cls-13" d="M112.472,446.3l.777.777-7.772,7.606-.777-.777Z" transform="translate(-84.631 -331.495)"/>
      <path id="Path_468" data-name="Path 468" class="cls-14" d="M85.166,416.3l.611.888-8.966,6.134-.611-.888Z" transform="translate(-64.042 -309.822)"/>
      <path id="Path_469" data-name="Path 469" class="cls-15" d="M64.109,382.5l.444.972-9.909,4.5-.444-1Z" transform="translate(-48.149 -285.404)"/>
      <path id="Path_470" data-name="Path 470" class="cls-16" d="M49.948,345.9l.25,1.055-10.52,2.692-.278-1.055Z" transform="translate(-37.457 -258.964)"/>
      <path id="Path_471" data-name="Path 471" class="cls-17" d="M43.225,307.8l.083,1.083-10.825.833L32.4,308.6Z" transform="translate(-32.4 -231.439)"/>
      <path id="Path_472" data-name="Path 472" class="cls-18" d="M43.736,266.355l-.111,1.083L32.8,266.383l.111-1.083Z" transform="translate(-32.689 -200.736)"/>
      <path id="Path_473" data-name="Path 473" class="cls-19" d="M51.642,223.642l-.278,1.027L40.9,221.755l.278-1.055Z" transform="translate(-38.541 -168.516)"/>
      <path id="Path_474" data-name="Path 474" class="cls-20" d="M66.87,182.991l-.472,1-9.8-4.719.444-.972Z" transform="translate(-49.883 -137.885)"/>
      <path id="Path_475" data-name="Path 475" class="cls-21" d="M88.865,145.729l-.611.888L79.4,140.26l.638-.86Z" transform="translate(-66.354 -109.783)"/>
      <path id="Path_476" data-name="Path 476" class="cls-22" d="M117.083,112.872l-.777.749-7.606-7.772.777-.749Z" transform="translate(-87.521 -85.004)"/>
      <path id="Path_477" data-name="Path 477" class="cls-23" d="M150.723,85.493l-.888.611L143.7,77.111l.888-.611Z" transform="translate(-112.806 -64.342)"/>
      <path id="Path_478" data-name="Path 478" class="cls-24" d="M188.568,64.409l-.972.444-4.5-9.882,1-.472Z" transform="translate(-141.269 -48.449)"/>
      <path id="Path_479" data-name="Path 479" class="cls-25" d="M229.647,50.32l-1.055.278L225.9,40.078l1.055-.278Z" transform="translate(-172.189 -37.829)"/>
      <path id="Path_480" data-name="Path 480" class="cls-26" d="M272.515,43.553l-1.083.083L270.6,32.783l1.082-.083Z" transform="translate(-204.482 -32.7)"/>
      <path id="Path_481" data-name="Path 481" class="cls-27" d="M313.283,44.136l-1.083-.111L313.283,33.2l1.083.111Z" transform="translate(-234.535 -33.061)"/>
      <path id="Path_482" data-name="Path 482" class="cls-28" d="M351.327,51.97l-1.027-.278L353.215,41.2l1.055.305Z" transform="translate(-262.059 -38.841)"/>
      <path id="Path_483" data-name="Path 483" class="cls-29" d="M387.472,67.17,386.5,66.7l4.719-9.8.972.472Z" transform="translate(-288.211 -50.183)"/>
      <path id="Path_484" data-name="Path 484" class="cls-30" d="M420.788,89.265l-.888-.638,6.329-8.827.888.638Z" transform="translate(-312.34 -66.726)"/>
      <path id="Path_485" data-name="Path 485" class="cls-31" d="M450.177,117.483l-.777-.777,7.8-7.606.75.777Z" transform="translate(-333.651 -87.893)"/>
      <path id="Path_486" data-name="Path 486" class="cls-32" d="M474.811,151.05l-.611-.916L483.166,144l.638.916Z" transform="translate(-351.567 -113.106)"/>
      <path id="Path_487" data-name="Path 487" class="cls-33" d="M493.872,188.968l-.472-1,9.909-4.469.444.972Z" transform="translate(-365.438 -141.642)"/>
      <path id="Path_488" data-name="Path 488" class="cls-34" d="M506.85,229.947l-.25-1.055,10.52-2.692.278,1.055Z" transform="translate(-374.974 -172.489)"/>
      <path id="Path_489" data-name="Path 489" class="cls-35" d="M513.283,272.915l-.083-1.083L524.053,271l.083,1.083Z" transform="translate(-379.742 -204.854)"/>
      <path id="Path_490" data-name="Path 490" class="cls-36" d="M512.7,313.683l.111-1.082,10.825,1.055-.111,1.083Z" transform="translate(-379.381 -234.907)"/>
    </g>
    <g id="Group_2699" data-name="Group 2699" transform="translate(62.683 81.525)">
      <path id="Path_491" data-name="Path 491" d="M241.2,215.639a7.805,7.805,0,0,1,1.638-5.191,4.491,4.491,0,0,1,3.581-1.749A4.57,4.57,0,0,1,250,210.449a9.355,9.355,0,0,1,0,10.576,4.54,4.54,0,0,1-7.161,0A8.207,8.207,0,0,1,241.2,215.639Zm2.193.028a7.379,7.379,0,0,0,.861,3.775,2.543,2.543,0,0,0,2.165,1.471,2.479,2.479,0,0,0,2.165-1.471,7.126,7.126,0,0,0,.861-3.692,7.3,7.3,0,0,0-.861-3.719,2.329,2.329,0,0,0-4.33,0A6.849,6.849,0,0,0,243.393,215.667Z" transform="translate(-213.526 -208.672)"/>
      <path id="Path_492" data-name="Path 492" d="M284.5,211.875a2.923,2.923,0,0,1,1.055-2.221,3.815,3.815,0,0,1,5.024,0,2.953,2.953,0,0,1,0,4.524,3.637,3.637,0,0,1-2.554.944,3.573,3.573,0,0,1-2.5-.972A3.06,3.06,0,0,1,284.5,211.875Zm1.693.028a1.642,1.642,0,0,0,.555,1.249,1.96,1.96,0,0,0,1.36.5,1.891,1.891,0,0,0,1.332-.5,1.652,1.652,0,0,0,0-2.47,1.939,1.939,0,0,0-1.332-.5,1.891,1.891,0,0,0-1.332.5A1.518,1.518,0,0,0,286.193,211.9Zm10.3-3.3,1.055.555L289.052,222.7,288,222.118Zm-2.609,10.742a2.923,2.923,0,0,1,1.055-2.221,3.815,3.815,0,0,1,5.024,0,2.953,2.953,0,0,1,0,4.524,3.766,3.766,0,0,1-2.554.944,3.549,3.549,0,0,1-2.5-.944A3.119,3.119,0,0,1,293.882,219.342Zm1.693.028a1.642,1.642,0,0,0,.555,1.249,1.959,1.959,0,0,0,1.36.5,1.891,1.891,0,0,0,1.332-.5,1.641,1.641,0,0,0,.555-1.249,1.731,1.731,0,0,0-.555-1.249,2.026,2.026,0,0,0-2.665,0A1.608,1.608,0,0,0,295.575,219.37Z" transform="translate(-244.807 -208.6)"/>
      <path id="Path_493" data-name="Path 493" d="M147.634,283.5l-1.221.666a1.97,1.97,0,0,0-.638-.694,1.543,1.543,0,0,0-.833-.194,1.574,1.574,0,0,0-1.027.333.975.975,0,0,0-.416.8q0,.666,1.083,1.083l.971.361a4.3,4.3,0,0,1,1.749,1.082,2.338,2.338,0,0,1,.555,1.582,2.7,2.7,0,0,1-.916,2.082,3.579,3.579,0,0,1-4.413.139,3.166,3.166,0,0,1-1.027-1.971l1.5-.305a2.149,2.149,0,0,0,.361,1.11,1.593,1.593,0,0,0,1.332.583,1.667,1.667,0,0,0,1.166-.416,1.406,1.406,0,0,0,.472-1.083,1.572,1.572,0,0,0-.083-.5,1.657,1.657,0,0,0-.25-.416,2.074,2.074,0,0,0-.444-.361,3.411,3.411,0,0,0-.638-.305l-.944-.361c-1.36-.527-2.026-1.3-2.026-2.3a2.1,2.1,0,0,1,.86-1.721,3.169,3.169,0,0,1,2.11-.694A2.978,2.978,0,0,1,147.634,283.5Z" transform="translate(-141.5 -261.623)"/>
      <path id="Path_494" data-name="Path 494" d="M169.7,299.263l-2.8-4.663h1.665l1.915,3.3,1.776-3.3h1.638l-4.969,8.855h-1.638Z" transform="translate(-159.85 -270.729)"/>
      <path id="Path_495" data-name="Path 495" d="M195.528,294.167h1.443v.527a2.419,2.419,0,0,1,1.693-.694,2.281,2.281,0,0,1,1.693.638,2.4,2.4,0,0,1,.527,1.749v3.525h-1.443V296.72a2.015,2.015,0,0,0-.25-1.166,1.081,1.081,0,0,0-.916-.333,1.166,1.166,0,0,0-1.027.444,2.746,2.746,0,0,0-.305,1.5v2.776H195.5v-5.774Z" transform="translate(-180.511 -270.295)"/>
      <path id="Path_496" data-name="Path 496" d="M225.635,294.48v1.749a3.34,3.34,0,0,0-.888-.749,1.862,1.862,0,0,0-.916-.222,1.819,1.819,0,0,0-1.36.527,1.737,1.737,0,0,0-.527,1.3,1.8,1.8,0,0,0,.527,1.332,1.914,1.914,0,0,0,1.332.527,2.011,2.011,0,0,0,.916-.194,3.982,3.982,0,0,0,.916-.777v1.749a4.037,4.037,0,0,1-1.749.416,3.435,3.435,0,0,1-2.415-.86,2.812,2.812,0,0,1-.972-2.137,2.763,2.763,0,0,1,1-2.165,3.552,3.552,0,0,1,2.415-.888A3.471,3.471,0,0,1,225.635,294.48Z" transform="translate(-198.572 -270.358)"/>
      <path id="Path_497" data-name="Path 497" d="M245.128,279.4h1.443v4.691a2.626,2.626,0,0,1,1.693-.638,2.326,2.326,0,0,1,1.693.638,2.4,2.4,0,0,1,.527,1.749v3.525h-1.443v-3.414a1.389,1.389,0,0,0-.278-1,1.114,1.114,0,0,0-.86-.305,1.212,1.212,0,0,0-1.055.416,2.746,2.746,0,0,0-.305,1.5v2.776H245.1V279.4Z" transform="translate(-216.343 -259.748)"/>
      <path id="Path_498" data-name="Path 498" d="M271.1,294.167h1.443v.5a4.158,4.158,0,0,1,.694-.527,1.575,1.575,0,0,1,.749-.139,2.511,2.511,0,0,1,1.194.333l-.666,1.221a1.346,1.346,0,0,0-.8-.278c-.777,0-1.166.555-1.166,1.638v2.97H271.1Z" transform="translate(-235.126 -270.295)"/>
      <path id="Path_499" data-name="Path 499" d="M287.3,297.07a2.755,2.755,0,0,1,.971-2.11,3.344,3.344,0,0,1,2.359-.861,3.413,3.413,0,0,1,2.359.888,2.9,2.9,0,0,1,0,4.33,3.412,3.412,0,0,1-2.387.861,3.365,3.365,0,0,1-2.359-.888A2.96,2.96,0,0,1,287.3,297.07Zm1.471.028a1.824,1.824,0,0,0,.5,1.36,1.867,1.867,0,0,0,1.36.5,1.912,1.912,0,0,0,1.36-.5,1.7,1.7,0,0,0,.5-1.332,1.8,1.8,0,0,0-.5-1.332,1.867,1.867,0,0,0-1.36-.5,1.8,1.8,0,0,0-1.332.5A1.656,1.656,0,0,0,288.771,297.1Z" transform="translate(-246.83 -270.367)"/>
      <path id="Path_500" data-name="Path 500" d="M316.628,294.167h1.443v.527a2.419,2.419,0,0,1,1.693-.694,2.281,2.281,0,0,1,1.693.638,2.4,2.4,0,0,1,.527,1.749v3.525h-1.443V296.72a2.015,2.015,0,0,0-.25-1.166,1.081,1.081,0,0,0-.916-.333,1.166,1.166,0,0,0-1.027.444,2.746,2.746,0,0,0-.305,1.5v2.776H316.6v-5.774Z" transform="translate(-267.997 -270.295)"/>
      <path id="Path_501" data-name="Path 501" d="M341.8,283.761a.787.787,0,0,1,.278-.611,1.013,1.013,0,0,1,1.332,0,.811.811,0,0,1,0,1.221.9.9,0,0,1-.666.25,1,1,0,0,1-.666-.25A.841.841,0,0,1,341.8,283.761Zm1.665,2.387v5.746h-1.443v-5.746Z" transform="translate(-286.202 -262.276)"/>
      <path id="Path_502" data-name="Path 502" d="M354.359,299.1h3.692v1.249H351.5l4.025-4.5h-3.192V294.6h6.023Z" transform="translate(-293.209 -270.729)"/>
      <path id="Path_503" data-name="Path 503" d="M384.968,297.4H380.5a1.663,1.663,0,0,0,.5,1.138,1.6,1.6,0,0,0,1.138.416,1.681,1.681,0,0,0,.888-.222,3.5,3.5,0,0,0,.777-.86l1.221.611a4.407,4.407,0,0,1-.583.75,3.692,3.692,0,0,1-.666.527,3.77,3.77,0,0,1-.777.305,4.679,4.679,0,0,1-.916.083,3.082,3.082,0,0,1-2.248-.833,3.1,3.1,0,0,1,4.358-4.413,3.024,3.024,0,0,1,.8,2.221Zm-1.471-1.083a1.366,1.366,0,0,0-1.443-1.055,1.572,1.572,0,0,0-.5.083,1,1,0,0,0-.416.222,3.763,3.763,0,0,0-.333.333,1.275,1.275,0,0,0-.194.444H383.5Z" transform="translate(-313.076 -270.367)"/>
      <path id="Path_504" data-name="Path 504" d="M409.985,279.4h1.443v9.937h-1.443v-.611a2.917,2.917,0,0,1-4.053-.083,3.039,3.039,0,0,1-.833-2.193,2.908,2.908,0,0,1,.833-2.137,2.744,2.744,0,0,1,2.082-.86,2.8,2.8,0,0,1,1.971.833Zm-3.414,7.078a1.9,1.9,0,0,0,.472,1.332,1.617,1.617,0,0,0,1.249.527,1.779,1.779,0,0,0,1.3-.5,2.026,2.026,0,0,0,0-2.665,1.715,1.715,0,0,0-1.277-.5,1.617,1.617,0,0,0-1.249.527A1.714,1.714,0,0,0,406.571,286.478Z" transform="translate(-331.931 -259.748)"/>
      <path id="Path_505" data-name="Path 505" d="M203.4,348.277V339.2h2.082a7.713,7.713,0,0,1,2.359.278,4.736,4.736,0,0,1,1.693.888,4.466,4.466,0,0,1-.056,6.773,4.429,4.429,0,0,1-1.665.888,8.492,8.492,0,0,1-2.332.25ZM204.9,347h.666a5.711,5.711,0,0,0,1.665-.194,3.382,3.382,0,0,0,1.194-.666,3.208,3.208,0,0,0,.028-4.83,4.367,4.367,0,0,0-2.887-.833H204.9Z" transform="translate(-186.218 -302.949)"/>
      <path id="Path_506" data-name="Path 506" d="M235.9,340.461a.787.787,0,0,1,.278-.611,1.013,1.013,0,0,1,1.332,0,.811.811,0,0,1,0,1.221.9.9,0,0,1-.666.25.946.946,0,0,1-.666-.25A.787.787,0,0,1,235.9,340.461Zm1.665,2.359v5.746h-1.443V342.82Z" transform="translate(-209.697 -303.238)"/>
      <path id="Path_507" data-name="Path 507" d="M248.356,350.767H249.8v.527a3.352,3.352,0,0,1,.722-.555,1.694,1.694,0,0,1,.777-.139,1.936,1.936,0,0,1,1.665.861,2.24,2.24,0,0,1,1.832-.861c1.416,0,2.11.777,2.11,2.359v3.553h-1.471V353.32a2.318,2.318,0,0,0-.222-1.166.828.828,0,0,0-.75-.361.941.941,0,0,0-.86.416,2.383,2.383,0,0,0-.278,1.332v2.97h-1.443v-3.164c0-1.027-.333-1.527-.971-1.527a.99.99,0,0,0-.888.416,2.383,2.383,0,0,0-.278,1.332v2.97H248.3v-5.774Z" transform="translate(-218.655 -311.184)"/>
      <path id="Path_508" data-name="Path 508" d="M285.728,350.767h1.443v.527a3.351,3.351,0,0,1,.722-.555,1.694,1.694,0,0,1,.777-.139,1.936,1.936,0,0,1,1.665.861,2.24,2.24,0,0,1,1.832-.861c1.416,0,2.11.777,2.11,2.359v3.553h-1.443V353.32a2.318,2.318,0,0,0-.222-1.166.828.828,0,0,0-.749-.361.941.941,0,0,0-.86.416,2.383,2.383,0,0,0-.278,1.332v2.97h-1.443v-3.164c0-1.027-.333-1.527-.971-1.527a.99.99,0,0,0-.888.416,2.383,2.383,0,0,0-.278,1.332v2.97H285.7v-5.774Z" transform="translate(-245.674 -311.184)"/>
      <path id="Path_509" data-name="Path 509" d="M322.4,340.461a.787.787,0,0,1,.278-.611,1.013,1.013,0,0,1,1.332,0,.811.811,0,0,1,0,1.221.9.9,0,0,1-.666.25,1,1,0,0,1-.666-.25A.787.787,0,0,1,322.4,340.461Zm1.638,2.359v5.746h-1.443V342.82Z" transform="translate(-272.187 -303.238)"/>
      <path id="Path_510" data-name="Path 510" d="M334.828,350.767h1.443v.527a2.419,2.419,0,0,1,1.693-.694,2.281,2.281,0,0,1,1.693.638,2.4,2.4,0,0,1,.527,1.749v3.525h-1.443V353.32a2.015,2.015,0,0,0-.25-1.166,1.081,1.081,0,0,0-.916-.333,1.166,1.166,0,0,0-1.027.444,2.747,2.747,0,0,0-.305,1.5v2.776H334.8v-5.774Z" transform="translate(-281.145 -311.184)"/>
      <path id="Path_511" data-name="Path 511" d="M365.957,356.446a5.811,5.811,0,0,1-.028.722c-.028.222-.056.389-.083.555a2.3,2.3,0,0,1-.611,1.11,3.074,3.074,0,0,1-2.332.888,3.229,3.229,0,0,1-2.054-.611,2.43,2.43,0,0,1-.972-1.749h1.443a1.467,1.467,0,0,0,.278.666,1.581,1.581,0,0,0,1.3.527c1.055,0,1.582-.583,1.582-1.776v-.8a2.843,2.843,0,0,1-1.971.8,2.663,2.663,0,0,1-2.082-.861,2.952,2.952,0,0,1-.833-2.137,3.188,3.188,0,0,1,.749-2.137,2.813,2.813,0,0,1,2.165-.944,2.7,2.7,0,0,1,1.971.8v-.638h1.443v5.579Zm-1.388-2.72a1.8,1.8,0,0,0-.5-1.332,1.7,1.7,0,0,0-1.249-.5,1.676,1.676,0,0,0-1.3.555,1.987,1.987,0,0,0-.416,1.3,1.91,1.91,0,0,0,.416,1.277,1.636,1.636,0,0,0,1.3.555,1.676,1.676,0,0,0,1.3-.555A1.91,1.91,0,0,0,364.569,353.726Z" transform="translate(-299.061 -311.257)"/>
    </g>
  </g>
</svg>
