<?xml version="1.0" encoding="utf-8"?>
<!-- Generator: Adobe Illustrator 25.0.0, SVG Export Plug-In . SVG Version: 6.00 Build 0)  -->
<svg version="1.1" id="Layer_1" xmlns="http://www.w3.org/2000/svg" xmlns:xlink="http://www.w3.org/1999/xlink" x="0px" y="0px"
	 viewBox="0 0 88.63 9" style="enable-background:new 0 0 88.63 9;" xml:space="preserve">
<style type="text/css">
	.st0{fill:#FFFFFF;stroke:#808285;stroke-miterlimit:10;}
</style>
<g>
	<g>
		<path d="M15.83,1.87c-1.95,0-3.55,1.59-3.55,3.55c0,1.95,1.59,3.55,3.55,3.55c1.95,0,3.55-1.59,3.55-3.55
			C19.37,3.46,17.78,1.87,15.83,1.87z M15.83,8.42c-1.65,0-3-1.35-3-3c0-1.65,1.35-3,3-3c1.65,0,3,1.35,3,3
			C18.83,7.07,17.48,8.42,15.83,8.42z"/>
		<path d="M26.2,2.81c-0.65-0.57-1.47-0.94-2.4-0.94c-1.95,0-3.55,1.59-3.55,3.55c0,1.95,1.59,3.55,3.55,3.55
			c1.88,0,3.42-1.47,3.54-3.32l0.01-0.09V0.07c0-0.12-0.12-0.11-0.12-0.11h-0.3c-0.14,0-0.12,0.12-0.12,0.12l0,3.46
			c0,0,0,1.03-0.01,1.88c-0.02,1.65-1.35,3-3,3c-1.65,0-3-1.35-3-3c0-1.65,1.35-3,3-3c0.79,0,1.51,0.31,2.05,0.81
			c0,0,0.05,0.05,0.09,0c0,0,0.18-0.22,0.26-0.33C26.25,2.85,26.2,2.81,26.2,2.81z"/>
		<path d="M34.16,7.89l-0.25-0.31c-0.03-0.04-0.08,0-0.08,0c-0.54,0.51-1.26,0.82-2.05,0.82c-1.65,0-2.99-1.34-2.99-2.99
			c0-1.65,1.34-2.99,2.99-2.99c1.65,0,2.99,1.34,2.99,2.99v1.88v1.45c0,0.17,0.14,0.16,0.14,0.16h0.28c0,0,0.12,0.01,0.12-0.13V5.41
			c0-1.95-1.59-3.54-3.54-3.54c-1.95,0-3.54,1.59-3.54,3.54c0,1.95,1.59,3.54,3.54,3.54c0.92,0,1.76-0.36,2.39-0.94
			C34.21,7.97,34.16,7.89,34.16,7.89z"/>
		<path d="M10.63,2.57c-0.48-0.5-1.13-0.76-1.94-0.76c-0.81,0-1.46,0.26-1.93,0.76C6.56,2.79,6.42,3.03,6.3,3.27
			C6.2,3,6.06,2.74,5.83,2.52c-0.46-0.47-1.16-0.7-2.07-0.7c-0.83,0-1.49,0.26-1.97,0.77C0.95,3.48,1,4.84,1.01,4.97v3.82
			c0,0-0.01,0.15,0.13,0.15h0.27c0,0,0.12,0.02,0.12-0.15V4.97l0-0.02c0-0.01-0.07-1.25,0.65-2.01c0.37-0.4,0.9-0.6,1.58-0.6
			c0.77,0,1.34,0.18,1.7,0.55c0.49,0.5,0.52,1.27,0.51,1.79c-0.01,0.21-0.01,0.35,0,0.39v1.23v2.5c0,0-0.01,0.14,0.14,0.14h0.26
			c0.14,0,0.13-0.14,0.13-0.14v-2.5V5.07v-0.1c0-0.05,0-0.1,0-0.16c0-0.03,0-0.06,0-0.08c0.02-0.44,0.14-1.25,0.65-1.79
			c0.37-0.39,0.88-0.59,1.54-0.59c0.66,0,1.18,0.2,1.55,0.59c0.75,0.79,0.69,2.1,0.68,2.12l0,3.76c0,0,0.01,0.13,0.13,0.13h0.27
			c0,0,0.13,0.02,0.13-0.13V5.07C11.46,4.94,11.5,3.5,10.63,2.57z"/>
	</g>
	<g>
		<path d="M41.18,3.7c-0.51-0.46-0.94-0.49-1.13-0.49c-0.21,0-0.48,0.03-0.66,0.23c-0.1,0.1-0.17,0.25-0.17,0.43
			c0,0.16,0.05,0.28,0.15,0.38c0.16,0.15,0.39,0.21,0.85,0.39l0.51,0.19c0.29,0.11,0.66,0.26,0.92,0.52
			c0.39,0.38,0.49,0.86,0.49,1.26c0,0.7-0.24,1.31-0.6,1.67c-0.6,0.63-1.46,0.69-1.91,0.69c-0.48,0-0.91-0.07-1.33-0.28
			c-0.34-0.17-0.74-0.49-0.99-0.74l0.81-1.12c0.17,0.17,0.44,0.41,0.63,0.52c0.26,0.16,0.54,0.24,0.85,0.24
			c0.2,0,0.49-0.04,0.71-0.23c0.13-0.11,0.24-0.29,0.24-0.55c0-0.22-0.09-0.37-0.23-0.49c-0.18-0.15-0.6-0.3-0.79-0.37l-0.56-0.19
			c-0.31-0.11-0.68-0.25-0.94-0.54c-0.35-0.38-0.4-0.85-0.4-1.18c0-0.6,0.18-1.11,0.59-1.52c0.48-0.49,1.04-0.62,1.67-0.62
			c0.46,0,1.21,0.08,2,0.67L41.18,3.7z"/>
		<path d="M44.62,5.65l-2.41-3.61h1.84l1.35,2.1l1.35-2.1h1.84l-2.41,3.61v3.16h-1.55V5.65z"/>
		<path d="M49.33,8.81V2.04h1.35l3.66,4.36V2.04h1.55v6.77h-1.35l-3.66-4.38v4.38H49.33z"/>
		<path d="M61.18,3.36h-2.25v1.31h2.14v1.32h-2.14v1.5h2.25v1.32h-3.81V2.04h3.81V3.36z"/>
		<path d="M64.8,2.04c0.86,0,1.39,0.28,1.72,0.59c0.28,0.27,0.59,0.76,0.59,1.51c0,0.43-0.09,0.95-0.53,1.38
			c-0.23,0.22-0.56,0.43-0.94,0.52l2.07,2.77h-1.9L64,6.14v2.67h-1.55V2.04H64.8z M64,5.12h0.35c0.28,0,0.67-0.03,0.93-0.29
			c0.11-0.11,0.25-0.32,0.25-0.66c0-0.39-0.18-0.59-0.31-0.69c-0.25-0.19-0.66-0.21-0.86-0.21H64V5.12z"/>
		<path d="M71.81,5.12h3.34v0.07c0,0.82-0.29,2.07-1.04,2.85c-0.75,0.78-1.61,0.92-2.4,0.92c-0.81,0-1.68-0.13-2.46-0.94
			c-0.39-0.41-0.99-1.23-0.99-2.58c0-1.11,0.4-1.99,0.97-2.57c0.83-0.86,1.85-0.98,2.65-0.98c0.56,0,1.26,0.09,1.89,0.51
			c0.46,0.3,0.85,0.78,1.09,1.21l-1.4,0.76c-0.13-0.26-0.33-0.54-0.6-0.73c-0.3-0.22-0.65-0.32-1.03-0.32
			c-0.62,0-1.07,0.2-1.39,0.55c-0.37,0.4-0.58,0.97-0.58,1.6c0,0.77,0.28,1.27,0.57,1.55c0.39,0.41,0.85,0.53,1.36,0.53
			c0.67,0,1.02-0.23,1.17-0.37c0.05-0.04,0.35-0.3,0.48-0.8h-1.63V5.12z"/>
		<path d="M77.57,5.65l-2.41-3.61H77l1.35,2.1l1.35-2.1h1.84l-2.41,3.61v3.16h-1.55V5.65z"/>
	</g>
	<g>
		<path d="M83.64,2.41v1.86h-0.59V2.41h-0.51V1.89h1.61v0.51H83.64z M84.25,4.27l0.41-2.38h0.52l0.51,1.31l0.55-1.31h0.51l0.37,2.38
			h-0.59l-0.18-1.3l-0.54,1.3h-0.25l-0.53-1.3l-0.19,1.3H84.25z"/>
	</g>
</g>
</svg>
