<?xml version="1.0" encoding="utf-8"?>
<!-- Generator: Adobe Illustrator 25.0.0, SVG Export Plug-In . SVG Version: 6.00 Build 0)  -->
<svg version="1.1" id="Layer_1" xmlns="http://www.w3.org/2000/svg" xmlns:xlink="http://www.w3.org/1999/xlink" x="0px" y="0px"
	 viewBox="0 0 118.9 9" style="enable-background:new 0 0 118.9 9;" xml:space="preserve">
<style type="text/css">
	.st0{fill:#FFFFFF;stroke:#808285;stroke-miterlimit:10;}
</style>
<g>
	<g>
		<path d="M15.82,1.91c-1.95,0-3.55,1.59-3.55,3.55c0,1.95,1.59,3.55,3.55,3.55c1.95,0,3.55-1.59,3.55-3.55
			C19.37,3.5,17.78,1.91,15.82,1.91z M15.82,8.45c-1.65,0-3-1.35-3-3c0-1.65,1.35-3,3-3c1.65,0,3,1.35,3,3
			C18.82,7.11,17.48,8.45,15.82,8.45z"/>
		<path d="M26.2,2.85c-0.65-0.57-1.47-0.94-2.4-0.94c-1.95,0-3.55,1.59-3.55,3.55C20.26,7.41,21.85,9,23.8,9
			c1.88,0,3.42-1.47,3.54-3.32l0.01-0.09V0.11c0-0.12-0.12-0.11-0.12-0.11h-0.3c-0.14,0-0.12,0.12-0.12,0.12l0,3.46
			c0,0,0,1.03-0.01,1.88c-0.02,1.65-1.35,3-3,3c-1.65,0-3-1.35-3-3c0-1.65,1.35-3,3-3c0.79,0,1.51,0.31,2.05,0.81
			c0,0,0.05,0.05,0.09,0c0,0,0.18-0.22,0.26-0.33C26.25,2.89,26.2,2.85,26.2,2.85z"/>
		<path d="M34.16,7.93l-0.25-0.31c-0.03-0.04-0.08,0-0.08,0c-0.54,0.51-1.26,0.82-2.05,0.82c-1.65,0-2.99-1.34-2.99-2.99
			c0-1.65,1.34-2.99,2.99-2.99c1.65,0,2.99,1.34,2.99,2.99v1.88v1.45c0,0.17,0.14,0.16,0.14,0.16h0.28c0,0,0.12,0.01,0.12-0.13V5.45
			c0-1.95-1.59-3.54-3.54-3.54c-1.95,0-3.54,1.59-3.54,3.54c0,1.95,1.59,3.54,3.54,3.54c0.92,0,1.76-0.36,2.39-0.94
			C34.21,8,34.16,7.93,34.16,7.93z"/>
		<path d="M10.62,2.61c-0.48-0.5-1.13-0.76-1.94-0.76c-0.81,0-1.46,0.26-1.93,0.76C6.56,2.82,6.41,3.06,6.3,3.31
			C6.2,3.04,6.05,2.78,5.83,2.56c-0.46-0.47-1.16-0.7-2.07-0.7c-0.83,0-1.49,0.26-1.97,0.77C0.95,3.52,1,4.87,1,5.01v3.82
			c0,0-0.01,0.15,0.13,0.15h0.27c0,0,0.12,0.02,0.12-0.15V5l0-0.02c0-0.01-0.07-1.25,0.65-2.01c0.37-0.4,0.9-0.6,1.58-0.6
			c0.77,0,1.34,0.18,1.7,0.55c0.49,0.5,0.52,1.27,0.51,1.79c-0.01,0.21-0.01,0.35,0,0.39v1.23v2.5c0,0-0.01,0.14,0.14,0.14h0.26
			c0.14,0,0.13-0.14,0.13-0.14v-2.5V5.1V5c0-0.05,0-0.1,0-0.16c0-0.03,0-0.06,0-0.08c0.02-0.44,0.14-1.25,0.65-1.79
			c0.37-0.39,0.88-0.59,1.54-0.59c0.66,0,1.18,0.2,1.55,0.59c0.75,0.79,0.69,2.1,0.68,2.12l0,3.76c0,0,0.01,0.13,0.13,0.13h0.27
			c0,0,0.13,0.02,0.13-0.13V5.11C11.46,4.98,11.5,3.54,10.62,2.61z"/>
	</g>
	<g>
		<path d="M38.86,4.9l2.3-2.82h1.9l-2.73,3.21l2.94,3.56h-2l-2.41-3v3h-1.55V2.08h1.55V4.9z"/>
		<path d="M44.99,2.08l1.43,4.48l1.43-4.48h1.07l1.43,4.48l1.43-4.48h1.62l-2.29,6.77h-1.31L48.4,4.74l-1.41,4.11h-1.31l-2.29-6.77
			H44.99z"/>
		<path d="M55.78,2.08v6.77h-1.56V2.08H55.78z"/>
		<path d="M58.84,4.9l2.3-2.82h1.9l-2.73,3.21l2.94,3.56h-2l-2.41-3v3h-1.56V2.08h1.56V4.9z"/>
		<path d="M71.28,8.63C70.68,8.94,70.2,9,69.79,9c-1.24,0-2.08-0.43-2.65-0.98c-0.61-0.59-1.05-1.48-1.05-2.57
			c0-1.06,0.44-1.96,1.05-2.55c0.6-0.58,1.46-0.97,2.51-0.97c0.44,0,0.96,0.09,1.62,0.38v1.81c-0.34-0.37-0.86-0.72-1.58-0.72
			c-0.57,0-1.02,0.18-1.37,0.53c-0.37,0.37-0.64,0.91-0.64,1.56c0,0.7,0.28,1.2,0.59,1.49c0.14,0.14,0.63,0.57,1.45,0.57
			c0.4,0,0.95-0.11,1.55-0.7V8.63z"/>
		<path d="M78.49,2.91c0.64,0.62,1.05,1.51,1.05,2.56c0,0.9-0.32,1.83-1.05,2.54C77.86,8.61,77.01,9,75.88,9
			c-1.26,0-2.12-0.51-2.63-0.99c-0.65-0.61-1.05-1.52-1.05-2.52c0-0.97,0.43-1.96,1.04-2.57c0.46-0.46,1.29-0.99,2.64-0.99
			C76.93,1.93,77.81,2.25,78.49,2.91z M74.4,3.95c-0.29,0.28-0.6,0.78-0.6,1.53C73.8,6.1,74,6.6,74.42,7
			c0.43,0.42,0.92,0.56,1.44,0.56c0.69,0,1.17-0.25,1.5-0.58c0.26-0.25,0.59-0.73,0.59-1.51c0-0.7-0.28-1.22-0.59-1.52
			c-0.33-0.32-0.87-0.58-1.48-0.58C75.29,3.37,74.76,3.58,74.4,3.95z"/>
		<path d="M80.7,8.85V2.08h1.35l3.66,4.36V2.08h1.56v6.77h-1.35l-3.66-4.38v4.38H80.7z"/>
		<path d="M88.74,8.85V2.08h1.35l3.66,4.36V2.08h1.56v6.77h-1.35L90.3,4.47v4.38H88.74z"/>
		<path d="M100.59,3.4h-2.25v1.31h2.14v1.32h-2.14v1.5h2.25v1.32h-3.81V2.08h3.81V3.4z"/>
		<path d="M106.72,8.63c-0.6,0.3-1.08,0.37-1.48,0.37c-1.24,0-2.08-0.43-2.65-0.98c-0.61-0.59-1.05-1.48-1.05-2.57
			c0-1.06,0.44-1.96,1.05-2.55c0.6-0.58,1.46-0.97,2.51-0.97c0.44,0,0.96,0.09,1.62,0.38v1.81c-0.34-0.37-0.86-0.72-1.58-0.72
			c-0.57,0-1.02,0.18-1.37,0.53c-0.37,0.37-0.64,0.91-0.64,1.56c0,0.7,0.28,1.2,0.59,1.49c0.14,0.14,0.63,0.57,1.45,0.57
			c0.4,0,0.95-0.11,1.55-0.7V8.63z"/>
		<path d="M110.33,3.4v5.45h-1.55V3.4h-1.46V2.08h4.48V3.4H110.33z"/>
	</g>
	<g>
		<path d="M113.89,2.44v1.86h-0.59V2.44h-0.51V1.93h1.61v0.51H113.89z M114.5,4.31l0.41-2.38h0.52l0.51,1.31l0.55-1.31H117
			l0.37,2.38h-0.59l-0.18-1.3l-0.54,1.3h-0.25l-0.53-1.3l-0.19,1.3H114.5z"/>
	</g>
</g>
</svg>
