<?xml version="1.0" encoding="utf-8"?>
<!-- Generator: Adobe Illustrator 25.0.0, SVG Export Plug-In . SVG Version: 6.00 Build 0)  -->
<svg version="1.1" xmlns="http://www.w3.org/2000/svg" xmlns:xlink="http://www.w3.org/1999/xlink" x="0px" y="0px"
	 viewBox="0 0 592.66 280.13" style="enable-background:new 0 0 592.66 280.13;" xml:space="preserve">
<style type="text/css">
	.st0{display:none;}
	.st1{display:inline;}
	.st2{fill:#FFFFFF;}
	.st3{fill:none;stroke:#000000;stroke-width:2;stroke-miterlimit:10;}
	.st4{fill:#EE2330;}
	.st5{fill:none;stroke:#FFFFFF;stroke-linecap:round;stroke-linejoin:round;stroke-miterlimit:10;}
</style>
<g id="Layer_1" class="st0">
</g>
<g id="Layer_3" class="st0">
	<rect x="-6.54" y="-3.55" class="st1" width="605.74" height="287.96"/>
</g>
<g id="Layer_2">
	<g>
		<path class="st2" d="M64.81,106.55v29.23c0,1.1,0.08,1.8,0.23,2.1c0.07,0.15,0.3,0.3,0.68,0.46c1.09,0.42,3.34,0.63,6.75,0.63
			v0.57H50.12v-0.57c1.63,0,3.03-0.06,4.22-0.17c1.19-0.11,2-0.26,2.44-0.43c0.43-0.17,0.72-0.38,0.85-0.62
			c0.13-0.25,0.2-0.9,0.2-1.96v-29.23c0-1.06-0.08-1.73-0.23-1.99c-0.08-0.15-0.32-0.3-0.74-0.46c-1.1-0.42-3.34-0.62-6.75-0.62
			v-0.51h22.39v0.51c-1.63,0-3.03,0.06-4.22,0.17c-1.19,0.11-2.03,0.26-2.52,0.45l-0.57,0.23C64.94,104.56,64.81,105.3,64.81,106.55
			z"/>
		<path class="st2" d="M111.69,128.3v-15.79c0-3.45-0.59-5.81-1.76-7.1c-1.17-1.29-3.29-1.93-6.35-1.93v-0.51h16.1v0.51
			c-2.68,0-4.55,0.64-5.61,1.93s-1.59,3.65-1.59,7.1v27.25h-1.36l-22.51-29.93l-0.62-0.74c-0.11,0-0.17,0.34-0.17,1.02v18.52
			c0,4.16,0.56,6.93,1.69,8.29c1.13,1.36,3.24,2.05,6.32,2.05v0.57H79.32v-0.57c2.95,0,4.97-0.61,6.07-1.82
			c1.09-1.21,1.64-3.6,1.64-7.17v-19.34c0-2.12-0.57-3.79-1.7-5.01c-1.36-1.44-3.36-2.16-6.01-2.16v-0.51h11.73l19.56,25.51
			c0.49,0.64,0.79,0.96,0.9,0.96C111.63,129.44,111.69,129.06,111.69,128.3z"/>
		<path class="st2" d="M153.86,124.34c0,5.48-1.05,9.47-3.15,11.96c-2.1,2.49-5.13,3.74-9.1,3.74c-4.5,0-8.3-1.36-11.39-4.08
			c-3.7-3.25-5.55-7.92-5.55-14c0-5.93,1.87-10.79,5.62-14.57c3.22-3.25,6.66-4.87,10.34-4.87c1.78,0,3.33,0.32,4.66,0.96
			c1.7,0.83,3.26,2.19,4.66,4.08l2.78-5.33h0.28v16.44l-0.45-0.28c0-4.86-1.35-8.75-4.04-11.69c-2.24-2.45-4.59-3.67-7.05-3.67
			c-3.3,0-5.67,1.52-7.11,4.56c-1.44,3.04-2.16,7.61-2.16,13.72c0,6,0.78,10.54,2.33,13.61c1.55,3.08,3.92,4.61,7.1,4.61
			c3.6,0,6.37-1.06,8.3-3.17c2.31-2.49,3.47-6.5,3.47-12.02H153.86z"/>
		<path class="st2" d="M164.55,133.12c0.99,0,1.82,0.33,2.49,0.99s1,1.48,1,2.47c0,0.98-0.34,1.81-1,2.47s-1.5,0.99-2.49,0.99
			c-0.99,0-1.82-0.33-2.49-0.99c-0.67-0.66-1-1.48-1-2.47c0-0.98,0.33-1.8,1-2.47C162.73,133.45,163.56,133.12,164.55,133.12z"/>
		<path class="st4" d="M221.77,102.34c-1.13,2.46-2.33,4.24-3.6,5.36c-1.27,1.11-2.86,1.67-4.79,1.67c-1.89,0-4.48-0.6-7.77-1.81
			l-1.59,12.84c1.43-1.8,2.78-2.99,4.04-3.58c1.26-0.58,2.93-0.87,5-0.87c2.6,0,4.83,1.2,6.7,3.6c1.87,2.4,2.8,5.3,2.8,8.7
			c0,2.72-1.21,5.29-3.63,7.71c-2.72,2.72-6.08,4.08-10.09,4.08c-2.34,0-4.36-0.7-6.06-2.1c-1.85-1.51-2.78-3.46-2.78-5.84
			c0-1.44,0.34-2.51,1.03-3.23c0.69-0.72,1.52-1.08,2.52-1.08c1.41,0,2.34,0.57,2.8,1.7c0.23,0.57,0.34,1.19,0.34,1.87
			c0,0.76-0.15,1.29-0.45,1.59c-0.76,0.87-1.59,1.3-2.49,1.3c-0.23,0-0.43-0.04-0.62-0.11c-0.19-0.08-0.36-0.17-0.51-0.28
			c-0.08,0.3-0.11,0.51-0.11,0.62c0,1.17,0.57,2.27,1.7,3.29c1.32,1.17,2.96,1.76,4.9,1.76c2.31,0,4.03-1.25,5.15-3.75
			c1.01-2.23,1.51-5.36,1.51-9.38c0-3.86-0.37-6.46-1.1-7.78s-1.73-1.99-3-1.99c-2.44,0-4.5,1.03-6.18,3.08
			c-1.27,1.56-2.04,3.16-2.3,4.8l-0.74-0.11l2.82-21.88c2.07,0.83,3.77,1.44,5.09,1.81c2,0.57,3.77,0.85,5.31,0.85
			c1.28,0,2.37-0.2,3.25-0.6c0.89-0.4,1.59-1.09,2.12-2.07L221.77,102.34z"/>
		<path class="st4" d="M242.63,140.04c-3.14,0-5.88-1.68-8.22-5.05c-2.53-3.63-3.8-8.2-3.8-13.72c0-5.52,1.25-10.07,3.74-13.66
			c2.34-3.4,5.1-5.1,8.28-5.1c3.18,0,5.93,1.68,8.28,5.05c2.53,3.63,3.8,8.2,3.8,13.72c0,5.52-1.22,10.02-3.66,13.52
			C248.61,138.29,245.81,140.04,242.63,140.04z M242.63,139.53c1.51,0,2.64-1.53,3.4-4.58c0.76-3.06,1.13-7.62,1.13-13.7
			c0-5.85-0.06-9.49-0.17-10.92c-0.38-4.87-1.83-7.3-4.37-7.3c-1.47,0-2.59,1.52-3.34,4.56c-0.76,3.04-1.13,7.59-1.13,13.67
			c0,5.89,0.06,9.55,0.17,10.98C238.7,137.1,240.14,139.53,242.63,139.53z"/>
		<path class="st4" d="M274.04,140.04c-3.14,0-5.88-1.68-8.22-5.05c-2.53-3.63-3.8-8.2-3.8-13.72c0-5.52,1.25-10.07,3.74-13.66
			c2.34-3.4,5.1-5.1,8.28-5.1c3.18,0,5.93,1.68,8.28,5.05c2.53,3.63,3.8,8.2,3.8,13.72c0,5.52-1.22,10.02-3.66,13.52
			C280.02,138.29,277.21,140.04,274.04,140.04z M274.04,139.53c1.51,0,2.64-1.53,3.4-4.58c0.76-3.06,1.13-7.62,1.13-13.7
			c0-5.85-0.06-9.49-0.17-10.92c-0.38-4.87-1.83-7.3-4.37-7.3c-1.47,0-2.59,1.52-3.34,4.56c-0.76,3.04-1.13,7.59-1.13,13.67
			c0,5.89,0.06,9.55,0.17,10.98C270.11,137.1,271.54,139.53,274.04,139.53z"/>
		<path class="st4" d="M305.44,140.04c-3.14,0-5.88-1.68-8.22-5.05c-2.53-3.63-3.8-8.2-3.8-13.72c0-5.52,1.25-10.07,3.74-13.66
			c2.34-3.4,5.1-5.1,8.28-5.1c3.18,0,5.93,1.68,8.28,5.05c2.53,3.63,3.8,8.2,3.8,13.72c0,5.52-1.22,10.02-3.66,13.52
			C311.42,138.29,308.62,140.04,305.44,140.04z M305.44,139.53c1.51,0,2.64-1.53,3.4-4.58c0.76-3.06,1.13-7.62,1.13-13.7
			c0-5.85-0.06-9.49-0.17-10.92c-0.38-4.87-1.83-7.3-4.37-7.3c-1.47,0-2.59,1.52-3.34,4.56c-0.76,3.04-1.13,7.59-1.13,13.67
			c0,5.89,0.06,9.55,0.17,10.98C301.51,137.1,302.95,139.53,305.44,139.53z"/>
	</g>
	<g>
		<g>
			<path class="st2" d="M105.55,165.21h2.23v0.96h-2.23v3.05h-1.06v-3.05h-8.62l9.67-13.49V165.21z M104.5,165.21v-9.41l-6.74,9.41
				H104.5z"/>
			<path class="st2" d="M128.59,155.92c-0.98-1.92-2.71-1.97-3.14-1.97c-1.9,0-2.98,1.37-2.98,2.98c0,1.73,1.2,2.3,2.81,3.1
				c1.58,0.77,2.38,1.1,3.19,1.68c0.7,0.48,1.7,1.32,1.7,3.1c0,2.69-2.26,4.68-4.99,4.68c-2.06,0-3.12-0.98-3.72-1.68
				c-0.62-0.72-0.89-1.34-1.03-1.75l0.91-0.43c0.22,0.62,0.62,1.25,0.86,1.54c0.72,0.91,1.9,1.37,3,1.37c2.16,0,3.86-1.58,3.86-3.7
				c0-0.86-0.34-1.78-1.56-2.52c-0.46-0.26-1.39-0.74-2.71-1.39c-1.58-0.77-2.38-1.2-2.93-2.11c-0.36-0.6-0.5-1.2-0.5-1.82
				c0-1.85,1.25-3.98,4.1-3.98c1.61,0,3.07,0.77,3.89,2.28L128.59,155.92z"/>
			<path class="st2" d="M136.63,160.34v8.88h-0.96v-8.88h-1.08v-0.91h1.08v-3.5h0.96v3.5h1.71v0.91H136.63z"/>
			<path class="st2" d="M142.66,159.43h0.96v1.27c0.36-0.84,1.1-1.49,2.16-1.49c0.26,0,0.67,0.05,1.03,0.24l-0.48,0.86
				c-0.1-0.07-0.29-0.19-0.72-0.19c-1.97,0-1.99,2.62-1.99,3.84v5.26h-0.96V159.43z"/>
			<path class="st2" d="M159,159.43h0.96v9.79H159v-1.75c-0.98,1.51-2.54,2.02-3.82,2.02c-2.57,0-4.78-1.94-4.78-5.16
				c0-3.02,1.92-5.11,4.78-5.11c1.54,0,2.88,0.6,3.82,1.92V159.43z M151.42,164.25c0,2.21,1.37,4.32,3.84,4.32
				c2.45,0,3.79-2.06,3.79-4.32c0-2.9-2.14-4.13-3.82-4.13C153.29,160.13,151.42,161.59,151.42,164.25z"/>
			<path class="st2" d="M165.43,156.16c0-0.53,0.38-0.89,0.86-0.89c0.48,0,0.86,0.36,0.86,0.89s-0.38,0.89-0.86,0.89
				C165.82,157.05,165.43,156.69,165.43,156.16z M166.78,159.43v9.79h-0.96v-9.79H166.78z"/>
			<path class="st2" d="M181.66,159.43v9.5c0,3.7-1.85,5.81-4.92,5.81c-2.54,0-4.68-1.49-4.8-4.2h1.01c0.17,2.04,1.7,3.29,3.79,3.29
				c3.87,0,3.96-3.89,3.96-4.9v-1.39c-0.98,1.37-2.47,1.94-3.86,1.94c-2.4,0-4.82-1.75-4.82-5.16c0-2.83,1.87-5.11,4.94-5.11
				c1.61,0,2.9,0.72,3.74,1.92v-1.7H181.66z M173.02,164.37c0,2.35,1.49,4.2,3.79,4.2c2.42,0,3.94-1.9,3.94-4.3
				c0-2.28-1.49-4.15-3.89-4.15C174.43,160.13,173.02,162.12,173.02,164.37z"/>
			<path class="st2" d="M187.51,151.72h0.96v9.24c0.46-0.82,1.34-1.75,3-1.75c1.75,0,2.5,1.03,2.71,1.37
				c0.43,0.7,0.48,1.61,0.48,2.47v6.17h-0.96v-6.17c0-0.67-0.02-1.42-0.38-1.97c-0.22-0.36-0.74-0.96-1.92-0.96
				c-1.34,0-2.04,0.72-2.4,1.37c-0.43,0.77-0.53,1.68-0.53,2.64v5.09h-0.96V151.72z"/>
			<path class="st2" d="M201.07,160.34v8.88h-0.96v-8.88h-1.08v-0.91h1.08v-3.5h0.96v3.5h1.71v0.91H201.07z"/>
			<path class="st2" d="M218.95,162.38l-5.26-9.17h1.2l4.61,8.09l4.7-8.09h1.2l-5.4,9.17v6.84h-1.06V162.38z"/>
			<path class="st2" d="M228.33,164.45c0,2.5,1.82,4.13,3.89,4.13c1.58,0,2.78-0.94,3.41-2.23l0.82,0.48
				c-0.58,1.1-1.87,2.66-4.3,2.66c-3.05,0-4.82-2.26-4.82-5.11c0-3.41,2.35-5.16,4.75-5.16c2.64,0,4.63,2.11,4.63,5.23H228.33z
				 M235.7,163.53c-0.24-1.94-1.68-3.41-3.62-3.41c-1.99,0-3.41,1.51-3.67,3.41H235.7z"/>
			<path class="st2" d="M249.91,159.43h0.96v9.79h-0.96v-1.75c-0.98,1.51-2.54,2.02-3.82,2.02c-2.57,0-4.78-1.94-4.78-5.16
				c0-3.02,1.92-5.11,4.78-5.11c1.54,0,2.88,0.6,3.82,1.92V159.43z M242.33,164.25c0,2.21,1.37,4.32,3.84,4.32
				c2.45,0,3.79-2.06,3.79-4.32c0-2.9-2.14-4.13-3.82-4.13C244.2,160.13,242.33,161.59,242.33,164.25z"/>
			<path class="st2" d="M256.73,159.43h0.96v1.27c0.36-0.84,1.1-1.49,2.16-1.49c0.26,0,0.67,0.05,1.03,0.24l-0.48,0.86
				c-0.1-0.07-0.29-0.19-0.72-0.19c-1.97,0-1.99,2.62-1.99,3.84v5.26h-0.96V159.43z"/>
			<path class="st2" d="M269.04,161.23c-0.34-0.77-1.01-1.1-1.7-1.1c-1.1,0-1.66,0.84-1.66,1.56c0,0.96,0.77,1.27,1.73,1.66
				c0.98,0.38,1.9,0.65,2.52,1.44c0.41,0.5,0.5,1.03,0.5,1.58c0,2.23-1.68,3.12-3.19,3.12c-1.63,0-2.98-0.96-3.38-2.59l0.94-0.29
				c0.34,1.3,1.37,1.97,2.45,1.97c1.25,0,2.18-0.89,2.18-2.16c0-1.1-0.7-1.51-2.18-2.11c-0.98-0.41-1.7-0.72-2.14-1.3
				c-0.22-0.29-0.43-0.7-0.43-1.27c0-1.49,1.13-2.52,2.62-2.52c1.15,0,2.11,0.53,2.57,1.58L269.04,161.23z"/>
		</g>
		<line class="st5" x1="50.81" y1="163.23" x2="87.18" y2="163.23"/>
		<line class="st5" x1="281.28" y1="163.23" x2="317.64" y2="163.23"/>
	</g>
	<line class="st5" x1="369.41" y1="49.95" x2="369.41" y2="227.02"/>
	<g>
		<g>
			<path class="st2" d="M424.09,70.08V54.08h3.22l8.69,10.32V54.08h3.7v16.01h-3.22l-8.69-10.37v10.37H424.09z"/>
			<path class="st2" d="M459.78,56.04c1.51,1.46,2.5,3.58,2.5,6.05c0,2.14-0.77,4.32-2.5,6c-1.49,1.44-3.5,2.35-6.19,2.35
				c-3,0-5.04-1.2-6.24-2.35c-1.54-1.44-2.5-3.6-2.5-5.95c0-2.3,1.03-4.63,2.47-6.07c1.08-1.08,3.07-2.35,6.26-2.35
				C456.08,53.71,458.17,54.48,459.78,56.04z M450.06,58.49c-0.7,0.67-1.42,1.85-1.42,3.62c0,1.46,0.48,2.64,1.46,3.6
				c1.03,0.98,2.18,1.32,3.43,1.32c1.63,0,2.78-0.6,3.55-1.37c0.62-0.6,1.39-1.73,1.39-3.58c0-1.66-0.67-2.88-1.39-3.6
				c-0.79-0.77-2.06-1.37-3.53-1.37C452.17,57.12,450.92,57.63,450.06,58.49z"/>
			<path class="st2" d="M469.02,66.1c1.22,0,2.18,0.96,2.18,2.18s-0.96,2.18-2.18,2.18c-1.22,0-2.18-0.96-2.18-2.18
				S467.79,66.1,469.02,66.1z"/>
			<path class="st4" d="M495.56,70.08h-12.24l4.8-5.23c0.84-0.94,2.11-2.5,2.62-3.26c0.36-0.58,0.96-1.61,0.96-2.71
				c0-0.6-0.24-1.22-0.62-1.58c-0.31-0.29-0.84-0.46-1.46-0.46c-0.7,0-1.15,0.24-1.46,0.58c-0.43,0.48-0.67,1.34-0.67,1.97h-3.7
				c0.12-1.39,0.67-2.98,1.66-4.01c0.77-0.82,2.14-1.66,4.42-1.66c2.33,0,3.58,0.96,4.15,1.51c0.86,0.86,1.49,2.18,1.49,3.84
				c0,1.42-0.43,2.45-1.2,3.53c-0.7,0.96-1.54,1.78-2.57,2.76l-1.68,1.61h5.52V70.08z"/>
			<path class="st4" d="M502.35,69.1c-1.22-1.1-1.54-2.42-1.54-3.48c0-1.37,0.6-2.23,1.08-2.74c0.53-0.55,1.3-0.98,1.99-1.2
				c-0.41-0.17-0.96-0.46-1.46-0.98c-0.72-0.74-0.98-1.56-0.98-2.54c0-1.34,0.5-2.3,1.18-2.98c1.18-1.2,2.71-1.46,4.15-1.46
				c1.39,0,2.93,0.26,4.1,1.46c0.67,0.67,1.18,1.63,1.18,2.98c0,0.98-0.26,1.8-0.98,2.54c-0.5,0.53-1.06,0.82-1.46,0.98
				c0.7,0.22,1.46,0.65,1.99,1.2c0.48,0.5,1.08,1.37,1.08,2.74c0,1.06-0.31,2.38-1.54,3.48c-1.42,1.27-2.9,1.34-4.42,1.34
				C505.28,70.44,503.77,70.37,502.35,69.1z M505.18,63.75c-0.38,0.38-0.62,1.03-0.62,1.58c0,0.58,0.19,1.2,0.62,1.61
				c0.41,0.38,1.01,0.58,1.56,0.58c0.55,0,1.15-0.19,1.56-0.58c0.36-0.34,0.62-0.94,0.62-1.63c0-0.67-0.26-1.22-0.62-1.56
				c-0.38-0.38-0.98-0.58-1.61-0.58S505.52,63.41,505.18,63.75z M505.33,56.98c-0.41,0.38-0.6,0.84-0.6,1.37
				c0,0.67,0.31,1.1,0.6,1.37c0.36,0.31,0.84,0.53,1.42,0.53c0.5,0,0.98-0.14,1.39-0.53c0.41-0.38,0.6-0.82,0.6-1.37
				c0-0.79-0.43-1.22-0.6-1.39c-0.34-0.29-0.82-0.5-1.39-0.5C506.24,56.45,505.76,56.6,505.33,56.98z"/>
		</g>
		<g>
			<path class="st2" d="M438.12,79.49v6h-0.67v-6H438.12z"/>
			<path class="st2" d="M440.57,85.49v-6.26l4.68,4.91v-4.65h0.67v6.27l-4.68-4.91v4.64H440.57z"/>
			<path class="st2" d="M452.03,79.49v5.37h1.66v0.63h-2.32v-6H452.03z"/>
			<path class="st2" d="M458.8,83.8h-2.56l-0.72,1.69h-0.74l2.76-6.29l2.69,6.29h-0.74L458.8,83.8z M458.54,83.17l-1.01-2.4
				l-1.03,2.4H458.54z"/>
			<path class="st2" d="M464.57,80.68c-0.08-0.16-0.22-0.34-0.35-0.45c-0.12-0.09-0.33-0.21-0.67-0.21c-0.59,0-1.01,0.37-1.01,0.93
				c0,0.23,0.06,0.37,0.22,0.52c0.18,0.18,0.41,0.28,0.63,0.38l0.58,0.25c0.35,0.15,0.68,0.31,0.93,0.57
				c0.31,0.31,0.43,0.66,0.43,1.09c0,1.11-0.82,1.85-1.9,1.85c-0.4,0-0.89-0.08-1.3-0.49c-0.3-0.29-0.48-0.7-0.56-1.06l0.65-0.18
				c0.04,0.32,0.19,0.59,0.36,0.77c0.26,0.26,0.56,0.33,0.86,0.33c0.82,0,1.21-0.59,1.21-1.19c0-0.27-0.08-0.5-0.3-0.7
				c-0.17-0.16-0.41-0.27-0.72-0.41l-0.54-0.25c-0.23-0.11-0.53-0.23-0.8-0.5c-0.26-0.25-0.41-0.53-0.41-0.98
				c0-0.93,0.71-1.55,1.68-1.55c0.37,0,0.67,0.07,0.96,0.27c0.24,0.16,0.45,0.41,0.58,0.67L464.57,80.68z"/>
			<path class="st2" d="M470.48,79.49l1.69,4.58l1.69-4.58h0.74l-2.43,6.37l-2.43-6.37H470.48z"/>
			<path class="st2" d="M479.46,80.12h-2.45v1.78h2.38v0.63h-2.38v2.33h2.45v0.63h-3.12v-6h3.12V80.12z"/>
			<path class="st2" d="M484.68,82.48h2.5v0.14c0,0.67-0.2,1.39-0.58,1.9c-0.18,0.24-0.86,1.08-2.23,1.08
				c-1.78,0-3.12-1.36-3.12-3.11s1.34-3.11,3.13-3.11c0.58,0,1.25,0.14,1.84,0.59c0.27,0.21,0.52,0.48,0.69,0.71l-0.5,0.45
				c-0.17-0.24-0.37-0.46-0.57-0.62c-0.29-0.23-0.74-0.5-1.46-0.5c-1.45,0-2.46,1.09-2.46,2.48c0,1.64,1.3,2.47,2.44,2.47
				c0.8,0,1.49-0.41,1.84-1.01c0.11-0.19,0.23-0.48,0.24-0.86h-1.78V82.48z"/>
			<path class="st2" d="M492.62,83.8h-2.56l-0.72,1.69h-0.74l2.76-6.29l2.69,6.29h-0.74L492.62,83.8z M492.36,83.17l-1.01-2.4
				l-1.03,2.4H492.36z"/>
			<path class="st2" d="M498.39,80.68c-0.08-0.16-0.22-0.34-0.35-0.45c-0.12-0.09-0.33-0.21-0.67-0.21c-0.59,0-1.01,0.37-1.01,0.93
				c0,0.23,0.06,0.37,0.22,0.52c0.18,0.18,0.41,0.28,0.63,0.38l0.58,0.25c0.35,0.15,0.68,0.31,0.93,0.57
				c0.31,0.31,0.43,0.66,0.43,1.09c0,1.11-0.82,1.85-1.9,1.85c-0.4,0-0.89-0.08-1.31-0.49c-0.3-0.29-0.48-0.7-0.56-1.06l0.65-0.18
				c0.04,0.32,0.19,0.59,0.36,0.77c0.26,0.26,0.56,0.33,0.86,0.33c0.82,0,1.21-0.59,1.21-1.19c0-0.27-0.08-0.5-0.3-0.7
				c-0.17-0.16-0.41-0.27-0.72-0.41l-0.54-0.25c-0.23-0.11-0.53-0.23-0.8-0.5c-0.26-0.25-0.41-0.53-0.41-0.98
				c0-0.93,0.71-1.55,1.68-1.55c0.37,0,0.67,0.07,0.96,0.27c0.24,0.16,0.45,0.41,0.58,0.67L498.39,80.68z"/>
		</g>
	</g>
	<path class="st2" d="M424.09,138.28v-16.01h3.22l8.69,10.32v-10.32h3.7v16.01h-3.22l-8.69-10.37v10.37H424.09z"/>
	<path class="st2" d="M459.78,124.24c1.51,1.46,2.5,3.58,2.5,6.05c0,2.14-0.77,4.32-2.5,6c-1.49,1.44-3.5,2.35-6.19,2.35
		c-3,0-5.04-1.2-6.24-2.35c-1.54-1.44-2.5-3.6-2.5-5.95c0-2.3,1.03-4.63,2.47-6.07c1.08-1.08,3.07-2.35,6.26-2.35
		C456.08,121.91,458.17,122.68,459.78,124.24z M450.06,126.69c-0.7,0.67-1.42,1.85-1.42,3.62c0,1.46,0.48,2.64,1.46,3.6
		c1.03,0.98,2.18,1.32,3.43,1.32c1.63,0,2.78-0.6,3.55-1.37c0.62-0.6,1.39-1.73,1.39-3.58c0-1.66-0.67-2.88-1.39-3.6
		c-0.79-0.77-2.06-1.37-3.53-1.37C452.17,125.32,450.92,125.82,450.06,126.69z"/>
	<path class="st2" d="M469.02,134.3c1.22,0,2.18,0.96,2.18,2.18s-0.96,2.18-2.18,2.18c-1.22,0-2.18-0.96-2.18-2.18
		S467.79,134.3,469.02,134.3z"/>
	<path class="st4" d="M483.82,127.07c0.14-1.34,0.74-2.76,1.58-3.62c1.18-1.22,2.74-1.51,4.06-1.51c1.97,0,3.38,0.6,4.2,1.42
		c0.67,0.65,1.22,1.7,1.22,3.26c0,0.79-0.14,1.49-0.65,2.18c-0.34,0.48-0.74,0.79-1.2,1.01c0.67,0.24,1.39,0.7,1.82,1.3
		c0.48,0.65,0.74,1.66,0.74,2.52c0,1.22-0.48,2.62-1.61,3.65c-1.37,1.25-2.93,1.39-4.22,1.39c-1.56,0-3.26-0.24-4.68-1.66
		c-0.91-0.94-1.61-2.35-1.78-3.96h3.7c0.05,0.62,0.34,1.37,0.77,1.8c0.38,0.38,1.01,0.65,1.78,0.65c0.62,0,1.22-0.19,1.61-0.55
		c0.38-0.36,0.65-0.98,0.65-1.63c0-0.67-0.31-1.22-0.7-1.54c-0.58-0.46-1.42-0.5-1.97-0.5h-0.29v-2.54h0.22
		c0.22,0,1.08-0.02,1.61-0.46c0.34-0.29,0.6-0.79,0.6-1.44c0-0.55-0.22-1.01-0.53-1.3c-0.29-0.26-0.77-0.48-1.37-0.48
		c-0.62,0-1.13,0.22-1.44,0.53c-0.34,0.36-0.55,0.98-0.58,1.49H483.82z"/>
	<path class="st4" d="M511.02,136.98c-0.94,0.91-2.33,1.66-4.3,1.66c-1.92,0-3.29-0.72-4.25-1.66c-1.56-1.54-2.3-3.96-2.3-6.7
		c0-2.76,0.74-5.21,2.3-6.72c0.96-0.94,2.33-1.66,4.25-1.66c1.97,0,3.36,0.74,4.3,1.66c1.56,1.51,2.3,3.96,2.3,6.72
		C513.32,133.02,512.58,135.45,511.02,136.98z M505.26,125.68c-1.18,1.15-1.34,3.46-1.34,4.58c0,1.25,0.22,3.5,1.34,4.61
		c0.43,0.41,0.86,0.6,1.49,0.6s1.06-0.19,1.49-0.6c1.13-1.1,1.34-3.36,1.34-4.61c0-1.13-0.17-3.43-1.34-4.58
		c-0.43-0.41-0.86-0.6-1.49-0.6S505.69,125.27,505.26,125.68z"/>
	<g>
		<path class="st2" d="M444.05,148.38v6h-0.67v-6H444.05z"/>
		<path class="st2" d="M446.5,154.39v-6.26l4.68,4.91v-4.65h0.67v6.27l-4.68-4.91v4.64H446.5z"/>
		<path class="st2" d="M457.29,154.39v-6.26l4.68,4.91v-4.65h0.67v6.27l-4.68-4.91v4.64H457.29z"/>
		<path class="st2" d="M468.2,149.01h-2.45v1.78h2.38v0.63h-2.38v2.33h2.45v0.63h-3.12v-6h3.12V149.01z"/>
		<path class="st2" d="M470.36,148.38l1.69,4.58l1.69-4.58h0.74l-2.43,6.37l-2.43-6.37H470.36z"/>
		<path class="st2" d="M479.07,152.7h-2.56l-0.72,1.69h-0.74l2.76-6.29l2.69,6.29h-0.74L479.07,152.7z M478.81,152.06l-1.01-2.4
			l-1.03,2.4H478.81z"/>
		<path class="st2" d="M482.25,148.38h1.22c0.6,0,1.46,0.06,2.21,0.7c0.55,0.46,1.03,1.22,1.03,2.3c0,1.26-0.62,1.94-1.05,2.3
			c-0.55,0.47-1.13,0.69-2.2,0.69h-1.21V148.38z M482.92,153.76h0.58c0.48,0,1.13-0.05,1.72-0.54c0.45-0.38,0.81-0.97,0.81-1.83
			c0-1.44-1.01-2.38-2.53-2.38h-0.58V153.76z"/>
		<path class="st2" d="M492.16,152.7h-2.56l-0.72,1.69h-0.74l2.76-6.29l2.69,6.29h-0.74L492.16,152.7z M491.89,152.06l-1.01-2.4
			l-1.03,2.4H491.89z"/>
	</g>
	<path class="st2" d="M424.09,206.86v-16.01h3.22l8.69,10.32v-10.32h3.7v16.01h-3.22l-8.69-10.37v10.37H424.09z"/>
	<path class="st2" d="M459.78,192.82c1.51,1.46,2.5,3.58,2.5,6.05c0,2.14-0.77,4.32-2.5,6c-1.49,1.44-3.5,2.35-6.19,2.35
		c-3,0-5.04-1.2-6.24-2.35c-1.54-1.44-2.5-3.6-2.5-5.95c0-2.3,1.03-4.63,2.47-6.07c1.08-1.08,3.07-2.35,6.26-2.35
		C456.08,190.49,458.17,191.26,459.78,192.82z M450.06,195.27c-0.7,0.67-1.42,1.85-1.42,3.62c0,1.46,0.48,2.64,1.46,3.6
		c1.03,0.98,2.18,1.32,3.43,1.32c1.63,0,2.78-0.6,3.55-1.37c0.62-0.6,1.39-1.73,1.39-3.58c0-1.66-0.67-2.88-1.39-3.6
		c-0.79-0.77-2.06-1.37-3.53-1.37C452.17,193.9,450.92,194.4,450.06,195.27z"/>
	<path class="st2" d="M469.02,202.88c1.22,0,2.18,0.96,2.18,2.18c0,1.22-0.96,2.18-2.18,2.18c-1.22,0-2.18-0.96-2.18-2.18
		C466.83,203.84,467.79,202.88,469.02,202.88z"/>
	<path class="st4" d="M486.22,206.81l4.22-5.23c-0.55,0.17-1.08,0.24-1.61,0.24c-1.73,0-3.14-0.6-4.03-1.49
		c-0.86-0.86-1.39-2.14-1.39-3.86c0-2.38,1.08-3.67,1.56-4.18c1.56-1.63,3.74-1.8,5.02-1.8c2.52,0,3.96,0.84,4.8,1.61
		c0.79,0.74,1.63,2.06,1.63,4.06c0,1.01-0.24,2.18-0.72,3.26c-0.41,0.89-1.13,1.99-1.87,2.98l-3.65,4.82L486.22,206.81z
		 M488.05,194.24c-0.31,0.29-0.84,0.91-0.84,2.02c0,1.01,0.36,1.66,0.82,2.06c0.5,0.46,1.22,0.67,1.94,0.67
		c0.82,0,1.49-0.29,1.94-0.7c0.38-0.36,0.82-1.01,0.82-2.11c0-0.77-0.24-1.39-0.82-1.94c-0.38-0.36-1.01-0.72-1.94-0.72
		C489.22,193.52,488.53,193.78,488.05,194.24z"/>
	<path class="st4" d="M502.35,205.88c-1.22-1.1-1.54-2.42-1.54-3.48c0-1.37,0.6-2.23,1.08-2.74c0.53-0.55,1.3-0.98,1.99-1.2
		c-0.41-0.17-0.96-0.46-1.46-0.98c-0.72-0.74-0.98-1.56-0.98-2.54c0-1.34,0.5-2.3,1.18-2.98c1.18-1.2,2.71-1.46,4.15-1.46
		c1.39,0,2.93,0.26,4.1,1.46c0.67,0.67,1.18,1.63,1.18,2.98c0,0.98-0.26,1.8-0.98,2.54c-0.5,0.53-1.06,0.82-1.46,0.98
		c0.7,0.22,1.46,0.65,1.99,1.2c0.48,0.5,1.08,1.37,1.08,2.74c0,1.06-0.31,2.38-1.54,3.48c-1.42,1.27-2.9,1.34-4.42,1.34
		C505.28,207.22,503.77,207.15,502.35,205.88z M505.18,200.53c-0.38,0.38-0.62,1.03-0.62,1.58c0,0.58,0.19,1.2,0.62,1.61
		c0.41,0.38,1.01,0.58,1.56,0.58c0.55,0,1.15-0.19,1.56-0.58c0.36-0.34,0.62-0.94,0.62-1.63c0-0.67-0.26-1.22-0.62-1.56
		c-0.38-0.38-0.98-0.58-1.61-0.58S505.52,200.19,505.18,200.53z M505.33,193.76c-0.41,0.38-0.6,0.84-0.6,1.37
		c0,0.67,0.31,1.1,0.6,1.37c0.36,0.31,0.84,0.53,1.42,0.53c0.5,0,0.98-0.14,1.39-0.53c0.41-0.38,0.6-0.82,0.6-1.37
		c0-0.79-0.43-1.22-0.6-1.39c-0.34-0.29-0.82-0.5-1.39-0.5C506.24,193.23,505.76,193.37,505.33,193.76z"/>
	<g>
		<path class="st2" d="M421.84,216.98v6h-0.67v-6H421.84z"/>
		<path class="st2" d="M424.28,222.99v-6.26l4.68,4.91v-4.65h0.67v6.27l-4.68-4.91v4.64H424.28z"/>
		<path class="st2" d="M434.87,222.99l1-6.34l2.3,5.07l2.35-5.08l0.94,6.35h-0.68l-0.57-4.18l-2.04,4.43l-2.02-4.43l-0.59,4.18
			H434.87z"/>
		<path class="st2" d="M447.05,221.29h-2.56l-0.72,1.69h-0.74l2.76-6.29l2.69,6.29h-0.74L447.05,221.29z M446.79,220.66l-1.01-2.4
			l-1.03,2.4H446.79z"/>
		<path class="st2" d="M450.24,222.99v-6.26l4.68,4.91v-4.65h0.67v6.27l-4.68-4.91v4.64H450.24z"/>
		<path class="st2" d="M461.34,221.29h-2.56l-0.72,1.69h-0.74l2.76-6.29l2.69,6.29h-0.74L461.34,221.29z M461.08,220.66l-1.01-2.4
			l-1.03,2.4H461.08z"/>
		<path class="st2" d="M467.27,217.61h-2.07v1.77h2v0.63h-2v2.97h-0.67v-6h2.74V217.61z"/>
		<path class="st2" d="M472.35,221.29h-2.56l-0.72,1.69h-0.74l2.76-6.29l2.69,6.29h-0.74L472.35,221.29z M472.09,220.66l-1.01-2.4
			l-1.03,2.4H472.09z"/>
		<path class="st2" d="M479.94,218.31c-0.19-0.19-0.48-0.41-0.78-0.56c-0.31-0.14-0.68-0.23-1.04-0.23c-1.39,0-2.41,1.12-2.41,2.5
			c0,1.63,1.32,2.45,2.42,2.45c0.41,0,0.8-0.12,1.12-0.28c0.34-0.17,0.58-0.4,0.69-0.5v0.83c-0.67,0.48-1.36,0.58-1.81,0.58
			c-1.78,0-3.11-1.35-3.11-3.09c0-1.79,1.34-3.12,3.14-3.12c0.36,0,1.05,0.05,1.77,0.59V218.31z"/>
		<path class="st2" d="M483.54,217.61v5.38h-0.67v-5.38h-1.46v-0.63h3.58v0.63H483.54z"/>
		<path class="st2" d="M487.46,220.66c0,0.5,0,1.05,0.48,1.46c0.24,0.21,0.66,0.34,0.99,0.34s0.75-0.13,0.99-0.34
			c0.48-0.41,0.48-0.95,0.48-1.46v-3.68h0.67v3.86c0,0.5-0.05,0.99-0.38,1.44c-0.36,0.5-0.99,0.81-1.75,0.81
			c-0.77,0-1.4-0.31-1.76-0.81c-0.32-0.45-0.38-0.94-0.38-1.44v-3.86h0.67V220.66z"/>
		<path class="st2" d="M494.47,216.98c0.41,0,1.01,0.03,1.46,0.33c0.35,0.23,0.66,0.69,0.66,1.33c0,0.92-0.6,1.59-1.51,1.66
			l1.91,2.68h-0.81l-1.83-2.63h-0.17v2.63h-0.67v-6H494.47z M494.17,219.76h0.42c0.83,0,1.32-0.4,1.32-1.1
			c0-0.33-0.1-0.67-0.48-0.88c-0.27-0.15-0.58-0.17-0.86-0.17h-0.41V219.76z"/>
		<path class="st2" d="M499.59,216.98v6h-0.67v-6H499.59z"/>
		<path class="st2" d="M502.04,222.99v-6.26l4.68,4.91v-4.65h0.67v6.27l-4.68-4.91v4.64H502.04z"/>
		<path class="st2" d="M512.93,219.97h2.5v0.14c0,0.67-0.2,1.39-0.58,1.9c-0.18,0.24-0.86,1.08-2.23,1.08
			c-1.78,0-3.12-1.36-3.12-3.11c0-1.75,1.34-3.11,3.13-3.11c0.58,0,1.25,0.14,1.84,0.59c0.27,0.21,0.52,0.48,0.69,0.71l-0.5,0.45
			c-0.17-0.24-0.37-0.46-0.57-0.62c-0.29-0.23-0.74-0.5-1.46-0.5c-1.45,0-2.46,1.09-2.46,2.48c0,1.64,1.3,2.47,2.44,2.47
			c0.8,0,1.49-0.41,1.84-1.01c0.11-0.19,0.23-0.48,0.24-0.86h-1.78V219.97z"/>
	</g>
	<g>
		<path class="st2" d="M50.9,192.51l2.19-2.53c0.15-0.18,0.56-0.66,0.7-0.87c0.27-0.39,0.33-0.67,0.33-0.92
			c0-0.67-0.49-1.17-1.2-1.17c-0.42,0-0.77,0.19-1,0.53c-0.12,0.18-0.19,0.41-0.2,0.71h-0.67c0.03-0.6,0.22-0.97,0.45-1.24
			c0.25-0.29,0.67-0.61,1.42-0.61c1.06,0,1.85,0.76,1.85,1.79c0,0.41-0.12,0.77-0.48,1.29c-0.25,0.35-0.58,0.72-0.82,1l-1.25,1.41
			h2.54v0.61H50.9z"/>
		<path class="st2" d="M57.25,191.72c-0.4-0.58-0.6-1.35-0.6-2.21s0.21-1.63,0.6-2.21c0.46-0.67,1.06-0.9,1.54-0.9
			c0.48,0,1.08,0.23,1.54,0.9c0.4,0.58,0.6,1.35,0.6,2.21s-0.21,1.63-0.6,2.21c-0.46,0.67-1.06,0.9-1.54,0.9
			C58.31,192.62,57.71,192.38,57.25,191.72z M57.75,187.68c-0.32,0.51-0.44,1.2-0.44,1.83s0.12,1.31,0.44,1.83
			c0.32,0.5,0.73,0.67,1.04,0.67c0.31,0,0.72-0.16,1.04-0.67c0.32-0.51,0.44-1.2,0.44-1.83s-0.12-1.31-0.44-1.83
			c-0.31-0.5-0.73-0.67-1.04-0.67C58.48,187.02,58.07,187.18,57.75,187.68z"/>
		<path class="st2" d="M63.74,187.14h-1.01l0.35-0.63h1.32v6h-0.67V187.14z"/>
		<path class="st2" d="M70.23,187.12h-3.29v-0.61h4.41l-4.02,6.15l-0.52-0.35L70.23,187.12z"/>
	</g>
	<g>
		<path class="st2" d="M133.08,192.53l2.19-2.53c0.15-0.18,0.56-0.66,0.7-0.87c0.27-0.39,0.33-0.67,0.33-0.92
			c0-0.67-0.49-1.17-1.2-1.17c-0.42,0-0.77,0.19-1,0.53c-0.12,0.18-0.19,0.41-0.2,0.71h-0.67c0.03-0.6,0.22-0.97,0.45-1.24
			c0.25-0.29,0.67-0.61,1.42-0.61c1.06,0,1.85,0.76,1.85,1.79c0,0.41-0.12,0.77-0.48,1.29c-0.25,0.35-0.58,0.72-0.82,1l-1.25,1.41
			h2.54v0.61H133.08z"/>
		<path class="st2" d="M139.44,191.74c-0.4-0.58-0.6-1.35-0.6-2.21s0.21-1.63,0.6-2.21c0.46-0.67,1.06-0.9,1.54-0.9
			c0.48,0,1.08,0.23,1.54,0.9c0.4,0.58,0.6,1.35,0.6,2.21s-0.21,1.63-0.6,2.21c-0.46,0.67-1.06,0.9-1.54,0.9
			C140.5,192.64,139.9,192.4,139.44,191.74z M139.94,187.7c-0.32,0.51-0.44,1.2-0.44,1.83s0.12,1.31,0.44,1.83
			c0.32,0.5,0.73,0.67,1.04,0.67c0.31,0,0.72-0.16,1.04-0.67c0.32-0.51,0.44-1.2,0.44-1.83s-0.12-1.31-0.44-1.83
			c-0.31-0.5-0.73-0.67-1.04-0.67C140.67,187.04,140.26,187.2,139.94,187.7z"/>
		<path class="st2" d="M145.93,187.15h-1.01l0.35-0.63h1.32v6h-0.67V187.15z"/>
		<path class="st2" d="M152.81,190.87c0,0.94-0.61,1.76-1.84,1.76s-1.84-0.83-1.84-1.76c0-0.65,0.3-1.2,0.91-1.47
			c-0.48-0.28-0.73-0.76-0.73-1.31c0-0.86,0.58-1.67,1.66-1.67s1.66,0.81,1.66,1.67c0,0.56-0.25,1.04-0.73,1.31
			C152.52,189.67,152.81,190.22,152.81,190.87z M152.15,190.85c0-0.67-0.49-1.14-1.17-1.14c-0.68,0-1.17,0.47-1.17,1.14
			c0,0.68,0.48,1.17,1.17,1.17S152.15,191.54,152.15,190.85z M152,188.1c0-0.66-0.48-1.06-1.03-1.06s-1.03,0.4-1.03,1.06
			c0,0.59,0.44,1.04,1.03,1.04S152,188.69,152,188.1z"/>
	</g>
	<g>
		<path class="st2" d="M214.73,192.51l2.19-2.53c0.15-0.18,0.56-0.66,0.7-0.87c0.27-0.39,0.33-0.67,0.33-0.92
			c0-0.67-0.49-1.17-1.2-1.17c-0.42,0-0.77,0.19-1,0.53c-0.12,0.18-0.19,0.41-0.2,0.71h-0.67c0.03-0.6,0.22-0.97,0.45-1.24
			c0.25-0.29,0.67-0.61,1.42-0.61c1.06,0,1.85,0.76,1.85,1.79c0,0.41-0.12,0.77-0.48,1.29c-0.25,0.35-0.58,0.72-0.82,1l-1.25,1.41
			h2.54v0.61H214.73z"/>
		<path class="st2" d="M221.09,191.72c-0.4-0.58-0.6-1.35-0.6-2.21s0.21-1.63,0.6-2.21c0.46-0.67,1.06-0.9,1.54-0.9
			c0.48,0,1.08,0.23,1.54,0.9c0.4,0.58,0.6,1.35,0.6,2.21s-0.21,1.63-0.6,2.21c-0.46,0.67-1.06,0.9-1.54,0.9
			C222.15,192.62,221.55,192.38,221.09,191.72z M221.59,187.68c-0.32,0.51-0.44,1.2-0.44,1.83s0.12,1.31,0.44,1.83
			c0.32,0.5,0.73,0.67,1.04,0.67c0.31,0,0.72-0.16,1.04-0.67c0.32-0.51,0.44-1.2,0.44-1.83s-0.12-1.31-0.44-1.83
			c-0.31-0.5-0.73-0.67-1.04-0.67C222.32,187.02,221.91,187.18,221.59,187.68z"/>
		<path class="st2" d="M227.58,187.14h-1.01l0.35-0.63h1.32v6h-0.67V187.14z"/>
		<path class="st2" d="M231.77,192.29l1.38-1.92c-0.17,0.05-0.34,0.08-0.53,0.08c-1.15,0-1.94-0.86-1.94-1.98
			c0-1.2,0.86-2.06,2.06-2.06c1.41,0,2.08,1.1,2.08,2.04c0,0.23-0.04,0.76-0.5,1.38l-2.04,2.83L231.77,192.29z M231.34,188.45
			c0,0.8,0.59,1.39,1.41,1.39s1.4-0.6,1.4-1.39c0-0.8-0.57-1.43-1.4-1.43C231.92,187.02,231.34,187.64,231.34,188.45z"/>
	</g>
	<g>
		<path class="st2" d="M295.68,192.53l2.19-2.53c0.15-0.18,0.56-0.66,0.7-0.87c0.27-0.39,0.33-0.67,0.33-0.92
			c0-0.67-0.49-1.17-1.2-1.17c-0.42,0-0.77,0.19-1,0.53c-0.12,0.18-0.19,0.41-0.2,0.71h-0.67c0.03-0.6,0.22-0.97,0.45-1.24
			c0.25-0.29,0.67-0.61,1.42-0.61c1.06,0,1.85,0.76,1.85,1.79c0,0.41-0.12,0.77-0.48,1.29c-0.25,0.35-0.58,0.72-0.82,1l-1.25,1.41
			h2.54v0.61H295.68z"/>
		<path class="st2" d="M302.04,191.74c-0.4-0.58-0.6-1.35-0.6-2.21s0.21-1.63,0.6-2.21c0.46-0.67,1.06-0.9,1.54-0.9
			c0.48,0,1.08,0.23,1.54,0.9c0.4,0.58,0.6,1.35,0.6,2.21s-0.21,1.63-0.6,2.21c-0.46,0.67-1.06,0.9-1.54,0.9
			C303.1,192.64,302.5,192.4,302.04,191.74z M302.54,187.7c-0.32,0.51-0.44,1.2-0.44,1.83s0.12,1.31,0.44,1.83
			c0.32,0.5,0.73,0.67,1.04,0.67c0.31,0,0.72-0.16,1.04-0.67c0.32-0.51,0.44-1.2,0.44-1.83s-0.12-1.31-0.44-1.83
			c-0.31-0.5-0.73-0.67-1.04-0.67C303.27,187.04,302.86,187.2,302.54,187.7z"/>
		<path class="st2" d="M307.48,192.53l2.19-2.53c0.15-0.18,0.56-0.66,0.7-0.87c0.27-0.39,0.33-0.67,0.33-0.92
			c0-0.67-0.49-1.17-1.2-1.17c-0.42,0-0.77,0.19-1,0.53c-0.12,0.18-0.19,0.41-0.2,0.71h-0.67c0.03-0.6,0.22-0.97,0.45-1.24
			c0.25-0.29,0.67-0.61,1.42-0.61c1.06,0,1.85,0.76,1.85,1.79c0,0.41-0.12,0.77-0.48,1.29c-0.25,0.35-0.58,0.72-0.82,1l-1.25,1.41
			h2.54v0.61H307.48z"/>
		<path class="st2" d="M313.84,191.74c-0.4-0.58-0.6-1.35-0.6-2.21s0.21-1.63,0.6-2.21c0.46-0.67,1.06-0.9,1.54-0.9
			c0.48,0,1.08,0.23,1.54,0.9c0.4,0.58,0.6,1.35,0.6,2.21s-0.21,1.63-0.6,2.21c-0.46,0.67-1.06,0.9-1.54,0.9
			C314.9,192.64,314.29,192.4,313.84,191.74z M314.34,187.7c-0.32,0.51-0.44,1.2-0.44,1.83s0.12,1.31,0.44,1.83
			c0.32,0.5,0.73,0.67,1.04,0.67c0.31,0,0.72-0.16,1.04-0.67c0.32-0.51,0.44-1.2,0.44-1.83s-0.12-1.31-0.44-1.83
			c-0.31-0.5-0.73-0.67-1.04-0.67C315.07,187.04,314.65,187.2,314.34,187.7z"/>
	</g>
</g>
</svg>
