<?xml version="1.0" encoding="utf-8"?>
<!-- Generator: Adobe Illustrator 21.1.0, SVG Export Plug-In . SVG Version: 6.00 Build 0)  -->
<svg version="1.1" id="Layer_1" xmlns="http://www.w3.org/2000/svg" xmlns:xlink="http://www.w3.org/1999/xlink" x="0px" y="0px"
	 viewBox="0 0 66.8 44.5" style="enable-background:new 0 0 66.8 44.5;" xml:space="preserve">
<style type="text/css">
	.st0{fill:none;stroke:#010101;stroke-width:3;stroke-linecap:round;stroke-miterlimit:10;}
	.st1{fill:none;stroke:#ED1C24;stroke-width:3;stroke-linecap:round;stroke-miterlimit:10;}
	.st2{fill:none;stroke:#231F20;stroke-width:2;stroke-linecap:round;stroke-miterlimit:10;}
	.st3{fill:none;stroke:#000000;stroke-width:2;stroke-linecap:round;stroke-miterlimit:10;}
	.st4{fill:#ED1C24;}
</style>
<title>cue</title>
<path class="st0" d="M16.9,14.8c0,0,5.8-8.6,13.5,0"/>
<path class="st0" d="M19.8,17.8c0,0,3.3-4.9,7.7,0"/>
<path class="st0" d="M13.5,12.2c0,0,9-13.2,20.1,0"/>
<path class="st1" d="M39.3,35.4c0,0,5.7-8.5,13.3,0"/>
<path class="st1" d="M42.1,38.3c0,0,3.3-4.9,7.6,0"/>
<path class="st1" d="M35.9,32.8c0,0,8.8-13,19.8,0"/>
<path class="st2" d="M30.1,13.3"/>
<circle cx="23.6" cy="20.8" r="1.8"/>
<g>
	<g>
		<path class="st3" d="M28.2,33.4c0,0,0.1,3.3,0.2,4.8c0,0.2-0.1,0.3-0.2,0.3c-0.1,0-0.2,0-0.2-0.1l-7-6.1"/>
		<path class="st3" d="M22.7,39c0,0,3.6-0.2,5.1-0.3c0.2,0,0.2-0.1,0.2-0.2c0-0.1,0-0.1-0.1-0.2l-11.2-9.6"/>
		<ellipse cx="28.1" cy="38.4" rx="1.1" ry="1.1"/>
	</g>
	<g>
		<path class="st3" d="M49.8,10.6c0,0,0.1,3.3,0.2,4.8c0,0.2-0.1,0.3-0.2,0.3c-0.1,0-0.2,0-0.2-0.1l-7-6.1"/>
		<path class="st3" d="M44.3,16.2c0,0,3.6-0.2,5.1-0.3c0.2,0,0.2-0.1,0.2-0.2c0-0.1,0-0.1-0.1-0.2L38.4,5.9"/>
		<ellipse cx="49.7" cy="15.6" rx="1.1" ry="1.1"/>
	</g>
</g>
<circle class="st4" cx="45.8" cy="41.2" r="1.7"/>
</svg>
