<svg id="Layer_1" data-name="Layer 1" xmlns="http://www.w3.org/2000/svg" viewBox="0 0 296.44 220.88"><defs><style>.cls-1,.cls-2,.cls-3,.cls-4,.cls-5{fill:none;stroke-linecap:round;stroke-linejoin:round;}.cls-1{stroke:#f15a29;stroke-width:5.15px;}.cls-2{stroke:#febc12;}.cls-2,.cls-4{stroke-width:3.79px;}.cls-3{stroke:#2b3990;stroke-width:5.45px;}.cls-4{stroke:#37c6f4;}.cls-5{stroke:#000;stroke-width:11.36px;}</style></defs><title>thermal-management</title><line class="cls-1" x1="81.12" y1="82.15" x2="106.6" y2="107.63"/><line class="cls-1" x1="106.6" y1="107.88" x2="81.12" y2="133.36"/><line class="cls-1" x1="104.71" y1="107.95" x2="41.7" y2="107.95"/><line class="cls-2" x1="30.89" y1="139.88" x2="49.64" y2="158.62"/><line class="cls-2" x1="49.64" y1="158.81" x2="30.89" y2="177.55"/><line class="cls-2" x1="48.24" y1="158.85" x2="1.89" y2="158.85"/><line class="cls-2" x1="30.89" y1="37.96" x2="49.64" y2="56.7"/><line class="cls-2" x1="49.64" y1="56.89" x2="30.89" y2="75.63"/><line class="cls-2" x1="48.24" y1="56.94" x2="1.89" y2="56.94"/><line class="cls-3" x1="203.16" y1="81.43" x2="230.14" y2="108.41"/><line class="cls-3" x1="230.14" y1="108.68" x2="203.16" y2="135.66"/><line class="cls-3" x1="229.45" y1="108.75" x2="162.73" y2="108.75"/><line class="cls-4" x1="275.81" y1="52.47" x2="294.55" y2="71.22"/><line class="cls-4" x1="294.55" y1="71.41" x2="275.81" y2="90.15"/><line class="cls-4" x1="294.07" y1="71.45" x2="247.72" y2="71.45"/><line class="cls-4" x1="275.81" y1="126.94" x2="294.55" y2="145.68"/><line class="cls-4" x1="294.55" y1="145.87" x2="275.81" y2="164.61"/><line class="cls-4" x1="294.07" y1="145.92" x2="247.72" y2="145.92"/><polyline class="cls-5" points="242.01 23.35 135.99 5.68 135.99 215.2 239.49 192.48"/></svg>